<svg width="315" height="63" viewBox="0 0 315 63" fill="none" xmlns="http://www.w3.org/2000/svg">
<path d="M0 8C0 5.23858 2.23858 3 5 3H310C312.761 3 315 5.23858 315 8V58C315 60.7614 312.761 63 310 63H5C2.23858 63 0 60.7614 0 58V8Z" fill="#FF9C37"/>
<path d="M0 5C0 2.23858 2.23858 0 5 0H310C312.761 0 315 2.23858 315 5V55C315 57.7614 312.761 60 310 60H5C2.23858 60 0 57.7614 0 55V5Z" fill="url(#paint0_linear_344_72)"/>
<path d="M281.892 16.1201L281.802 14.0141C282.216 14.0861 282.666 14.1041 283.62 14.1041C284.7 14.1041 286.302 14.0321 286.968 13.9421C287.328 13.9061 287.454 13.8701 287.688 13.7261L289.11 14.9501C288.948 15.1661 288.858 15.3641 288.732 15.7061C288.642 15.9221 287.544 19.2341 287.382 19.7921C288.786 19.9901 289.992 20.3321 291.36 20.9261C291.504 20.0081 291.54 19.2701 291.54 17.5961C291.54 17.2001 291.522 17.0021 291.468 16.6421L293.736 16.7321C293.664 17.1101 293.646 17.2541 293.628 17.9381C293.574 19.5221 293.484 20.6021 293.304 21.7541C293.88 22.0421 294.672 22.4561 295.23 22.7801C295.716 23.0681 295.788 23.0861 296.058 23.2121L295.248 25.5881C294.726 25.1381 293.682 24.4361 292.764 23.9141C292.26 25.2461 291.72 26.1281 290.802 27.0821C290.01 27.9101 289.11 28.5761 288.084 29.1161C287.328 28.1801 287.148 28.0001 286.446 27.4961C287.796 26.8481 288.498 26.3801 289.236 25.6061C289.956 24.8321 290.55 23.8601 290.838 22.9421C289.56 22.3301 288.498 21.9881 286.788 21.7001C285.996 24.0761 285.528 25.2281 285.006 26.1281C284.34 27.2801 283.53 27.8381 282.54 27.8381C280.884 27.8381 279.66 26.3801 279.66 24.4181C279.66 22.7621 280.47 21.3581 281.892 20.4761C282.828 19.9001 283.782 19.6661 285.294 19.6121C285.762 18.1901 285.978 17.5061 286.428 15.8501C285.51 15.9221 285.078 15.9401 283.314 16.0121C282.576 16.0481 282.252 16.0661 281.892 16.1201ZM284.736 21.5021C283.53 21.6821 282.9 21.9701 282.342 22.5821C281.892 23.0681 281.658 23.6801 281.658 24.3101C281.658 25.0481 282.054 25.6421 282.54 25.6421C282.882 25.6421 283.152 25.3181 283.566 24.5081C283.926 23.7881 284.358 22.6721 284.736 21.5021Z" fill="#B33B22"/>
<path d="M267.222 15.3461H265.404C264.792 15.3461 264.36 15.3641 263.91 15.4361V13.4921C264.306 13.5641 264.684 13.5821 265.404 13.5821H267.978C268.554 13.5821 268.95 13.5641 269.292 13.5101C269.256 13.9241 269.256 14.1761 269.256 14.4821C269.256 16.2461 269.67 18.0641 270.444 19.7021C271.362 21.6821 272.442 22.9241 274.404 24.3281C273.9 24.9401 273.594 25.4441 273.216 26.2181C271.902 25.2281 271.164 24.5081 270.336 23.4101C269.436 22.2041 268.932 21.1061 268.32 19.1441C267.87 21.0521 267.366 22.1861 266.358 23.5361C265.692 24.4541 265.134 25.0301 263.928 26.0021C263.442 25.3541 263.172 25.0661 262.506 24.4361C263.604 23.6441 264.144 23.1041 264.882 22.1321C265.836 20.8541 266.52 19.3781 266.88 17.8481C267.06 17.1101 267.132 16.5881 267.222 15.3461ZM258.168 14.4821L259.608 13.1321C260.904 14.2661 261.876 15.2741 262.758 16.4261L261.264 17.8841C260.148 16.3721 259.572 15.7421 258.168 14.4821ZM257.898 21.6101V19.6301C258.366 19.7021 258.654 19.7201 259.338 19.7201H260.814C261.354 19.7201 261.768 19.7021 262.182 19.6301C262.128 20.2241 262.11 20.6021 262.11 21.6101V25.3721C262.38 25.9481 262.542 26.1281 263.136 26.5241C264 27.0641 264.936 27.1901 268.032 27.1901C270.642 27.1901 272.928 27.0641 274.71 26.8121C274.404 27.6761 274.296 28.1261 274.17 28.9541C272.568 29.0081 269.958 29.0621 268.716 29.0621C265.764 29.0621 264.306 28.9541 263.37 28.6481C262.434 28.3601 261.786 27.8741 261.084 26.9561C260.508 27.5321 260.076 27.9101 259.23 28.5581C258.924 28.7921 258.816 28.8821 258.69 28.9901C258.51 29.1341 258.51 29.1341 258.42 29.2061L257.538 27.1541C258.312 26.8301 259.446 26.0741 260.22 25.3901V21.5201H259.122C258.618 21.5201 258.348 21.5381 257.898 21.6101Z" fill="#B33B22"/>
<path d="M239.124 13.6179L241.644 13.6539C241.536 14.1759 241.5 14.6979 241.428 16.0839C241.356 17.7579 241.248 21.4119 241.248 22.6899C241.248 24.3999 241.356 25.0479 241.716 25.5879C242.13 26.1819 242.994 26.5239 244.128 26.5239C246.072 26.5239 247.638 25.4259 248.484 23.4459C248.88 22.5099 249.114 21.6639 249.312 20.4219C250.284 21.2139 250.608 21.4119 251.49 21.8079C250.77 24.2379 250.23 25.4079 249.348 26.3979C247.998 27.9279 246.216 28.6839 243.948 28.6839C242.706 28.6839 241.554 28.3959 240.798 27.8919C239.556 27.0639 239.034 25.6779 239.034 23.2659C239.034 22.3299 239.07 20.5299 239.178 16.0119C239.196 15.4719 239.196 15.0939 239.196 14.8419C239.196 14.3379 239.178 14.0859 239.124 13.6179Z" fill="#B33B22"/>
<path d="M221.736 24.8141H217.722V25.8401H215.598C215.67 25.2821 215.688 24.7781 215.688 23.9861V17.0021C215.688 16.2641 215.67 15.8141 215.598 15.2741C216.264 15.3281 216.696 15.3461 217.596 15.3461H221.736V14.8241C221.736 13.8881 221.718 13.4561 221.628 12.8621H223.86C223.77 13.4021 223.734 13.8881 223.734 14.7521V15.3461H228C229.026 15.3461 229.422 15.3281 230.07 15.2741C229.998 15.8141 229.98 16.2101 229.98 16.9841V23.9861C229.98 24.8501 229.998 25.3181 230.07 25.8401H227.928V24.8141H223.734V27.2441C223.734 28.3241 223.77 28.8641 223.86 29.4941H221.61C221.7 28.7921 221.736 28.2701 221.736 27.2441V24.8141ZM221.736 17.1461H217.722V19.1621H221.736V17.1461ZM223.734 17.1461V19.1621H227.928V17.1461H223.734ZM221.736 20.9441H217.722V23.0141H221.736V20.9441ZM223.734 20.9441V23.0141H227.928V20.9441H223.734Z" fill="#B33B22"/>
<path d="M196.698 20.152V18.766C195.582 19.486 195.078 19.756 193.818 20.314C193.512 19.594 193.224 19.09 192.774 18.478C194.718 17.704 195.924 17.038 197.292 15.976C198.48 15.058 199.398 14.104 200.136 12.952H202.278C203.232 14.284 203.952 14.986 205.32 15.94C206.85 17.02 208.308 17.776 209.946 18.37C209.442 19.144 209.208 19.648 208.956 20.386C207.822 19.9 207.138 19.54 205.878 18.748V20.152C205.41 20.098 204.942 20.08 204.258 20.08H198.246C197.724 20.08 197.184 20.098 196.698 20.152ZM198.264 18.208H204.24C204.528 18.208 204.69 18.208 205.032 18.19C203.376 17.056 202.35 16.12 201.27 14.698C200.316 15.976 199.2 17.02 197.526 18.19C197.832 18.208 197.94 18.208 198.264 18.208ZM198.444 23.41H195.708C194.79 23.41 194.178 23.446 193.584 23.518V21.43C194.178 21.502 194.862 21.538 195.708 21.538H206.922C207.804 21.538 208.434 21.502 209.028 21.43V23.518C208.434 23.446 207.822 23.41 206.922 23.41H200.73C200.172 24.724 199.614 25.786 198.858 26.902C202.044 26.722 202.044 26.722 204.564 26.452C203.988 25.822 203.682 25.498 202.674 24.454L204.456 23.662C206.382 25.606 207.156 26.506 208.614 28.468L206.886 29.602C206.292 28.72 206.112 28.468 205.806 28.036C204.312 28.234 203.232 28.36 202.566 28.432C200.784 28.594 197.22 28.918 196.5 28.972C195.492 29.044 194.592 29.134 194.178 29.224L193.89 27.028C194.376 27.064 194.682 27.082 194.934 27.082C195.06 27.082 195.6 27.064 196.518 27.01C197.4 25.678 197.958 24.634 198.444 23.41Z" fill="#B33B22"/>
<path d="M185.034 18.406H184.026C184.044 19.072 184.044 19.162 184.044 19.504H185.934C186.672 19.504 186.996 19.486 187.392 19.45C187.338 19.846 187.32 20.296 187.32 20.728V23.158C187.32 23.842 187.338 24.094 187.374 24.454C186.852 24.418 186.492 24.4 185.988 24.4H184.368C184.8 25.21 185.268 25.786 185.916 26.326C186.564 26.866 187.14 27.208 188.4 27.748C187.968 28.36 187.716 28.882 187.464 29.638C185.52 28.702 184.116 27.388 183.216 25.66C182.406 27.46 181.128 28.72 179.184 29.638C178.878 29.008 178.554 28.54 178.122 28.108C177.78 29.17 177.384 29.404 175.98 29.404C175.584 29.404 175.386 29.386 174.972 29.35C174.972 28.63 174.882 28.144 174.684 27.568C175.206 27.676 175.53 27.73 175.908 27.73C176.664 27.73 176.79 27.514 176.97 25.606L176.232 25.912C176.178 25.192 175.944 24.094 175.746 23.464L176.43 23.248C176.754 24.22 176.844 24.562 176.988 25.408C177.06 24.454 177.096 23.968 177.096 22.924H173.442C172.884 22.924 172.38 22.942 171.984 22.978C172.038 22.546 172.056 22.06 172.056 21.448V15.22C172.056 14.32 172.038 13.888 171.984 13.366C172.506 13.438 172.974 13.456 173.802 13.456H176.952C177.798 13.456 178.14 13.438 178.644 13.366V15.112C178.212 15.04 177.906 15.022 177.276 15.022H176.682V16.192H177.042C177.528 16.192 177.852 16.174 178.248 16.12V16.606C179.076 16.12 179.616 15.742 180.372 15.058C181.146 14.356 181.65 13.762 182.082 12.988H183.99C184.404 13.636 184.782 14.068 185.466 14.644C186.366 15.418 187.014 15.814 188.418 16.462C188.022 17.092 187.788 17.614 187.608 18.316C186.942 17.974 186.708 17.848 186.294 17.578V18.478C185.862 18.424 185.538 18.406 185.034 18.406ZM182.316 18.406H181.362C180.876 18.406 180.498 18.424 180.138 18.478V17.614C179.778 17.866 179.58 18.01 179.004 18.37C178.824 17.848 178.662 17.524 178.248 16.948V17.65C177.852 17.596 177.528 17.578 177.042 17.578H176.682V18.748H177.024C177.6 18.748 177.834 18.73 178.23 18.676V20.206C177.834 20.152 177.474 20.134 177.024 20.134H176.682V21.34H177.312C178.068 21.34 178.392 21.322 178.752 21.268C178.716 21.592 178.698 21.988 178.68 22.762C178.644 24.688 178.464 26.65 178.194 27.892C179.976 27.118 181.2 25.948 181.812 24.4H180.534C179.958 24.4 179.58 24.418 179.112 24.472C179.166 24.058 179.184 23.734 179.184 23.158V20.728C179.184 20.134 179.166 19.918 179.13 19.45C179.49 19.486 179.832 19.504 180.552 19.504H182.316V18.406ZM182.298 20.98H180.858V22.888H182.172C182.244 22.258 182.28 21.79 182.298 20.98ZM185.628 20.98H184.008C183.972 22.042 183.954 22.348 183.9 22.888H185.628V20.98ZM175.116 20.134H173.784V21.34H175.116V20.134ZM175.116 18.748V17.578H173.784V18.748H175.116ZM175.116 16.192V15.022H173.784V16.192H175.116ZM181.38 16.822H185.214C184.278 16.084 183.828 15.634 183.036 14.644C182.352 15.598 181.992 16.012 181.11 16.822H181.38ZM171.93 23.41L173.136 23.68C172.992 26.02 172.83 27.1 172.416 28.666L171.12 28.036C171.606 26.668 171.858 25.192 171.93 23.41ZM173.352 23.68L174.36 23.518C174.486 24.868 174.54 25.804 174.54 26.902C174.54 27.1 174.54 27.388 174.54 27.784L173.352 27.964C173.406 27.046 173.424 26.704 173.424 25.48C173.424 24.616 173.406 24.4 173.352 23.68ZM174.63 23.626L175.458 23.41C175.728 24.49 175.872 25.57 175.962 26.938L174.99 27.226C174.918 25.336 174.864 24.796 174.63 23.626Z" fill="#B33B22"/>
<path d="M153.516 24.958V27.406C153.516 28.342 153.534 28.936 153.606 29.494H151.482C151.554 28.81 151.59 28.306 151.59 27.388V22.42C151.59 21.466 151.59 21.178 151.626 20.386C151.14 21.214 150.798 21.682 150.222 22.312C149.988 21.43 149.772 20.818 149.43 20.134C151.41 17.974 152.67 15.508 153.21 12.772L155.208 13.312C154.56 15.166 154.128 16.228 153.516 17.524V24.58C155.478 23.086 157.242 20.674 158.25 18.064H156.324C155.712 18.064 155.01 18.1 154.416 18.172V16.156C154.974 16.21 155.676 16.246 156.378 16.246H159.006V14.608C159.006 14.014 158.97 13.456 158.88 12.916H161.022C160.95 13.474 160.914 13.996 160.914 14.626V16.246H164.244C165.036 16.246 165.738 16.21 166.314 16.138V18.172C165.702 18.1 164.982 18.064 164.298 18.064H161.652C162.246 19.45 162.732 20.296 163.758 21.682C164.496 22.708 165.468 23.662 166.818 24.688C166.332 25.246 166.044 25.678 165.576 26.542C164.622 25.66 164.19 25.228 163.56 24.454V26.164C163.182 26.11 162.804 26.092 162.246 26.092H160.896V27.532C160.896 28.234 160.932 28.846 161.022 29.494H158.88C158.97 28.828 159.006 28.198 159.006 27.532V26.092H157.746C157.242 26.092 156.846 26.11 156.468 26.164V24.472C155.766 25.336 155.478 25.642 154.578 26.434C154.182 25.75 153.966 25.444 153.516 24.958ZM160.896 24.328H162.21C162.732 24.328 163.002 24.31 163.416 24.274C162.39 22.942 161.634 21.682 160.86 19.918C160.896 20.926 160.896 21.358 160.896 22.078V24.328ZM159.006 24.328V22.132C159.006 21.196 159.006 20.818 159.042 19.972C158.232 21.934 157.692 22.906 156.63 24.274C156.99 24.31 157.296 24.328 157.818 24.328H159.006Z" fill="#B33B22"/>
<path d="M129 17.83L128.874 15.49C129.27 15.508 129.468 15.508 129.558 15.508C129.882 15.508 129.882 15.508 132.528 15.328C133.536 15.274 136.524 15.112 141.51 14.878C142.986 14.806 143.256 14.788 143.58 14.698L143.706 17.002C143.508 16.984 143.508 16.984 143.328 16.984C142.248 16.984 140.916 17.344 139.764 17.956C137.478 19.144 136.128 20.944 136.128 22.762C136.128 24.166 137.01 25.246 138.522 25.696C139.404 25.966 140.556 26.164 141.204 26.164C141.222 26.164 141.384 26.164 141.564 26.146L141.24 28.594C141.024 28.54 140.934 28.522 140.628 28.486C138.648 28.234 137.514 27.91 136.416 27.298C134.76 26.362 133.842 24.832 133.842 22.96C133.842 21.43 134.454 19.918 135.552 18.712C136.236 17.974 136.884 17.506 138.054 16.912C136.596 17.128 135.894 17.182 131.988 17.47C130.782 17.56 129.702 17.686 129 17.83Z" fill="#B33B22"/>
<path d="M110.42 13.6179L112.94 13.6539C112.832 14.1759 112.796 14.6979 112.724 16.0839C112.652 17.7579 112.544 21.4119 112.544 22.6899C112.544 24.3999 112.652 25.0479 113.012 25.5879C113.426 26.1819 114.29 26.5239 115.424 26.5239C117.368 26.5239 118.934 25.4259 119.78 23.4459C120.176 22.5099 120.41 21.6639 120.608 20.4219C121.58 21.2139 121.904 21.4119 122.786 21.8079C122.066 24.2379 121.526 25.4079 120.644 26.3979C119.294 27.9279 117.512 28.6839 115.244 28.6839C114.002 28.6839 112.85 28.3959 112.094 27.8919C110.852 27.0639 110.33 25.6779 110.33 23.2659C110.33 22.3299 110.366 20.5299 110.474 16.0119C110.492 15.4719 110.492 15.0939 110.492 14.8419C110.492 14.3379 110.474 14.0859 110.42 13.6179Z" fill="#B33B22"/>
<path d="M99.7461 15.3459L100.898 16.4799C100.718 16.7499 100.646 16.9119 100.448 17.5599C99.6201 20.2959 98.3421 22.7259 96.7581 24.5079C95.1021 26.3979 93.1221 27.8019 90.3501 29.0799C89.8461 28.1799 89.6121 27.8739 88.8201 27.1899C90.6201 26.4519 91.6281 25.9119 92.7621 25.0659C95.3361 23.1579 97.0281 20.6919 98.0181 17.4699L92.6001 17.5599C91.5021 19.3059 90.0981 20.8539 88.3881 22.1679C87.8481 21.4299 87.5781 21.1959 86.6421 20.6199C88.6941 19.2159 89.9901 17.7759 91.3041 15.3999C91.8621 14.3739 92.1501 13.6719 92.2221 13.0239L94.6881 13.5099C94.5801 13.6719 94.5801 13.6719 94.3821 14.0679C94.3281 14.1579 94.3281 14.1579 94.1481 14.5719C94.0941 14.6799 94.0941 14.6799 93.9141 15.0399C93.8061 15.2919 93.8061 15.2919 93.6261 15.6159C93.8601 15.5979 94.1481 15.5799 94.4901 15.5799L98.4321 15.5259C99.1341 15.5259 99.3321 15.4899 99.7461 15.3459Z" fill="#B33B22"/>
<path d="M66.4282 18.208L68.3362 17.65C69.0922 19.036 69.4522 19.9 70.1002 21.916L68.0662 22.564C67.5982 20.746 67.2382 19.792 66.4282 18.208ZM70.2802 17.452L72.1702 16.912C73.1242 18.694 73.4662 19.486 73.9162 21.052L71.9182 21.682C71.5762 20.314 71.0362 18.928 70.2802 17.452ZM76.4722 17.272L78.6682 17.776C78.5602 18.046 78.5242 18.136 78.4162 18.694C77.8942 21.142 77.0842 23.122 75.9322 24.688C74.6002 26.506 73.1062 27.676 70.4422 29.026C69.9742 28.234 69.7582 27.964 69.0022 27.244C70.2622 26.758 71.0002 26.362 72.0622 25.588C74.1682 24.058 75.3742 22.222 76.1482 19.342C76.3822 18.46 76.4722 17.83 76.4722 17.272Z" fill="#B33B22"/>
<path d="M45.6201 13.798L48.0681 13.816C47.9961 14.32 47.9961 14.482 47.9961 15.436V20.404C47.9961 21.304 47.9961 21.538 48.0681 21.988H45.6021C45.6561 21.574 45.6921 21.016 45.6921 20.368V15.418C45.6921 14.5 45.6741 14.266 45.6201 13.798ZM53.7381 13.834H56.2401C56.1681 14.284 56.1501 14.482 56.1501 15.508V17.938C56.1321 20.746 56.0061 22.258 55.6821 23.392C55.1601 25.192 54.0081 26.542 52.1361 27.586C51.1821 28.126 50.2821 28.486 48.6261 28.972C48.3021 28.09 48.1221 27.784 47.3661 26.83C49.1301 26.488 50.1741 26.11 51.2541 25.39C52.9461 24.274 53.5401 23.176 53.7381 20.8C53.8101 20.026 53.8281 19.234 53.8281 17.794V15.544C53.8281 14.626 53.8101 14.248 53.7381 13.834Z" fill="#B33B22"/>
<path d="M34.9463 15.3459L36.0983 16.4799C35.9183 16.7499 35.8463 16.9119 35.6483 17.5599C34.8203 20.2959 33.5423 22.7259 31.9583 24.5079C30.3023 26.3979 28.3223 27.8019 25.5503 29.0799C25.0463 28.1799 24.8123 27.8739 24.0203 27.1899C25.8203 26.4519 26.8283 25.9119 27.9623 25.0659C30.5363 23.1579 32.2283 20.6919 33.2183 17.4699L27.8003 17.5599C26.7023 19.3059 25.2983 20.8539 23.5883 22.1679C23.0483 21.4299 22.7783 21.1959 21.8423 20.6199C23.8943 19.2159 25.1903 17.7759 26.5043 15.3999C27.0623 14.3739 27.3503 13.6719 27.4223 13.0239L29.8883 13.5099C29.7803 13.6719 29.7803 13.6719 29.5823 14.0679C29.5283 14.1579 29.5283 14.1579 29.3483 14.5719C29.2943 14.6799 29.2943 14.6799 29.1143 15.0399C29.0063 15.2919 29.0063 15.2919 28.8263 15.6159C29.0603 15.5979 29.3483 15.5799 29.6903 15.5799L33.6323 15.5259C34.3343 15.5259 34.5323 15.4899 34.9463 15.3459Z" fill="#B33B22"/>
<path d="M246.95 40.5519L246.936 41.7559C246.936 41.8119 246.95 41.9239 246.95 42.0919C247.258 42.7359 247.398 43.3099 247.398 44.0659C247.398 45.5919 246.67 46.9079 245.312 47.8459C244.724 48.2519 244.08 48.5459 242.778 48.9939C242.386 48.1259 242.246 47.9159 241.784 47.4119C242.932 47.1879 243.506 46.9919 244.164 46.5999C245.116 46.0539 245.676 45.3399 245.788 44.5559C245.382 45.1999 244.654 45.5499 243.73 45.5499C243.086 45.5499 242.582 45.3959 242.106 45.0459C241.448 44.5699 241.14 43.9539 241.14 43.1559C241.14 41.6719 242.302 40.6079 243.926 40.6079C244.528 40.6079 245.06 40.7619 245.382 41.0279C245.368 40.9579 245.368 40.9579 245.368 40.8599C245.354 40.8319 245.354 40.0479 245.354 39.6699C243.352 39.7259 242.036 39.7679 241.42 39.8099C239.306 39.9639 239.306 39.9639 238.928 40.0199L238.872 38.3539C239.18 38.3819 239.306 38.3819 239.558 38.3819C239.908 38.3819 240.132 38.3819 241.938 38.3119C242.848 38.2839 242.988 38.2839 244.136 38.2559C244.598 38.2419 244.598 38.2419 245.326 38.2139C245.312 36.8839 245.312 36.8839 245.242 36.5199L247.006 36.5059C246.95 36.9399 246.95 36.9679 246.936 38.1719C249.372 38.1579 250.464 38.1299 250.982 38.0739L250.996 39.6839C250.478 39.6419 249.806 39.6139 248.644 39.6139C248.308 39.6139 248.056 39.6139 246.95 39.6419V40.5519ZM245.34 42.8619C245.34 42.2739 244.85 41.8959 244.08 41.8959C243.366 41.8959 242.778 42.3999 242.778 43.0159C242.778 43.6599 243.268 44.1219 243.968 44.1219C244.766 44.1219 245.34 43.5899 245.34 42.8619Z" fill="#B33B22"/>
<path d="M235.106 46.516L234.154 48.154C233.538 47.468 232.572 46.754 231.564 46.236C231.256 46.068 231.144 46.026 230.808 45.886C230.808 45.956 230.808 46.012 230.808 46.04C230.808 46.922 230.556 47.524 230.024 47.93C229.492 48.336 228.736 48.532 227.714 48.532C225.67 48.532 224.494 47.734 224.494 46.348C224.494 44.822 225.88 43.926 228.232 43.926C228.568 43.926 228.806 43.94 229.17 43.982C229.17 43.814 229.17 43.814 229.156 43.646C229.156 43.576 229.156 43.478 229.156 43.338C229.142 43.142 229.142 43.142 229.128 42.582C228.456 42.596 228.022 42.61 227.728 42.61C226.874 42.61 226.356 42.596 225.194 42.512C225.012 42.498 224.872 42.498 224.662 42.498L224.69 40.986C225.292 41.126 226.622 41.224 227.952 41.224C228.232 41.224 228.708 41.21 229.1 41.196C229.1 41.07 229.1 40.594 229.086 39.796C228.638 39.81 228.414 39.81 228.204 39.81C227.518 39.81 225.712 39.74 224.774 39.67C224.62 39.656 224.508 39.656 224.466 39.656C224.41 39.656 224.34 39.656 224.242 39.656L224.256 38.102C224.97 38.284 226.412 38.396 228.022 38.396C228.246 38.396 228.722 38.382 229.072 38.368C229.058 36.968 229.058 36.954 229.002 36.604H230.78C230.71 36.982 230.696 37.164 230.682 38.312C232.586 38.2 233.804 38.046 234.714 37.78L234.784 39.334C234.476 39.348 234.476 39.348 233.678 39.46C232.446 39.628 231.9 39.67 230.668 39.74C230.682 40.09 230.682 40.258 230.696 41.126C231.396 41.084 231.396 41.084 232.684 40.944C233.566 40.832 233.79 40.804 234.42 40.636L234.462 42.176C234.224 42.19 233.874 42.232 233.552 42.274C233.342 42.302 232.712 42.372 231.662 42.47C231.466 42.484 231.256 42.498 230.71 42.526C230.752 43.884 230.752 43.884 230.766 44.22C231.998 44.584 233.09 45.13 234.602 46.194C234.84 46.348 234.91 46.404 235.106 46.516ZM229.198 45.438C228.736 45.34 228.456 45.312 228.036 45.312C226.902 45.312 226.216 45.676 226.216 46.278C226.216 46.796 226.818 47.118 227.812 47.118C228.4 47.118 228.834 46.95 229.03 46.67C229.142 46.488 229.198 46.194 229.198 45.774C229.198 45.718 229.198 45.438 229.198 45.438Z" fill="#B33B22"/>
<path d="M209.976 36.814L211.936 36.842C211.852 37.248 211.824 37.654 211.768 38.732C211.712 40.034 211.628 42.876 211.628 43.87C211.628 45.2 211.712 45.704 211.992 46.124C212.314 46.586 212.986 46.852 213.868 46.852C215.38 46.852 216.598 45.998 217.256 44.458C217.564 43.73 217.746 43.072 217.9 42.106C218.656 42.722 218.908 42.876 219.594 43.184C219.034 45.074 218.614 45.984 217.928 46.754C216.878 47.944 215.492 48.532 213.728 48.532C212.762 48.532 211.866 48.308 211.278 47.916C210.312 47.272 209.906 46.194 209.906 44.318C209.906 43.59 209.934 42.19 210.018 38.676C210.032 38.256 210.032 37.962 210.032 37.766C210.032 37.374 210.018 37.178 209.976 36.814Z" fill="#B33B22"/>
<path d="M195.388 38.564V37.906C194.422 37.99 194.03 38.018 192.98 38.074C192.868 37.682 192.756 37.43 192.49 36.954C195.234 36.94 197.642 36.646 198.594 36.198L199.434 37.346C199.308 37.36 198.846 37.43 198.664 37.472C198.146 37.57 197.446 37.682 196.746 37.78V38.564H198.202C198.86 38.564 199.182 38.55 199.504 38.494V39.768C199.294 39.726 199.112 39.712 198.496 39.712H196.746V40.314H198.132C198.762 40.314 199.014 40.3 199.308 40.272C199.28 40.566 199.266 40.79 199.266 41.504V43.394C199.28 44.066 199.294 44.486 199.308 44.668C198.986 44.64 198.706 44.64 198.048 44.64H196.746V45.256H197.978C198.678 45.256 198.972 45.242 199.294 45.2V46.516C199.042 46.46 198.846 46.446 198.314 46.446H196.746V47.132C197.474 47.062 197.95 47.006 199.266 46.824V47.426C199.868 46.53 200.33 45.396 200.596 44.206C200.806 43.184 200.89 42.316 200.96 40.51C200.386 40.51 200.162 40.524 199.798 40.566V39.054C200.078 39.096 200.316 39.11 200.792 39.11H201.002C201.016 38.76 201.016 38.522 201.016 38.088C201.016 36.926 201.002 36.702 200.932 36.31H202.542C202.472 36.688 202.472 36.688 202.43 39.11H203.648C204.25 39.11 204.586 39.096 204.964 39.054C204.908 39.558 204.908 39.67 204.866 41.686C204.796 45.298 204.614 47.272 204.264 48.084C204.012 48.7 203.564 48.91 202.514 48.91C202.29 48.91 201.604 48.882 201.394 48.868C201.366 48.252 201.296 47.958 201.072 47.356C200.736 48.07 200.512 48.434 199.952 49.19C199.658 48.756 199.322 48.42 198.846 48.084C196.928 48.364 195.906 48.476 193.344 48.672C193.078 48.7 192.868 48.728 192.532 48.784L192.28 47.286C192.574 47.314 192.7 47.314 193.008 47.314C193.638 47.314 193.904 47.3 195.388 47.216V46.446H193.946C193.498 46.446 193.022 46.46 192.644 46.502V45.186C193.036 45.242 193.33 45.256 193.96 45.256H195.388V44.64H194.17C193.54 44.64 193.204 44.654 192.812 44.682C192.84 44.332 192.854 44.038 192.854 43.352V41.546C192.854 40.888 192.84 40.622 192.812 40.272C193.204 40.3 193.568 40.314 194.184 40.314H195.388V39.712H193.68C193.092 39.712 192.77 39.726 192.378 39.782V38.494C192.756 38.55 193.106 38.564 193.68 38.564H195.388ZM195.388 41.364H194.17V41.952H195.388V41.364ZM196.746 41.364V41.952H197.964V41.364H196.746ZM195.388 42.974H194.17V43.59H195.388V42.974ZM196.746 42.974V43.59H197.964V42.974H196.746ZM203.466 40.51H202.402C202.262 43.842 201.94 45.466 201.086 47.342C201.8 47.454 202.01 47.482 202.318 47.482C202.948 47.482 203.046 47.314 203.214 46.012C203.312 45.27 203.354 44.668 203.41 43.114C203.424 42.624 203.424 42.624 203.438 41.49C203.452 41.056 203.452 40.972 203.466 40.51Z" fill="#B33B22"/>
<path d="M186.372 41.4199L187.436 41.7279C187.352 41.8399 187.352 41.8399 187.226 42.0499C187.184 42.1199 187.058 42.2879 186.932 42.4699H188.164C188.668 42.4699 188.948 42.4559 189.242 42.4139L190.068 43.2819C189.886 43.6039 189.886 43.6039 189.718 43.9399C189.606 44.1359 189.032 45.0179 188.864 45.2559C188.052 46.3479 186.75 47.3979 185.35 48.1119C184.328 48.6299 183.474 48.9099 182.088 49.1759C181.892 48.6019 181.696 48.2659 181.332 47.7619C182.998 47.5519 183.95 47.2299 185.336 46.4599C184.902 45.9979 184.818 45.9279 184.216 45.4799L185.28 44.6959C185.994 45.2279 186.106 45.3119 186.512 45.6759C187.226 45.1019 187.66 44.6119 188.304 43.6879H185.882C184.832 44.6819 183.852 45.3679 182.522 45.9699C182.27 45.5639 182.018 45.2559 181.612 44.8219C183.348 44.1779 185.056 42.9599 185.812 41.8119C184.776 42.5119 183.824 42.9879 182.522 43.4499C182.284 42.9319 182.088 42.6519 181.668 42.2039C183.068 41.8119 183.586 41.5879 184.65 40.9719C184.594 40.9299 184.566 40.8879 184.538 40.8599C184.286 40.5799 184.258 40.5379 184.104 40.4119C184.076 40.3839 184.02 40.3279 183.922 40.2579C183.866 40.2019 183.768 40.1319 183.642 40.0339L184.664 39.2779C185.28 39.7539 185.42 39.8659 185.77 40.2159C186.582 39.5859 186.946 39.2219 187.478 38.4659H184.958C184.23 39.2219 183.502 39.7959 182.452 40.3979C182.186 39.9639 181.948 39.6699 181.57 39.3479C182.648 38.8159 183.642 38.0459 184.314 37.2199C184.58 36.8699 184.874 36.3799 184.93 36.1419L186.414 36.5899C186.33 36.7019 186.33 36.7019 186.176 36.9539C186.162 36.9679 186.12 37.0239 186.064 37.1079C186.036 37.1359 185.994 37.1919 185.938 37.2619H187.548C188.052 37.2619 188.318 37.2479 188.612 37.2059L189.396 38.0459C189.242 38.2699 189.242 38.2699 189.004 38.6339C188.262 39.7819 187.576 40.5099 186.372 41.4199ZM179.078 39.8239V38.3259C178.574 38.4379 178.364 38.4799 177.636 38.5919C177.538 38.1719 177.384 37.8359 177.076 37.2899C178.42 37.1499 179.358 36.9259 180.478 36.5199C180.87 36.3659 181.094 36.2679 181.346 36.0859L182.214 37.3179C181.262 37.7379 181.262 37.7379 180.534 37.9619V39.8239H180.982C181.444 39.8239 181.682 39.8099 181.948 39.7679V41.2239C181.668 41.1819 181.416 41.1679 180.982 41.1679H180.604C181.122 42.0919 181.318 42.3159 182.088 42.9879C181.836 43.3799 181.696 43.6599 181.416 44.3319C181.024 43.8699 180.912 43.7159 180.45 42.9739C180.506 43.3799 180.534 43.9959 180.534 44.5279V47.4119C180.534 48.1959 180.562 48.6579 180.618 49.1339H178.994C179.05 48.6579 179.078 48.2239 179.078 47.4119V44.9899C179.078 44.5839 179.106 43.9679 179.162 43.3799C178.756 44.5839 178.252 45.4939 177.482 46.5019C177.3 45.9279 177.076 45.4939 176.74 45.0039C177.594 44.0939 178.476 42.5119 178.882 41.1679H178.126C177.636 41.1679 177.384 41.1819 177.048 41.2379V39.7539C177.356 39.8099 177.594 39.8239 178.126 39.8239H179.078Z" fill="#B33B22"/>
<path d="M164.616 48.336L162.922 48.434C162.908 48.182 162.894 48.098 162.852 47.776C162.586 46.082 162.488 45.004 162.488 43.59C162.488 41.784 162.656 40.188 163.062 38.116C163.216 37.332 163.244 37.192 163.272 36.814L165.12 37.01C164.784 37.836 164.462 39.404 164.238 41.196C164.098 42.246 164.042 43.072 164.028 44.29C164.028 44.598 164.014 44.71 164 45.06C164.154 44.57 164.182 44.472 164.728 43.212L165.848 43.716C165.078 45.34 164.602 46.964 164.602 47.958C164.602 48.042 164.602 48.154 164.616 48.336ZM166.548 39.95L166.576 38.27C167.206 38.438 167.948 38.494 169.166 38.494C170.72 38.494 172.05 38.368 172.974 38.116L173.058 39.81C172.946 39.824 172.736 39.852 172.064 39.936C171.168 40.048 170.104 40.104 169.068 40.104C168.046 40.104 168.032 40.104 166.548 39.95ZM167.514 42.26L168.886 42.904C168.186 43.716 167.892 44.318 167.892 44.92C167.892 45.718 168.662 46.138 170.118 46.138C171.35 46.138 172.568 45.942 173.45 45.606L173.59 47.384C173.394 47.398 173.338 47.412 173.016 47.468C171.896 47.65 171.042 47.734 170.118 47.734C168.382 47.734 167.262 47.342 166.646 46.516C166.38 46.166 166.226 45.648 166.226 45.144C166.226 44.234 166.646 43.296 167.514 42.26Z" fill="#B33B22"/>
<path d="M150.994 36.646L153.024 37.038C152.87 37.346 152.856 37.374 152.66 38.046C151.596 41.546 150.784 43.87 149.888 46.026C152.086 45.858 154.508 45.564 155.712 45.312C155.558 44.976 155.39 44.668 155.054 44.038C154.438 42.876 154.186 42.47 153.724 41.812L155.306 41.196C156.608 43.1 157.84 45.452 158.694 47.678L157 48.56C156.818 47.986 156.818 47.986 156.328 46.824C156.146 46.866 156.146 46.866 155.824 46.936C154.41 47.23 152.086 47.524 147.9 47.93C147.116 48 146.906 48.028 146.626 48.098L146.374 46.208C146.57 46.208 146.57 46.208 146.738 46.208C147.018 46.208 147.354 46.194 147.942 46.166C148.684 44.402 149.244 42.82 149.972 40.524C150.63 38.466 150.896 37.472 150.994 36.646Z" fill="#B33B22"/>
<path d="M131.674 43.604V41.658C132.29 41.742 132.556 41.756 133.942 41.756H141.404C142.79 41.756 143.056 41.742 143.672 41.658V43.604C143.112 43.534 142.958 43.534 141.39 43.534H133.956C132.388 43.534 132.234 43.534 131.674 43.604Z" fill="#B33B22"/>
<path d="M122.056 42.3159H118.934C118.36 42.3159 118.066 42.3299 117.674 42.3719V40.8599C118.052 40.9299 118.304 40.9439 118.934 40.9439H123.008V40.0899C123.008 39.5859 122.98 39.2779 122.938 38.9839H124.576C124.534 39.3059 124.534 39.4039 124.534 40.0339L124.548 40.9579H125.766C126.382 40.9579 126.662 40.9439 127.026 40.8739V42.3859C126.648 42.3439 126.368 42.3299 125.752 42.3299H124.548L124.618 47.6639C124.618 48.2379 124.646 48.5179 124.702 48.8539H122.994C123.036 48.5179 123.05 48.2099 123.05 47.7059L123.036 44.2059C123.036 44.0519 123.05 43.5059 123.05 43.3379C122.854 43.7159 122.77 43.8419 122.574 44.1219C121.622 45.4519 120.04 46.7399 118.038 47.8179C117.702 47.2159 117.534 47.0059 117.002 46.5019C118.122 45.9979 119.116 45.3819 120.012 44.6119C120.866 43.8839 121.622 43.0299 122.056 42.3159Z" fill="#B33B22"/>
<path d="M111.332 37.6539L112.284 38.5639C112.158 38.8019 112.116 38.8999 112.046 39.1939C111.346 41.8679 110.52 43.5479 109.176 45.0599C107.804 46.5999 106.306 47.6219 103.968 48.6299C103.576 47.8739 103.394 47.6079 102.736 46.9639C103.968 46.5719 104.766 46.2079 105.802 45.5359C107.986 44.1219 109.358 42.1479 110.044 39.4319H103.38C102.442 39.4319 102.12 39.4459 101.616 39.5159V37.6959C102.162 37.7799 102.456 37.7939 103.408 37.7939H109.834C110.618 37.7939 110.898 37.7659 111.332 37.6539Z" fill="#B33B22"/>
<path d="M91.6205 39.012H95.1625C96.0025 39.012 96.4925 38.998 96.9685 38.942C96.9125 39.488 96.9125 39.488 96.8845 41.056C96.8425 42.974 96.7025 45.34 96.5625 46.264C96.3805 47.552 96.1845 48.042 95.7505 48.35C95.3865 48.616 94.8685 48.728 94.0845 48.728C93.4405 48.728 92.8245 48.686 91.9425 48.574C91.8585 47.86 91.7605 47.454 91.5505 46.88C92.4465 47.062 93.2585 47.16 93.9585 47.16C94.6165 47.16 94.8265 46.908 94.9805 45.97C95.1625 44.92 95.2885 42.75 95.3025 40.51H91.5085C91.2705 42.582 90.8925 43.996 90.2345 45.172C89.4225 46.642 88.1485 47.818 86.2025 48.91C85.8945 48.322 85.5305 47.874 85.0405 47.454C86.9585 46.614 88.2325 45.494 88.9885 43.968C89.4225 43.114 89.6885 42.036 89.8705 40.51H87.4345C86.7205 40.51 86.1745 40.538 85.6985 40.594V38.914C86.2025 38.984 86.6785 39.012 87.4765 39.012H89.9685C89.9965 38.452 89.9965 38.312 89.9965 37.584C89.9965 36.912 89.9685 36.506 89.9125 36.226H91.7745C91.7045 36.59 91.7045 36.59 91.6205 39.012Z" fill="#B33B22"/>
<path d="M75.2403 38.4099H73.4903C73.1123 38.4099 72.6923 38.4379 72.1463 38.4799V36.7999C72.5523 36.8559 72.8463 36.8699 73.4623 36.8699H75.6883C76.2623 36.8699 76.6403 36.8559 76.9623 36.7999C76.9203 37.2059 76.9203 37.3319 76.9203 37.6819C76.9203 39.6699 77.4243 41.5179 78.4183 43.2259C79.0063 44.2059 79.6923 45.0459 80.6583 45.9139C81.3723 46.5719 81.7783 46.8659 82.7303 47.4259C82.1983 47.9439 81.9323 48.3079 81.5403 49.0079C80.1403 48.0279 79.0903 47.0059 78.1383 45.7179C77.6203 45.0319 77.3123 44.4999 76.9063 43.6459C76.5423 42.8759 76.4163 42.5259 76.1923 41.6579C75.6883 43.4499 75.1283 44.6399 74.1903 45.8859C73.2943 47.0479 72.2443 48.0279 70.7183 49.0499C70.4243 48.4339 70.1023 48.0139 69.5703 47.5799C70.7603 46.8939 71.4463 46.3619 72.3843 45.3819C73.4763 44.2479 74.3303 42.7499 74.7783 41.2379C75.0583 40.2719 75.1843 39.5439 75.2403 38.4099Z" fill="#B33B22"/>
<defs>
<linearGradient id="paint0_linear_344_72" x1="157.5" y1="0" x2="157.5" y2="60" gradientUnits="userSpaceOnUse">
<stop offset="0.09821" stop-color="#FFEC00"/>
<stop offset="1" stop-color="#FFBF00"/>
</linearGradient>
</defs>
</svg>
