<svg width="315" height="109" viewBox="0 0 315 109" fill="none" xmlns="http://www.w3.org/2000/svg">
<path d="M0 0H315V109H0V0Z" fill="#0C3584"/>
<path d="M97.9995 23C92.4861 23 88 27.4861 88 32.9995C88 38.5139 92.4861 43 97.9995 43C103.514 43 108 38.5139 108 32.9995C108 27.4861 103.514 23 97.9995 23Z" fill="#FBB03B"/>
<path d="M99.6859 38.5989C99.6859 39.29 99.0501 39.8503 98.2653 39.8503C97.4805 39.8503 96.8447 39.29 96.8447 38.5989C96.8447 37.9074 97.4805 37.3472 98.2653 37.3472C99.0501 37.3472 99.6859 37.9074 99.6859 38.5989Z" fill="white"/>
<path d="M95.8762 30.662C95.8762 30.2142 95.8762 29.1656 98.3835 29.0153C99.3551 28.9571 100.124 29.1837 100.549 29.6534C100.804 29.9359 100.912 30.2925 100.853 30.6574C100.798 30.9995 99.9142 31.4699 99.3297 31.781C98.2092 32.3777 96.8149 33.1201 96.8149 34.6826V35.5702C96.8149 36.3059 97.4114 36.9024 98.1471 36.9024C98.8828 36.9024 99.4793 36.3059 99.4793 35.5702V34.6826C99.4793 34.7721 99.4459 34.8402 99.4342 34.857C99.5596 34.6771 100.175 34.3496 100.582 34.1328C101.694 33.5409 103.216 32.7303 103.483 31.0839C103.671 29.9212 103.322 28.7486 102.525 27.8667C101.547 26.7848 100.02 26.2481 98.2241 26.3558C93.7002 26.6271 93.2119 29.4576 93.2119 30.662C93.2119 31.3977 93.8084 31.9941 94.5441 31.9941C95.2798 31.9941 95.8762 31.3977 95.8762 30.662Z" fill="white"/>
<path d="M97.9995 65C92.4861 65 88 69.4861 88 74.9995C88 80.5139 92.4861 85 97.9995 85C103.514 85 108 80.5139 108 74.9995C108 69.4861 103.514 65 97.9995 65Z" fill="#FBB03B"/>
<path d="M99.6859 80.5989C99.6859 81.29 99.0501 81.8503 98.2653 81.8503C97.4805 81.8503 96.8447 81.29 96.8447 80.5989C96.8447 79.9074 97.4805 79.3472 98.2653 79.3472C99.0501 79.3472 99.6859 79.9074 99.6859 80.5989Z" fill="white"/>
<path d="M95.8762 72.662C95.8762 72.2142 95.8762 71.1656 98.3835 71.0153C99.3551 70.9571 100.124 71.1837 100.549 71.6534C100.804 71.9359 100.912 72.2925 100.853 72.6574C100.798 72.9995 99.9142 73.4699 99.3297 73.781C98.2092 74.3777 96.8149 75.1201 96.8149 76.6826V77.5702C96.8149 78.3059 97.4114 78.9024 98.1471 78.9024C98.8828 78.9024 99.4793 78.3059 99.4793 77.5702V76.6826C99.4793 76.7721 99.4459 76.8402 99.4342 76.857C99.5596 76.6771 100.175 76.3496 100.582 76.1328C101.694 75.5409 103.216 74.7303 103.483 73.0839C103.671 71.9212 103.322 70.7486 102.525 69.8667C101.547 68.7848 100.02 68.2481 98.2241 68.3558C93.7002 68.6271 93.2119 71.4576 93.2119 72.662C93.2119 73.3977 93.8084 73.9941 94.5441 73.9941C95.2798 73.9941 95.8762 73.3977 95.8762 72.662Z" fill="white"/>
<path d="M158.5 40.5132C159.358 40.5132 160.047 41.2022 160.047 42.0602C160.047 42.9182 159.358 43.6072 158.5 43.6072C157.642 43.6072 156.953 42.9182 156.953 42.0602C156.953 41.2022 157.642 40.5132 158.5 40.5132Z" fill="white"/>
<path d="M145.5 40.5132C146.358 40.5132 147.047 41.2022 147.047 42.0602C147.047 42.9182 146.358 43.6072 145.5 43.6072C144.642 43.6072 143.953 42.9182 143.953 42.0602C143.953 41.2022 144.642 40.5132 145.5 40.5132Z" fill="white"/>
<path d="M132.5 40.5132C133.358 40.5132 134.047 41.2022 134.047 42.0602C134.047 42.9182 133.358 43.6072 132.5 43.6072C131.642 43.6072 130.953 42.9182 130.953 42.0602C130.953 41.2022 131.642 40.5132 132.5 40.5132Z" fill="white"/>
<path d="M114.339 45.4138L113.585 43.9188C113.884 43.7108 114.391 43.2688 115.938 41.8388C115.964 41.0458 115.964 41.0328 115.99 39.9668C114.417 40.0838 114.417 40.0838 114.014 40.1618L113.923 38.6928C114.131 38.7058 114.235 38.7188 114.352 38.7188C114.586 38.7188 115.301 38.6798 116.029 38.6278C116.055 38.2898 116.068 38.1208 116.068 37.6528C116.068 37.4058 116.081 37.2238 116.081 37.1068C116.081 37.0418 116.081 36.9898 116.081 36.9768C116.081 36.7688 116.068 36.6648 116.029 36.4048L117.706 36.4178C117.628 36.7558 117.628 36.7688 117.576 37.6658C117.563 37.9128 117.563 37.9128 117.537 38.2768C117.537 38.3808 117.537 38.3808 117.537 38.5108C117.628 38.4848 117.654 38.4848 117.719 38.4458L118.213 38.9788C118.031 39.1348 117.94 39.2388 117.472 39.8238C117.446 40.3828 117.433 40.6688 117.42 40.7078L117.446 40.6948C117.498 40.6428 117.589 40.5648 117.758 40.4478C119.175 39.4208 120.228 39.0178 121.502 39.0178C122.438 39.0178 123.387 39.4208 124.037 40.0838C124.687 40.7598 125.038 41.7088 125.038 42.7618C125.038 44.3998 124.258 45.7778 122.971 46.4408C122.308 46.7658 121.541 46.9348 120.657 46.9348C119.994 46.9348 119.383 46.8438 118.72 46.6488C118.72 45.9598 118.681 45.6738 118.473 44.9588C119.201 45.2708 120.007 45.4398 120.787 45.4398C122.347 45.4398 123.439 44.3348 123.439 42.7488C123.439 41.3578 122.581 40.4868 121.216 40.4868C120.137 40.4868 118.863 41.1498 117.433 42.4498L117.42 43.8018C117.42 45.6608 117.459 47.1168 117.524 47.6888H115.834C115.899 47.2988 115.912 46.9218 115.912 45.6088V44.4518C115.912 44.0878 115.912 43.9448 115.938 43.6848H115.912C115.821 43.8148 115.73 43.9188 115.34 44.2958C114.872 44.7508 114.508 45.1538 114.339 45.4138Z" fill="white"/>
<path d="M261.122 24.6051L261.148 24.6311C262.331 24.1631 262.903 24.0331 263.878 24.0331C266.101 24.0331 267.531 25.1771 267.531 26.9581C267.531 28.1931 266.92 29.1811 265.763 29.8311C264.918 30.3121 263.813 30.5721 262.617 30.5721C261.525 30.5721 260.615 30.3641 260.095 29.9741C259.601 29.6101 259.315 29.0641 259.315 28.4791C259.315 27.4001 260.251 26.6201 261.551 26.6201C262.461 26.6201 263.254 26.9971 263.8 27.6861C264.06 28.0111 264.203 28.2971 264.398 28.8561C265.477 28.4531 265.945 27.8941 265.945 26.9711C265.945 25.9571 264.944 25.2941 263.371 25.2941C261.473 25.2941 259.575 26.0611 258.015 27.4781L257.131 26.0741C257.586 25.8531 258.106 25.5021 258.964 24.8521C260.173 23.9291 261.863 22.4731 262.851 21.4721C262.877 21.4461 263.007 21.3161 263.085 21.2381L263.072 21.2251C262.578 21.2901 261.746 21.3421 259.393 21.4461C259.107 21.4591 259.016 21.4721 258.769 21.5111L258.704 19.9511C259.146 20.0031 259.523 20.0291 260.238 20.0291C261.343 20.0291 262.929 19.9641 264.19 19.8731C264.645 19.8341 264.788 19.8081 264.996 19.7041L265.802 20.8481C265.581 20.9651 265.49 21.0431 265.126 21.3811C264.476 21.9791 263.527 22.8241 263.085 23.2011C262.851 23.3961 261.915 24.0981 261.655 24.2671C261.33 24.4881 261.33 24.4881 261.122 24.6051ZM262.994 29.2331C262.76 28.3361 262.266 27.8681 261.538 27.8681C261.07 27.8681 260.771 28.1021 260.771 28.4661C260.771 28.9861 261.356 29.2851 262.318 29.2851C262.565 29.2851 262.63 29.2851 262.994 29.2331Z" fill="white"/>
<path d="M246.965 19.2231L248.629 19.3921C248.551 19.6391 248.551 19.6391 248.421 20.2631C248.356 20.5751 248.291 20.8351 248.148 21.4071C249.045 21.3161 249.721 21.1991 250.228 21.0431L250.267 22.5381C250.124 22.5511 250.098 22.5511 249.851 22.6031C249.383 22.6811 248.59 22.7721 247.784 22.8371C247.407 24.1371 246.939 25.3721 246.354 26.6071C246.055 27.2441 245.938 27.4781 245.444 28.3881C245.275 28.7001 245.275 28.7001 245.197 28.8561L243.702 28.0241C244.157 27.4261 244.521 26.8411 244.963 25.9441C245.47 24.9041 245.691 24.3711 246.185 22.8761C245.6 22.8891 245.522 22.8891 245.366 22.8891C245.197 22.8891 245.119 22.8891 244.846 22.8761L244.157 22.8631V21.3811C244.625 21.4721 245.119 21.4981 245.912 21.4981C246.068 21.4981 246.289 21.4981 246.575 21.4851C246.796 20.5621 246.939 19.7821 246.965 19.2231ZM255.285 22.6031L254.583 23.9421C253.452 23.1881 252.295 22.6291 250.839 22.1221L251.619 20.8611C253.153 21.4461 254.128 21.9011 255.285 22.6031ZM255.233 28.4661L254.518 29.9221C254.05 29.3631 253.296 28.7521 252.529 28.3101C252.542 28.4271 252.555 28.5181 252.555 28.5701C252.555 29.0511 252.334 29.6101 251.996 29.9481C251.541 30.4161 250.761 30.6761 249.838 30.6761C248.122 30.6761 247.004 29.8181 247.004 28.4921C247.004 27.1791 248.161 26.2561 249.812 26.2561C250.202 26.2561 250.475 26.2821 251.021 26.3731C250.982 25.7751 250.956 25.2681 250.956 24.8781C250.956 24.3711 250.982 23.9941 251.06 23.5651L252.568 23.6431C252.438 24.1241 252.412 24.4231 252.412 24.9561C252.412 25.4761 252.438 25.9961 252.529 26.7371C253.465 27.1531 253.595 27.2181 254.583 27.9331C254.778 28.0631 254.83 28.1151 255.038 28.2841C255.142 28.3881 255.142 28.3881 255.233 28.4661ZM251.073 27.7511C250.618 27.5951 250.306 27.5431 249.903 27.5431C249.058 27.5431 248.512 27.8941 248.512 28.4401C248.512 28.9731 248.98 29.2851 249.786 29.2851C250.67 29.2851 251.099 28.9211 251.099 28.1931C251.099 28.0631 251.073 27.7511 251.073 27.7511Z" fill="white"/>
<path d="M233.432 30.3118L231.859 30.4028C231.846 30.1688 231.833 30.0908 231.794 29.7918C231.547 28.2188 231.456 27.2178 231.456 25.9048C231.456 24.2278 231.612 22.7458 231.989 20.8218C232.132 20.0938 232.158 19.9638 232.184 19.6128L233.9 19.7948C233.588 20.5618 233.289 22.0178 233.081 23.6818C232.951 24.6568 232.899 25.4238 232.886 26.5548C232.886 26.8408 232.873 26.9448 232.86 27.2698C233.003 26.8148 233.029 26.7238 233.536 25.5538L234.576 26.0218C233.861 27.5298 233.419 29.0378 233.419 29.9608C233.419 30.0388 233.419 30.1428 233.432 30.3118ZM235.226 22.5248L235.252 20.9648C235.837 21.1208 236.526 21.1728 237.657 21.1728C239.1 21.1728 240.335 21.0558 241.193 20.8218L241.271 22.3948C241.167 22.4078 240.972 22.4338 240.348 22.5118C239.516 22.6158 238.528 22.6678 237.566 22.6678C236.617 22.6678 236.604 22.6678 235.226 22.5248ZM236.123 24.6698L237.397 25.2678C236.747 26.0218 236.474 26.5808 236.474 27.1398C236.474 27.8808 237.189 28.2708 238.541 28.2708C239.685 28.2708 240.816 28.0888 241.635 27.7768L241.765 29.4278C241.583 29.4408 241.531 29.4538 241.232 29.5058C240.192 29.6748 239.399 29.7528 238.541 29.7528C236.929 29.7528 235.889 29.3888 235.317 28.6218C235.07 28.2968 234.927 27.8158 234.927 27.3478C234.927 26.5028 235.317 25.6318 236.123 24.6698Z" fill="white"/>
<path d="M227.192 21.3679H220.406C219.834 22.2259 219.262 22.8889 218.469 23.6299C218.131 23.2009 217.858 22.9279 217.455 22.6159C218.56 21.6409 219.275 20.7439 219.808 19.6779C219.977 19.3529 220.055 19.1319 220.094 18.8589L221.654 19.0929C221.537 19.3139 221.537 19.3139 221.199 20.0029H227.192C227.933 20.0029 228.388 19.9769 228.817 19.9119V21.4459C228.388 21.3939 227.881 21.3679 227.192 21.3679ZM225.736 29.6489L224.761 30.7279C223.981 29.9739 223.396 29.4409 222.499 28.7259C221.498 29.5839 220.614 30.1429 218.742 31.0659C218.482 30.6109 218.287 30.3639 217.767 29.8439C219.535 29.0899 220.419 28.6089 221.368 27.8679C220.575 27.2829 220.133 26.9969 219.106 26.3859L220.055 25.5149C221.004 26.0609 221.433 26.3339 222.356 26.9579C222.967 26.3079 223.331 25.7749 223.487 25.2939L224.878 25.9569C224.748 26.0999 224.605 26.2949 224.319 26.6849C224.007 27.1269 223.799 27.3999 223.474 27.7639C224.267 28.3879 224.917 28.9209 225.736 29.6489ZM226.035 25.1509H219.717C219.041 25.1509 218.612 25.1769 218.222 25.2289V23.8639C218.521 23.9159 218.833 23.9289 219.34 23.9289H225.944C226.802 23.9289 227.075 23.9159 227.465 23.8769C227.413 24.2929 227.4 24.6309 227.4 25.0599C227.4 26.4379 227.53 27.5689 227.764 28.4009C227.92 28.9079 227.998 29.0769 228.219 29.2849C228.401 29.0379 228.492 28.4269 228.531 27.3609C228.96 27.7639 229.22 27.9329 229.649 28.1409C229.441 30.1819 229.038 31.0139 228.245 31.0139C227.66 31.0139 226.997 30.3379 226.633 29.3499C226.23 28.2839 226.061 27.0619 226.035 25.1509ZM220.029 23.2139V21.9529C220.198 21.9789 220.614 22.0049 221.004 22.0049H226.451C227.101 22.0049 227.543 21.9789 227.829 21.9399V23.2269C227.439 23.1749 227.101 23.1619 226.451 23.1619H221.264C220.731 23.1619 220.38 23.1749 220.029 23.2139Z" fill="white"/>
<path d="M205.352 25.8268L205.495 24.3318C206.093 24.5658 206.457 24.6438 207.783 24.8258C207.835 24.3578 207.952 23.4868 208.017 23.0058C207.25 22.9018 207.042 22.8758 206.158 22.6808C205.976 22.6418 205.911 22.6288 205.716 22.5898L205.846 21.1598C206.392 21.3678 207.315 21.5498 208.199 21.6278C208.381 20.5358 208.459 19.8598 208.459 19.4698C208.459 19.4308 208.459 19.4048 208.446 19.3398L210.175 19.4958C210.032 19.8988 209.993 20.0938 209.759 21.6928C211.228 21.6668 211.982 21.6018 212.723 21.4198L212.671 22.9408C212.502 22.9538 212.437 22.9668 212.151 22.9928C211.215 23.0708 210.799 23.0968 210.331 23.0968C210.201 23.0968 210.084 23.0968 209.525 23.0838C209.395 24.0328 209.356 24.2928 209.278 24.9168C209.668 24.9298 209.772 24.9298 209.915 24.9298C210.838 24.9298 211.774 24.8388 212.398 24.6698L212.359 26.1648C212.229 26.1648 212.19 26.1648 211.969 26.2038C211.397 26.2688 210.63 26.3208 210.019 26.3208C209.811 26.3208 209.694 26.3208 209.187 26.2948C209.148 26.6458 209.122 26.9838 209.122 27.2178C209.122 27.8548 209.265 28.2578 209.603 28.5568C209.98 28.8818 210.5 29.0378 211.215 29.0378C212.866 29.0378 213.815 28.3098 213.815 27.0358C213.815 26.2818 213.425 25.5538 212.645 24.8388C213.373 24.7868 213.646 24.7348 214.257 24.5138C214.582 24.8908 214.725 25.0858 214.868 25.3328C215.206 25.9048 215.427 26.6458 215.427 27.2438C215.427 28.1668 214.972 29.0638 214.179 29.6748C213.438 30.2468 212.463 30.5328 211.241 30.5328C208.875 30.5328 207.588 29.4018 207.588 27.3088C207.588 26.9708 207.601 26.6458 207.653 26.2038C206.873 26.0998 206.366 26.0218 205.846 25.9048C205.573 25.8398 205.534 25.8398 205.352 25.8268Z" fill="white"/>
<path d="M196.876 28.9208L196.577 27.5298C196.512 27.6988 196.499 27.7638 196.434 27.9718C195.888 27.3608 195.524 26.8538 195.121 26.1388C195.186 27.0228 195.199 27.2048 195.199 27.6208V29.7658C195.199 30.3898 195.212 30.7278 195.277 31.1178H193.769C193.834 30.7018 193.86 30.3118 193.86 29.7398V28.0628C193.86 27.5428 193.886 26.9318 193.912 26.5028C193.327 27.9328 192.911 28.6608 192.222 29.4278C192.079 28.9208 191.845 28.4528 191.559 28.0888C192.105 27.5298 192.521 26.9578 192.963 26.1648C193.236 25.6838 193.288 25.5538 193.652 24.6958H192.976C192.404 24.6958 192.118 24.7088 191.806 24.7608V23.3828C192.105 23.4348 192.378 23.4478 192.976 23.4478H193.847V20.3668C193.847 19.7818 193.834 19.4048 193.782 19.0928H195.264C195.212 19.4308 195.199 19.7298 195.199 20.3538V23.4478H195.81C196.304 23.4478 196.525 23.4348 196.811 23.3958V24.7478C196.499 24.7088 196.239 24.6958 195.784 24.6958H195.316C195.797 25.5148 196.278 26.0998 196.993 26.6848C196.811 27.0098 196.759 27.1268 196.629 27.4128C196.928 27.3998 197.383 27.3218 197.825 27.2308L200.867 26.5548V20.6138C200.867 19.8598 200.854 19.5088 200.789 19.1058H202.362C202.297 19.5348 202.284 19.8858 202.284 20.6008V26.2428C202.817 26.1128 203.051 26.0478 203.389 25.9178L203.662 27.3998C203.311 27.4388 202.947 27.5038 202.414 27.6338L202.284 27.6598V29.5578C202.284 30.2858 202.297 30.6758 202.362 31.0918H200.789C200.854 30.6498 200.867 30.3378 200.867 29.5448V27.9718L198.111 28.5958C197.539 28.7258 197.162 28.8298 196.876 28.9208ZM191.715 20.3018L192.82 19.8078C193.236 20.9648 193.431 21.6278 193.613 22.6158L192.521 23.0838C192.313 21.8878 192.079 21.0818 191.715 20.3018ZM196.187 19.7818L197.279 20.2628C196.941 21.4588 196.772 21.9138 196.239 23.0838L195.29 22.5898C195.706 21.7188 195.927 21.0428 196.187 19.7818ZM197.422 20.9648L198.332 19.9638C199.45 20.7438 199.866 21.1078 200.607 21.8748L199.723 22.9668C198.761 21.9398 198.696 21.8878 197.422 20.9648ZM197.019 24.1758L197.929 23.2138C198.956 23.9158 199.515 24.3968 200.191 25.1248L199.307 26.1778C198.397 25.2028 197.955 24.8128 197.019 24.1758Z" fill="white"/>
<path d="M183.72 24.28H180.47C179.872 24.28 179.534 24.293 179.131 24.345V23.11C179.495 23.149 179.833 23.162 180.47 23.162H182.043C181.848 22.746 181.705 22.447 181.562 22.2H180.158C179.521 22.2 179.027 22.226 178.611 22.265V20.965C179.014 21.017 179.43 21.043 180.093 21.043H180.509C180.262 20.588 180.106 20.38 179.625 19.834L180.925 19.34C181.367 19.951 181.549 20.263 181.926 21.043H182.667V20.12C182.667 19.73 182.641 19.366 182.602 19.106H184.019C183.993 19.34 183.98 19.626 183.98 20.068V21.043H184.903V20.068C184.903 19.652 184.89 19.353 184.864 19.106H186.281C186.242 19.353 186.216 19.704 186.216 20.12V21.043H187.035C187.49 20.393 187.737 19.938 187.971 19.301L189.31 19.795C188.998 20.315 188.79 20.64 188.504 21.043H188.868C189.544 21.043 189.947 21.017 190.337 20.965V22.265C189.934 22.226 189.427 22.2 188.79 22.2H187.49C187.243 22.72 187.191 22.837 187.009 23.162H188.517C189.154 23.162 189.479 23.149 189.856 23.11V24.345C189.453 24.293 189.128 24.28 188.517 24.28H185.124V24.904H187.841C188.426 24.904 188.816 24.891 189.18 24.839V26.009C188.816 25.957 188.413 25.944 187.841 25.944H185.124V26.594H188.751C189.492 26.594 189.947 26.568 190.324 26.516V27.816C189.843 27.764 189.362 27.738 188.764 27.738H186.151C186.593 28.115 187.178 28.466 187.919 28.778C188.751 29.129 189.427 29.311 190.623 29.519C190.259 30.013 190.103 30.299 189.882 30.845C187.698 30.247 186.229 29.454 185.059 28.271C185.098 28.765 185.098 28.882 185.098 29.194V29.831C185.098 30.377 185.124 30.78 185.189 31.144H183.655C183.707 30.767 183.733 30.338 183.733 29.818V29.194C183.733 28.895 183.733 28.843 183.772 28.31C183.161 28.934 182.68 29.311 181.9 29.74C181.068 30.195 180.275 30.533 179.248 30.832C179.04 30.377 178.793 29.987 178.455 29.584C180.353 29.181 181.666 28.609 182.706 27.738H180.288C179.677 27.738 179.209 27.764 178.715 27.816V26.516C179.131 26.568 179.573 26.594 180.275 26.594H183.72V25.944H181.146C180.574 25.944 180.184 25.957 179.82 26.009V24.839C180.184 24.891 180.561 24.904 181.146 24.904H183.72V24.28ZM183.421 23.162H185.566C185.761 22.785 185.865 22.551 185.995 22.2H183.031C183.213 22.59 183.291 22.785 183.421 23.162Z" fill="white"/>
<path d="M176.193 25.6582L176.388 25.9052C176.245 26.1262 176.245 26.1262 175.985 26.5292C175.53 27.2442 174.88 27.9982 174.191 28.6352C175.244 29.2202 176.245 29.5452 177.675 29.7662C177.311 30.3512 177.233 30.5332 176.999 31.1702C175.335 30.7802 174.113 30.2602 173.06 29.5192C171.994 30.2342 170.85 30.7282 169.368 31.1182C169.095 30.4942 168.952 30.2342 168.627 29.8182C169.94 29.5972 170.889 29.2592 171.955 28.6222C171.422 28.1022 171.097 27.6732 170.499 26.7632L171.734 26.3082H170.967C170.512 26.3082 170.278 26.3212 169.992 26.3602V25.6842H169.472C169.498 25.4112 169.511 25.2682 169.511 24.8262V23.7602C169.511 23.4092 169.498 23.2142 169.472 22.9802C169.693 23.0062 169.914 23.0192 170.486 23.0192H170.577C170.382 22.4342 170.226 22.0702 169.914 21.4982L171.058 21.1472C171.37 21.7192 171.435 21.8622 171.721 22.6292L170.694 23.0192H172.93C172.709 22.2002 172.631 21.9922 172.319 21.3032L173.541 20.9782C173.879 21.7712 173.957 21.9792 174.126 22.6682L173.008 23.0192H174.633C175.179 22.1612 175.439 21.6282 175.725 20.6662L177.025 21.1342C176.661 21.9012 176.349 22.4472 175.972 23.0192H176.128C176.778 23.0192 177.077 23.0062 177.428 22.9672C177.389 23.2532 177.389 23.4352 177.389 23.9162V24.8392C177.389 25.1252 177.402 25.3592 177.441 25.6582H176.193ZM176.024 25.4502V24.1632H170.824V25.0992H174.893C175.296 25.0992 175.53 25.0862 175.699 25.0472L176.024 25.4502ZM174.412 26.3082H171.786C172.176 26.9712 172.514 27.3742 173.073 27.8552C173.697 27.3482 173.996 26.9842 174.412 26.3082ZM166.963 21.4982V20.4452C166.963 19.8342 166.937 19.5222 166.885 19.1192H168.406C168.341 19.5092 168.328 19.8472 168.328 20.4322V21.4982H168.731C168.991 21.4982 169.147 21.4852 169.381 21.4462V22.7982C169.108 22.7722 168.939 22.7592 168.705 22.7592H168.328V24.7222C168.588 24.6182 168.744 24.5662 169.212 24.3712L169.238 25.6582C168.588 25.9182 168.588 25.9182 168.328 26.0222V29.7402C168.328 30.4292 168.172 30.7022 167.717 30.8452C167.379 30.9622 167.041 31.0012 166.482 31.0012C166.365 31.0012 166.183 30.9882 165.91 30.9752C165.858 30.4552 165.793 30.1692 165.598 29.6492C166.001 29.7142 166.313 29.7402 166.573 29.7402C166.885 29.7402 166.963 29.6752 166.963 29.3632V26.5032L166.378 26.6982C166.261 26.7372 166.261 26.7372 166.092 26.8022C166.027 26.8152 165.845 26.8932 165.689 26.9582L165.403 25.5152C165.754 25.4762 166.092 25.3852 166.963 25.1512V22.7592H166.469C166.157 22.7592 165.897 22.7722 165.559 22.8112V21.4332C165.845 21.4852 166.092 21.4982 166.482 21.4982H166.963ZM176.102 19.0542L177.103 20.2762C176.921 20.3152 176.921 20.3152 176.427 20.4192C174.919 20.7182 172.254 20.9912 169.823 21.0822C169.719 20.6142 169.589 20.2762 169.355 19.8732C169.498 19.8732 169.602 19.8732 169.693 19.8732C171.981 19.8732 175.205 19.4572 176.102 19.0542Z" fill="white"/>
<path d="M158.5 23.9292C159.124 23.9292 159.631 24.4362 159.631 25.0602C159.631 25.6842 159.124 26.1912 158.5 26.1912C157.876 26.1912 157.369 25.6842 157.369 25.0602C157.369 24.4362 157.876 23.9292 158.5 23.9292ZM162.842 23.9292C163.466 23.9292 163.973 24.4362 163.973 25.0602C163.973 25.6842 163.466 26.1912 162.842 26.1912C162.218 26.1912 161.711 25.6842 161.711 25.0602C161.711 24.4362 162.218 23.9292 162.842 23.9292ZM154.171 23.9292C154.795 23.9292 155.302 24.4362 155.302 25.0602C155.302 25.6842 154.795 26.1912 154.171 26.1912C153.547 26.1912 153.04 25.6842 153.04 25.0602C153.04 24.4362 153.547 23.9292 154.171 23.9292Z" fill="white"/>
<path d="M142.263 20.9129L142.77 19.3789C144.213 19.8599 146.137 20.1329 148.191 20.1329C148.256 20.1329 148.399 20.1329 148.555 20.1329L148.334 21.7319C145.968 21.6279 144.174 21.3939 142.263 20.9129ZM141.119 25.2549L140.742 23.5259C141.08 23.5129 141.08 23.5129 142.25 23.3049C144.096 22.9799 145.227 22.8629 146.332 22.8629C147.385 22.8629 148.191 23.0319 148.789 23.3959C149.595 23.8769 150.05 24.7479 150.05 25.7749C150.05 27.2569 149.153 28.6089 147.58 29.5059C146.514 30.1169 145.604 30.3899 143.485 30.7279C143.355 30.0389 143.212 29.7139 142.809 29.1029C144.317 29.0379 145.721 28.6739 146.722 28.1149C147.749 27.5429 148.308 26.7239 148.308 25.8269C148.308 24.8519 147.619 24.3579 146.267 24.3579C144.798 24.3579 142.198 24.8129 141.119 25.2549Z" fill="white"/>
<path d="M128.938 21.485L128.86 19.951C129.276 20.003 129.536 20.016 130.134 20.016C131.304 20.016 132.981 19.951 133.995 19.873C134.619 19.821 134.944 19.769 135.217 19.665L136.062 20.744C135.789 20.939 135.724 20.991 135.308 21.381C134.372 22.239 132.903 23.409 131.733 24.215C132.383 24.124 133.319 24.033 134.892 23.903C135.711 23.838 136.309 23.799 136.608 23.773C137.076 23.721 137.414 23.695 137.531 23.682C137.739 23.669 137.778 23.669 137.96 23.63L138.051 25.151C137.843 25.151 137.843 25.151 137.661 25.151C136.179 25.151 135.009 25.359 134.047 25.788C132.994 26.269 132.279 27.062 132.279 27.764C132.279 28.609 133.215 29.077 134.892 29.077C135.386 29.077 135.75 29.051 136.127 28.96L136.192 30.611C136.049 30.598 135.893 30.598 135.711 30.598C135.62 30.598 135.412 30.598 135.048 30.611C134.983 30.611 134.918 30.611 134.879 30.611C134.086 30.611 133.137 30.468 132.461 30.247C131.343 29.896 130.628 28.999 130.628 27.972C130.628 27.361 130.875 26.776 131.33 26.282C131.694 25.892 132.019 25.658 132.721 25.294C132.162 25.398 131.746 25.463 131.122 25.541C130.537 25.619 130.056 25.671 129.692 25.723C129.172 25.788 128.47 25.879 127.599 26.009C127.339 26.048 127.248 26.074 127.001 26.139L126.845 24.553C126.936 24.566 127.014 24.566 127.053 24.566C127.313 24.566 127.859 24.527 128.171 24.488C128.236 24.475 128.405 24.462 128.665 24.423C128.977 24.397 129.107 24.371 129.406 24.319C130.55 23.63 132.422 22.122 133.397 21.121C132.396 21.264 131.928 21.303 129.77 21.407C129.432 21.42 129.211 21.446 128.938 21.485Z" fill="white"/>
<path d="M118.681 19.9901V19.8341C118.681 19.5351 118.655 19.2751 118.603 19.0151H120.202C120.15 19.2881 120.124 19.5351 120.124 19.8211V19.9901H123.959C124.544 19.9901 124.908 19.9641 125.324 19.9121V21.2251C124.895 21.1731 124.57 21.1601 123.972 21.1601H115.002C114.417 21.1601 114.092 21.1731 113.663 21.2251V19.9121C114.079 19.9641 114.469 19.9901 115.08 19.9901H118.681ZM115.639 23.6821V22.5641C115.639 22.1481 115.626 21.9271 115.6 21.6151C115.977 21.6541 116.289 21.6671 116.861 21.6671H122.269C122.789 21.6671 123.062 21.6541 123.426 21.6151C123.4 21.9531 123.387 22.1481 123.387 22.5641V23.6821C123.387 24.1891 123.4 24.3321 123.426 24.6441C123.075 24.6051 122.776 24.5921 122.204 24.5921H116.822C116.315 24.5921 115.977 24.6051 115.6 24.6441C115.626 24.3711 115.639 24.1241 115.639 23.6821ZM116.991 22.7201V23.5131H122.022V22.7201H116.991ZM114.027 29.6751V26.2171C114.027 25.7751 114.014 25.4371 113.975 25.0341C114.391 25.0731 114.768 25.0861 115.327 25.0861H123.751C124.375 25.0861 124.687 25.0731 125.025 25.0341C124.986 25.4371 124.973 25.7361 124.973 26.2041V29.5191C124.973 30.1691 124.908 30.4161 124.661 30.6371C124.401 30.8711 124.011 30.9491 123.101 30.9491C122.828 30.9491 122.763 30.9491 122.347 30.9231C122.139 30.9101 122.139 30.9101 121.931 30.9101C121.905 30.3251 121.84 30.0261 121.645 29.6101C122.36 29.6881 122.919 29.7271 123.283 29.7271C123.53 29.7271 123.595 29.6621 123.595 29.4541V26.2171H115.405V29.6751C115.405 30.3381 115.418 30.6501 115.483 31.1051H113.949C114.001 30.8321 114.027 30.2861 114.027 29.6751ZM122.269 27.5171V28.6221C122.269 28.9991 122.282 29.2591 122.308 29.4931C122.061 29.4671 121.58 29.4541 121.229 29.4541H117.953V30.1041H116.614C116.653 29.8571 116.666 29.5711 116.666 29.0511V27.5431C116.666 27.1661 116.653 26.9451 116.627 26.6851C116.926 26.7111 117.199 26.7241 117.68 26.7241H121.242C121.736 26.7241 121.918 26.7111 122.308 26.6851C122.282 26.9321 122.269 27.1271 122.269 27.5171ZM117.953 27.7121V28.4271H121.021V27.7121H117.953Z" fill="white"/>
<path d="M159.124 86.3739H157.382C157.408 86.1529 157.421 85.9969 157.421 85.8279L157.408 85.5809C157.408 84.8919 157.577 84.3589 157.941 83.8909C158.214 83.5659 158.318 83.4749 159.163 82.9159C160.008 82.3569 160.307 81.9539 160.307 81.3559C160.307 80.5629 159.618 80.0689 158.513 80.0689C157.837 80.0689 157.265 80.3419 156.953 80.8099C156.771 81.0829 156.693 81.3039 156.641 81.7979L154.717 81.5639C154.925 80.6149 155.185 80.1209 155.744 79.6009C156.407 79.0029 157.395 78.6909 158.617 78.6909C159.709 78.6909 160.58 78.9509 161.23 79.4709C161.841 79.9519 162.153 80.5629 162.153 81.2909C162.153 81.9149 162.01 82.4089 161.698 82.8249C161.399 83.2409 161.152 83.4489 160.099 84.1639C159.293 84.7099 159.085 85.0219 159.085 85.7109C159.085 85.9189 159.098 86.1269 159.124 86.3739ZM157.304 87.4529H159.189V89.2339H157.304V87.4529Z" fill="white"/>
<path d="M142.731 79.7051L143.485 78.3921C144.382 78.8861 146.865 79.6271 148.334 79.8351L147.801 81.3301C145.578 80.8231 144.213 80.3941 142.731 79.7051ZM141.691 80.8491L143.316 80.9401C143.121 81.6551 142.9 82.8641 142.731 84.1381C142.705 84.3201 142.705 84.3201 142.666 84.5151L142.692 84.5411C143.446 83.8131 145.058 83.3061 146.631 83.3061C148.841 83.3061 150.297 84.3981 150.297 86.0621C150.297 87.0111 149.79 87.9731 148.958 88.5711C148.113 89.1821 147.034 89.4551 145.526 89.4551C144.408 89.4551 143.693 89.3641 142.211 89.0001C142.198 88.1941 142.172 87.9341 142.016 87.3231C143.29 87.7651 144.408 87.9731 145.513 87.9731C147.346 87.9731 148.62 87.2061 148.62 86.1011C148.62 85.2301 147.801 84.7101 146.423 84.7101C145.266 84.7101 144.057 85.0611 143.186 85.6591C142.952 85.8281 142.874 85.9061 142.601 86.2181L140.963 86.1661C141.002 85.9321 141.002 85.8801 141.067 85.3861C141.171 84.5801 141.379 83.1371 141.613 81.6031C141.665 81.2911 141.678 81.1351 141.691 80.8491Z" fill="white"/>
<path d="M128.652 78.6128L130.472 78.6388C130.394 79.0158 130.368 79.3928 130.316 80.3938C130.264 81.6028 130.186 84.2418 130.186 85.1648C130.186 86.3998 130.264 86.8678 130.524 87.2578C130.823 87.6868 131.447 87.9338 132.266 87.9338C133.67 87.9338 134.801 87.1408 135.412 85.7108C135.698 85.0348 135.867 84.4238 136.01 83.5268C136.712 84.0988 136.946 84.2418 137.583 84.5278C137.063 86.2828 136.673 87.1278 136.036 87.8428C135.061 88.9478 133.774 89.4938 132.136 89.4938C131.239 89.4938 130.407 89.2858 129.861 88.9218C128.964 88.3238 128.587 87.3228 128.587 85.5808C128.587 84.9048 128.613 83.6048 128.691 80.3418C128.704 79.9518 128.704 79.6788 128.704 79.4968C128.704 79.1328 128.691 78.9508 128.652 78.6128Z" fill="white"/>
<path d="M116.939 78.3271L118.629 78.5091C118.59 78.6261 118.551 78.7691 118.525 78.9121C118.499 79.0811 118.486 79.1461 118.447 79.3541C118.408 79.6271 118.408 79.6271 118.226 80.6021C118.174 80.8881 118.174 80.9141 118.135 81.0831C118.512 81.0571 118.694 81.0441 118.941 81.0441C119.799 81.0441 120.436 81.2781 120.865 81.7331C121.307 82.2271 121.476 82.8511 121.476 84.0341C121.476 86.2701 121.099 88.0511 120.475 88.7661C120.111 89.1951 119.721 89.3511 119.032 89.3511C118.434 89.3511 117.901 89.2471 117.03 88.9741C117.043 88.7141 117.056 88.5321 117.056 88.4021C117.056 88.0641 117.03 87.8041 116.926 87.2971C117.628 87.6091 118.369 87.8041 118.824 87.8041C119.201 87.8041 119.409 87.5571 119.604 86.9201C119.812 86.2441 119.942 85.0611 119.942 83.9561C119.942 82.7601 119.643 82.4091 118.616 82.4091C118.356 82.4091 118.161 82.4221 117.862 82.4481C117.472 84.0341 117.355 84.4241 117.069 85.2691C116.614 86.5691 116.263 87.4011 115.509 88.9221C115.444 89.0521 115.444 89.0521 115.314 89.3121C115.275 89.3901 115.275 89.4031 115.21 89.5331L113.702 88.7011C114.092 88.1811 114.612 87.2451 115.054 86.2571C115.613 84.9831 115.795 84.4371 116.315 82.5781C115.652 82.6561 114.417 82.8771 113.988 82.9941L113.832 81.4601C114.313 81.4601 115.886 81.3041 116.601 81.2001C116.835 79.7961 116.939 79.0031 116.939 78.5741C116.939 78.5221 116.939 78.4311 116.939 78.3271ZM121.593 80.8231L122.932 80.1731C124.232 81.6941 125.051 83.2411 125.61 85.2431L124.128 85.9971C123.881 84.8791 123.582 84.0211 123.088 83.0461C122.62 82.0841 122.204 81.4861 121.593 80.8231Z" fill="white"/>
<path d="M302.121 63.6669C301.874 65.7079 301.419 67.5019 300.769 68.9709C300.028 70.6479 299.196 71.4149 298.13 71.4149C296.648 71.4149 295.582 69.9069 295.582 67.8139C295.582 66.3839 296.089 65.0449 297.012 64.0309C298.104 62.8349 299.638 62.2109 301.484 62.2109C304.604 62.2109 306.632 64.1089 306.632 67.0339C306.632 69.2829 305.462 71.0769 303.473 71.8829C302.849 72.1429 302.342 72.2729 301.432 72.4289C301.211 71.7399 301.055 71.4539 300.639 70.9079C301.835 70.7519 302.615 70.5439 303.226 70.1929C304.357 69.5689 305.033 68.3339 305.033 66.9429C305.033 65.6949 304.474 64.6809 303.434 64.0569C303.031 63.8229 302.693 63.7189 302.121 63.6669ZM300.535 63.6799C299.859 63.7579 299.391 63.9399 298.858 64.3169C297.766 65.0969 297.09 66.4359 297.09 67.8269C297.09 68.8929 297.545 69.7379 298.117 69.7379C298.546 69.7379 298.988 69.1919 299.456 68.0739C299.95 66.9039 300.379 65.1489 300.535 63.6799Z" fill="white"/>
<path d="M286.729 66.6051L286.755 66.6311C287.938 66.1631 288.51 66.0331 289.485 66.0331C291.708 66.0331 293.138 67.1771 293.138 68.9581C293.138 70.1931 292.527 71.1811 291.37 71.8311C290.525 72.3121 289.42 72.5721 288.224 72.5721C287.132 72.5721 286.222 72.3641 285.702 71.9741C285.208 71.6101 284.922 71.0641 284.922 70.4791C284.922 69.4001 285.858 68.6201 287.158 68.6201C288.068 68.6201 288.861 68.9971 289.407 69.6861C289.667 70.0111 289.81 70.2971 290.005 70.8561C291.084 70.4531 291.552 69.8941 291.552 68.9711C291.552 67.9571 290.551 67.2941 288.978 67.2941C287.08 67.2941 285.182 68.0611 283.622 69.4781L282.738 68.0741C283.193 67.8531 283.713 67.5021 284.571 66.8521C285.78 65.9291 287.47 64.4731 288.458 63.4721C288.484 63.4461 288.614 63.3161 288.692 63.2381L288.679 63.2251C288.185 63.2901 287.353 63.3421 285 63.4461C284.714 63.4591 284.623 63.4721 284.376 63.5111L284.311 61.9511C284.753 62.0031 285.13 62.0291 285.845 62.0291C286.95 62.0291 288.536 61.9641 289.797 61.8731C290.252 61.8341 290.395 61.8081 290.603 61.7041L291.409 62.8481C291.188 62.9651 291.097 63.0431 290.733 63.3811C290.083 63.9791 289.134 64.8241 288.692 65.2011C288.458 65.3961 287.522 66.0981 287.262 66.2671C286.937 66.4881 286.937 66.4881 286.729 66.6051ZM288.601 71.2331C288.367 70.3361 287.873 69.8681 287.145 69.8681C286.677 69.8681 286.378 70.1021 286.378 70.4661C286.378 70.9861 286.963 71.2851 287.925 71.2851C288.172 71.2851 288.237 71.2851 288.601 71.2331Z" fill="white"/>
<path d="M272.546 61.3271L274.236 61.5091C274.197 61.6261 274.158 61.7691 274.132 61.9121C274.106 62.0811 274.093 62.1461 274.054 62.3541C274.015 62.6271 274.015 62.6271 273.833 63.6021C273.781 63.8881 273.781 63.9141 273.742 64.0831C274.119 64.0571 274.301 64.0441 274.548 64.0441C275.406 64.0441 276.043 64.2781 276.472 64.7331C276.914 65.2271 277.083 65.8511 277.083 67.0341C277.083 69.2701 276.706 71.0511 276.082 71.7661C275.718 72.1951 275.328 72.3511 274.639 72.3511C274.041 72.3511 273.508 72.2471 272.637 71.9741C272.65 71.7141 272.663 71.5321 272.663 71.4021C272.663 71.0641 272.637 70.8041 272.533 70.2971C273.235 70.6091 273.976 70.8041 274.431 70.8041C274.808 70.8041 275.016 70.5571 275.211 69.9201C275.419 69.2441 275.549 68.0611 275.549 66.9561C275.549 65.7601 275.25 65.4091 274.223 65.4091C273.963 65.4091 273.768 65.4221 273.469 65.4481C273.079 67.0341 272.962 67.4241 272.676 68.2691C272.221 69.5691 271.87 70.4011 271.116 71.9221C271.051 72.0521 271.051 72.0521 270.921 72.3121C270.882 72.3901 270.882 72.4031 270.817 72.5331L269.309 71.7011C269.699 71.1811 270.219 70.2451 270.661 69.2571C271.22 67.9831 271.402 67.4371 271.922 65.5781C271.259 65.6561 270.024 65.8771 269.595 65.9941L269.439 64.4601C269.92 64.4601 271.493 64.3041 272.208 64.2001C272.442 62.7961 272.546 62.0031 272.546 61.5741C272.546 61.5221 272.546 61.4311 272.546 61.3271ZM277.2 63.8231L278.539 63.1731C279.839 64.6941 280.658 66.2411 281.217 68.2431L279.735 68.9971C279.488 67.8791 279.189 67.0211 278.695 66.0461C278.227 65.0841 277.811 64.4861 277.2 63.8231Z" fill="white"/>
<path d="M259.546 61.3271L261.236 61.5091C261.197 61.6261 261.158 61.7691 261.132 61.9121C261.106 62.0811 261.093 62.1461 261.054 62.3541C261.015 62.6271 261.015 62.6271 260.833 63.6021C260.781 63.8881 260.781 63.9141 260.742 64.0831C261.119 64.0571 261.301 64.0441 261.548 64.0441C262.406 64.0441 263.043 64.2781 263.472 64.7331C263.914 65.2271 264.083 65.8511 264.083 67.0341C264.083 69.2701 263.706 71.0511 263.082 71.7661C262.718 72.1951 262.328 72.3511 261.639 72.3511C261.041 72.3511 260.508 72.2471 259.637 71.9741C259.65 71.7141 259.663 71.5321 259.663 71.4021C259.663 71.0641 259.637 70.8041 259.533 70.2971C260.235 70.6091 260.976 70.8041 261.431 70.8041C261.808 70.8041 262.016 70.5571 262.211 69.9201C262.419 69.2441 262.549 68.0611 262.549 66.9561C262.549 65.7601 262.25 65.4091 261.223 65.4091C260.963 65.4091 260.768 65.4221 260.469 65.4481C260.079 67.0341 259.962 67.4241 259.676 68.2691C259.221 69.5691 258.87 70.4011 258.116 71.9221C258.051 72.0521 258.051 72.0521 257.921 72.3121C257.882 72.3901 257.882 72.4031 257.817 72.5331L256.309 71.7011C256.699 71.1811 257.219 70.2451 257.661 69.2571C258.22 67.9831 258.402 67.4371 258.922 65.5781C258.259 65.6561 257.024 65.8771 256.595 65.9941L256.439 64.4601C256.92 64.4601 258.493 64.3041 259.208 64.2001C259.442 62.7961 259.546 62.0031 259.546 61.5741C259.546 61.5221 259.546 61.4311 259.546 61.3271ZM264.2 63.8231L265.539 63.1731C266.839 64.6941 267.658 66.2411 268.217 68.2431L266.735 68.9971C266.488 67.8791 266.189 67.0211 265.695 66.0461C265.227 65.0841 264.811 64.4861 264.2 63.8231Z" fill="white"/>
<path d="M251.706 64.6158L253.019 63.9658C254.02 65.2918 254.644 66.5918 255.138 68.3338L253.656 69.0748C253.409 67.9698 253.123 67.1638 252.629 66.1498C252.239 65.3828 252.044 65.0448 251.706 64.6158ZM251.069 62.1718L252.083 61.6648C252.603 62.2238 252.902 62.6268 253.305 63.3678L252.291 63.9008C251.94 63.2378 251.537 62.6658 251.069 62.1718ZM254.774 62.6138L253.786 63.1728C253.448 62.5618 253.058 62.0158 252.59 61.4958L253.565 60.9888C254.072 61.5218 254.423 61.9898 254.774 62.6138ZM246.467 61.4178L248.157 61.5868C248.118 61.7168 248.079 61.8598 248.053 61.9898C248.027 62.1718 248.014 62.2368 247.975 62.4318C247.936 62.7178 247.936 62.7178 247.754 63.6928C247.702 63.9788 247.702 63.9918 247.663 64.1608C248.04 64.1478 248.222 64.1348 248.469 64.1348C249.327 64.1348 249.964 64.3688 250.393 64.8238C250.835 65.3178 251.004 65.9418 251.004 67.1248C251.004 69.3608 250.627 71.1418 250.003 71.8568C249.639 72.2858 249.249 72.4418 248.56 72.4418C247.962 72.4418 247.429 72.3378 246.558 72.0518C246.571 71.8048 246.584 71.6098 246.584 71.4798C246.584 71.1418 246.558 70.8818 246.454 70.3748C247.156 70.6868 247.897 70.8948 248.352 70.8948C248.729 70.8948 248.937 70.6478 249.132 70.0108C249.34 69.3348 249.47 68.1518 249.47 67.0468C249.47 65.8508 249.171 65.4998 248.144 65.4998C247.884 65.4998 247.689 65.5128 247.39 65.5388C247 67.1248 246.883 67.5018 246.597 68.3598C246.142 69.6468 245.791 70.4788 245.037 72.0128C244.972 72.1298 244.972 72.1298 244.842 72.3898C244.803 72.4678 244.803 72.4938 244.738 72.6108L243.23 71.7788C243.62 71.2718 244.14 70.3358 244.582 69.3348C245.141 68.0608 245.323 67.5278 245.843 65.6558C245.18 65.7338 243.945 65.9678 243.516 66.0848L243.36 64.5508C243.841 64.5508 245.414 64.3948 246.129 64.2778C246.363 62.8868 246.467 62.0808 246.467 61.6518C246.467 61.5998 246.467 61.5218 246.467 61.4178Z" fill="white"/>
<path d="M235.548 68.984H232.558C232.376 70.713 231.986 71.935 231.232 73.092C230.686 72.572 230.504 72.429 229.971 72.065C230.439 71.389 230.738 70.7 230.92 69.868C231.05 69.257 231.141 68.581 231.18 67.879C231.245 66.787 231.297 64.941 231.297 63.407C231.297 62.471 231.284 62.055 231.232 61.522C231.687 61.561 232.025 61.574 232.727 61.574H240.02C240.748 61.574 241.112 61.561 241.515 61.522C241.476 61.964 241.463 62.289 241.463 62.991V71.532C241.463 72.611 241.073 72.884 239.591 72.884C239.188 72.884 238.525 72.858 238.135 72.832C238.07 72.338 237.979 72.026 237.771 71.48C238.421 71.545 238.993 71.584 239.409 71.584C239.942 71.584 240.059 71.532 240.059 71.259V68.984H236.939V71.116C236.939 71.87 236.952 72.286 237.004 72.663H235.47C235.522 72.273 235.548 71.896 235.548 71.129V68.984ZM235.548 67.697V65.916H232.675C232.675 66.293 232.662 66.553 232.662 66.735C232.649 67.346 232.649 67.437 232.649 67.697H235.548ZM236.939 67.697H240.059V65.916H236.939V67.697ZM235.548 64.642V62.939H232.714V64.278L232.701 64.642H235.548ZM236.939 64.642H240.059V62.939H236.939V64.642Z" fill="white"/>
<path d="M225.199 64.6812H227.838C228.41 64.6812 228.644 64.6682 228.943 64.6422C228.904 64.8632 228.904 64.8632 228.826 65.5262C228.67 66.6182 228.462 66.8652 227.578 66.9172C227.578 67.2682 227.578 67.4762 227.578 67.6712V69.9072C227.578 70.4792 227.591 70.9472 227.63 71.2852C227.357 71.2592 226.785 71.2462 226.252 71.2462H225.628C226.564 71.7272 227.604 71.9742 229.177 72.0912C228.826 72.5072 228.683 72.7152 228.371 73.2612C226.525 72.9622 225.615 72.6372 224.133 71.7792L224.848 71.2462H221.468L222.118 71.7792C220.714 72.6112 219.895 72.9102 218.01 73.2742C217.737 72.7802 217.62 72.6112 217.217 72.1432C218.777 71.9612 219.661 71.7272 220.688 71.2462H220.077C219.518 71.2462 218.998 71.2592 218.699 71.2852C218.725 71.0512 218.751 70.5442 218.751 69.9852V67.5672C218.4 67.6972 218.218 67.7492 217.711 67.9052L217.607 67.6712C217.438 67.2552 217.386 67.1512 217.087 66.7482C218.738 66.3972 219.375 66.1632 220.064 65.6302H218.621C218.348 65.6302 217.906 65.6432 217.542 65.6562C217.919 64.8892 218.179 64.0962 218.296 63.2902C218.556 63.3162 218.868 63.3292 219.388 63.3292H221.091C221.117 63.0172 221.13 63.0172 221.13 62.8742H219.024C218.439 62.8742 218.049 62.8872 217.776 62.9392V61.8082C218.114 61.8602 218.413 61.8732 219.024 61.8732H221.169C221.169 61.5222 221.156 61.3142 221.117 61.0542H222.508C222.482 61.2102 222.482 61.2752 222.456 61.8732H223.912C223.912 61.4702 223.899 61.3272 223.847 61.0542H225.264C225.212 61.3402 225.199 61.4962 225.199 61.8732H226.967C227.396 61.8732 227.942 61.8472 228.241 61.8082C228.202 62.1072 228.189 62.3022 228.189 62.8222V63.3422C228.189 63.8232 228.189 63.9532 228.228 64.2652C227.812 64.2392 227.422 64.2262 226.954 64.2262H225.199V64.6812ZM226.304 66.2672H226.538C226.499 66.1242 226.486 66.0722 226.408 65.9162C226.681 65.9942 226.967 66.0332 227.136 66.0332C227.396 66.0332 227.448 65.9812 227.487 65.6302H225.199V66.2672H226.304ZM223.912 66.2672V65.6302H221.676C221.494 65.8902 221.377 66.0202 221.091 66.2672H223.912ZM220.948 64.2262H219.414C219.349 64.4602 219.323 64.5252 219.258 64.6812H220.792C220.857 64.4992 220.883 64.4212 220.948 64.2262ZM223.912 64.2262H222.248C222.196 64.4212 222.183 64.4862 222.131 64.6812H223.912V64.2262ZM223.912 62.8742H222.417C222.417 63.0562 222.404 63.1212 222.391 63.3292H223.912V62.8742ZM225.199 62.8742V63.3292H226.837V62.8742H225.199ZM220.09 67.1642V67.6192H226.226V67.1642H220.09ZM220.09 68.4512V68.9322H226.226V68.4512H220.09ZM220.09 69.7642V70.2452H226.226V69.7642H220.09Z" fill="white"/>
<path d="M204.998 62.4448H206.779C206.714 62.9258 206.675 63.5628 206.675 64.4208C206.675 65.5518 206.779 67.1118 206.922 67.9048C207.143 69.2568 207.559 70.0888 207.975 70.0888C208.17 70.0888 208.352 69.8938 208.508 69.5298C208.82 68.8278 209.054 68.0478 209.197 67.1768C209.652 67.6968 209.86 67.8918 210.497 68.3598C209.821 70.8948 209.067 71.9478 207.962 71.9478C207.091 71.9478 206.389 71.3108 205.869 70.0628C205.336 68.7628 205.102 66.8778 205.05 63.2768C205.037 62.8218 205.037 62.7308 204.998 62.4448ZM211.563 63.6798L212.928 63.0298C214.566 64.9928 215.476 67.1638 215.853 70.0238L214.241 70.6348C214.163 69.4128 213.864 68.0608 213.409 66.8778C212.967 65.6948 212.343 64.6418 211.563 63.6798Z" fill="white"/>
<path d="M194.338 62.7051L195.092 61.3921C195.989 61.8861 198.472 62.6271 199.941 62.8351L199.408 64.3301C197.185 63.8231 195.82 63.3941 194.338 62.7051ZM193.298 63.8491L194.923 63.9401C194.728 64.6551 194.507 65.8641 194.338 67.1381C194.312 67.3201 194.312 67.3201 194.273 67.5151L194.299 67.5411C195.053 66.8131 196.665 66.3061 198.238 66.3061C200.448 66.3061 201.904 67.3981 201.904 69.0621C201.904 70.0111 201.397 70.9731 200.565 71.5711C199.72 72.1821 198.641 72.4551 197.133 72.4551C196.015 72.4551 195.3 72.3641 193.818 72.0001C193.805 71.1941 193.779 70.9341 193.623 70.3231C194.897 70.7651 196.015 70.9731 197.12 70.9731C198.953 70.9731 200.227 70.2061 200.227 69.1011C200.227 68.2301 199.408 67.7101 198.03 67.7101C196.873 67.7101 195.664 68.0611 194.793 68.6591C194.559 68.8281 194.481 68.9061 194.208 69.2181L192.57 69.1661C192.609 68.9321 192.609 68.8801 192.674 68.3861C192.778 67.5801 192.986 66.1371 193.22 64.6031C193.272 64.2911 193.285 64.1351 193.298 63.8491Z" fill="white"/>
<path d="M185.602 61.21L187.097 62.354C186.876 62.51 186.629 62.731 185.498 63.784C184.835 64.395 183.925 65.123 182.404 66.28C182.001 66.579 181.91 66.683 181.91 66.826C181.91 67.021 181.936 67.047 183.08 67.905C185.108 69.439 185.485 69.764 187.175 71.298C187.305 71.428 187.383 71.493 187.552 71.623L186.213 72.975C185.875 72.507 185.407 72.013 184.523 71.194C183.6 70.336 183.171 69.985 181.169 68.425C180.311 67.762 180.077 67.411 180.077 66.813C180.077 66.423 180.22 66.072 180.506 65.76C180.675 65.578 180.688 65.565 181.65 64.824C183.054 63.758 183.782 63.134 184.653 62.289C185.238 61.704 185.381 61.535 185.602 61.21Z" fill="white"/>
<path d="M169.303 65.8771H169.316C169.693 65.4611 169.966 65.2271 170.902 64.5251C172.033 63.6671 172.852 63.3031 173.645 63.3031C174.737 63.3031 175.465 63.9921 175.465 65.0321C175.465 65.4611 175.374 66.0201 175.14 67.0211C174.698 68.9841 174.594 69.5301 174.594 69.9461C174.594 70.3621 174.789 70.5961 175.127 70.5961C175.413 70.5961 175.764 70.3361 176.037 69.9331C176.349 69.4781 176.635 68.9191 176.791 68.4511C177.077 69.1401 177.233 69.4131 177.662 70.0111C177.272 70.6871 177.09 70.9341 176.752 71.2981C176.18 71.9351 175.543 72.2341 174.828 72.2341C174.399 72.2341 173.996 72.1041 173.71 71.8961C173.242 71.5321 173.034 71.0511 173.034 70.2581C173.034 69.5041 173.086 69.1531 173.567 66.9951C173.762 66.1631 173.84 65.6561 173.84 65.3571C173.84 65.0451 173.658 64.8761 173.307 64.8761C172.891 64.8761 172.332 65.1231 171.695 65.5781C170.746 66.2801 169.823 67.0991 169.329 67.6971C169.303 68.2821 169.303 68.6461 169.303 69.0101C169.303 69.1141 169.303 69.1141 169.316 70.5571C169.329 72.1821 169.329 72.2211 169.381 72.7021H167.704C167.782 72.1691 167.782 72.1691 167.795 70.6351C167.795 69.2441 167.795 69.2441 167.821 68.8931L167.795 68.9061C167.678 69.0881 167.535 69.2571 166.872 69.9981C166.586 70.3231 166.404 70.5441 166.274 70.7391L165.52 69.1921C165.819 68.9841 166.027 68.7891 166.365 68.4511C167.587 67.2421 167.587 67.2421 167.834 66.9691C167.847 66.3451 167.847 66.2021 167.873 65.6951C167.873 65.3961 167.886 65.3701 167.886 65.0191C166.508 65.1101 166.248 65.1361 165.897 65.2011L165.819 63.7321C166.053 63.7581 166.17 63.7581 166.352 63.7581C166.599 63.7581 167.314 63.7191 167.925 63.6801C167.938 63.4851 167.938 63.4851 167.951 63.1861C167.951 62.8221 167.964 62.4191 167.964 62.1201C167.964 61.7821 167.964 61.6911 167.925 61.3921L169.576 61.4181C169.537 61.5741 169.537 61.6001 169.524 61.8991C169.524 61.9641 169.511 62.1331 169.485 62.3931C169.472 62.6531 169.459 62.7571 169.433 63.5501C169.446 63.5501 169.498 63.5241 169.589 63.4981L170.07 64.0441C169.94 64.1481 169.888 64.2001 169.693 64.4341C169.628 64.4991 169.628 64.4991 169.511 64.6681C169.459 64.7461 169.433 64.7721 169.355 64.8761L169.329 65.6431C169.329 65.6431 169.316 65.7211 169.303 65.8771Z" fill="white"/>
<path d="M155.757 61.6651L157.447 61.4051C157.499 62.2761 157.889 64.1481 158.305 65.4741C159.15 65.1491 159.15 65.1491 161.672 64.3301C161.906 64.2521 161.971 64.2261 162.166 64.1351L162.725 65.7731C161.594 65.9811 159.891 66.4751 158.435 67.0211C156.537 67.7231 155.588 68.5421 155.588 69.4781C155.588 70.4271 156.472 70.8301 158.565 70.8301C160.19 70.8301 161.789 70.6351 162.764 70.3101L162.907 72.0781C162.621 72.0911 162.556 72.0911 161.854 72.1691C160.45 72.3121 159.722 72.3641 158.812 72.3641C157.005 72.3641 155.874 72.1431 155.042 71.6491C154.327 71.2201 153.911 70.4271 153.911 69.4781C153.911 68.6201 154.327 67.7881 155.068 67.1511C155.575 66.7221 155.991 66.4621 156.836 66.0461C156.511 64.9931 156.29 64.1221 155.965 62.5101C155.835 61.8861 155.822 61.8601 155.757 61.6651ZM160.099 62.1331L161.1 61.6651C161.62 62.2371 161.854 62.5751 162.27 63.4071L161.269 63.9011C160.892 63.1471 160.567 62.6661 160.099 62.1331ZM163.713 62.6661L162.738 63.1861C162.374 62.4971 162.062 62.0291 161.594 61.4701L162.543 61.0151C163.05 61.5611 163.349 61.9901 163.713 62.6661Z" fill="white"/>
<path d="M142.432 72.3118L140.859 72.4028C140.846 72.1688 140.833 72.0908 140.794 71.7918C140.547 70.2188 140.456 69.2178 140.456 67.9048C140.456 66.2278 140.612 64.7458 140.989 62.8218C141.132 62.0938 141.158 61.9638 141.184 61.6128L142.9 61.7948C142.588 62.5618 142.289 64.0178 142.081 65.6818C141.951 66.6568 141.899 67.4238 141.886 68.5548C141.886 68.8408 141.873 68.9448 141.86 69.2698C142.003 68.8148 142.029 68.7238 142.536 67.5538L143.576 68.0218C142.861 69.5298 142.419 71.0378 142.419 71.9608C142.419 72.0388 142.419 72.1428 142.432 72.3118ZM144.226 64.5248L144.252 62.9648C144.837 63.1208 145.526 63.1728 146.657 63.1728C148.1 63.1728 149.335 63.0558 150.193 62.8218L150.271 64.3948C150.167 64.4078 149.972 64.4338 149.348 64.5118C148.516 64.6158 147.528 64.6678 146.566 64.6678C145.617 64.6678 145.604 64.6678 144.226 64.5248ZM145.123 66.6698L146.397 67.2678C145.747 68.0218 145.474 68.5808 145.474 69.1398C145.474 69.8808 146.189 70.2708 147.541 70.2708C148.685 70.2708 149.816 70.0888 150.635 69.7768L150.765 71.4278C150.583 71.4408 150.531 71.4538 150.232 71.5058C149.192 71.6748 148.399 71.7528 147.541 71.7528C145.929 71.7528 144.889 71.3888 144.317 70.6218C144.07 70.2968 143.927 69.8158 143.927 69.3478C143.927 68.5028 144.317 67.6318 145.123 66.6698Z" fill="white"/>
<path d="M129.432 72.3118L127.859 72.4028C127.846 72.1688 127.833 72.0908 127.794 71.7918C127.547 70.2188 127.456 69.2178 127.456 67.9048C127.456 66.2278 127.612 64.7458 127.989 62.8218C128.132 62.0938 128.158 61.9638 128.184 61.6128L129.9 61.7948C129.588 62.5618 129.289 64.0178 129.081 65.6818C128.951 66.6568 128.899 67.4238 128.886 68.5548C128.886 68.8408 128.873 68.9448 128.86 69.2698C129.003 68.8148 129.029 68.7238 129.536 67.5538L130.576 68.0218C129.861 69.5298 129.419 71.0378 129.419 71.9608C129.419 72.0388 129.419 72.1428 129.432 72.3118ZM131.226 64.5248L131.252 62.9648C131.837 63.1208 132.526 63.1728 133.657 63.1728C135.1 63.1728 136.335 63.0558 137.193 62.8218L137.271 64.3948C137.167 64.4078 136.972 64.4338 136.348 64.5118C135.516 64.6158 134.528 64.6678 133.566 64.6678C132.617 64.6678 132.604 64.6678 131.226 64.5248ZM132.123 66.6698L133.397 67.2678C132.747 68.0218 132.474 68.5808 132.474 69.1398C132.474 69.8808 133.189 70.2708 134.541 70.2708C135.685 70.2708 136.816 70.0888 137.635 69.7768L137.765 71.4278C137.583 71.4408 137.531 71.4538 137.232 71.5058C136.192 71.6748 135.399 71.7528 134.541 71.7528C132.929 71.7528 131.889 71.3888 131.317 70.6218C131.07 70.2968 130.927 69.8158 130.927 69.3478C130.927 68.5028 131.317 67.6318 132.123 66.6698Z" fill="white"/>
<path d="M116.965 61.2231L118.629 61.3921C118.551 61.6391 118.551 61.6391 118.421 62.2631C118.356 62.5751 118.291 62.8351 118.148 63.4071C119.045 63.3161 119.721 63.1991 120.228 63.0431L120.267 64.5381C120.124 64.5511 120.098 64.5511 119.851 64.6031C119.383 64.6811 118.59 64.7721 117.784 64.8371C117.407 66.1371 116.939 67.3721 116.354 68.6071C116.055 69.2441 115.938 69.4781 115.444 70.3881C115.275 70.7001 115.275 70.7001 115.197 70.8561L113.702 70.0241C114.157 69.4261 114.521 68.8411 114.963 67.9441C115.47 66.9041 115.691 66.3711 116.185 64.8761C115.6 64.8891 115.522 64.8891 115.366 64.8891C115.197 64.8891 115.119 64.8891 114.846 64.8761L114.157 64.8631V63.3811C114.625 63.4721 115.119 63.4981 115.912 63.4981C116.068 63.4981 116.289 63.4981 116.575 63.4851C116.796 62.5621 116.939 61.7821 116.965 61.2231ZM125.285 64.6031L124.583 65.9421C123.452 65.1881 122.295 64.6291 120.839 64.1221L121.619 62.8611C123.153 63.4461 124.128 63.9011 125.285 64.6031ZM125.233 70.4661L124.518 71.9221C124.05 71.3631 123.296 70.7521 122.529 70.3101C122.542 70.4271 122.555 70.5181 122.555 70.5701C122.555 71.0511 122.334 71.6101 121.996 71.9481C121.541 72.4161 120.761 72.6761 119.838 72.6761C118.122 72.6761 117.004 71.8181 117.004 70.4921C117.004 69.1791 118.161 68.2561 119.812 68.2561C120.202 68.2561 120.475 68.2821 121.021 68.3731C120.982 67.7751 120.956 67.2681 120.956 66.8781C120.956 66.3711 120.982 65.9941 121.06 65.5651L122.568 65.6431C122.438 66.1241 122.412 66.4231 122.412 66.9561C122.412 67.4761 122.438 67.9961 122.529 68.7371C123.465 69.1531 123.595 69.2181 124.583 69.9331C124.778 70.0631 124.83 70.1151 125.038 70.2841C125.142 70.3881 125.142 70.3881 125.233 70.4661ZM121.073 69.7511C120.618 69.5951 120.306 69.5431 119.903 69.5431C119.058 69.5431 118.512 69.8941 118.512 70.4401C118.512 70.9731 118.98 71.2851 119.786 71.2851C120.67 71.2851 121.099 70.9211 121.099 70.1931C121.099 70.0631 121.073 69.7511 121.073 69.7511Z" fill="white"/>
<g clip-path="url(#clip0_350_1272)">
<path d="M44 93C65.5391 93 83 75.5391 83 54C83 32.4609 65.5391 15 44 15C22.4609 15 5 32.4609 5 54C5 75.5391 22.4609 93 44 93Z" fill="white"/>
<path d="M53.0089 35.6881C52.6661 36.437 51.6993 36.7286 50.8489 36.3393C49.9986 35.9499 49.5876 35.0275 49.9305 34.2786C50.2736 33.5294 51.2404 33.2378 52.0907 33.6272C52.941 34.0165 53.352 34.9389 53.0089 35.6881Z" fill="#E50044"/>
<path d="M52.8179 25.1984C53.04 24.7133 53.5602 23.5772 56.3514 24.6581C57.4329 25.0771 58.1538 25.7041 58.3807 26.4235C58.5173 26.8563 58.4575 27.2964 58.2124 27.6623C57.9827 28.0055 56.7922 28.077 56.0045 28.1242C54.4945 28.2148 52.6155 28.3275 51.8404 30.0205L51.4 30.9822C51.035 31.7793 51.3854 32.7215 52.1826 33.0865C52.9797 33.4515 53.9218 33.1011 54.2868 32.304L54.7271 31.3422C54.6827 31.4392 54.6128 31.4965 54.5917 31.5088C54.8169 31.3761 55.6459 31.3264 56.1945 31.2935C57.6927 31.2037 59.7444 31.0807 60.8504 29.4292C61.6314 28.263 61.8349 26.8193 61.4087 25.4682C60.8857 23.8108 59.4969 22.4716 57.498 21.6975C52.4619 19.7472 50.5286 22.5717 49.9311 23.8767C49.5661 24.6738 49.9165 25.616 50.7136 25.981C51.5107 26.346 52.4529 25.9956 52.8179 25.1984Z" fill="#E50044"/>
<path d="M66.7627 76.4514L59.2644 74.1489L56.7754 77.8829L61.5045 79.625" fill="#C59149"/>
<path d="M48.5288 76.8943C48.4458 77.8066 49.2685 78.9453 49.8286 79.6905H70.5032C71.0633 79.0386 71.3269 77.9335 71.2545 77.0806C70.4783 67.937 65.683 60.8979 59.8835 60.8979C54.1236 60.8979 49.3538 67.8415 48.5288 76.8943Z" fill="#C59149"/>
<path d="M47.8967 76.8371C47.8012 77.8872 48.5249 79.0127 49.3212 80.0723C49.4412 80.232 49.6293 80.326 49.8289 80.326H70.5036C70.6886 80.326 70.8646 80.2451 70.9853 80.1047C71.7166 79.2534 71.9655 77.9455 71.8876 77.0275C71.0762 67.4704 65.9157 60.2632 59.8839 60.2632C53.8134 60.2632 48.7719 67.2337 47.8967 76.8371ZM59.8839 61.5335C65.2505 61.5335 69.867 68.2404 70.6221 77.1346C70.6857 77.8839 70.4278 78.8049 70.022 79.2771C70.1426 79.1367 70.3184 79.0557 70.5036 79.0557H49.8289C50.0286 79.0557 50.2167 79.1498 50.3367 79.3095C49.9656 78.8158 49.0972 77.66 49.1615 76.9523C49.9627 68.162 54.5723 61.5335 59.8839 61.5335Z" fill="#5D3B18"/>
<path d="M56.4439 61.5545C55.489 63.2225 55.0225 79.6904 55.0225 79.6904H64.3812C64.3812 79.6904 64.4062 62.9608 63.2686 61.2529C62.605 62.9105 57.1953 62.8714 56.4439 61.5545Z" fill="white"/>
<path d="M55.893 61.2392C54.9088 62.9584 54.4667 76.8962 54.3879 79.6727C54.3832 79.844 54.4479 80.0103 54.5673 80.1332C54.6869 80.256 54.8512 80.3257 55.0227 80.3257H64.3814C64.7318 80.3257 65.0159 80.0417 65.0164 79.6916C65.0206 76.8656 64.9818 62.6791 63.7973 60.9013C63.6666 60.7047 63.4378 60.5972 63.2032 60.6216C62.9688 60.6457 62.7669 60.7981 62.6793 61.0172C62.5395 61.3665 61.6719 61.7705 60.2842 61.866C58.5625 61.9849 57.1867 61.5747 56.9956 61.24C56.8828 61.042 56.6724 60.9199 56.4445 60.9195C56.2168 60.9195 56.0062 61.0413 55.893 61.2392ZM62.7403 61.6053C63.3855 62.5737 63.7585 71.5609 63.7465 79.6894C63.747 79.3394 64.031 79.0554 64.3814 79.0554H55.0227C55.1942 79.0554 55.3585 79.125 55.4781 79.2479C55.5975 79.3708 55.6622 79.537 55.6575 79.7084C55.8815 71.8022 56.4264 62.8635 56.9952 61.87C56.882 62.068 56.6715 62.1898 56.4437 62.1898C56.2159 62.1894 56.0055 62.0673 55.8926 61.8693C56.5741 63.0637 59.0286 63.2256 60.3715 63.133C61.2462 63.0729 63.3368 62.7917 63.8584 61.489C63.7707 61.7081 63.5689 61.8605 63.3345 61.8846C63.0998 61.909 62.8711 61.8015 62.7403 61.6053Z" fill="#5D3B18"/>
<path d="M55.3759 72.1369C53.5194 72.088 50.7011 73.1497 51.683 75.5868C53.0229 75.9277 53.311 75.2543 54.2188 75.2364C54.6268 75.2291 55.6058 75.1988 55.9875 75.2382C56.2231 75.2616 56.953 75.858 57.1884 75.5788C57.8966 74.7365 58.9037 73.1487 58.9059 73.1454C58.7055 73.4476 57.2323 72.1857 55.3759 72.1369Z" fill="#F9D2BD"/>
<path d="M55.3928 71.5018C54.012 71.4654 52.1416 71.9802 51.2973 73.1958C50.9329 73.7201 50.6018 74.6021 51.0941 75.8239C51.1697 76.0116 51.3303 76.152 51.5265 76.202C52.5508 76.4627 53.1251 76.2297 53.5865 76.0427C53.8255 75.9457 53.9982 75.8757 54.2315 75.8709C54.2302 75.8709 54.4614 75.8662 54.4614 75.8662C54.8732 75.8571 55.6398 75.8403 55.9226 75.8695C55.8763 75.8651 55.8473 75.8545 55.846 75.8541C55.8813 75.8672 55.9849 75.9227 56.0535 75.9595C56.449 76.1721 57.1856 76.5673 57.6741 75.9876C58.3731 75.1563 59.3327 73.657 59.4397 73.4889C59.627 73.1951 59.5433 72.8038 59.251 72.6139C58.9588 72.4243 58.5693 72.5038 58.3767 72.7944C58.5227 72.5741 58.7632 72.5417 58.8505 72.561C58.774 72.5442 58.5386 72.4337 58.3494 72.3448C57.6612 72.0221 56.6212 71.5343 55.3928 71.5018ZM58.3777 72.7929C58.3751 72.7965 58.3709 72.8031 58.3686 72.8068C57.9966 73.3908 57.2271 74.5459 56.7025 75.1698C56.8184 75.0323 56.9805 75.009 57.0366 75.0195C56.9615 75.0057 56.7617 74.8981 56.6543 74.8405C56.4403 74.7257 56.2553 74.6265 56.0502 74.6061C55.7189 74.5718 55.0964 74.582 54.4337 74.5966L54.2076 74.6013C53.7384 74.6104 53.3896 74.7519 53.1093 74.8657C52.7323 75.0185 52.4599 75.1289 51.8397 74.971C52.0359 75.021 52.1965 75.1614 52.2721 75.3491C52.0437 74.7826 52.0661 74.3151 52.3403 73.9203C52.8845 73.1367 54.3019 72.7437 55.3593 72.7714C56.3222 72.7969 57.1821 73.2002 57.81 73.4947C58.3913 73.7675 59.0503 74.0767 59.4352 73.4959C59.6288 73.2038 59.5493 72.8104 59.2574 72.6164C58.9658 72.4225 58.572 72.5012 58.3777 72.7929Z" fill="#5D3B18"/>
<path d="M63.6114 73.9657C63.5981 73.5154 65.6948 71.3781 67.0099 71.6527C68.3245 71.9276 69.9486 73.4553 68.8796 73.8476C67.811 74.2417 67.1071 74.8029 67.1071 74.8029L63.6114 73.9657Z" fill="#F9D2BD"/>
<path d="M64.2464 73.9472C64.249 74.0325 64.2282 74.0843 64.2282 74.0843C64.4058 73.6486 66.0569 72.1023 66.8803 72.2744C67.6843 72.4424 68.5333 73.1775 68.5933 73.4535C68.5794 73.3893 68.6297 73.2741 68.6862 73.2406C68.686 73.2406 68.6786 73.2449 68.6611 73.2515C67.5085 73.6767 66.7434 74.2808 66.7115 74.3063C66.8645 74.1845 67.065 74.1397 67.2552 74.1853L63.7595 73.3481C64.0384 73.4149 64.2379 73.6602 64.2464 73.9472ZM67.5031 75.2995C67.5024 75.3002 67.5027 75.2999 67.502 75.3002C67.5084 75.2955 68.1497 74.7938 69.0995 74.4434C69.6107 74.256 69.8949 73.8473 69.8586 73.351C69.7868 72.3659 68.3127 71.2764 67.1401 71.031C66.0818 70.8101 64.9182 71.6195 64.3186 72.1216C63.9088 72.465 62.9577 73.3339 62.9768 73.9844C62.9854 74.2713 63.1849 74.5167 63.4638 74.5834L66.9595 75.4206C67.1496 75.4661 67.3501 75.4213 67.5031 75.2995Z" fill="#5D3B18"/>
<path d="M51.6836 75.5866L62.3283 73.3774L64.9323 77.282L56.1261 80.5299C56.1261 80.5299 47.9236 82.7562 48.6234 75.9352" fill="#C59149"/>
<path d="M51.812 76.208L62.4567 73.9989C62.2031 74.0517 61.943 73.9449 61.7993 73.7294L64.4033 77.634C64.2954 77.4725 64.2677 77.2701 64.3278 77.0853C64.388 76.9004 64.5295 76.7535 64.712 76.686L55.9058 79.934C55.9233 79.9274 55.9412 79.9219 55.9592 79.9168C55.9211 79.927 52.0862 80.9366 50.2287 79.3564C49.424 78.6717 49.0962 77.5425 49.2544 75.9998C49.2902 75.6509 49.0364 75.3392 48.6876 75.3035C48.3387 75.2674 48.0268 75.5211 47.9911 75.87C47.7874 77.8553 48.2644 79.3546 49.4085 80.3259C51.7771 82.3374 56.1085 81.1922 56.2917 81.1426C56.3098 81.1375 56.3276 81.1321 56.3451 81.1255L65.1513 77.8776C65.3338 77.8105 65.4752 77.6632 65.5354 77.4783C65.5956 77.2935 65.5679 77.0911 65.4599 76.9296L62.8559 73.025C62.7122 72.8095 62.4521 72.7027 62.1985 72.7556L51.5538 74.9647C51.2106 75.0358 50.99 75.372 51.0611 75.7155C51.1323 76.0589 51.4685 76.2795 51.812 76.208Z" fill="#5D3B18"/>
<path d="M67.1402 75.1266L59.2964 72.7173L56.6924 76.6237L64.624 80.3944C64.624 80.3944 71.7043 83.0532 71.1797 76.8454" fill="#C59149"/>
<path d="M67.3269 74.5194L59.4831 72.1101C59.2146 72.0277 58.924 72.1312 58.7683 72.3649L56.1643 76.2713C56.062 76.4248 56.0314 76.6148 56.0806 76.7927C56.1297 76.9703 56.2534 77.1179 56.4199 77.197L64.3515 80.9678C64.3678 80.9755 64.3843 80.9824 64.4011 80.9886C64.5594 81.0484 68.3052 82.427 70.4454 80.8067C71.5097 80.0013 71.9696 78.6504 71.8127 76.7916C71.7831 76.4423 71.476 76.1831 71.1265 76.2126C70.777 76.2421 70.5176 76.5492 70.5471 76.8988C70.6651 78.2934 70.3734 79.2673 69.6805 79.7931C68.3681 80.7885 65.7463 80.1354 64.8469 79.7996C64.864 79.8062 64.8804 79.8131 64.897 79.8208L56.9653 76.05C57.1318 76.1291 57.2556 76.2768 57.3046 76.4544C57.3538 76.6323 57.3232 76.8222 57.2209 76.9758L59.8249 73.0694C59.6692 73.3031 59.3787 73.4066 59.1101 73.3242L66.9539 75.7335C67.2892 75.8363 67.6445 75.6482 67.7475 75.3128C67.8505 74.9777 67.6622 74.6226 67.3269 74.5194Z" fill="#5D3B18"/>
<path d="M76.8064 57.193C77.4069 54.3302 76.985 50.4694 75.6659 45.6948C74.1892 40.3511 72.4262 37.4638 66.7328 35.8285C63.6485 34.9433 60.4095 34.4022 55.391 37.711C50.3729 41.0194 47.3923 44.8026 46.4556 47.3909C44.1299 53.816 49.4977 58.4334 51.5501 58.8239C57.7079 61.0495 63.7071 61.6799 64.6367 62.4842C65.8302 63.5186 68.6162 64.4648 70.7295 63.7622C73.2157 62.9345 75.8613 61.6981 76.8064 57.193Z" fill="#965D2B"/>
<path d="M77.4274 57.3233C78.0403 54.4024 77.6641 50.5434 76.2778 45.5253C74.7614 40.0385 72.8961 36.9379 66.908 35.2179C63.7738 34.3184 60.2761 33.729 55.0413 37.1806C49.6511 40.7342 46.7634 44.6732 45.8583 47.1746C44.6004 50.6495 45.5156 53.449 46.5046 55.1856C47.8339 57.5194 50.0535 59.1854 51.4311 59.4475C51.3981 59.4413 51.3657 59.4322 51.3339 59.4209C54.7213 60.6452 58.0777 61.3956 60.5284 61.9439C62.1949 62.3166 63.9178 62.702 64.221 62.9641C65.4902 64.0641 68.5279 65.1631 70.9296 64.3646C73.5414 63.495 76.4124 62.1623 77.4274 57.3233ZM70.5289 63.1592C68.6007 63.8005 66.0666 62.8832 65.0523 62.0041C64.5302 61.5524 63.3055 61.2636 60.8055 60.7047C58.388 60.164 55.0772 59.4234 51.7657 58.2264C51.7339 58.2151 51.7015 58.206 51.6685 58.1998C50.7349 58.0222 48.8045 56.6575 47.6082 54.557C46.7514 53.0527 45.9597 50.6258 47.0524 47.6069C47.8882 45.2969 50.6095 41.6235 55.7402 38.2409C60.5288 35.0836 63.5895 35.5867 66.5574 36.4386C71.9993 38.0017 73.6329 40.7231 75.0535 45.8637C76.366 50.6145 76.7467 54.3824 76.1845 57.0622C75.3076 61.2432 72.9096 62.3669 70.5289 63.1592Z" fill="#5D3B18"/>
<path d="M64.268 46.6225C68.0774 47.8014 70.5847 49.1686 73.3256 51.3891C73.2414 51.9389 73.1265 52.4917 72.9799 53.0444C74.9222 53.8447 74.6425 55.5653 74.1861 56.4177C73.8193 57.1017 72.7003 58.8876 70.4199 58.3527C67.3825 62.3892 62.5894 64.3931 58.1596 63.0138C53.7303 61.6349 50.9218 57.2654 50.7121 52.2182C48.701 51.6115 48.3949 50.083 48.6213 48.7606C48.829 47.549 49.7306 46.002 51.5968 46.4523C51.8388 45.7679 52.1233 45.1131 52.4453 44.4903C54.8511 44.3051 58.102 44.9891 62.07 45.9408C63.1684 44.4156 63.6912 43.9919 64.1251 43.5405C64.3546 44.6872 64.194 45.5171 64.268 46.6225Z" fill="#F9D2BD"/>
<path d="M64.081 47.2295C67.6924 48.3469 70.1724 49.6516 72.9267 51.8826C72.7513 51.7408 72.6645 51.5162 72.6984 51.2931C72.6173 51.8236 72.5057 52.3581 72.3668 52.882C72.2851 53.1897 72.4443 53.5102 72.7386 53.6317C73.2935 53.8603 73.6501 54.187 73.7992 54.603C73.988 55.1302 73.8342 55.7314 73.6271 56.1183C72.8891 57.4943 71.8591 58.0383 70.5655 57.7346C70.3205 57.6773 70.0645 57.77 69.9132 57.9712C66.9366 61.9268 62.3974 63.6682 58.349 62.4077C54.3011 61.1476 51.5527 57.1377 51.3472 52.1922C51.3361 51.922 51.1551 51.6887 50.8962 51.6106C49.5412 51.2016 49.0019 50.3046 49.2479 48.8681C49.3432 48.312 49.638 47.5907 50.1794 47.2343C50.5315 47.0026 50.9467 46.9488 51.4486 47.0698C51.7649 47.1462 52.0878 46.971 52.1963 46.6642C52.4245 46.0183 52.6983 45.3852 53.01 44.7823C52.909 44.9777 52.714 45.1068 52.4947 45.1237C54.9033 44.9383 58.3287 45.6966 61.9227 46.5585C62.1733 46.6186 62.4353 46.5213 62.5861 46.3122C63.4566 45.1033 63.9399 44.6237 64.3282 44.2385C64.4168 44.1504 64.5006 44.0673 64.5836 43.9809C64.4197 44.1513 64.1749 44.2166 63.9479 44.1504C63.7209 44.0841 63.5495 43.8972 63.5032 43.6655C63.6329 44.3139 63.625 44.8658 63.6166 45.4499C63.6112 45.83 63.6055 46.223 63.6352 46.6653C63.6527 46.9274 63.8299 47.1517 64.081 47.2295ZM63.668 43.1007C63.5953 43.1764 63.5167 43.2544 63.4334 43.337C63.0342 43.7331 62.4874 44.2758 61.5553 45.5698C61.7061 45.3607 61.9681 45.2634 62.2187 45.3235C58.5225 44.437 54.9899 43.6578 52.3973 43.8575C52.1778 43.8744 51.9829 44.0035 51.882 44.1989C51.5436 44.8534 51.2464 45.5405 50.9988 46.2409C51.1073 45.9341 51.4302 45.7589 51.7465 45.8353C50.9079 45.6329 50.1245 45.7499 49.4812 46.1734C48.733 46.6659 48.1779 47.5931 47.9961 48.6537C47.6434 50.7134 48.5668 52.2345 50.5294 52.8263C50.2705 52.7482 50.0896 52.5149 50.0784 52.2447C50.3063 57.7335 53.4046 62.1985 57.9716 63.6204C62.5389 65.0424 67.6246 63.1249 70.9279 58.7347C70.7766 58.9359 70.5206 59.0286 70.2756 58.9713C72.1173 59.403 73.747 58.5819 74.7464 56.7181C74.9094 56.4133 75.4089 55.3307 74.9947 54.1746C74.8055 53.6462 74.3443 52.9196 73.2227 52.4576C73.517 52.579 73.676 52.8995 73.5943 53.2073C73.7449 52.6399 73.8659 52.0606 73.9541 51.4856C73.988 51.2625 73.9013 51.0378 73.7259 50.896C70.8349 48.554 68.236 47.1858 64.4565 46.0161C64.7075 46.094 64.8847 46.3182 64.9022 46.5804C64.8762 46.1897 64.8814 45.8229 64.8866 45.4681C64.8955 44.8432 64.9048 44.1971 64.7484 43.4161C64.7021 43.1844 64.5307 42.9976 64.3038 42.9312C64.0768 42.865 63.8319 42.9303 63.668 43.1007Z" fill="#5D3B18"/>
<path d="M58.7097 49.8644C58.5536 50.3654 58.0207 50.6458 57.5199 50.4897C57.019 50.3337 56.7393 49.8006 56.8952 49.2996C57.0511 48.7987 57.5839 48.519 58.0847 48.6751C58.5857 48.8308 58.8655 49.3634 58.7097 49.8644Z" fill="#5D3B18"/>
<path d="M67.0418 52.4593C66.8855 52.9607 66.3532 53.2407 65.8519 53.0846C65.3513 52.9286 65.0713 52.3959 65.2273 51.8946C65.3832 51.3936 65.9164 51.1139 66.417 51.2696C66.9181 51.4257 67.1976 51.9584 67.0418 52.4593Z" fill="#5D3B18"/>
<path d="M61.1417 55.2986C60.9168 55 60.5804 54.2314 60.5793 54.0137C60.5793 54.0137 60.5793 54.0251 60.5758 54.0444C60.564 54.1104 60.5396 54.1454 60.5392 54.1457C60.6136 54.0414 60.9614 53.8194 61.1694 53.6867C61.4215 53.5259 61.6598 53.3742 61.8438 53.2083C62.1044 52.9739 62.1256 52.5725 61.891 52.3118C61.6563 52.0511 61.2548 52.0299 60.9942 52.2648C60.8883 52.3599 60.6841 52.4901 60.4865 52.6162C59.938 52.9659 59.4197 53.2962 59.3258 53.8198C59.1971 54.5329 59.9212 55.7894 60.1274 56.0629C60.3383 56.3429 60.7365 56.399 61.0167 56.1879C61.2967 55.9768 61.3528 55.5786 61.1417 55.2986Z" fill="#5D3B18"/>
<path style="mix-blend-mode:multiply" d="M57.051 53.9119C56.6629 55.1585 55.3372 55.8549 54.0906 55.4666C52.8436 55.0786 52.1476 53.7529 52.5357 52.5063C52.9238 51.2594 54.2494 50.563 55.4963 50.9513C56.7431 51.3392 57.4391 52.6649 57.051 53.9119Z" fill="url(#paint0_radial_350_1272)"/>
<path style="mix-blend-mode:multiply" d="M69.2905 57.7222C68.9023 58.9688 67.5766 59.6648 66.33 59.2769C65.0829 58.8885 64.3869 57.5632 64.775 56.3163C65.1633 55.0693 66.4888 54.3733 67.7358 54.7612C68.9824 55.1495 69.6786 56.4752 69.2905 57.7222Z" fill="url(#paint1_radial_350_1272)"/>
<path d="M58.8502 58.5237C59.1178 58.2875 59.4999 58.1752 59.627 58.2146C59.8301 58.278 60.0926 58.4264 60.319 59.0181C60.4442 59.3459 60.8114 59.5096 61.1388 59.3846C61.4664 59.2591 61.6305 58.892 61.505 58.5646C61.1851 57.7281 60.6942 57.217 60.0043 57.0019C59.3183 56.7886 58.4896 57.1477 58.0096 57.5717C57.7465 57.804 57.7219 58.2051 57.954 58.468C58.1861 58.7308 58.5873 58.7556 58.8502 58.5237Z" fill="#5D3B18"/>
<path d="M56.4152 48.5636C56.6878 48.8934 57.6144 49.1858 58.0749 49.2018C58.9066 49.2314 59.4641 49.0913 59.9388 48.7328C60.1255 48.592 60.1625 48.3264 60.0216 48.1399C59.8808 47.9532 59.6152 47.9162 59.4287 48.0571C59.1181 48.2916 58.7345 48.3782 58.1046 48.3558C57.7617 48.3437 57.1691 48.1117 57.0557 48.0109C57.0559 48.011 57.0608 48.0154 57.0683 48.0243C56.9193 47.844 56.6524 47.8187 56.4721 47.9677C56.2918 48.1164 56.2665 48.3833 56.4152 48.5636Z" fill="#5D3B18"/>
<path d="M67.5981 51.3027C67.6094 51.2994 67.6161 51.2986 67.6161 51.2986C67.4657 51.3172 66.8459 51.1718 66.5566 50.9869C66.0255 50.6485 65.759 50.3594 65.6363 49.9897C65.5626 49.768 65.3231 49.6477 65.1013 49.7214C64.8792 49.795 64.7591 50.0346 64.8327 50.2566C65.0201 50.8214 65.3995 51.2534 66.1014 51.7008C66.4897 51.9487 67.4185 52.2339 67.8296 52.1172C68.0544 52.0534 68.1849 51.819 68.1211 51.5943C68.0571 51.3694 67.823 51.2389 67.5981 51.3027Z" fill="#5D3B18"/>
<path d="M39.0602 77.9398H17.2515C17.2515 67.3192 22.1337 58.709 28.1558 58.709C34.1778 58.709 39.0602 67.3192 39.0602 77.9398Z" fill="#F9D2BD"/>
<path d="M39.0609 77.3046H17.2522C17.6029 77.3046 17.8871 77.5889 17.8871 77.9397C17.8871 67.6859 22.4939 59.344 28.1565 59.344C33.819 59.344 38.426 67.6859 38.426 77.9397C38.426 77.5889 38.7102 77.3046 39.0609 77.3046ZM28.1565 58.0737C21.7937 58.0737 16.6172 66.9858 16.6172 77.9397C16.6172 78.2904 16.9014 78.5749 17.2522 78.5749H39.0609C39.4117 78.5749 39.6959 78.2904 39.6959 77.9397C39.6959 66.9858 34.5194 58.0737 28.1565 58.0737Z" fill="#5D3B18"/>
<path d="M30.6243 63.2511C32.0023 62.57 32.8358 62.0038 33.4321 60.8145C37.0299 63.8542 39.6538 69.9056 40.2536 77.1171C40.3392 78.1475 38.8382 77.5003 38.8382 78.5726C33.5636 78.5726 21.8595 78.946 18.0235 78.946C18.0235 77.8952 15.9713 78.1895 16.0537 77.1791C16.638 70.0066 19.2239 63.9745 22.7811 60.8994C23.6231 62.663 24.2508 63.0798 25.6773 63.5312C26.1527 63.6817 26.5174 66.6113 27.9492 67.8565C29.7842 66.6113 29.8278 63.6449 30.6243 63.2511Z" fill="#586B07"/>
<path d="M30.9059 63.82C32.3973 63.0831 33.3322 62.4308 34.0001 61.0989C33.9128 61.2728 33.7507 61.3972 33.56 61.4362C33.3694 61.4752 33.1712 61.4249 33.0226 61.2991C36.5777 64.3027 39.0443 70.2356 39.6211 77.1693C39.6236 77.2018 39.6217 77.2156 39.6217 77.216C39.626 77.1879 39.6552 77.1427 39.6794 77.1266C39.6404 77.1525 39.5037 77.1904 39.4134 77.2156C39.0514 77.3159 38.2035 77.5511 38.2035 78.5723C38.2035 78.2216 38.4877 77.9372 38.8385 77.9372C35.9843 77.9372 31.1648 78.0484 26.9125 78.1465C23.2457 78.2311 19.7821 78.3105 18.0238 78.3105C18.3746 78.3105 18.6588 78.5949 18.6588 78.9457C18.6588 77.9751 17.7598 77.6462 17.2226 77.4493C17.0394 77.3822 16.7327 77.2699 16.6695 77.1937C16.6773 77.2032 16.6861 77.2255 16.6866 77.2379C16.6866 77.2379 16.6864 77.2353 16.687 77.2306C17.2479 70.3439 19.6815 64.4183 23.1967 61.3796C23.0468 61.5091 22.8452 61.5612 22.6514 61.5207C22.4574 61.4799 22.2937 61.3516 22.2084 61.1725C23.1412 63.1265 23.9386 63.6468 25.486 64.1361C25.3559 64.0949 25.2982 64.0198 25.2977 64.019C25.3792 64.1277 25.5351 64.5772 25.6603 64.9386C26.0304 66.0068 26.5374 67.4697 27.5328 68.3353C27.7502 68.5245 28.0676 68.5434 28.3061 68.3815C29.5709 67.5233 30.0828 66.0204 30.4565 64.9233C30.6009 64.4992 30.7985 63.9191 30.93 63.8054C30.93 63.8054 30.9221 63.8123 30.9059 63.82ZM28.3662 67.3771C27.6264 66.7339 27.1836 65.456 26.8602 64.5226C26.5381 63.5932 26.3605 63.0809 25.8694 62.9256C24.633 62.5344 24.1311 62.2522 23.3543 60.6257C23.269 60.4466 23.1053 60.3183 22.9113 60.2774C22.7176 60.237 22.5159 60.2891 22.3661 60.4186C18.6048 63.6705 16.0084 69.9165 15.421 77.1274C15.3406 78.1129 16.2454 78.444 16.786 78.6419C16.9777 78.7123 17.3349 78.8429 17.3894 78.9329C17.3888 78.9322 17.3879 78.9297 17.3875 78.9285C17.3875 78.9285 17.3888 78.9336 17.3888 78.9457C17.3888 79.1141 17.4557 79.2756 17.5748 79.3949C17.6938 79.5137 17.8553 79.5808 18.0238 79.5808C19.7967 79.5808 23.2674 79.5006 26.9417 79.416C31.1872 79.3183 35.9989 79.2075 38.8385 79.2075C39.1892 79.2075 39.4734 78.9231 39.4734 78.5723C39.4734 78.5282 39.4791 78.5103 39.4791 78.5103C39.476 78.5198 39.4645 78.5362 39.4565 78.5424C39.4975 78.5103 39.651 78.4677 39.7525 78.4396C40.1177 78.3383 40.9729 78.1013 40.8866 77.0643C40.2827 69.8017 37.6493 63.5454 33.8423 60.3292C33.6935 60.2034 33.4955 60.1531 33.3048 60.1921C33.1141 60.2311 32.9521 60.3555 32.8647 60.5294C32.3514 61.5536 31.6426 62.0392 30.3433 62.6817C29.7842 62.958 29.5504 63.6446 29.2544 64.5138C28.921 65.4928 28.5059 66.7113 27.5929 67.3308C27.8314 67.1689 28.1488 67.1878 28.3662 67.3771Z" fill="#5D3B18"/>
<path d="M36.8995 80.2736C36.8995 78.7572 36.5174 74.2076 36.1416 72.4013C36.082 72.1155 35.8018 71.9317 35.5158 71.9911C35.2296 72.0506 35.046 72.3309 35.1054 72.6172C35.4629 74.3352 35.841 78.8322 35.841 80.2736C35.841 80.566 36.078 80.8026 36.3702 80.8026C36.6625 80.8026 36.8995 80.566 36.8995 80.2736Z" fill="#7D8BBA"/>
<path d="M28.8325 70.674C28.8325 71.2311 28.3809 71.6825 27.8239 71.6825C27.267 71.6825 26.8154 71.2311 26.8154 70.674C26.8154 70.1169 27.267 69.6655 27.8239 69.6655C28.3809 69.6655 28.8325 70.1169 28.8325 70.674Z" fill="#5D3B18"/>
<path d="M28.8325 76.3991C28.8325 76.9562 28.3809 77.4076 27.8239 77.4076C27.267 77.4076 26.8154 76.9562 26.8154 76.3991C26.8154 75.842 27.267 75.3906 27.8239 75.3906C28.3809 75.3906 28.8325 75.842 28.8325 76.3991Z" fill="#C59149"/>
<path d="M23.2881 72.682C21.305 72.6287 18.2948 73.7703 19.3438 76.3893C20.7749 76.7553 21.0826 76.0323 22.0517 76.013C22.4882 76.005 23.5335 75.9722 23.9411 76.0148C24.1927 76.0396 24.9723 76.6806 25.2234 76.3805C25.9804 75.4756 27.0556 73.7692 27.0578 73.7656C26.8441 74.0901 25.2705 72.7341 23.2881 72.682Z" fill="#F9D2BD"/>
<path d="M23.3045 72.0469C21.846 72.0079 19.8682 72.5515 18.9722 73.8382C18.5857 74.3931 18.2339 75.3272 18.7538 76.6252C18.8291 76.813 18.9895 76.9541 19.1859 77.0041C20.2673 77.2808 20.8738 77.0336 21.3613 76.8345C21.6105 76.7331 21.8074 76.6526 22.0637 76.6475C22.0628 76.6475 22.3067 76.6424 22.3067 76.6424C22.7481 76.6325 23.5699 76.6143 23.8743 76.646C23.8317 76.642 23.8043 76.6321 23.8033 76.6318C23.8419 76.6457 23.9553 76.7069 24.0304 76.7474C24.4428 76.9702 25.2101 77.3847 25.7098 76.7878C26.5011 75.8417 27.5924 74.1072 27.6017 74.0919C27.7795 73.7955 27.6878 73.4116 27.3952 73.2278C27.1028 73.0437 26.7168 73.1276 26.5269 73.416C26.6694 73.1998 26.9046 73.1659 26.9901 73.1841C26.9075 73.1666 26.6519 73.0459 26.4465 72.9489C25.7145 72.6032 24.6081 72.0812 23.3045 72.0469ZM26.5126 73.4386C26.5148 73.4349 26.5166 73.432 26.519 73.4284C26.5087 73.4448 25.4599 75.1074 24.7357 75.973C24.8458 75.8413 25.0002 75.8173 25.0539 75.8264C24.9715 75.8125 24.752 75.6937 24.6338 75.6299C24.4087 75.5085 24.2143 75.4034 24.0029 75.3827C23.6516 75.3458 22.9581 75.3575 22.2783 75.3728L22.0394 75.3779C21.5463 75.3877 21.1932 75.5318 20.8817 75.6587C20.472 75.8257 20.1759 75.9467 19.5005 75.7739C19.6969 75.8238 19.8573 75.9649 19.9326 76.1527C19.6808 75.5241 19.7076 75.0046 20.0144 74.5641C20.6073 73.7128 22.1344 73.2858 23.2706 73.3164C24.3077 73.3438 25.2305 73.7795 25.9045 74.0974C26.5398 74.3975 27.197 74.7078 27.5875 74.1146C27.3975 74.4029 27.0116 74.4868 26.7192 74.3027C26.4266 74.1189 26.3349 73.735 26.5126 73.4386Z" fill="#5D3B18"/>
<path d="M32.0836 74.6469C32.0697 74.1635 34.3091 71.8657 35.7134 72.1614C37.1173 72.4564 38.8521 74.0986 37.7109 74.5201C36.569 74.943 35.8173 75.5464 35.8173 75.5464L32.0836 74.6469Z" fill="#F9D2BD"/>
<path d="M32.7181 74.629C32.7203 74.7085 32.702 74.7562 32.7019 74.7566C32.8827 74.291 34.6955 72.5963 35.5822 72.783C36.4617 72.9679 37.396 73.7915 37.4465 74.0872C37.4374 74.0336 37.4791 73.9388 37.5249 73.9093C37.5249 73.9093 37.5149 73.9158 37.4906 73.9246C36.2655 74.3785 35.4536 75.0242 35.4195 75.0516C35.5729 74.9283 35.7746 74.8835 35.9658 74.9294L32.2321 74.0299C32.5106 74.097 32.7099 74.3424 32.7181 74.629ZM36.2146 76.0418C36.2137 76.0426 36.2143 76.0422 36.2134 76.0429C36.2203 76.0375 36.9094 75.4942 37.9312 75.1157C38.4577 74.9214 38.7501 74.5003 38.7126 73.9895C38.6362 72.9507 37.0808 71.8 35.8437 71.5404C34.7411 71.3082 33.5208 72.1551 32.8916 72.6809C32.548 72.9678 31.4283 73.9596 31.4485 74.6655C31.4567 74.9521 31.656 75.1974 31.9345 75.2645L35.6683 76.164C35.8595 76.2099 36.0612 76.1651 36.2146 76.0418Z" fill="#5D3B18"/>
<path d="M19.3432 76.389L30.7124 74.0146L33.4936 78.2113L24.0879 81.7017C24.0879 81.7017 15.3271 84.0942 16.0745 76.7638" fill="#586B07"/>
<path d="M19.4733 77.011L30.8425 74.6367C30.588 74.6899 30.3269 74.5823 30.1835 74.3657L32.9647 78.5624C32.8575 78.4009 32.8301 78.1992 32.8901 78.0148C32.9503 77.8306 33.0912 77.6837 33.2729 77.6162L23.8672 81.1066C23.8848 81.1001 23.9027 81.0942 23.9208 81.0895C23.8801 81.1004 19.7772 82.1877 17.7729 80.4864C16.8939 79.7404 16.5351 78.5099 16.7065 76.8287C16.742 76.4798 16.4881 76.168 16.1391 76.1323C15.7902 76.0969 15.4787 76.3507 15.4431 76.6996C15.2265 78.8234 15.7348 80.4241 16.9539 81.457C19.4702 83.5889 24.0611 82.3678 24.2555 82.3146C24.2735 82.3098 24.2914 82.304 24.3091 82.2974L33.7148 78.807C33.8966 78.7396 34.0375 78.5926 34.0977 78.4085C34.1576 78.224 34.1303 78.0224 34.0231 77.8609L31.2419 73.6642C31.0984 73.4477 30.8373 73.3401 30.5829 73.3933L19.2137 75.7677C18.8704 75.8395 18.6502 76.1757 18.7218 76.5191C18.7937 76.8626 19.13 77.0824 19.4733 77.011Z" fill="#5D3B18"/>
<path d="M36.4113 76.0054L27.4749 73.3052L24.6934 77.5032L33.1654 81.5562C33.1654 81.5562 40.799 84.2638 40.2382 77.5922" fill="#586B07"/>
<path d="M36.5953 75.3975L27.6587 72.6972C27.3904 72.6159 27.1007 72.7206 26.9458 72.9542L24.1642 77.1523C24.0628 77.3055 24.0325 77.4951 24.0816 77.6723C24.1304 77.8495 24.2539 77.9968 24.4196 78.0759L32.8916 82.1289C32.9116 82.1383 32.9323 82.1471 32.9534 82.1544C33.1227 82.2145 37.1274 83.6055 39.4116 81.8441C40.5467 80.9687 41.0376 79.5201 40.8712 77.5388C40.8418 77.1895 40.5347 76.9299 40.1852 76.9595C39.8357 76.9886 39.5763 77.2956 39.6056 77.6453C39.7336 79.1679 39.408 80.2416 38.6378 80.837C36.9026 82.1777 33.4124 80.9698 33.3772 80.9574C33.4075 80.9679 33.4361 80.9807 33.4644 80.9956C33.4396 80.9832 24.9676 76.9303 24.9676 76.9303C25.1333 77.0094 25.2567 77.1567 25.3056 77.3339C25.3546 77.5111 25.3244 77.7007 25.223 77.8538L28.0046 73.6558C27.8496 73.8894 27.5599 73.9941 27.2914 73.9128L36.2277 76.6131C36.5635 76.7144 36.9179 76.5248 37.0193 76.189C37.1208 75.8532 36.9309 75.4989 36.5953 75.3975Z" fill="#5D3B18"/>
<path d="M41.5579 46.4864C41.0446 48.0302 40.4474 49.594 39.7907 51.1144C40.5288 51.483 43.1024 52.1349 41.3891 55.3555C40.9779 56.1288 39.5152 57.1202 36.8446 56.4858C34.9159 59.24 32.5649 61.2712 29.7243 61.7675C24.7774 62.6308 19.8259 59.8759 18.6705 54.9438C18.2171 53.0096 18.3398 50.675 18.8251 48.2894C16.2335 46.5353 16.1961 45.2595 16.5495 44.2058C16.9193 43.1036 17.7925 41.5037 20.9828 41.8902C22.0197 39.7138 23.2915 37.7781 24.6504 36.4039C28.3581 32.6539 31.1329 32.8024 36.5178 35.2306C42.4129 37.8875 43.4769 40.7198 41.5579 46.4864Z" fill="#F9D2BD"/>
<path d="M40.9551 46.2856C40.4465 47.8148 39.8586 49.3546 39.2074 50.862C39.0738 51.1716 39.2052 51.5314 39.5067 51.682C39.5988 51.728 39.7056 51.7739 39.8188 51.8224C40.3034 52.0306 41.0357 52.3449 41.2568 52.9734C41.4364 53.4839 41.2922 54.1847 40.8283 55.0568C40.5014 55.6715 39.2098 56.3945 36.9911 55.8677C36.7379 55.8076 36.4736 55.9078 36.3243 56.1211C34.2867 59.0307 32.0294 60.7195 29.6148 61.1414C24.773 61.9865 20.3335 59.2597 19.2884 54.7987C18.8891 53.0952 18.944 50.8883 19.447 48.4155C19.4982 48.1643 19.393 47.9069 19.1806 47.7631C16.6094 46.0228 16.9618 44.972 17.1512 44.4074C17.5027 43.3595 18.2472 42.198 20.9061 42.5202C21.177 42.553 21.4385 42.4092 21.5558 42.1629C22.5946 39.9823 23.8208 38.1453 25.1017 36.85C28.6259 33.2854 31.0881 33.4785 36.2564 35.809C41.7109 38.2674 42.8088 40.7152 40.9551 46.2856ZM36.7786 34.6514C31.4885 32.2658 28.2566 31.8527 24.1985 35.9571C22.819 37.3522 21.5086 39.3093 20.4092 41.6167C20.5266 41.3704 20.788 41.2266 21.0589 41.2594C18.3864 40.9356 16.6667 41.8588 15.9473 44.0034C15.3603 45.7533 16.138 47.2371 18.4689 48.815C18.2565 48.6711 18.1514 48.4137 18.2026 48.1625C17.6557 50.8511 17.605 53.1813 18.052 55.0882C19.253 60.2149 24.3178 63.3553 29.8332 62.3927C32.5925 61.9107 35.1264 60.0457 37.3645 56.8496C37.2152 57.0629 36.9508 57.1631 36.6976 57.103C39.838 57.8493 41.4763 56.5426 41.9494 55.6533C42.5871 54.4545 42.7572 53.4114 42.455 52.552C42.049 51.3976 40.924 50.9149 40.3196 50.6553C40.2197 50.6126 40.1335 50.5754 40.074 50.5459C40.3756 50.6965 40.507 51.0564 40.3734 51.3659C41.039 49.8245 41.6402 48.2502 42.1601 46.6864C44.2133 40.5169 42.805 37.3674 36.7786 34.6514Z" fill="#5D3B18"/>
<path d="M28.1969 47.7939C27.7692 48.4613 26.7153 50.1408 26.1671 51.3211C26.0093 51.6616 26.0142 52.0269 26.1812 52.3503C26.6127 53.1867 28.0611 53.5142 28.4948 53.5944C28.8395 53.6585 29.171 53.4307 29.2349 53.0861C29.2989 52.7412 29.0712 52.4098 28.7263 52.346H28.7271C28.1136 52.2308 27.4114 51.9442 27.3093 51.7674C27.3217 51.7889 27.3259 51.8362 27.3175 51.8596C27.3175 51.8596 27.318 51.8585 27.3191 51.856C27.6766 51.0863 28.4046 49.8236 29.2663 48.4793C29.4555 48.184 29.3695 47.7913 29.0743 47.6019C28.779 47.4127 28.3862 47.4987 28.1969 47.7939Z" fill="#5D3B18"/>
<path d="M32.5718 29.8039C29.5102 31.4104 30.8321 30.0457 30.1205 29.7876C26.5536 28.4932 25.3455 31.293 24.335 32.4619C35.0744 36.501 38.6698 44.4046 39.8916 45.0256C40.1128 47.8575 39.0979 50.4035 37.6129 54.0904C38.8868 52.8949 38.9581 52.4088 39.6805 51.8196C40.3955 51.2363 40.5684 50.7003 41.1831 51.832C52.7765 37.6806 38.3041 26.7967 32.5718 29.8039Z" fill="#5D3B18"/>
<path d="M32.2772 29.2416C31.065 29.8775 30.742 29.9361 30.672 29.9389C30.8109 29.9332 30.9976 30.084 31.0285 30.2269C31.026 30.2147 31.0216 30.1797 31.0185 30.154C30.9936 29.9491 30.9272 29.4044 30.3375 29.1905C26.8815 27.9365 25.2785 30.1292 24.3207 31.4392C24.1539 31.6675 23.9964 31.883 23.8549 32.0465C23.7191 32.2037 23.6686 32.4171 23.7198 32.6184C23.7711 32.8197 23.9174 32.983 24.1118 33.0561C32.1211 36.0685 36.1215 41.3418 38.0441 43.8762C38.7786 44.8442 39.1831 45.3774 39.6043 45.5915C39.407 45.4912 39.2762 45.2954 39.2588 45.0748C39.4701 47.7804 38.4441 50.3275 37.0241 53.8529C36.9128 54.1293 37.0086 54.4461 37.2546 54.6142C37.5005 54.7826 37.8305 54.7571 38.0478 54.5533C38.7642 53.881 39.1217 53.419 39.409 53.0479C39.6369 52.7532 39.8015 52.5403 40.0821 52.3117C40.2274 52.1932 40.3474 52.0813 40.4533 51.9828C40.5364 51.9055 40.65 51.7994 40.6928 51.775C40.6104 51.8221 40.442 51.8078 40.3711 51.7477C40.3794 51.755 40.4575 51.8261 40.6254 52.1349C40.7264 52.3208 40.913 52.4441 41.1236 52.4641C41.334 52.4838 41.5405 52.3978 41.6745 52.2344C47.0454 45.6784 47.6581 38.5817 43.3134 33.2504C40.2289 29.4656 35.2781 27.6672 32.2772 29.2416ZM41.7414 51.5289C41.4893 51.0644 41.1891 50.624 40.7041 50.5448C40.2187 50.4657 39.8836 50.7778 39.5879 51.0535C39.4916 51.1428 39.3923 51.2354 39.2794 51.3276C38.8862 51.6481 38.6523 51.9504 38.4046 52.2705C38.1313 52.6234 37.8216 53.0238 37.1786 53.6272C37.3959 53.4234 37.7258 53.3979 37.9718 53.5663C38.2177 53.7344 38.3136 54.0513 38.2022 54.3276C39.6869 50.6414 40.7595 47.9785 40.5251 44.976C40.5078 44.7554 40.3769 44.5596 40.1796 44.4593C40.0023 44.356 39.4995 43.6933 39.0559 43.1085C37.0615 40.4795 32.9114 35.0087 24.5588 31.8675C24.7531 31.9406 24.8995 32.1039 24.9507 32.3052C25.0018 32.5065 24.9515 32.7199 24.8157 32.8771C24.991 32.6744 25.1633 32.4385 25.346 32.1889C26.2826 30.9077 27.3444 29.4554 29.9043 30.3843C29.8221 30.3545 29.7577 30.2669 29.7448 30.2176C29.7488 30.2328 29.7542 30.278 29.7579 30.3079C29.7794 30.4838 29.8297 30.8958 30.2301 31.1058C30.7004 31.3525 31.3166 31.1796 32.8671 30.366C35.3191 29.0797 39.6521 30.768 42.329 34.0528C44.218 36.3709 47.8402 42.7043 40.6923 51.4294C40.8261 51.266 41.0328 51.18 41.2432 51.1997C41.4538 51.2197 41.6404 51.343 41.7414 51.5289Z" fill="#5D3B18"/>
<path d="M19.6763 41.9308C21.2355 41.202 19.3603 46.8588 19.9467 44.9406C20.4648 43.2452 26.1163 35.3169 29.0928 32.361C29.655 31.8028 28.5889 26.9079 24.041 32.4313C22.0634 34.8334 19.9244 41.0153 19.6763 41.9308Z" fill="#5D3B18"/>
<path d="M19.9455 42.5063C19.9619 42.4984 19.9701 42.4961 19.9701 42.4961C19.866 42.5261 19.6852 42.4408 19.6421 42.3415C19.7984 42.7017 19.4617 44.3951 19.2268 45.1395C19.3306 44.8108 19.6746 44.6341 20.0056 44.73C20.3369 44.8259 20.5334 45.159 20.4454 45.4924C20.4505 45.4733 20.4813 45.365 20.5542 45.1264C20.9972 43.6769 26.4789 35.8522 29.5405 32.8118C29.967 32.3883 29.9091 31.5406 29.7299 30.9433C29.4511 30.015 28.8388 29.3915 28.0496 29.2328C26.799 28.981 25.2855 29.9213 23.5511 32.0279C21.3952 34.6465 19.2401 41.1137 19.0637 41.7649C18.999 42.0035 19.0786 42.258 19.2679 42.417C19.4571 42.5761 19.7215 42.6109 19.9455 42.5063ZM24.5315 32.8351C26.0237 31.0228 27.3189 30.1689 27.9962 30.551C28.5196 30.8462 28.6548 31.7861 28.5772 32.0065C28.5774 32.0062 28.5931 31.9628 28.6457 31.9104C25.7577 34.7785 19.9305 42.8213 19.3397 44.7552C19.1878 45.252 19.0679 45.6443 19.5214 45.8955C19.7838 46.0408 20.1121 45.9828 20.3086 45.7564C20.5121 45.5221 21.3684 42.5256 20.6736 41.605C20.4468 41.3044 19.9951 41.081 19.4077 41.3558C19.6315 41.251 19.8961 41.2858 20.0853 41.4449C20.2744 41.6041 20.3542 41.8584 20.2895 42.097C20.5358 41.1882 22.6615 35.1064 24.5315 32.8351Z" fill="#5D3B18"/>
<path style="mix-blend-mode:multiply" d="M24.6934 50.3937C24.1551 51.5834 22.7541 52.1117 21.5644 51.5732C20.3745 51.035 19.8463 49.6338 20.3847 48.4445C20.923 47.2544 22.3238 46.7261 23.5139 47.2646C24.7034 47.8028 25.2316 49.204 24.6934 50.3937Z" fill="url(#paint2_radial_350_1272)"/>
<path style="mix-blend-mode:multiply" d="M36.372 55.6773C35.8337 56.8671 34.4327 57.3954 33.2432 56.8572C32.0531 56.3187 31.5251 54.9175 32.0633 53.7282C32.6016 52.5381 34.0026 52.0098 35.1926 52.5483C36.3821 53.0865 36.9104 54.4877 36.372 55.6773Z" fill="url(#paint3_radial_350_1272)"/>
<path d="M29.114 46.3373C29.102 46.3461 29.11 46.3413 29.0971 46.3488C29.1056 46.3439 29.3138 46.2301 29.767 46.3614C30.0051 46.4308 30.258 47.1411 30.3247 47.7296C30.351 47.962 30.5606 48.129 30.7928 48.1026C31.0253 48.0763 31.1923 47.8666 31.1659 47.6344C31.1318 47.3325 30.915 45.8139 30.0033 45.5483C29.161 45.3042 28.7035 45.5899 28.6203 45.6497C28.4304 45.786 28.387 46.0506 28.5233 46.2403C28.6597 46.4303 28.9242 46.4737 29.114 46.3373Z" fill="#5D3B18"/>
<path d="M25.2724 48.3666L22.5996 47.1575C20.6622 46.281 21.6317 43.5567 21.6317 43.5567C21.9685 42.8121 22.8703 42.4866 23.636 42.8329L27.8906 44.7577C28.6563 45.1041 29.0066 45.9966 28.6699 46.7412C28.6699 46.7412 27.4279 49.3419 25.2724 48.3666Z" fill="white"/>
<path d="M25.4462 47.9808L22.7734 46.7718C21.2091 46.0641 22.0216 43.7222 22.03 43.6987C22.1299 43.4812 22.3375 43.2889 22.6015 43.1893C22.881 43.084 23.1861 43.0944 23.4609 43.2187L27.7155 45.1435C28.2702 45.3943 28.5251 46.0329 28.2836 46.5667C28.2438 46.6487 27.1943 48.7718 25.4462 47.9808ZM29.0551 46.9156C29.4888 45.9563 29.0445 44.8153 28.0644 44.372L23.8098 42.4472C23.3291 42.2297 22.7939 42.2118 22.3027 42.397C21.8271 42.5764 21.4515 42.9263 21.2454 43.3822C20.8518 44.4841 20.6113 46.7229 22.4245 47.5433L25.0973 48.7523C27.1011 49.6589 28.5599 47.9526 29.0551 46.9156Z" fill="#5D3B18"/>
<path d="M31.7163 51.282L34.3894 52.4914C36.3267 53.3679 37.7325 50.8412 37.7325 50.8412C38.0694 50.097 37.7186 49.2041 36.9529 48.8577L32.6987 46.933C31.9334 46.5866 31.031 46.9125 30.6943 47.6571C30.6943 47.6571 29.5609 50.307 31.7163 51.282Z" fill="white"/>
<path d="M31.5412 51.6677L34.2143 52.8771C36.0275 53.6974 37.5501 52.0385 38.1017 51.0467C38.3238 50.56 38.3387 50.0466 38.1593 49.5708C37.9743 49.0797 37.6075 48.6894 37.1268 48.4719L32.8726 46.5471C32.3922 46.3298 31.857 46.312 31.366 46.497C30.8898 46.6766 30.5141 47.0266 30.3079 47.4825C29.856 48.539 29.5375 50.7613 31.5412 51.6677ZM31.0794 47.8315C31.1925 47.5815 31.4003 47.389 31.6646 47.2893C31.9441 47.1839 32.2491 47.1943 32.5236 47.3187L36.7779 49.2434C37.0524 49.3676 37.2617 49.59 37.3671 49.8694C37.4666 50.1338 37.4593 50.4167 37.3463 50.6665C37.3122 50.7237 36.1199 52.81 34.5633 52.1056L31.8901 50.8962C30.1327 50.1013 31.0433 47.9161 31.0794 47.8315Z" fill="#5D3B18"/>
<path d="M26.633 46.1372C26.412 46.6134 25.8465 46.8205 25.3707 46.5992C24.8947 46.3782 24.6885 45.8131 24.9094 45.3373C25.1304 44.8614 25.6952 44.6547 26.171 44.8757C26.6472 45.0966 26.8537 45.6614 26.633 46.1372Z" fill="#5D3B18"/>
<path d="M34.5841 49.7347C34.3628 50.2109 33.7978 50.4176 33.3214 50.1967C32.846 49.9761 32.6389 49.411 32.8602 48.9348C33.081 48.4586 33.6463 48.2519 34.1219 48.4728C34.5984 48.6938 34.8047 49.2589 34.5841 49.7347Z" fill="#5D3B18"/>
<path d="M25.2378 43.6027C25.4677 43.963 26.3511 44.3667 26.8058 44.4395C27.6274 44.5711 28.1978 44.5004 28.7136 44.2028C28.9159 44.086 28.9854 43.8271 28.8686 43.6246C28.7517 43.4222 28.4928 43.3528 28.2903 43.4696C27.9529 43.6643 27.5614 43.7032 26.9396 43.6034C26.6009 43.5493 26.041 43.2463 25.9409 43.1324C25.9409 43.1324 25.9453 43.1375 25.9517 43.1473C25.8259 42.9503 25.5641 42.8925 25.3671 43.0181C25.17 43.1438 25.1122 43.4056 25.2378 43.6027Z" fill="#5D3B18"/>
<path d="M35.999 47.6933C36.0105 47.6914 36.017 47.6914 36.017 47.6914C35.8654 47.6914 35.2682 47.471 35.004 47.2524C34.5185 46.8508 34.2894 46.5314 34.213 46.1495C34.1672 45.9202 33.9443 45.7716 33.7149 45.8174C33.4856 45.8631 33.337 46.0861 33.3828 46.3154C33.4993 46.8989 33.8229 47.3742 34.4644 47.9049C34.8191 48.1984 35.7057 48.5953 36.1281 48.53C36.3592 48.4943 36.5176 48.2781 36.4819 48.0471C36.4462 47.8159 36.23 47.6575 35.999 47.6933Z" fill="#5D3B18"/>
<path d="M25.2194 55.8983C25.5702 55.658 26.0526 55.5669 26.2334 55.6489C26.4744 55.7579 26.7747 55.9781 26.9581 56.7197C27.0421 57.0603 27.3863 57.2681 27.7268 57.1839C28.0672 57.0997 28.275 56.7555 28.1908 56.4149C27.9522 55.4491 27.4831 54.8202 26.7568 54.4917C26.0405 54.1675 25.0858 54.4504 24.5019 54.8504C24.2126 55.0488 24.1385 55.444 24.3367 55.7331C24.5349 56.0227 24.9301 56.0963 25.2194 55.8983Z" fill="#5D3B18"/>
</g>
<defs>
<radialGradient id="paint0_radial_350_1272" cx="0" cy="0" r="1" gradientUnits="userSpaceOnUse" gradientTransform="translate(54.7852 53.2122) rotate(17.2953) scale(2.36447 2.36448)">
<stop offset="0.33708" stop-color="#F9DAD9"/>
<stop offset="0.96067" stop-color="white"/>
</radialGradient>
<radialGradient id="paint1_radial_350_1272" cx="0" cy="0" r="1" gradientUnits="userSpaceOnUse" gradientTransform="translate(67.0244 57.0222) rotate(17.2952) scale(2.36464 2.36464)">
<stop offset="0.33708" stop-color="#F9DAD9"/>
<stop offset="0.96067" stop-color="white"/>
</radialGradient>
<radialGradient id="paint2_radial_350_1272" cx="0" cy="0" r="1" gradientUnits="userSpaceOnUse" gradientTransform="translate(22.5344 49.422) rotate(24.3429) scale(2.36456)">
<stop offset="0.33708" stop-color="#F9DAD9"/>
<stop offset="0.96067" stop-color="white"/>
</radialGradient>
<radialGradient id="paint3_radial_350_1272" cx="0" cy="0" r="1" gradientUnits="userSpaceOnUse" gradientTransform="translate(34.2129 54.7057) rotate(24.343) scale(2.3646)">
<stop offset="0.33708" stop-color="#F9DAD9"/>
<stop offset="0.96067" stop-color="white"/>
</radialGradient>
<clipPath id="clip0_350_1272">
<rect width="78" height="78" fill="white" transform="translate(5 15)"/>
</clipPath>
</defs>
</svg>
