<svg width="650" height="178" viewBox="0 0 650 178" fill="none" xmlns="http://www.w3.org/2000/svg">
<path fill-rule="evenodd" clip-rule="evenodd" d="M649 1H1V177H649V1ZM0 0V178H650V0H0Z" fill="#A0A0A0"/>
<path fill-rule="evenodd" clip-rule="evenodd" d="M649 1H222V59H649V1ZM221 0V60H650V0H221Z" fill="#A0A0A0"/>
<path fill-rule="evenodd" clip-rule="evenodd" d="M221 1H1V59H221V1ZM0 0V60H222V0H0Z" fill="#A0A0A0"/>
<path fill-rule="evenodd" clip-rule="evenodd" d="M649 60H222V118H649V60ZM221 59V119H650V59H221Z" fill="#A0A0A0"/>
<path fill-rule="evenodd" clip-rule="evenodd" d="M221 60H1V118H221V60ZM0 59V119H222V59H0Z" fill="#A0A0A0"/>
<path fill-rule="evenodd" clip-rule="evenodd" d="M649 119H222V177H649V119ZM221 118V178H650V118H221Z" fill="#A0A0A0"/>
<path fill-rule="evenodd" clip-rule="evenodd" d="M221 119H1V177H221V119ZM0 118V178H222V118H0Z" fill="#A0A0A0"/>
<path d="M136.4 33.8398V24.5398C136.4 23.4598 136.36 22.8998 136.28 22.3198H138.34C138.24 22.9798 138.22 23.4998 138.22 24.5398V33.4198C139.12 33.1998 139.58 33.0798 140.1 32.8798L140.44 34.7998C139.92 34.8598 139.3 34.9598 138.52 35.1398L138.22 35.2198V38.3198C138.22 39.3598 138.26 39.9798 138.34 40.5998H136.28C136.38 39.9798 136.4 39.4798 136.4 38.2998V35.6398L131.74 36.7198C130.9 36.8998 130.3 37.0798 129.86 37.2198L129.46 35.2798C129.96 35.2598 130.64 35.1598 131.4 34.9798L136.4 33.8398ZM125.3 30.6598H124.14C123.28 30.6598 122.86 30.6798 122.36 30.7598V28.9798C122.78 29.0598 123.24 29.0798 124.14 29.0798H125.58V24.3598C125.58 23.3998 125.54 22.8198 125.48 22.3198H127.42C127.34 22.8198 127.32 23.3598 127.32 24.3398V29.0798H128.36C129.08 29.0798 129.44 29.0598 129.86 28.9998V30.7398C129.38 30.6798 128.98 30.6598 128.32 30.6598H127.46C128.32 32.0598 129.02 32.8798 130.16 33.8198C129.82 34.2998 129.56 34.7998 129.3 35.3998C128.24 34.1998 127.86 33.6398 127.2 32.4798C127.26 33.2798 127.32 34.4598 127.32 35.0398V38.5398C127.32 39.4798 127.34 40.0798 127.44 40.6598H125.46C125.56 39.9998 125.58 39.3998 125.58 38.4998V35.5798C125.58 34.7198 125.62 33.6998 125.68 32.8998C124.78 35.2598 124.06 36.5598 122.88 37.8998C122.54 37.0398 122.38 36.7398 121.96 36.2198C123.4 34.7398 124.36 33.1598 125.3 30.6598ZM122.32 24.1198L123.74 23.4798C124.4 25.2198 124.7 26.1798 125.02 27.7798L123.58 28.3798C123.24 26.5398 122.9 25.3798 122.32 24.1198ZM129.02 23.4198L130.46 24.0398C129.92 25.9798 129.64 26.7198 128.86 28.3998L127.62 27.7598C128.34 26.2598 128.62 25.3598 129.02 23.4198ZM130.98 24.9798L132.16 23.6998C133.86 24.9198 134.54 25.4998 135.68 26.7398L134.56 28.1198C133.2 26.6398 132.78 26.2598 130.98 24.9798ZM130.36 29.9398L131.52 28.6998C133.14 29.8198 134.02 30.5598 135.06 31.6798L133.92 33.0398C132.6 31.5998 131.82 30.9198 130.36 29.9398Z" fill="black"/>
<path d="M110.02 30.1598H104.9C103.96 30.1598 103.42 30.1798 102.84 30.2598V28.5998C103.4 28.6798 103.9 28.6998 104.9 28.6998H107.5C107.2 27.9198 106.96 27.4398 106.64 26.8798H104.34C103.38 26.8798 102.66 26.9198 102.04 26.9798V25.2798C102.6 25.3598 103.24 25.3998 104.26 25.3998H105.2C104.86 24.7798 104.42 24.1998 103.74 23.4398L105.38 22.7798C106.2 23.8598 106.4 24.1598 107.02 25.3998H108.38V23.9398C108.38 23.2998 108.34 22.7398 108.26 22.3398H110.12C110.08 22.6998 110.06 23.1798 110.06 23.8798V25.3998H111.76V23.8798C111.76 23.2198 111.72 22.7198 111.68 22.3398H113.54C113.46 22.7598 113.44 23.2998 113.44 23.9398V25.3998H114.96C115.62 24.4998 116.12 23.5798 116.44 22.6998L118.18 23.3598C117.68 24.1798 117.2 24.8998 116.84 25.3998H117.64C118.7 25.3998 119.3 25.3598 119.9 25.2798V26.9798C119.26 26.9198 118.54 26.8798 117.56 26.8798H115.42C115.1 27.5998 114.88 28.0398 114.54 28.6998H117.06C118.08 28.6998 118.58 28.6798 119.18 28.5998V30.2598C118.58 30.1798 118.04 30.1598 117.06 30.1598H111.74V31.2998H115.96C116.88 31.2998 117.52 31.2798 118.06 31.1998V32.7998C117.5 32.7198 116.88 32.6998 115.96 32.6998H111.76V33.8798H117.54C118.72 33.8798 119.34 33.8398 119.92 33.7598V35.4798C119.18 35.3998 118.46 35.3598 117.56 35.3598H113.1C114.7 36.7798 117.18 37.8198 120.38 38.3998C119.88 39.0198 119.66 39.3798 119.36 40.0998C115.9 39.1598 113.7 37.9998 111.68 35.9998C111.74 36.7598 111.74 37.0798 111.74 37.5198V38.6598C111.74 39.4998 111.78 40.1398 111.86 40.6998H109.92C110 40.1198 110.04 39.4798 110.04 38.6398V37.5398C110.04 37.0798 110.04 36.8598 110.08 36.0398C109.04 37.0998 108.3 37.6598 107.02 38.3798C105.7 39.1198 104.6 39.5798 102.9 40.0998C102.56 39.3798 102.38 39.0998 101.84 38.4798C103.62 38.0798 104.66 37.7598 105.82 37.1798C107 36.6198 107.86 36.0798 108.68 35.3598H104.52C103.6 35.3598 102.9 35.3998 102.18 35.4798V33.7598C102.76 33.8398 103.4 33.8798 104.52 33.8798H110.02V32.6998H106.02C105.12 32.6998 104.5 32.7198 103.96 32.7998V31.1998C104.54 31.2798 105.12 31.2998 106.02 31.2998H110.02V30.1598ZM109.28 28.6998H112.7C113.08 27.9798 113.3 27.4598 113.5 26.8798H108.54C108.88 27.5998 109 27.8998 109.28 28.6998Z" fill="black"/>
<path d="M89.5602 29.8598V31.4598C89.9402 31.4798 90.1802 31.4998 90.5402 31.4998H96.1802C96.8002 31.4998 97.1202 31.4798 97.4002 31.4198L98.3402 32.5598C98.2202 32.7198 98.2202 32.7198 98.0202 33.0198C96.8402 34.8198 96.1402 35.6598 94.9002 36.8198C96.7202 37.9798 98.2002 38.5198 100.46 38.8998C100.06 39.4598 99.7602 40.0598 99.5402 40.7198C97.0802 40.0798 95.2202 39.2198 93.5002 37.9398C91.7002 39.1998 89.9802 39.9798 87.6002 40.6198C87.3802 39.9998 87.1602 39.6398 86.6002 38.9598C88.6402 38.5798 90.4202 37.8998 92.1402 36.8198C91.6402 36.3598 91.3202 36.0198 90.9602 35.6198C90.6602 35.2798 90.6202 35.2398 90.0602 34.4398C89.8402 34.1398 89.8202 34.1398 89.6402 33.8998L91.2002 33.1398C91.8402 34.2398 92.4002 34.8998 93.4802 35.8198C94.7202 34.7798 95.2802 34.1198 95.9002 33.0398H90.5802C89.9002 33.0398 89.5402 33.0598 89.1002 33.1198V31.8598H87.8002C87.8402 31.4798 87.8602 31.1998 87.8602 30.6398V29.4798C87.8602 28.9998 87.8402 28.6598 87.8002 28.3198C88.1602 28.3598 88.4802 28.3798 89.4002 28.3798H95.8202C96.7602 26.9598 97.1602 26.1398 97.6602 24.5798L99.3202 25.2398C98.7202 26.4798 98.1802 27.4598 97.5602 28.3798H98.1002C99.0802 28.3798 99.5202 28.3598 100.04 28.2998C99.9802 28.7398 99.9802 28.9598 99.9802 29.6598V30.9998C99.9802 31.4398 100 31.7798 100.06 32.2198H98.2602V29.8598H89.5602ZM84.1402 26.0998V24.3598C84.1402 23.4598 84.1002 22.9998 84.0002 22.3398H86.0002C85.9002 22.9198 85.8802 23.4598 85.8802 24.3398V26.0998H86.5802C87.0202 26.0998 87.2602 26.0798 87.6602 26.0198V27.7598C87.2202 27.7198 86.9402 27.6998 86.5202 27.6998H85.8802V31.0598C86.4202 30.8398 86.6602 30.7398 87.4002 30.4198L87.4602 32.0798C86.7402 32.3998 86.5802 32.4598 85.8802 32.7598V38.7198C85.8802 39.4798 85.7402 39.8598 85.3802 40.0998C85.0602 40.2998 84.4602 40.4398 83.7802 40.4398C83.7602 40.4398 83.7202 40.4398 83.6602 40.4398C82.9602 40.4198 82.8602 40.4198 82.4602 40.4198C82.3802 39.6598 82.3202 39.4598 82.0402 38.6998C82.5802 38.7798 83.1002 38.8198 83.4602 38.8198C84.0202 38.8198 84.1402 38.7398 84.1402 38.2598V33.4198C83.4002 33.6998 83.3602 33.7198 83.2402 33.7598C82.7402 33.9398 82.5002 34.0398 82.0802 34.2198L81.6602 32.3798C82.3002 32.2598 82.8002 32.1198 84.1402 31.6998V27.6998H83.3202C82.8002 27.6998 82.4002 27.7198 81.9002 27.7798V25.9998C82.3402 26.0798 82.7402 26.0998 83.3402 26.0998H84.1402ZM98.1602 22.2798L99.4802 23.8398C99.1602 23.8998 99.1602 23.8998 98.6402 24.0198C96.1402 24.5598 92.2002 24.9998 88.3602 25.1598C88.2002 24.5198 88.0602 24.1398 87.7202 23.5798C89.8802 23.5798 91.9602 23.4398 94.2002 23.1398C96.1002 22.8798 97.5802 22.5598 98.1602 22.2798ZM91.2002 27.7798L89.7402 28.3598C89.3602 27.2398 89.1002 26.6398 88.5802 25.7598L90.0402 25.2998C90.5602 26.1798 90.7202 26.4998 91.2002 27.7798ZM94.8602 27.7598L93.3202 28.2598C93.0002 26.9798 92.8202 26.5398 92.2802 25.4798L93.8402 25.0398C94.3202 25.9398 94.4402 26.2598 94.8602 27.7598Z" fill="black"/>
<path d="M550.257 22.52L552.797 22.66C552.557 23.34 552.457 23.86 552.077 26.52C551.937 27.36 551.857 28.04 551.817 28.52H551.877C551.917 28.4 551.917 28.4 551.997 28.08C552.197 27.38 552.717 26.4 553.257 25.7C554.357 24.34 555.597 23.66 557.057 23.66C558.417 23.66 559.617 24.3 560.477 25.46C561.477 26.8 561.917 28.42 561.917 30.78C561.917 34.64 560.117 37.52 556.757 39C555.737 39.46 554.337 39.86 552.837 40.12C552.437 38.98 552.217 38.54 551.657 37.76C553.657 37.54 554.817 37.24 556.037 36.62C558.357 35.44 559.417 33.54 559.417 30.5C559.417 27.62 558.457 26.02 556.737 26.02C555.977 26.02 555.277 26.36 554.577 27.08C553.017 28.7 552.057 31.16 552.057 33.54C552.057 33.64 552.057 33.78 552.057 33.96L549.657 34C549.677 33.88 549.677 33.78 549.677 33.74C549.677 33.66 549.677 33.54 549.677 33.36C549.657 32.78 549.617 31.3 549.617 30.9C549.617 29.28 549.737 27.06 549.897 25.68L550.197 23.2C550.237 22.86 550.257 22.78 550.257 22.52Z" fill="#0C3584"/>
<path d="M538.197 27.26L540.457 27.9C540.377 28.06 540.377 28.06 540.217 28.48C540.017 29.04 539.997 29.06 539.937 29.24C540.757 29.44 541.337 29.72 542.017 30.22C543.297 31.18 543.917 32.42 543.917 34C543.917 36.18 542.737 37.88 540.477 39C539.297 39.58 538.157 39.88 536.397 40.06C536.177 39.2 535.997 38.84 535.337 37.8C536.957 37.78 537.977 37.56 539.157 37C540.757 36.24 541.497 35.26 541.497 33.88C541.497 32.62 540.677 31.6 539.257 31.12C538.157 33.5 537.217 34.94 535.777 36.44C533.977 38.34 532.197 39.32 530.537 39.32C528.677 39.32 527.417 37.9 527.417 35.82C527.417 34.18 528.117 32.6 529.397 31.34C530.197 30.56 530.937 30.06 532.137 29.54C532.137 28.9 532.177 28.1 532.217 27.14C531.997 27.14 530.917 27.12 528.977 27.06C528.777 27.06 528.637 27.06 528.597 27.06C528.537 27.06 528.357 27.06 528.137 27.08V24.84C529.037 25.04 530.217 25.14 531.877 25.14C531.897 25.14 531.917 25.14 532.317 25.14C532.337 24.74 532.337 24.74 532.397 23.94C532.417 23.68 532.437 23.18 532.437 22.8C532.437 22.72 532.437 22.64 532.397 22.48L534.877 22.6C534.717 23.14 534.637 23.66 534.517 25.06C537.717 24.88 540.557 24.48 542.097 24L542.197 26.3C541.917 26.32 541.837 26.32 541.417 26.38C539.217 26.74 535.977 27.04 534.377 27.08C534.317 27.94 534.297 28.58 534.277 29C535.357 28.78 535.817 28.74 537.037 28.74C537.277 28.74 537.437 28.74 537.797 28.78C538.017 28.14 538.137 27.72 538.197 27.26ZM532.177 31.82C531.297 32.4 530.957 32.7 530.557 33.2C529.957 33.98 529.657 34.8 529.657 35.64C529.657 36.54 530.097 37.1 530.797 37.1C531.357 37.1 531.897 36.86 532.537 36.34C532.277 35.04 532.177 33.76 532.177 31.82ZM534.437 34.84L534.477 34.86C534.557 34.74 534.557 34.74 534.697 34.58C535.637 33.52 536.437 32.24 537.177 30.58C536.957 30.56 536.857 30.56 536.657 30.56C535.777 30.56 535.057 30.66 534.257 30.92C534.277 32.76 534.277 32.96 534.397 34.36C534.417 34.48 534.417 34.48 534.417 34.62C534.417 34.72 534.417 34.74 534.437 34.84Z" fill="#0C3584"/>
<path d="M509.897 31.68H515.077C515.797 31.68 516.237 31.66 516.717 31.6C516.677 32 516.657 32.14 516.637 32.66C516.517 35.4 516.097 37.68 515.457 38.92C514.957 39.92 514.097 40.26 512.177 40.26C511.237 40.26 510.297 40.2 509.017 40.08C508.917 39.16 508.797 38.68 508.497 37.8C510.017 38.06 511.137 38.18 512.197 38.18C512.977 38.18 513.317 38.06 513.497 37.68C513.897 36.88 514.137 35.62 514.297 33.6H508.777C508.217 33.6 507.757 33.62 507.297 33.66C507.837 31.64 508.197 29.24 508.257 27.3C508.697 27.36 509.117 27.38 509.817 27.38H514.277V24.94H509.577C508.837 24.94 508.137 24.98 507.477 25.06V22.84C508.077 22.92 508.797 22.96 509.597 22.96H514.617C515.397 22.96 515.997 22.94 516.557 22.88C516.517 23.38 516.497 23.84 516.497 24.5V27.78C516.497 28.44 516.517 28.86 516.557 29.34C516.057 29.3 515.417 29.28 514.777 29.28H510.317C510.197 30.14 510.077 30.82 509.897 31.68ZM520.537 22.48H523.077C522.977 23.2 522.957 23.66 522.957 24.7V38C522.957 39.2 522.977 39.76 523.077 40.56H520.537C520.637 39.72 520.677 39.16 520.677 38V24.7C520.677 23.66 520.657 23.26 520.537 22.48Z" fill="#0C3584"/>
<path d="M491.357 28.3002H489.797C488.977 28.3002 488.597 28.3202 487.997 28.4002V27.5402H486.737C486.797 27.1002 486.817 26.7602 486.817 26.1002V25.0402C486.817 24.4002 486.797 24.0402 486.737 23.5802C487.337 23.6402 487.777 23.6602 488.777 23.6602H491.297V23.5402C491.297 22.9402 491.277 22.5402 491.197 22.1602H493.577C493.497 22.5602 493.477 22.9002 493.477 23.5202V23.6602H495.517C496.557 23.6602 497.097 23.6402 497.737 23.5802C497.697 24.0202 497.677 24.4002 497.677 25.0202V26.0202C497.677 26.6202 497.697 27.0002 497.737 27.4202H496.617V28.4002C496.017 28.3202 495.657 28.3002 494.857 28.3002H493.317V29.2002H495.157C495.877 29.2002 496.257 29.1802 496.737 29.1202V30.8802C496.257 30.8202 495.977 30.8002 495.157 30.8002H493.317V31.8002H495.937C496.777 31.8002 497.157 31.7802 497.677 31.7002V33.6402C497.177 33.5802 496.757 33.5602 495.937 33.5602H488.417C487.697 33.5602 487.137 33.5802 486.637 33.6402V31.7002C487.157 31.7802 487.557 31.8002 488.417 31.8002H491.357V30.8002H489.357C488.537 30.8002 488.237 30.8202 487.737 30.8802V29.1202C488.217 29.1802 488.637 29.2002 489.357 29.2002H491.357V28.3002ZM489.797 26.6802H491.357C491.337 26.2202 491.317 26.0602 491.257 25.7802H493.417C493.357 26.0602 493.337 26.2402 493.317 26.6802H494.857C495.257 26.6802 495.497 26.6802 495.797 26.6602V25.3802H488.757V26.6602C489.117 26.6802 489.317 26.6802 489.797 26.6802ZM489.537 34.4202H495.117C495.797 34.4202 496.237 34.4002 496.697 34.3602C496.637 34.8602 496.617 35.2802 496.617 36.1202V38.6402C496.617 39.5202 496.637 39.9402 496.717 40.4402H494.537V39.8202H490.017V40.6602H487.797C487.897 40.1002 487.917 39.6402 487.917 38.8802V36.2202C487.917 35.5202 487.897 34.9602 487.837 34.3602C488.297 34.4002 488.817 34.4202 489.537 34.4202ZM490.017 36.1002V38.0402H494.537V36.1002H490.017ZM498.477 23.5802H500.737C500.657 24.1002 500.637 24.6402 500.637 25.6602V33.7602C500.637 34.9402 500.657 35.3602 500.737 35.8802H498.477C498.557 35.3002 498.577 34.8802 498.577 33.7402V25.7002C498.577 24.6002 498.557 24.1402 498.477 23.5802ZM502.037 22.3202H504.377C504.277 22.8602 504.237 23.5402 504.237 24.7402V38.0802C504.237 39.9402 503.637 40.4002 501.217 40.4002C500.737 40.4002 500.397 40.3802 499.357 40.3202C499.237 39.4602 499.097 38.9202 498.797 38.2402C499.977 38.3602 500.597 38.4202 501.057 38.4202C501.977 38.4202 502.157 38.3202 502.157 37.8002V24.8002C502.157 23.5802 502.137 22.9802 502.037 22.3202Z" fill="#0C3584"/>
<path d="M474.838 37.3402V29.9202H471.898C471.018 29.9202 470.458 29.9402 469.878 30.0202V27.9002C470.398 27.9802 470.978 28.0002 471.898 28.0002H479.558C480.498 28.0002 481.078 27.9802 481.618 27.9002V30.0202C481.058 29.9402 480.478 29.9202 479.558 29.9202H476.938V32.4802H480.718C481.638 32.4802 482.138 32.4602 482.678 32.3602V34.5002C482.078 34.4202 481.598 34.4002 480.718 34.4002H476.938V37.8402C477.918 37.9802 479.018 38.0402 480.198 38.0402C481.358 38.0402 482.718 37.9802 484.758 37.8002C484.438 38.6202 484.298 39.1602 484.198 40.0802C482.558 40.1202 481.518 40.1402 479.938 40.1402C475.258 40.1402 472.638 39.1202 470.998 36.7002C470.358 38.0802 469.598 39.1802 468.258 40.6202C467.738 39.8802 467.458 39.6202 466.538 38.9802C468.178 37.5002 469.338 35.5802 469.978 33.3202C470.198 32.5002 470.358 31.6002 470.378 31.1602L472.598 31.5802C472.498 31.9202 472.498 31.9402 472.318 32.7602C472.218 33.1602 472.098 33.6202 471.798 34.5602C472.598 35.9802 473.418 36.7202 474.838 37.3402ZM474.498 24.2402V23.5002C474.498 23.0002 474.458 22.6602 474.378 22.2202H476.838C476.758 22.6402 476.738 22.9602 476.738 23.4802V24.2402H482.138C482.938 24.2402 483.618 24.2202 484.358 24.1602C484.298 24.6202 484.278 25.0602 484.278 25.6402V27.2002C484.278 27.7802 484.298 28.2402 484.358 28.7602H482.198V26.2602H469.278V28.7602H467.058C467.138 28.2802 467.158 27.8802 467.158 27.1802V25.6402C467.158 25.1202 467.118 24.6202 467.078 24.1602C467.798 24.2202 468.478 24.2402 469.278 24.2402H474.498Z" fill="#0C3584"/>
<path d="M457.937 31.8602H456.497V37.6002C458.737 37.1002 458.737 37.1002 459.817 36.7402L459.877 38.7602C457.797 39.3802 456.457 39.7002 453.497 40.3602C453.057 40.4602 452.697 40.5602 452.477 40.6402L452.077 38.3802C452.477 38.3802 453.197 38.2602 454.437 38.0402V25.0002C454.437 24.1002 454.417 23.6202 454.357 22.8602C454.757 22.9402 455.237 22.9602 456.277 22.9602H461.997C462.957 22.9602 463.337 22.9402 463.857 22.8602C463.817 23.3402 463.797 23.8002 463.797 25.0802V29.7402C463.797 30.8802 463.817 31.2602 463.877 31.9202C463.497 31.8802 463.497 31.8802 463.317 31.8802L464.937 33.2602C464.837 33.3002 464.537 33.5402 464.377 33.6802C463.757 34.2202 462.537 35.1602 461.677 35.7602C462.657 36.9602 463.797 37.8402 465.357 38.6002C464.837 39.2002 464.517 39.7202 464.097 40.6402C462.157 39.4202 460.937 38.2802 459.917 36.7602C458.957 35.3202 458.437 34.0402 457.937 31.8602ZM462.257 31.8602H459.857C460.117 32.9002 460.277 33.3602 460.637 34.1202C461.837 33.2802 462.877 32.3602 463.237 31.8802C462.977 31.8602 462.537 31.8602 462.257 31.8602ZM456.497 24.8802V26.5002H461.757V24.8802H456.497ZM456.497 28.2602V30.0402H461.757V28.2602H456.497ZM447.337 38.3202V24.5802C447.337 23.9602 447.317 23.6202 447.277 22.7402C447.637 22.7802 448.017 22.8002 448.737 22.8002H451.677C452.477 22.8002 452.897 22.7602 453.137 22.7002L454.277 24.1002C454.137 24.3602 454.077 24.5202 453.657 25.6202C453.237 26.7202 452.777 27.7602 452.117 29.0402C452.937 30.1602 453.257 30.7402 453.537 31.6002C453.737 32.2202 453.857 32.9602 453.857 33.5802C453.857 34.7602 453.497 35.5202 452.777 35.8602C452.237 36.1402 451.677 36.2202 450.237 36.2202C450.197 35.2602 450.117 34.8002 449.817 34.1202C450.097 34.1602 450.437 34.2002 450.697 34.2002C451.477 34.2002 451.737 33.9802 451.737 33.3202C451.737 32.6402 451.577 31.9402 451.297 31.2602C450.997 30.6002 450.697 30.1402 449.897 29.2202C450.777 27.5202 450.997 27.0002 451.757 24.7202H449.437V38.3202C449.437 39.1602 449.477 39.9002 449.537 40.6202H447.217C447.297 40.0202 447.337 39.2602 447.337 38.3202Z" fill="#0C3584"/>
<path d="M435.698 30.7001L442.798 23.6001L443.438 24.2601L436.338 31.4001L443.438 38.5001L442.798 39.1601L435.698 32.1201L428.618 39.1601L427.958 38.5001L435.058 31.4001L427.958 24.2601L428.618 23.6001L435.698 30.7001ZM435.718 24.0801C436.558 24.0801 437.238 24.7601 437.238 25.6001C437.238 26.4601 436.558 27.1401 435.718 27.1401C434.878 27.1401 434.178 26.4401 434.178 25.6001C434.178 24.7601 434.878 24.0801 435.718 24.0801ZM429.978 29.8601C430.818 29.8601 431.498 30.5401 431.498 31.3801C431.498 32.2401 430.818 32.9201 429.978 32.9201C429.138 32.9201 428.438 32.2201 428.438 31.3801C428.438 30.5401 429.118 29.8601 429.978 29.8601ZM441.418 29.8801C442.258 29.8801 442.938 30.5601 442.938 31.4001C442.938 32.2401 442.258 32.9201 441.418 32.9201C440.578 32.9201 439.898 32.2401 439.898 31.4001C439.898 30.5601 440.578 29.8801 441.418 29.8801ZM435.698 35.6801C436.538 35.6801 437.218 36.3601 437.218 37.2201C437.218 38.0601 436.518 38.7601 435.698 38.7601C434.898 38.7601 434.158 38.0201 434.158 37.2201C434.158 36.4601 434.878 35.6801 435.558 35.6801C435.578 35.6801 435.598 35.6801 435.618 35.7001C435.638 35.7201 435.638 35.7201 435.658 35.7201C435.658 35.7201 435.658 35.7201 435.698 35.6801Z" fill="#0C3584"/>
<path d="M413.477 34.3799H404.797C404.617 35.3999 404.457 36.0599 404.217 36.7599C403.677 38.2799 402.997 39.4399 401.857 40.7199C401.277 39.9399 400.777 39.4399 399.997 38.8799C401.117 37.7599 401.677 36.8599 402.137 35.3599C402.737 33.4999 402.937 31.1599 402.937 25.9599C402.937 24.5199 402.917 23.6399 402.837 22.9399C403.617 23.0199 404.157 23.0399 405.177 23.0399H413.517C414.617 23.0399 415.157 23.0199 415.837 22.9399C415.757 23.4799 415.737 24.0199 415.737 25.1999V38.1599C415.737 39.1599 415.517 39.7399 415.017 40.0599C414.577 40.3599 414.017 40.4599 412.697 40.4599C412.057 40.4599 411.397 40.4399 410.377 40.3799C410.257 39.4199 410.137 38.9599 409.797 38.1399C410.817 38.2999 411.917 38.3799 412.737 38.3799C413.337 38.3799 413.477 38.2799 413.477 37.8399V34.3799ZM405.037 32.3399H413.477V29.6599H405.197C405.197 30.2799 405.157 30.7199 405.037 32.3399ZM405.217 27.6199H413.477V25.1199H405.217V27.6199Z" fill="#0C3584"/>
<path d="M396.247 23.3203H398.687L391.467 42.2603H389.007L396.247 23.3203Z" fill="#0C3584"/>
<path d="M381.508 39.56C379.808 39.56 378.368 39 377.308 37.94C376.708 37.34 376.248 36.64 375.988 35.92C375.468 34.5 375.208 32.94 375.208 31.32C375.208 29.2 375.688 27 376.428 25.78C377.508 23.98 379.308 23 381.528 23C383.228 23 384.688 23.56 385.748 24.62C386.348 25.22 386.808 25.92 387.068 26.64C387.588 28.04 387.848 29.64 387.848 31.28C387.848 33.74 387.308 35.9 386.368 37.2C385.248 38.76 383.588 39.56 381.508 39.56ZM381.528 37.24C382.408 37.24 383.188 36.94 383.688 36.4C384.588 35.46 385.088 33.6 385.088 31.26C385.088 28.94 384.588 27.12 383.688 26.14C383.208 25.6 382.408 25.3 381.508 25.3C380.548 25.3 379.848 25.62 379.268 26.32C378.388 27.36 377.948 29 377.948 31.18C377.948 33.28 378.328 35.02 378.968 35.94C379.588 36.82 380.428 37.24 381.528 37.24Z" fill="#0C3584"/>
<path d="M367.27 39.56C365.57 39.56 364.13 39 363.07 37.94C362.47 37.34 362.01 36.64 361.75 35.92C361.23 34.5 360.97 32.94 360.97 31.32C360.97 29.2 361.45 27 362.19 25.78C363.27 23.98 365.07 23 367.29 23C368.99 23 370.45 23.56 371.51 24.62C372.11 25.22 372.57 25.92 372.83 26.64C373.35 28.04 373.61 29.64 373.61 31.28C373.61 33.74 373.07 35.9 372.13 37.2C371.01 38.76 369.35 39.56 367.27 39.56ZM367.29 37.24C368.17 37.24 368.95 36.94 369.45 36.4C370.35 35.46 370.85 33.6 370.85 31.26C370.85 28.94 370.35 27.12 369.45 26.14C368.97 25.6 368.17 25.3 367.27 25.3C366.31 25.3 365.61 25.62 365.03 26.32C364.15 27.36 363.71 29 363.71 31.18C363.71 33.28 364.09 35.02 364.73 35.94C365.35 36.82 366.19 37.24 367.29 37.24Z" fill="#0C3584"/>
<path d="M358.932 23.2202V25.5402C358.292 26.1602 357.712 26.9802 356.852 28.4202C354.732 31.9602 353.672 35.0202 353.132 39.2402H349.972C350.632 35.9002 351.232 33.9802 352.392 31.5002C353.312 29.5202 354.132 28.1602 355.892 25.6802H349.712C348.532 25.6802 347.912 25.7202 347.092 25.8202V23.1802C348.012 23.2802 348.652 23.3202 349.832 23.3202H356.192C357.692 23.3202 358.212 23.3002 358.932 23.2202Z" fill="#0C3584"/>
<path d="M344.701 36.3203V39.2403C344.701 40.9603 344.261 41.6003 342.641 42.2403L341.921 41.1803C343.141 40.8403 343.421 40.4803 343.441 39.2403H341.761V36.3203H344.701Z" fill="#0C3584"/>
<path d="M339.303 23.2202V25.5402C338.663 26.1602 338.083 26.9802 337.223 28.4202C335.103 31.9602 334.043 35.0202 333.503 39.2402H330.343C331.003 35.9002 331.603 33.9802 332.763 31.5002C333.683 29.5202 334.503 28.1602 336.263 25.6802H330.083C328.903 25.6802 328.283 25.7202 327.463 25.8202V23.1802C328.383 23.2802 329.023 23.3202 330.203 23.3202H336.563C338.063 23.3202 338.583 23.3002 339.303 23.2202Z" fill="#0C3584"/>
<path d="M317.783 39.3599H314.823C314.923 38.5799 314.983 37.7599 314.983 36.7799V35.4199H311.963C311.063 35.4199 310.543 35.4599 309.863 35.5799V33.2999C310.563 33.4199 311.043 33.4599 311.963 33.4599H314.983V32.8599L314.323 31.8399H312.003C311.083 31.8399 310.583 31.8799 309.903 31.9999V29.7199C310.563 29.8399 311.083 29.8799 312.003 29.8799H313.123L310.343 25.4799C309.763 24.5799 309.243 23.7999 308.943 23.4199H312.383C312.563 23.9999 312.783 24.4399 313.343 25.3799L316.303 30.4599L319.263 25.3999C319.823 24.4599 320.063 23.9599 320.223 23.4199H323.683C323.423 23.7599 322.623 24.8999 322.263 25.4799L319.503 29.8799H320.623C321.523 29.8799 322.063 29.8399 322.723 29.7199V31.9999C322.043 31.8799 321.503 31.8399 320.623 31.8399H318.283L317.623 32.8799V33.4599H320.583C321.483 33.4599 321.983 33.4199 322.683 33.2999V35.5799C322.003 35.4599 321.463 35.4199 320.583 35.4199H317.623V36.7799C317.623 37.9199 317.663 38.5599 317.783 39.3599Z" fill="#0C3584"/>
<path d="M487.307 93.3799H478.627C478.447 94.3999 478.287 95.0599 478.047 95.7599C477.507 97.2799 476.827 98.4399 475.687 99.7199C475.107 98.9399 474.607 98.4399 473.827 97.8799C474.947 96.7599 475.507 95.8599 475.967 94.3599C476.567 92.4999 476.767 90.1599 476.767 84.9599C476.767 83.5199 476.747 82.6399 476.667 81.9399C477.447 82.0199 477.987 82.0399 479.007 82.0399H487.347C488.447 82.0399 488.987 82.0199 489.667 81.9399C489.587 82.4799 489.567 83.0199 489.567 84.1999V97.1599C489.567 98.1599 489.347 98.7399 488.847 99.0599C488.407 99.3599 487.847 99.4599 486.527 99.4599C485.887 99.4599 485.227 99.4399 484.207 99.3799C484.087 98.4199 483.967 97.9599 483.627 97.1399C484.647 97.2999 485.747 97.3799 486.567 97.3799C487.167 97.3799 487.307 97.2799 487.307 96.8399V93.3799ZM478.867 91.3399H487.307V88.6599H479.027C479.027 89.2799 478.987 89.7199 478.867 91.3399ZM479.047 86.6199H487.307V84.1199H479.047V86.6199Z" fill="#0C3584"/>
<path d="M470.077 82.3198H472.517L465.297 101.26H462.837L470.077 82.3198Z" fill="#0C3584"/>
<path d="M455.339 98.56C453.639 98.56 452.199 98 451.139 96.94C450.539 96.34 450.079 95.64 449.819 94.92C449.299 93.5 449.039 91.94 449.039 90.32C449.039 88.2 449.519 86 450.259 84.78C451.339 82.98 453.139 82 455.359 82C457.059 82 458.519 82.56 459.579 83.62C460.179 84.22 460.639 84.92 460.899 85.64C461.419 87.04 461.679 88.64 461.679 90.28C461.679 92.74 461.139 94.9 460.199 96.2C459.079 97.76 457.419 98.56 455.339 98.56ZM455.359 96.24C456.239 96.24 457.019 95.94 457.519 95.4C458.419 94.46 458.919 92.6 458.919 90.26C458.919 87.94 458.419 86.12 457.519 85.14C457.039 84.6 456.239 84.3 455.339 84.3C454.379 84.3 453.679 84.62 453.099 85.32C452.219 86.36 451.779 88 451.779 90.18C451.779 92.28 452.159 94.02 452.799 94.94C453.419 95.82 454.259 96.24 455.359 96.24Z" fill="#0C3584"/>
<path d="M441.1 98.56C439.4 98.56 437.96 98 436.9 96.94C436.3 96.34 435.84 95.64 435.58 94.92C435.06 93.5 434.8 91.94 434.8 90.32C434.8 88.2 435.28 86 436.02 84.78C437.1 82.98 438.9 82 441.12 82C442.82 82 444.28 82.56 445.34 83.62C445.94 84.22 446.4 84.92 446.66 85.64C447.18 87.04 447.44 88.64 447.44 90.28C447.44 92.74 446.9 94.9 445.96 96.2C444.84 97.76 443.18 98.56 441.1 98.56ZM441.12 96.24C442 96.24 442.78 95.94 443.28 95.4C444.18 94.46 444.68 92.6 444.68 90.26C444.68 87.94 444.18 86.12 443.28 85.14C442.8 84.6 442 84.3 441.1 84.3C440.14 84.3 439.44 84.62 438.86 85.32C437.98 86.36 437.54 88 437.54 90.18C437.54 92.28 437.92 94.02 438.56 94.94C439.18 95.82 440.02 96.24 441.12 96.24Z" fill="#0C3584"/>
<path d="M420.582 94.46L423.442 93.9C423.702 94.82 423.882 95.14 424.382 95.54C425.042 96.06 425.842 96.32 426.802 96.32C428.782 96.32 430.042 95.3 430.042 93.72C430.042 92.8 429.642 92.04 428.922 91.62C428.442 91.34 427.502 91.14 426.622 91.14C425.742 91.14 425.162 91.16 424.482 91.24V88.76C425.122 88.84 425.562 88.86 426.422 88.86C428.422 88.86 429.602 87.94 429.602 86.4C429.602 85.02 428.662 84.24 426.962 84.24C425.982 84.24 425.262 84.46 424.782 84.86C424.382 85.24 424.182 85.58 423.942 86.4L421.082 85.92C421.582 84.44 422.042 83.74 422.982 83.06C424.002 82.32 425.302 81.96 426.902 81.96C430.242 81.96 432.402 83.64 432.402 86.24C432.402 87.44 431.882 88.54 431.022 89.18C430.582 89.52 430.142 89.68 429.082 89.96C430.502 90.18 431.242 90.52 431.942 91.3C432.602 92.04 432.902 92.88 432.902 94.06C432.902 95.14 432.442 96.24 431.702 96.98C430.602 98.04 428.922 98.6 426.782 98.6C424.442 98.6 422.842 98 421.702 96.7C421.202 96.14 420.942 95.62 420.582 94.46Z" fill="#0C3584"/>
<path d="M418.531 95.3198V98.2398C418.531 99.9598 418.091 100.6 416.471 101.24L415.751 100.18C416.971 99.8398 417.251 99.4798 417.271 98.2398H415.591V95.3198H418.531Z" fill="#0C3584"/>
<path d="M400.953 94.46L403.813 93.9C404.073 94.82 404.253 95.14 404.753 95.54C405.413 96.06 406.213 96.32 407.173 96.32C409.153 96.32 410.413 95.3 410.413 93.72C410.413 92.8 410.013 92.04 409.293 91.62C408.813 91.34 407.873 91.14 406.993 91.14C406.113 91.14 405.533 91.16 404.853 91.24V88.76C405.493 88.84 405.933 88.86 406.793 88.86C408.793 88.86 409.973 87.94 409.973 86.4C409.973 85.02 409.033 84.24 407.333 84.24C406.353 84.24 405.633 84.46 405.153 84.86C404.753 85.24 404.553 85.58 404.313 86.4L401.453 85.92C401.953 84.44 402.413 83.74 403.353 83.06C404.373 82.32 405.673 81.96 407.273 81.96C410.613 81.96 412.773 83.64 412.773 86.24C412.773 87.44 412.253 88.54 411.393 89.18C410.953 89.52 410.513 89.68 409.453 89.96C410.873 90.18 411.613 90.52 412.313 91.3C412.973 92.04 413.273 92.88 413.273 94.06C413.273 95.14 412.813 96.24 412.073 96.98C410.973 98.04 409.293 98.6 407.153 98.6C404.813 98.6 403.213 98 402.073 96.7C401.573 96.14 401.313 95.62 400.953 94.46Z" fill="#0C3584"/>
<path d="M391.613 98.3599H388.653C388.753 97.5799 388.813 96.7599 388.813 95.7799V94.4199H385.793C384.893 94.4199 384.373 94.4599 383.693 94.5799V92.2999C384.393 92.4199 384.873 92.4599 385.793 92.4599H388.813V91.8599L388.153 90.8399H385.833C384.913 90.8399 384.413 90.8799 383.733 90.9999V88.7199C384.393 88.8399 384.913 88.8799 385.833 88.8799H386.953L384.173 84.4799C383.593 83.5799 383.073 82.7999 382.773 82.4199H386.213C386.393 82.9999 386.613 83.4399 387.173 84.3799L390.133 89.4599L393.093 84.3999C393.653 83.4599 393.893 82.9599 394.053 82.4199H397.513C397.253 82.7599 396.453 83.8999 396.093 84.4799L393.333 88.8799H394.453C395.353 88.8799 395.893 88.8399 396.553 88.7199V90.9999C395.873 90.8799 395.333 90.8399 394.453 90.8399H392.113L391.453 91.8799V92.4599H394.413C395.313 92.4599 395.813 92.4199 396.513 92.2999V94.5799C395.833 94.4599 395.293 94.4199 394.413 94.4199H391.453V95.7799C391.453 96.9199 391.493 97.5599 391.613 98.3599Z" fill="#0C3584"/>
<path d="M542.181 140.52L544.721 140.66C544.481 141.34 544.381 141.86 544.001 144.52C543.861 145.36 543.781 146.04 543.741 146.52H543.801C543.841 146.4 543.841 146.4 543.921 146.08C544.121 145.38 544.641 144.4 545.181 143.7C546.281 142.34 547.521 141.66 548.981 141.66C550.341 141.66 551.541 142.3 552.401 143.46C553.401 144.8 553.841 146.42 553.841 148.78C553.841 152.64 552.041 155.52 548.681 157C547.661 157.46 546.261 157.86 544.761 158.12C544.361 156.98 544.141 156.54 543.581 155.76C545.581 155.54 546.741 155.24 547.961 154.62C550.281 153.44 551.341 151.54 551.341 148.5C551.341 145.62 550.381 144.02 548.661 144.02C547.901 144.02 547.201 144.36 546.501 145.08C544.941 146.7 543.981 149.16 543.981 151.54C543.981 151.64 543.981 151.78 543.981 151.96L541.581 152C541.601 151.88 541.601 151.78 541.601 151.74C541.601 151.66 541.601 151.54 541.601 151.36C541.581 150.78 541.541 149.3 541.541 148.9C541.541 147.28 541.661 145.06 541.821 143.68L542.121 141.2C542.161 140.86 542.181 140.78 542.181 140.52Z" fill="#0C3584"/>
<path d="M530.121 145.26L532.381 145.9C532.301 146.06 532.301 146.06 532.141 146.48C531.941 147.04 531.921 147.06 531.861 147.24C532.681 147.44 533.261 147.72 533.941 148.22C535.221 149.18 535.841 150.42 535.841 152C535.841 154.18 534.661 155.88 532.401 157C531.221 157.58 530.081 157.88 528.321 158.06C528.101 157.2 527.921 156.84 527.261 155.8C528.881 155.78 529.901 155.56 531.081 155C532.681 154.24 533.421 153.26 533.421 151.88C533.421 150.62 532.601 149.6 531.181 149.12C530.081 151.5 529.141 152.94 527.701 154.44C525.901 156.34 524.121 157.32 522.461 157.32C520.601 157.32 519.341 155.9 519.341 153.82C519.341 152.18 520.041 150.6 521.321 149.34C522.121 148.56 522.861 148.06 524.061 147.54C524.061 146.9 524.101 146.1 524.141 145.14C523.921 145.14 522.841 145.12 520.901 145.06C520.701 145.06 520.561 145.06 520.521 145.06C520.461 145.06 520.281 145.06 520.061 145.08V142.84C520.961 143.04 522.141 143.14 523.801 143.14C523.821 143.14 523.841 143.14 524.241 143.14C524.261 142.74 524.261 142.74 524.321 141.94C524.341 141.68 524.361 141.18 524.361 140.8C524.361 140.72 524.361 140.64 524.321 140.48L526.801 140.6C526.641 141.14 526.561 141.66 526.441 143.06C529.641 142.88 532.481 142.48 534.021 142L534.121 144.3C533.841 144.32 533.761 144.32 533.341 144.38C531.141 144.74 527.901 145.04 526.301 145.08C526.241 145.94 526.221 146.58 526.201 147C527.281 146.78 527.741 146.74 528.961 146.74C529.201 146.74 529.361 146.74 529.721 146.78C529.941 146.14 530.061 145.72 530.121 145.26ZM524.101 149.82C523.221 150.4 522.881 150.7 522.481 151.2C521.881 151.98 521.581 152.8 521.581 153.64C521.581 154.54 522.021 155.1 522.721 155.1C523.281 155.1 523.821 154.86 524.461 154.34C524.201 153.04 524.101 151.76 524.101 149.82ZM526.361 152.84L526.401 152.86C526.481 152.74 526.481 152.74 526.621 152.58C527.561 151.52 528.361 150.24 529.101 148.58C528.881 148.56 528.781 148.56 528.581 148.56C527.701 148.56 526.981 148.66 526.181 148.92C526.201 150.76 526.201 150.96 526.321 152.36C526.341 152.48 526.341 152.48 526.341 152.62C526.341 152.72 526.341 152.74 526.361 152.84Z" fill="#0C3584"/>
<path d="M501.821 149.68H507.001C507.721 149.68 508.161 149.66 508.641 149.6C508.601 150 508.581 150.14 508.561 150.66C508.441 153.4 508.021 155.68 507.381 156.92C506.881 157.92 506.021 158.26 504.101 158.26C503.161 158.26 502.221 158.2 500.941 158.08C500.841 157.16 500.721 156.68 500.421 155.8C501.941 156.06 503.061 156.18 504.121 156.18C504.901 156.18 505.241 156.06 505.421 155.68C505.821 154.88 506.061 153.62 506.221 151.6H500.701C500.141 151.6 499.681 151.62 499.221 151.66C499.761 149.64 500.121 147.24 500.181 145.3C500.621 145.36 501.041 145.38 501.741 145.38H506.201V142.94H501.501C500.761 142.94 500.061 142.98 499.401 143.06V140.84C500.001 140.92 500.721 140.96 501.521 140.96H506.541C507.321 140.96 507.921 140.94 508.481 140.88C508.441 141.38 508.421 141.84 508.421 142.5V145.78C508.421 146.44 508.441 146.86 508.481 147.34C507.981 147.3 507.341 147.28 506.701 147.28H502.241C502.121 148.14 502.001 148.82 501.821 149.68ZM512.461 140.48H515.001C514.901 141.2 514.881 141.66 514.881 142.7V156C514.881 157.2 514.901 157.76 515.001 158.56H512.461C512.561 157.72 512.601 157.16 512.601 156V142.7C512.601 141.66 512.581 141.26 512.461 140.48Z" fill="#0C3584"/>
<path d="M483.281 146.3H481.721C480.901 146.3 480.521 146.32 479.921 146.4V145.54H478.661C478.721 145.1 478.741 144.76 478.741 144.1V143.04C478.741 142.4 478.721 142.04 478.661 141.58C479.261 141.64 479.701 141.66 480.701 141.66H483.221V141.54C483.221 140.94 483.201 140.54 483.121 140.16H485.501C485.421 140.56 485.401 140.9 485.401 141.52V141.66H487.441C488.481 141.66 489.021 141.64 489.661 141.58C489.621 142.02 489.601 142.4 489.601 143.02V144.02C489.601 144.62 489.621 145 489.661 145.42H488.541V146.4C487.941 146.32 487.581 146.3 486.781 146.3H485.241V147.2H487.081C487.801 147.2 488.181 147.18 488.661 147.12V148.88C488.181 148.82 487.901 148.8 487.081 148.8H485.241V149.8H487.861C488.701 149.8 489.081 149.78 489.601 149.7V151.64C489.101 151.58 488.681 151.56 487.861 151.56H480.341C479.621 151.56 479.061 151.58 478.561 151.64V149.7C479.081 149.78 479.481 149.8 480.341 149.8H483.281V148.8H481.281C480.461 148.8 480.161 148.82 479.661 148.88V147.12C480.141 147.18 480.561 147.2 481.281 147.2H483.281V146.3ZM481.721 144.68H483.281C483.261 144.22 483.241 144.06 483.181 143.78H485.341C485.281 144.06 485.261 144.24 485.241 144.68H486.781C487.181 144.68 487.421 144.68 487.721 144.66V143.38H480.681V144.66C481.041 144.68 481.241 144.68 481.721 144.68ZM481.461 152.42H487.041C487.721 152.42 488.161 152.4 488.621 152.36C488.561 152.86 488.541 153.28 488.541 154.12V156.64C488.541 157.52 488.561 157.94 488.641 158.44H486.461V157.82H481.941V158.66H479.721C479.821 158.1 479.841 157.64 479.841 156.88V154.22C479.841 153.52 479.821 152.96 479.761 152.36C480.221 152.4 480.741 152.42 481.461 152.42ZM481.941 154.1V156.04H486.461V154.1H481.941ZM490.401 141.58H492.661C492.581 142.1 492.561 142.64 492.561 143.66V151.76C492.561 152.94 492.581 153.36 492.661 153.88H490.401C490.481 153.3 490.501 152.88 490.501 151.74V143.7C490.501 142.6 490.481 142.14 490.401 141.58ZM493.961 140.32H496.301C496.201 140.86 496.161 141.54 496.161 142.74V156.08C496.161 157.94 495.561 158.4 493.141 158.4C492.661 158.4 492.321 158.38 491.281 158.32C491.161 157.46 491.021 156.92 490.721 156.24C491.901 156.36 492.521 156.42 492.981 156.42C493.901 156.42 494.081 156.32 494.081 155.8V142.8C494.081 141.58 494.061 140.98 493.961 140.32Z" fill="#0C3584"/>
<path d="M466.761 155.34V147.92H463.821C462.941 147.92 462.381 147.94 461.801 148.02V145.9C462.321 145.98 462.901 146 463.821 146H471.481C472.421 146 473.001 145.98 473.541 145.9V148.02C472.981 147.94 472.401 147.92 471.481 147.92H468.861V150.48H472.641C473.561 150.48 474.061 150.46 474.601 150.36V152.5C474.001 152.42 473.521 152.4 472.641 152.4H468.861V155.84C469.841 155.98 470.941 156.04 472.121 156.04C473.281 156.04 474.641 155.98 476.681 155.8C476.361 156.62 476.221 157.16 476.121 158.08C474.481 158.12 473.441 158.14 471.861 158.14C467.181 158.14 464.561 157.12 462.921 154.7C462.281 156.08 461.521 157.18 460.181 158.62C459.661 157.88 459.381 157.62 458.461 156.98C460.101 155.5 461.261 153.58 461.901 151.32C462.121 150.5 462.281 149.6 462.301 149.16L464.521 149.58C464.421 149.92 464.421 149.94 464.241 150.76C464.141 151.16 464.021 151.62 463.721 152.56C464.521 153.98 465.341 154.72 466.761 155.34ZM466.421 142.24V141.5C466.421 141 466.381 140.66 466.301 140.22H468.761C468.681 140.64 468.661 140.96 468.661 141.48V142.24H474.061C474.861 142.24 475.541 142.22 476.281 142.16C476.221 142.62 476.201 143.06 476.201 143.64V145.2C476.201 145.78 476.221 146.24 476.281 146.76H474.121V144.26H461.201V146.76H458.981C459.061 146.28 459.081 145.88 459.081 145.18V143.64C459.081 143.12 459.041 142.62 459.001 142.16C459.721 142.22 460.401 142.24 461.201 142.24H466.421Z" fill="#0C3584"/>
<path d="M449.861 149.86H448.421V155.6C450.661 155.1 450.661 155.1 451.741 154.74L451.801 156.76C449.721 157.38 448.381 157.7 445.421 158.36C444.981 158.46 444.621 158.56 444.401 158.64L444.001 156.38C444.401 156.38 445.121 156.26 446.361 156.04V143C446.361 142.1 446.341 141.62 446.281 140.86C446.681 140.94 447.161 140.96 448.201 140.96H453.921C454.881 140.96 455.261 140.94 455.781 140.86C455.741 141.34 455.721 141.8 455.721 143.08V147.74C455.721 148.88 455.741 149.26 455.801 149.92C455.421 149.88 455.421 149.88 455.241 149.88L456.861 151.26C456.761 151.3 456.461 151.54 456.301 151.68C455.681 152.22 454.461 153.16 453.601 153.76C454.581 154.96 455.721 155.84 457.281 156.6C456.761 157.2 456.441 157.72 456.021 158.64C454.081 157.42 452.861 156.28 451.841 154.76C450.881 153.32 450.361 152.04 449.861 149.86ZM454.181 149.86H451.781C452.041 150.9 452.201 151.36 452.561 152.12C453.761 151.28 454.801 150.36 455.161 149.88C454.901 149.86 454.461 149.86 454.181 149.86ZM448.421 142.88V144.5H453.681V142.88H448.421ZM448.421 146.26V148.04H453.681V146.26H448.421ZM439.261 156.32V142.58C439.261 141.96 439.241 141.62 439.201 140.74C439.561 140.78 439.941 140.8 440.661 140.8H443.601C444.401 140.8 444.821 140.76 445.061 140.7L446.201 142.1C446.061 142.36 446.001 142.52 445.581 143.62C445.161 144.72 444.701 145.76 444.041 147.04C444.861 148.16 445.181 148.74 445.461 149.6C445.661 150.22 445.781 150.96 445.781 151.58C445.781 152.76 445.421 153.52 444.701 153.86C444.161 154.14 443.601 154.22 442.161 154.22C442.121 153.26 442.041 152.8 441.741 152.12C442.021 152.16 442.361 152.2 442.621 152.2C443.401 152.2 443.661 151.98 443.661 151.32C443.661 150.64 443.501 149.94 443.221 149.26C442.921 148.6 442.621 148.14 441.821 147.22C442.701 145.52 442.921 145 443.681 142.72H441.361V156.32C441.361 157.16 441.401 157.9 441.461 158.62H439.141C439.221 158.02 439.261 157.26 439.261 156.32Z" fill="#0C3584"/>
<path d="M427.621 148.7L434.721 141.6L435.361 142.26L428.261 149.4L435.361 156.5L434.721 157.16L427.621 150.12L420.541 157.16L419.881 156.5L426.981 149.4L419.881 142.26L420.541 141.6L427.621 148.7ZM427.641 142.08C428.481 142.08 429.161 142.76 429.161 143.6C429.161 144.46 428.481 145.14 427.641 145.14C426.801 145.14 426.101 144.44 426.101 143.6C426.101 142.76 426.801 142.08 427.641 142.08ZM421.901 147.86C422.741 147.86 423.421 148.54 423.421 149.38C423.421 150.24 422.741 150.92 421.901 150.92C421.061 150.92 420.361 150.22 420.361 149.38C420.361 148.54 421.041 147.86 421.901 147.86ZM433.341 147.88C434.181 147.88 434.861 148.56 434.861 149.4C434.861 150.24 434.181 150.92 433.341 150.92C432.501 150.92 431.821 150.24 431.821 149.4C431.821 148.56 432.501 147.88 433.341 147.88ZM427.621 153.68C428.461 153.68 429.141 154.36 429.141 155.22C429.141 156.06 428.441 156.76 427.621 156.76C426.821 156.76 426.081 156.02 426.081 155.22C426.081 154.46 426.801 153.68 427.481 153.68C427.501 153.68 427.521 153.68 427.541 153.7C427.561 153.72 427.561 153.72 427.581 153.72C427.581 153.72 427.581 153.72 427.621 153.68Z" fill="#0C3584"/>
<path d="M403.823 157.56C402.123 157.56 400.683 157 399.623 155.94C399.023 155.34 398.563 154.64 398.303 153.92C397.783 152.5 397.523 150.94 397.523 149.32C397.523 147.2 398.003 145 398.743 143.78C399.823 141.98 401.623 141 403.843 141C405.543 141 407.003 141.56 408.063 142.62C408.663 143.22 409.123 143.92 409.383 144.64C409.903 146.04 410.163 147.64 410.163 149.28C410.163 151.74 409.623 153.9 408.683 155.2C407.563 156.76 405.903 157.56 403.823 157.56ZM403.843 155.24C404.723 155.24 405.503 154.94 406.003 154.4C406.903 153.46 407.403 151.6 407.403 149.26C407.403 146.94 406.903 145.12 406.003 144.14C405.523 143.6 404.723 143.3 403.823 143.3C402.863 143.3 402.163 143.62 401.583 144.32C400.703 145.36 400.263 147 400.263 149.18C400.263 151.28 400.643 153.02 401.283 153.94C401.903 154.82 402.743 155.24 403.843 155.24Z" fill="#0C3584"/>
<path d="M389.585 157.56C387.885 157.56 386.445 157 385.385 155.94C384.785 155.34 384.325 154.64 384.065 153.92C383.545 152.5 383.285 150.94 383.285 149.32C383.285 147.2 383.765 145 384.505 143.78C385.585 141.98 387.385 141 389.605 141C391.305 141 392.765 141.56 393.825 142.62C394.425 143.22 394.885 143.92 395.145 144.64C395.665 146.04 395.925 147.64 395.925 149.28C395.925 151.74 395.385 153.9 394.445 155.2C393.325 156.76 391.665 157.56 389.585 157.56ZM389.605 155.24C390.485 155.24 391.265 154.94 391.765 154.4C392.665 153.46 393.165 151.6 393.165 149.26C393.165 146.94 392.665 145.12 391.765 144.14C391.285 143.6 390.485 143.3 389.585 143.3C388.625 143.3 387.925 143.62 387.345 144.32C386.465 145.36 386.025 147 386.025 149.18C386.025 151.28 386.405 153.02 387.045 153.94C387.665 154.82 388.505 155.24 389.605 155.24Z" fill="#0C3584"/>
<path d="M369.426 153.68L372.186 153.1C372.366 153.68 372.506 153.94 372.786 154.26C373.346 154.94 374.186 155.28 375.246 155.28C377.226 155.28 378.526 153.96 378.526 151.98C378.526 150.02 377.286 148.76 375.386 148.76C374.406 148.76 373.526 149.08 372.906 149.68C372.626 149.96 372.486 150.14 372.306 150.58L369.806 150.34C370.006 148.92 370.026 148.82 370.066 148.26L370.526 143.3C370.546 142.94 370.586 142.26 370.606 141.26C371.206 141.3 371.666 141.32 372.726 141.32H377.646C379.026 141.32 379.526 141.3 380.426 141.16V143.68C379.546 143.56 378.766 143.52 377.666 143.52H372.966L372.646 147.02C372.626 147.18 372.586 147.46 372.526 147.86C373.506 147.02 374.566 146.64 375.946 146.64C377.566 146.64 378.866 147.12 379.846 148.14C380.826 149.1 381.266 150.3 381.266 151.9C381.266 155.42 378.966 157.6 375.246 157.6C373.266 157.6 371.786 157.04 370.686 155.86C370.146 155.28 369.866 154.8 369.426 153.68Z" fill="#0C3584"/>
<path d="M367.016 154.32V157.24C367.016 158.96 366.576 159.6 364.956 160.24L364.236 159.18C365.456 158.84 365.736 158.48 365.756 157.24H364.076V154.32H367.016Z" fill="#0C3584"/>
<path d="M361.577 144.58L358.877 145.22C358.357 143.76 357.617 143.2 356.197 143.2C354.777 143.2 353.737 143.9 353.057 145.28C352.557 146.32 352.337 147.28 352.237 148.82C353.317 147.36 354.497 146.82 356.517 146.82C358.557 146.82 360.277 147.7 361.157 149.2C361.637 149.98 361.877 151.02 361.877 152.2C361.877 155.36 359.477 157.6 356.077 157.6C354.477 157.6 352.997 157.12 352.017 156.28C350.537 155 349.697 152.6 349.697 149.58C349.697 147.12 350.317 144.76 351.337 143.4C352.517 141.8 354.117 141.02 356.217 141.02C357.937 141.02 359.357 141.54 360.317 142.54C360.837 143.08 361.137 143.54 361.577 144.58ZM356.057 149C354.097 149 352.637 150.36 352.637 152.2C352.637 154.02 354.057 155.36 356.017 155.36C357.177 155.36 358.197 154.84 358.757 153.96C359.057 153.5 359.217 152.84 359.217 152.14C359.217 150.16 358.037 149 356.057 149Z" fill="#0C3584"/>
<path d="M343.339 157.24H340.319C340.439 156.46 340.479 155.68 340.479 154.64V143.62H339.519C338.779 143.62 338.199 143.66 337.459 143.74V141.2C338.079 141.3 338.519 141.32 339.459 141.32H341.299C342.319 141.32 342.619 141.3 343.339 141.22C343.219 142.4 343.179 143.32 343.179 144.52V154.64C343.179 155.7 343.219 156.42 343.339 157.24Z" fill="#0C3584"/>
<path d="M325.859 157.36H322.899C322.999 156.58 323.059 155.76 323.059 154.78V153.42H320.039C319.139 153.42 318.619 153.46 317.939 153.58V151.3C318.639 151.42 319.119 151.46 320.039 151.46H323.059V150.86L322.399 149.84H320.079C319.159 149.84 318.659 149.88 317.979 150V147.72C318.639 147.84 319.159 147.88 320.079 147.88H321.199L318.419 143.48C317.839 142.58 317.319 141.8 317.019 141.42H320.459C320.639 142 320.859 142.44 321.419 143.38L324.379 148.46L327.339 143.4C327.899 142.46 328.139 141.96 328.299 141.42H331.759C331.499 141.76 330.699 142.9 330.339 143.48L327.579 147.88H328.699C329.599 147.88 330.139 147.84 330.799 147.72V150C330.119 149.88 329.579 149.84 328.699 149.84H326.359L325.699 150.88V151.46H328.659C329.559 151.46 330.059 151.42 330.759 151.3V153.58C330.079 153.46 329.539 153.42 328.659 153.42H325.699V154.78C325.699 155.92 325.739 156.56 325.859 157.36Z" fill="#0C3584"/>
<path d="M134.08 86.7602H138.1C139.08 86.7602 139.44 86.7402 139.9 86.7002C139.82 87.1002 139.82 87.1002 139.76 87.6402C139.56 88.9002 139.46 89.2802 139.18 89.5602C138.9 89.8402 138.56 89.9402 137.76 89.9602C137.74 90.6002 137.74 90.6802 137.74 91.3802V94.7202C137.74 95.6802 137.76 96.3202 137.82 96.8202C137.3 96.7802 136.52 96.7602 135.66 96.7602H134.44C135.3 97.2202 135.58 97.3402 136.3 97.5802C137.56 97.9802 138.56 98.1602 140.24 98.3202C139.64 99.0602 139.54 99.2002 139.2 99.8602C137.8 99.6202 137.1 99.4402 136.04 99.0802C134.8 98.6802 134.14 98.3602 132.86 97.6202L134 96.7602H128.22L129.28 97.6202C127.14 98.8602 125.9 99.3002 123.08 99.8602C122.8 99.2402 122.56 98.8802 122.06 98.3802C124.58 98.0602 125.98 97.6602 127.74 96.7602H126.56C125.68 96.7602 124.94 96.7802 124.4 96.8202C124.46 96.4402 124.48 95.7202 124.48 94.8002V90.7802C123.96 90.9802 123.62 91.1002 122.66 91.4202C122.42 90.8002 122.24 90.5002 121.82 89.9802C124.44 89.4202 125.8 88.8802 126.78 88.0002H124.3C123.76 88.0002 123.12 88.0202 122.58 88.0602C123.16 86.9202 123.5 85.8802 123.72 84.6002C124.16 84.6402 124.64 84.6602 125.46 84.6602H128.12C128.16 84.2602 128.16 84.1202 128.18 83.8002H124.8C123.96 83.8002 123.34 83.8402 122.86 83.9002V82.4002C123.36 82.4802 123.82 82.5002 124.8 82.5002H128.22C128.2 81.8802 128.18 81.6602 128.12 81.2002H129.94C129.9 81.4602 129.88 81.8802 129.86 82.5002H132.44V82.3802C132.44 81.8602 132.42 81.6002 132.34 81.2002H134.18C134.1 81.6202 134.08 81.8802 134.08 82.4002V82.5002H136.88C137.64 82.5002 138.34 82.4602 138.8 82.4002C138.74 82.8402 138.72 83.1602 138.72 83.8402V84.6002C138.72 85.3002 138.72 85.4802 138.78 85.9002C138.14 85.8602 137.62 85.8402 136.86 85.8402H134.08V86.7602ZM135.76 89.2602H136.5C136.42 88.9802 136.4 88.8802 136.28 88.5802C136.74 88.7202 137.14 88.8002 137.4 88.8002C137.88 88.8002 137.92 88.7402 138.02 88.0002H134.08C134.1 88.4202 134.12 88.6002 134.16 88.8602H132.36C132.42 88.5802 132.42 88.4802 132.44 88.0002H128.7C128.32 88.5402 128.06 88.8002 127.44 89.2602H135.76ZM127.94 85.8402H125.16C124.94 86.4602 124.94 86.4802 124.82 86.7602H127.64C127.78 86.4002 127.82 86.2602 127.94 85.8402ZM132.44 85.8402H129.56C129.48 86.2002 129.42 86.3802 129.3 86.7602H132.44V85.8402ZM132.44 83.8002H129.82C129.78 84.1602 129.78 84.3002 129.74 84.6602H132.44V83.8002ZM134.08 83.8002V84.6602H137V83.8002H134.08ZM126.2 90.5202V91.4002H136.02V90.5202H126.2ZM126.2 92.5402V93.4202H136.02V92.5402H126.2ZM126.2 94.5602V95.4802H136.02V94.5602H126.2Z" fill="black"/>
<path d="M113.52 96.0201H111V97.3601C111 98.6201 111.02 99.0201 111.1 99.5001H109.3C109.4 98.9601 109.42 98.4201 109.42 97.3601V91.0601C109.42 89.9401 109.4 89.5601 109.34 88.9201C109.9 88.9601 110.32 88.9801 111.42 88.9801H117.42C118.42 88.9801 118.86 88.9601 119.38 88.8801C119.32 89.4001 119.3 89.9601 119.3 91.0801V97.8801C119.3 99.0801 118.88 99.4001 117.28 99.4001C117.08 99.4001 116.98 99.4001 116.16 99.3801C116.1 98.6801 116.02 98.3401 115.82 97.8401C116.38 97.9401 116.8 97.9801 117.2 97.9801C117.62 97.9801 117.7 97.9001 117.7 97.5001V96.0201H115.04V97.0601C115.04 98.1801 115.06 98.7201 115.14 99.2401H113.4C113.5 98.6401 113.52 98.1201 113.52 97.0601V96.0201ZM113.52 94.5801V93.1801H111V94.5801H113.52ZM115.04 94.5801H117.7V93.1801H115.04V94.5801ZM113.52 91.8001V90.4001H111V91.8001H113.52ZM115.04 91.8001H117.7V90.4001H115.04V91.8001ZM118.1 87.8601H108.72C108.68 94.2601 108.24 96.8001 106.78 99.3801C106.4 98.9201 105.94 98.4401 105.4 98.0001C105.44 98.9001 105.44 99.0201 105.5 99.6001H103.54C103.64 98.8001 103.66 98.2601 103.66 97.1801V91.3601C103.66 90.5201 103.68 89.6401 103.72 88.6001C103.3 89.5201 102.86 90.2401 102.2 91.0601C102.14 90.9001 102.08 90.7601 102.06 90.6801C101.84 90.0401 101.84 90.0401 101.34 89.1801C102.52 87.8401 103.46 86.3201 104.24 84.4401C104.76 83.1601 105.08 82.0801 105.24 81.1401L107.06 81.5801C106.94 81.9201 106.92 81.9601 106.72 82.5801C106.28 84.0401 106.02 84.6401 105.4 85.8801V97.1601C105.4 97.1801 105.4 97.8001 105.4 97.9801C106 97.0601 106.18 96.6401 106.42 95.7401C106.84 94.1801 107.04 91.9001 107.04 88.5801C107.04 87.5801 107.02 86.9001 106.96 86.2401C107.54 86.3201 108.08 86.3401 109 86.3401H117.92C118.96 86.3401 119.46 86.3201 120.06 86.2401V87.9401C119.48 87.8801 118.84 87.8601 118.1 87.8601ZM110.04 83.0201V82.4801C110.04 81.8801 110.02 81.5401 109.96 81.2201H111.84C111.78 81.5601 111.76 81.8801 111.76 82.4801V83.0201H114.76V82.4801C114.76 81.8601 114.74 81.5601 114.68 81.2201H116.56C116.5 81.5401 116.48 81.9001 116.48 82.4801V83.0201H118C118.78 83.0201 119.56 82.9801 119.98 82.9001V84.6201C119.42 84.5601 118.9 84.5401 118 84.5401H116.48V84.8001C116.48 85.3201 116.5 85.5601 116.54 85.8601H114.7C114.74 85.5201 114.76 85.2201 114.76 84.7801V84.5401H111.76V84.7801C111.76 85.3201 111.78 85.5401 111.82 85.8601H109.98C110.02 85.5801 110.04 85.2001 110.04 84.8001V84.5401H108.98C107.98 84.5401 107.52 84.5601 107.02 84.6201V82.9201C107.56 82.9801 108.24 83.0201 108.98 83.0201H110.04Z" fill="black"/>
<path d="M98.1601 89.6603L99.1001 90.6003C98.9801 90.8003 98.9801 90.8003 98.7201 91.3803C98.3601 92.1403 97.5801 93.5003 97.1001 94.1403C96.7401 94.6603 96.4001 95.0603 95.9001 95.6003C97.2401 96.5603 98.3801 97.0603 100.6 97.7203C100.2 98.3603 99.9801 98.8003 99.7201 99.4803C97.3601 98.6403 96.0201 97.9403 94.6201 96.8203C93.3201 97.8803 91.8201 98.7003 89.7401 99.5003C89.4601 98.9003 89.1801 98.4603 88.7201 97.9803C88.7201 98.5003 88.7401 98.8603 88.8001 99.3203H87.1201V98.5803H84.4201V99.5803H82.6801C82.7601 99.0203 82.8001 98.3803 82.8001 97.6403V94.7803C82.8001 94.1203 82.7801 93.6803 82.7001 93.1603C83.2601 93.2203 83.6601 93.2403 84.2801 93.2403H87.3801C88.2001 93.2403 88.4201 93.2403 88.7801 93.1803C88.7201 93.6403 88.7201 93.9003 88.7201 94.6603V97.9203C90.6601 97.3003 92.0801 96.6003 93.3401 95.6603C92.1001 94.3403 91.4601 93.3203 90.6201 91.3403C90.1601 91.3603 89.9801 91.3603 89.6001 91.4203V89.6403C90.0001 89.7203 90.3801 89.7403 90.9401 89.7403H96.7001C97.5001 89.7403 97.8601 89.7203 98.1601 89.6603ZM96.8401 91.3203H92.3401C92.9401 92.7003 93.5001 93.5003 94.6201 94.5603C95.6201 93.5203 96.1201 92.8003 96.8401 91.3203ZM84.4201 94.6803V97.1203H87.1201V94.6803H84.4201ZM82.7401 83.4603V81.7803C83.2601 81.8603 83.5801 81.8803 84.3601 81.8803H87.1601C87.9401 81.8803 88.2601 81.8603 88.7801 81.7803V83.4603C88.3001 83.4003 87.8601 83.3803 87.1601 83.3803H84.3601C83.6801 83.3803 83.2001 83.4003 82.7401 83.4603ZM82.0801 86.3403V84.5803C82.5601 84.6603 82.9401 84.6803 83.6801 84.6803H87.7001C88.5201 84.6803 88.8601 84.6603 89.3001 84.6003V86.3403C88.8801 86.2803 88.5801 86.2603 87.8201 86.2603H83.6801C83.0001 86.2603 82.5801 86.2803 82.0801 86.3403ZM82.7601 89.1603V87.5603C83.1601 87.6003 83.4601 87.6203 84.1401 87.6203H87.4001C88.0801 87.6203 88.3601 87.6003 88.7401 87.5603V89.1603C88.3001 89.1203 88.0001 89.1003 87.4001 89.1003H84.1401C83.4801 89.1003 83.1601 89.1203 82.7601 89.1603ZM82.7601 91.9403V90.3403C83.1801 90.3803 83.4601 90.4003 84.1401 90.4003H87.4001C88.0801 90.4003 88.3601 90.3803 88.7401 90.3403V91.9403C88.2001 91.8803 88.0601 91.8803 87.3801 91.8803H84.1201C83.4601 91.8803 83.2001 91.9003 82.7601 91.9403ZM95.4201 83.5403H92.8601C92.8001 85.4603 92.5801 86.4403 91.9801 87.5803C91.5601 88.3803 91.1601 88.8603 90.4201 89.4803C89.9401 88.9803 89.4801 88.6003 88.9801 88.3203C90.6401 87.1603 91.2001 85.8403 91.2001 83.1203C91.2001 82.5803 91.1801 82.4003 91.1201 81.8603C91.6401 81.9203 92.1201 81.9403 92.6801 81.9403H95.4801C96.1801 81.9403 96.6801 81.9203 97.1801 81.8603C97.1201 82.3403 97.1001 82.8603 97.1001 83.6403V86.6603C97.1001 86.9603 97.2601 87.0403 97.8401 87.0403C98.4201 87.0403 98.6401 86.9803 98.7201 86.7403C98.8401 86.4403 98.9001 85.8403 98.9601 84.5803C99.5201 84.9003 99.8801 85.0603 100.48 85.2403C100.24 88.2603 100 88.5603 97.7601 88.5603C95.7801 88.5603 95.4201 88.3803 95.4201 87.3403V83.5403Z" fill="black"/>
<path d="M129.94 147.48H128.16C127.36 147.48 126.82 147.5 126.24 147.58V146.38C125.02 147.18 124 147.72 122.64 148.28C122.36 147.62 122.12 147.22 121.6 146.58C125.36 145.22 128.36 143.02 129.88 140.52H131.98C132.78 141.74 133.74 142.7 135.26 143.82C136.9 145.04 138.4 145.82 140.52 146.52C140.1 147.12 139.8 147.68 139.56 148.34C137.88 147.64 137.02 147.18 135.6 146.28V147.58C135.04 147.5 134.54 147.48 133.7 147.48H131.8V149.72H137.04C138.04 149.72 138.62 149.68 139.14 149.6V151.48C138.58 151.4 137.94 151.36 137.04 151.36H131.8V156.18H137.38C138.34 156.18 139.02 156.14 139.68 156.06V158.02C139 157.92 138.18 157.88 137.36 157.88H124.74C123.88 157.88 123.14 157.92 122.34 158.02V156.06C123.02 156.14 123.76 156.18 124.72 156.18H129.94V151.36H125C124.18 151.36 123.54 151.4 122.94 151.48V149.6C123.5 149.68 124.08 149.72 125.02 149.72H129.94V147.48ZM128.12 145.92H133.72C134.28 145.92 134.62 145.92 135 145.88C133.18 144.62 132.06 143.58 130.94 142.1C129.82 143.62 128.84 144.56 126.96 145.9C127.4 145.92 127.64 145.92 128.12 145.92ZM124.74 152.42L126.38 151.74C127.08 152.94 127.5 153.78 128.04 155.18L126.38 155.84C125.94 154.54 125.42 153.44 124.74 152.42ZM135.4 151.76L137.16 152.44C137.02 152.74 136.9 152.96 136.82 153.1C136 154.72 136 154.72 135.22 155.94L133.66 155.34C134.32 154.38 134.9 153.2 135.4 151.76Z" fill="black"/>
<path d="M106.06 148.16V146.56C104.88 147.36 104.04 147.84 102.7 148.44C102.42 147.76 102.1 147.26 101.66 146.76C105.38 145.24 108.22 143.06 109.96 140.36H111.94C112.94 141.8 113.78 142.66 115.3 143.78C117.04 145.06 118.78 146.02 120.6 146.68C120.14 147.32 119.84 147.92 119.62 148.54C118.32 147.94 117.46 147.48 116.04 146.54V148.16C115.52 148.1 115.02 148.08 114.28 148.08H107.7C107.14 148.08 106.54 148.1 106.06 148.16ZM107.72 146.36H114.28C114.86 146.36 115.26 146.34 115.68 146.32C113.54 144.86 112.28 143.7 111 141.98C109.82 143.6 108.5 144.84 106.42 146.32C106.86 146.36 107.12 146.36 107.72 146.36ZM108.16 151.78H104.86C103.84 151.78 103.18 151.82 102.54 151.9V149.94C103.18 150.02 103.9 150.06 104.86 150.06H117.26C118.26 150.06 118.96 150.02 119.58 149.94V151.9C118.92 151.82 118.26 151.78 117.26 151.78H110.26C109.5 153.5 108.86 154.7 108 156.02C112.68 155.66 112.68 155.66 114.94 155.4C114.1 154.46 113.7 154.04 112.76 153.12L114.3 152.3C116.62 154.62 117.76 155.9 119 157.6L117.42 158.7C116.78 157.72 116.54 157.4 116.14 156.86C112.82 157.3 109.02 157.68 106.04 157.9C104.42 158.02 103.64 158.1 103.14 158.2L102.84 156.16C103.28 156.18 103.68 156.2 103.96 156.2C104.12 156.2 104.42 156.18 104.88 156.16C105.06 156.16 105.06 156.16 105.86 156.12C106.84 154.62 107.52 153.32 108.16 151.78Z" fill="black"/>
<path d="M90.0598 143.1H87.3398C86.8598 143.1 86.3198 143.14 85.5998 143.2V141.2C86.0798 141.28 86.4998 141.3 87.3198 141.3H90.2798C91.1798 141.3 91.6598 141.28 92.1198 141.2C92.0798 141.66 92.0598 142.06 92.0598 142.46C92.0598 145.14 92.7198 147.66 94.0198 150C94.8198 151.42 95.8198 152.7 97.1398 153.96C98.2198 155.02 98.8798 155.5 100.42 156.42C99.7198 157.08 99.4598 157.42 98.9598 158.3C96.7598 156.76 95.1798 155.18 93.7398 153.12C92.4998 151.34 91.7198 149.62 91.1598 147.4C90.4798 150.02 89.6598 151.8 88.3198 153.62C87.0198 155.4 85.4798 156.82 83.2598 158.34C82.8798 157.6 82.4998 157.16 81.8398 156.62C83.6998 155.52 84.7398 154.68 86.0998 153.16C87.6398 151.46 88.7798 149.42 89.3998 147.3C89.8198 145.84 89.9798 144.8 90.0598 143.1Z" fill="black"/>
</svg>
