<svg width="650" height="64" viewBox="0 0 650 64" fill="none" xmlns="http://www.w3.org/2000/svg">
<path d="M644 4H6C2.68629 4 0 6.68629 0 10V58C0 61.3137 2.68629 64 6 64H644C647.314 64 650 61.3137 650 58V10C650 6.68629 647.314 4 644 4Z" fill="#FF9C38"/>
<path d="M644 0H6C2.68629 0 0 2.68629 0 6V54C0 57.3137 2.68629 60 6 60H644C647.314 60 650 57.3137 650 54V6C650 2.68629 647.314 0 644 0Z" fill="url(#paint0_linear_339_3)"/>
<path d="M496.378 15.4999L496.253 12.5749C496.828 12.6749 497.453 12.6999 498.778 12.6999C500.278 12.6999 502.503 12.5999 503.428 12.4749C503.928 12.4249 504.103 12.3749 504.428 12.1749L506.403 13.8749C506.178 14.1749 506.053 14.4499 505.878 14.9249C505.753 15.2249 504.228 19.8249 504.003 20.5999C505.953 20.8749 507.628 21.3499 509.528 22.1749C509.728 20.8999 509.778 19.8749 509.778 17.5499C509.778 16.9999 509.753 16.7249 509.678 16.2249L512.828 16.3499C512.728 16.8749 512.703 17.0749 512.678 18.0249C512.603 20.2249 512.478 21.7249 512.228 23.3249C513.028 23.7249 514.128 24.2999 514.903 24.7499C515.578 25.1499 515.678 25.1749 516.053 25.3499L514.928 28.6499C514.203 28.0249 512.753 27.0499 511.478 26.3249C510.778 28.1749 510.028 29.3999 508.753 30.7249C507.653 31.8749 506.403 32.7999 504.978 33.5499C503.928 32.2499 503.678 31.9999 502.703 31.2999C504.578 30.3999 505.553 29.7499 506.578 28.6749C507.578 27.5999 508.403 26.2499 508.803 24.9749C507.028 24.1249 505.553 23.6499 503.178 23.2499C502.078 26.5499 501.428 28.1499 500.703 29.3999C499.778 30.9999 498.653 31.7749 497.278 31.7749C494.978 31.7749 493.278 29.7499 493.278 27.0249C493.278 24.7249 494.403 22.7749 496.378 21.5499C497.678 20.7499 499.003 20.4249 501.103 20.3499C501.753 18.3749 502.053 17.4249 502.678 15.1249C501.403 15.2249 500.803 15.2499 498.353 15.3499C497.328 15.3999 496.878 15.4249 496.378 15.4999ZM500.328 22.9749C498.653 23.2249 497.778 23.6249 497.003 24.4749C496.378 25.1499 496.053 25.9999 496.053 26.8749C496.053 27.8999 496.603 28.7249 497.278 28.7249C497.753 28.7249 498.128 28.2749 498.703 27.1499C499.203 26.1499 499.803 24.5999 500.328 22.9749Z" fill="#B33B22"/>
<path d="M476.003 14.425H473.478C472.628 14.425 472.028 14.45 471.403 14.55V11.85C471.953 11.95 472.478 11.975 473.478 11.975H477.053C477.853 11.975 478.403 11.95 478.878 11.875C478.828 12.45 478.828 12.8 478.828 13.225C478.828 15.675 479.403 18.2 480.478 20.475C481.753 23.225 483.253 24.95 485.978 26.9C485.278 27.75 484.853 28.45 484.328 29.525C482.503 28.15 481.478 27.15 480.328 25.625C479.078 23.95 478.378 22.425 477.528 19.7C476.903 22.35 476.203 23.925 474.803 25.8C473.878 27.075 473.103 27.875 471.428 29.225C470.753 28.325 470.378 27.925 469.453 27.05C470.978 25.95 471.728 25.2 472.753 23.85C474.078 22.075 475.028 20.025 475.528 17.9C475.778 16.875 475.878 16.15 476.003 14.425ZM463.428 13.225L465.428 11.35C467.228 12.925 468.578 14.325 469.803 15.925L467.728 17.95C466.178 15.85 465.378 14.975 463.428 13.225ZM463.053 23.125V20.375C463.703 20.475 464.103 20.5 465.053 20.5H467.103C467.853 20.5 468.428 20.475 469.003 20.375C468.928 21.2 468.903 21.725 468.903 23.125V28.35C469.278 29.15 469.503 29.4 470.328 29.95C471.528 30.7 472.828 30.875 477.128 30.875C480.753 30.875 483.928 30.7 486.403 30.35C485.978 31.55 485.828 32.175 485.653 33.325C483.428 33.4 479.803 33.475 478.078 33.475C473.978 33.475 471.953 33.325 470.653 32.9C469.353 32.5 468.453 31.825 467.478 30.55C466.678 31.35 466.078 31.875 464.903 32.775C464.478 33.1 464.328 33.225 464.153 33.375C463.903 33.575 463.903 33.575 463.778 33.675L462.553 30.825C463.628 30.375 465.203 29.325 466.278 28.375V23H464.753C464.053 23 463.678 23.025 463.053 23.125Z" fill="#B33B22"/>
<path d="M436.978 12.025L440.478 12.075C440.328 12.8 440.278 13.525 440.178 15.45C440.078 17.775 439.928 22.85 439.928 24.625C439.928 27 440.078 27.9 440.578 28.65C441.153 29.475 442.353 29.95 443.928 29.95C446.628 29.95 448.803 28.425 449.978 25.675C450.528 24.375 450.853 23.2 451.128 21.475C452.478 22.575 452.928 22.85 454.153 23.4C453.153 26.775 452.403 28.4 451.178 29.775C449.303 31.9 446.828 32.95 443.678 32.95C441.953 32.95 440.353 32.55 439.303 31.85C437.578 30.7 436.853 28.775 436.853 25.425C436.853 24.125 436.903 21.625 437.053 15.35C437.078 14.6 437.078 14.075 437.078 13.725C437.078 13.025 437.053 12.675 436.978 12.025Z" fill="#B33B22"/>
<path d="M412.828 27.575H407.253V29H404.303C404.403 28.225 404.428 27.525 404.428 26.425V16.725C404.428 15.7 404.403 15.075 404.303 14.325C405.228 14.4 405.828 14.425 407.078 14.425H412.828V13.7C412.828 12.4 412.803 11.8 412.678 10.975H415.778C415.653 11.725 415.603 12.4 415.603 13.6V14.425H421.528C422.953 14.425 423.503 14.4 424.403 14.325C424.303 15.075 424.278 15.625 424.278 16.7V26.425C424.278 27.625 424.303 28.275 424.403 29H421.428V27.575H415.603V30.95C415.603 32.45 415.653 33.2 415.778 34.075H412.653C412.778 33.1 412.828 32.375 412.828 30.95V27.575ZM412.828 16.925H407.253V19.725H412.828V16.925ZM415.603 16.925V19.725H421.428V16.925H415.603ZM412.828 22.2H407.253V25.075H412.828V22.2ZM415.603 22.2V25.075H421.428V22.2H415.603Z" fill="#B33B22"/>
<path d="M378.053 21.1V19.175C376.503 20.175 375.803 20.55 374.053 21.325C373.628 20.325 373.228 19.625 372.603 18.775C375.303 17.7 376.978 16.775 378.878 15.3C380.528 14.025 381.803 12.7 382.828 11.1H385.803C387.128 12.95 388.128 13.925 390.028 15.25C392.153 16.75 394.178 17.8 396.453 18.625C395.753 19.7 395.428 20.4 395.078 21.425C393.503 20.75 392.553 20.25 390.803 19.15V21.1C390.153 21.025 389.503 21 388.553 21H380.203C379.478 21 378.728 21.025 378.053 21.1ZM380.228 18.4H388.528C388.928 18.4 389.153 18.4 389.628 18.375C387.328 16.8 385.903 15.5 384.403 13.525C383.078 15.3 381.528 16.75 379.203 18.375C379.628 18.4 379.778 18.4 380.228 18.4ZM380.478 25.625H376.678C375.403 25.625 374.553 25.675 373.728 25.775V22.875C374.553 22.975 375.503 23.025 376.678 23.025H392.253C393.478 23.025 394.353 22.975 395.178 22.875V25.775C394.353 25.675 393.503 25.625 392.253 25.625H383.653C382.878 27.45 382.103 28.925 381.053 30.475C385.478 30.225 385.478 30.225 388.978 29.85C388.178 28.975 387.753 28.525 386.353 27.075L388.828 25.975C391.503 28.675 392.578 29.925 394.603 32.65L392.203 34.225C391.378 33 391.128 32.65 390.703 32.05C388.628 32.325 387.128 32.5 386.203 32.6C383.728 32.825 378.778 33.275 377.778 33.35C376.378 33.45 375.128 33.575 374.553 33.7L374.153 30.65C374.828 30.7 375.253 30.725 375.603 30.725C375.778 30.725 376.528 30.7 377.803 30.625C379.028 28.775 379.803 27.325 380.478 25.625Z" fill="#B33B22"/>
<path d="M361.853 18.675H360.453C360.478 19.6 360.478 19.725 360.478 20.2H363.103C364.128 20.2 364.578 20.175 365.128 20.125C365.053 20.675 365.028 21.3 365.028 21.9V25.275C365.028 26.225 365.053 26.575 365.103 27.075C364.378 27.025 363.878 27 363.178 27H360.928C361.528 28.125 362.178 28.925 363.078 29.675C363.978 30.425 364.778 30.9 366.528 31.65C365.928 32.5 365.578 33.225 365.228 34.275C362.528 32.975 360.578 31.15 359.328 28.75C358.203 31.25 356.428 33 353.728 34.275C353.303 33.4 352.853 32.75 352.253 32.15C351.778 33.625 351.228 33.95 349.278 33.95C348.728 33.95 348.453 33.925 347.878 33.875C347.878 32.875 347.753 32.2 347.478 31.4C348.203 31.55 348.653 31.625 349.178 31.625C350.228 31.625 350.403 31.325 350.653 28.675L349.628 29.1C349.553 28.1 349.228 26.575 348.953 25.7L349.903 25.4C350.353 26.75 350.478 27.225 350.678 28.4C350.778 27.075 350.828 26.4 350.828 24.95H345.753C344.978 24.95 344.278 24.975 343.728 25.025C343.803 24.425 343.828 23.75 343.828 22.9V14.25C343.828 13 343.803 12.4 343.728 11.675C344.453 11.775 345.103 11.8 346.253 11.8H350.628C351.803 11.8 352.278 11.775 352.978 11.675V14.1C352.378 14 351.953 13.975 351.078 13.975H350.253V15.6H350.753C351.428 15.6 351.878 15.575 352.428 15.5V16.175C353.578 15.5 354.328 14.975 355.378 14.025C356.453 13.05 357.153 12.225 357.753 11.15H360.403C360.978 12.05 361.503 12.65 362.453 13.45C363.703 14.525 364.603 15.075 366.553 15.975C366.003 16.85 365.678 17.575 365.428 18.55C364.503 18.075 364.178 17.9 363.603 17.525V18.775C363.003 18.7 362.553 18.675 361.853 18.675ZM358.078 18.675H356.753C356.078 18.675 355.553 18.7 355.053 18.775V17.575C354.553 17.925 354.278 18.125 353.478 18.625C353.228 17.9 353.003 17.45 352.428 16.65V17.625C351.878 17.55 351.428 17.525 350.753 17.525H350.253V19.15H350.728C351.528 19.15 351.853 19.125 352.403 19.05V21.175C351.853 21.1 351.353 21.075 350.728 21.075H350.253V22.75H351.128C352.178 22.75 352.628 22.725 353.128 22.65C353.078 23.1 353.053 23.65 353.028 24.725C352.978 27.4 352.728 30.125 352.353 31.85C354.828 30.775 356.528 29.15 357.378 27H355.603C354.803 27 354.278 27.025 353.628 27.1C353.703 26.525 353.728 26.075 353.728 25.275V21.9C353.728 21.075 353.703 20.775 353.653 20.125C354.153 20.175 354.628 20.2 355.628 20.2H358.078V18.675ZM358.053 22.25H356.053V24.9H357.878C357.978 24.025 358.028 23.375 358.053 22.25ZM362.678 22.25H360.428C360.378 23.725 360.353 24.15 360.278 24.9H362.678V22.25ZM348.078 21.075H346.228V22.75H348.078V21.075ZM348.078 19.15V17.525H346.228V19.15H348.078ZM348.078 15.6V13.975H346.228V15.6H348.078ZM356.778 16.475H362.103C360.803 15.45 360.178 14.825 359.078 13.45C358.128 14.775 357.628 15.35 356.403 16.475H356.778ZM343.653 25.625L345.328 26C345.128 29.25 344.903 30.75 344.328 32.925L342.528 32.05C343.203 30.15 343.553 28.1 343.653 25.625ZM345.628 26L347.028 25.775C347.203 27.65 347.278 28.95 347.278 30.475C347.278 30.75 347.278 31.15 347.278 31.7L345.628 31.95C345.703 30.675 345.728 30.2 345.728 28.5C345.728 27.3 345.703 27 345.628 26ZM347.403 25.925L348.553 25.625C348.928 27.125 349.128 28.625 349.253 30.525L347.903 30.925C347.803 28.3 347.728 27.55 347.403 25.925Z" fill="#B33B22"/>
<path d="M318.078 27.775V31.175C318.078 32.475 318.103 33.3 318.203 34.075H315.253C315.353 33.125 315.403 32.425 315.403 31.15V24.25C315.403 22.925 315.403 22.525 315.453 21.425C314.778 22.575 314.303 23.225 313.503 24.1C313.178 22.875 312.878 22.025 312.403 21.075C315.153 18.075 316.903 14.65 317.653 10.85L320.428 11.6C319.528 14.175 318.928 15.65 318.078 17.45V27.25C320.803 25.175 323.253 21.825 324.653 18.2H321.978C321.128 18.2 320.153 18.25 319.328 18.35V15.55C320.103 15.625 321.078 15.675 322.053 15.675H325.703V13.4C325.703 12.575 325.653 11.8 325.528 11.05H328.503C328.403 11.825 328.353 12.55 328.353 13.425V15.675H332.978C334.078 15.675 335.053 15.625 335.853 15.525V18.35C335.003 18.25 334.003 18.2 333.053 18.2H329.378C330.203 20.125 330.878 21.3 332.303 23.225C333.328 24.65 334.678 25.975 336.553 27.4C335.878 28.175 335.478 28.775 334.828 29.975C333.503 28.75 332.903 28.15 332.028 27.075V29.45C331.503 29.375 330.978 29.35 330.203 29.35H328.328V31.35C328.328 32.325 328.378 33.175 328.503 34.075H325.528C325.653 33.15 325.703 32.275 325.703 31.35V29.35H323.953C323.253 29.35 322.703 29.375 322.178 29.45V27.1C321.203 28.3 320.803 28.725 319.553 29.825C319.003 28.875 318.703 28.45 318.078 27.775ZM328.328 26.9H330.153C330.878 26.9 331.253 26.875 331.828 26.825C330.403 24.975 329.353 23.225 328.278 20.775C328.328 22.175 328.328 22.775 328.328 23.775V26.9ZM325.703 26.9V23.85C325.703 22.55 325.703 22.025 325.753 20.85C324.628 23.575 323.878 24.925 322.403 26.825C322.903 26.875 323.328 26.9 324.053 26.9H325.703Z" fill="#B33B22"/>
<path d="M284.028 17.875L283.853 14.625C284.403 14.65 284.678 14.65 284.803 14.65C285.253 14.65 285.253 14.65 288.928 14.4C290.328 14.325 294.478 14.1 301.403 13.775C303.453 13.675 303.828 13.65 304.278 13.525L304.453 16.725C304.178 16.7 304.178 16.7 303.928 16.7C302.428 16.7 300.578 17.2 298.978 18.05C295.803 19.7 293.928 22.2 293.928 24.725C293.928 26.675 295.153 28.175 297.253 28.8C298.478 29.175 300.078 29.45 300.978 29.45C301.003 29.45 301.228 29.45 301.478 29.425L301.028 32.825C300.728 32.75 300.603 32.725 300.178 32.675C297.428 32.325 295.853 31.875 294.328 31.025C292.028 29.725 290.753 27.6 290.753 25C290.753 22.875 291.603 20.775 293.128 19.1C294.078 18.075 294.978 17.425 296.603 16.6C294.578 16.9 293.603 16.975 288.178 17.375C286.503 17.5 285.003 17.675 284.028 17.875Z" fill="#B33B22"/>
<path d="M258.223 12.025L261.723 12.075C261.573 12.8 261.523 13.525 261.423 15.45C261.323 17.775 261.173 22.85 261.173 24.625C261.173 27 261.323 27.9 261.823 28.65C262.398 29.475 263.598 29.95 265.173 29.95C267.873 29.95 270.048 28.425 271.223 25.675C271.773 24.375 272.098 23.2 272.373 21.475C273.723 22.575 274.173 22.85 275.398 23.4C274.398 26.775 273.648 28.4 272.423 29.775C270.548 31.9 268.073 32.95 264.923 32.95C263.198 32.95 261.598 32.55 260.548 31.85C258.823 30.7 258.098 28.775 258.098 25.425C258.098 24.125 258.148 21.625 258.298 15.35C258.323 14.6 258.323 14.075 258.323 13.725C258.323 13.025 258.298 12.675 258.223 12.025Z" fill="#B33B22"/>
<path d="M243.398 14.425L244.998 16C244.748 16.375 244.648 16.6 244.373 17.5C243.223 21.3 241.448 24.675 239.248 27.15C236.948 29.775 234.198 31.725 230.348 33.5C229.648 32.25 229.323 31.825 228.223 30.875C230.723 29.85 232.123 29.1 233.698 27.925C237.273 25.275 239.623 21.85 240.998 17.375L233.473 17.5C231.948 19.925 229.998 22.075 227.623 23.9C226.873 22.875 226.498 22.55 225.198 21.75C228.048 19.8 229.848 17.8 231.673 14.5C232.448 13.075 232.848 12.1 232.948 11.2L236.373 11.8749C236.223 12.1 236.223 12.1 235.948 12.65C235.873 12.775 235.873 12.775 235.623 13.35C235.548 13.5 235.548 13.5 235.298 14C235.148 14.35 235.148 14.35 234.898 14.8C235.223 14.775 235.623 14.75 236.098 14.75L241.573 14.675C242.548 14.675 242.823 14.625 243.398 14.425Z" fill="#B33B22"/>
<path d="M197.123 18.4L199.773 17.625C200.823 19.55 201.323 20.75 202.223 23.55L199.398 24.45C198.748 21.925 198.248 20.6 197.123 18.4ZM202.473 17.35L205.098 16.6C206.423 19.075 206.898 20.175 207.523 22.35L204.748 23.225C204.273 21.325 203.523 19.4 202.473 17.35ZM211.073 17.1L214.123 17.8C213.973 18.175 213.923 18.3 213.773 19.075C213.048 22.475 211.923 25.225 210.323 27.4C208.473 29.925 206.398 31.55 202.698 33.425C202.048 32.325 201.748 31.95 200.698 30.95C202.448 30.275 203.473 29.725 204.948 28.65C207.873 26.525 209.548 23.975 210.623 19.975C210.948 18.75 211.073 17.875 211.073 17.1Z" fill="#B33B22"/>
<path d="M168.223 12.275L171.623 12.3C171.523 13 171.523 13.225 171.523 14.55V21.45C171.523 22.7 171.523 23.025 171.623 23.65H168.198C168.273 23.075 168.323 22.3 168.323 21.4V14.525C168.323 13.25 168.298 12.925 168.223 12.275ZM179.498 12.325H182.973C182.873 12.95 182.848 13.225 182.848 14.65V18.025C182.823 21.925 182.648 24.025 182.198 25.6C181.473 28.1 179.873 29.975 177.273 31.425C175.948 32.175 174.698 32.675 172.398 33.35C171.948 32.125 171.698 31.7 170.648 30.375C173.098 29.9 174.548 29.375 176.048 28.375C178.398 26.825 179.223 25.3 179.498 22C179.598 20.925 179.623 19.825 179.623 17.825V14.7C179.623 13.425 179.598 12.9 179.498 12.325Z" fill="#B33B22"/>
<path d="M153.398 14.425L154.998 16C154.748 16.375 154.648 16.6 154.373 17.5C153.223 21.3 151.448 24.675 149.248 27.15C146.948 29.775 144.198 31.725 140.348 33.5C139.648 32.25 139.323 31.825 138.223 30.875C140.723 29.85 142.123 29.1 143.698 27.925C147.273 25.275 149.623 21.85 150.998 17.375L143.473 17.5C141.948 19.925 139.998 22.075 137.623 23.9C136.873 22.875 136.498 22.55 135.198 21.75C138.048 19.8 139.848 17.8 141.673 14.5C142.448 13.075 142.848 12.1 142.948 11.2L146.373 11.8749C146.223 12.1 146.223 12.1 145.948 12.65C145.873 12.775 145.873 12.775 145.623 13.35C145.548 13.5 145.548 13.5 145.298 14C145.148 14.35 145.148 14.35 144.898 14.8C145.223 14.775 145.623 14.75 146.098 14.75L151.573 14.675C152.548 14.675 152.823 14.625 153.398 14.425Z" fill="#B33B22"/>
<path d="M424.3 44.488L424.284 45.864C424.284 45.928 424.3 46.056 424.3 46.248C424.652 46.984 424.812 47.64 424.812 48.504C424.812 50.248 423.98 51.752 422.428 52.824C421.756 53.288 421.02 53.624 419.532 54.136C419.084 53.144 418.924 52.904 418.396 52.328C419.708 52.072 420.364 51.848 421.116 51.4C422.204 50.776 422.844 49.96 422.972 49.064C422.508 49.8 421.676 50.2 420.62 50.2C419.884 50.2 419.308 50.024 418.764 49.624C418.012 49.08 417.66 48.376 417.66 47.464C417.66 45.768 418.988 44.552 420.844 44.552C421.532 44.552 422.14 44.728 422.508 45.032C422.492 44.952 422.492 44.952 422.492 44.84C422.476 44.808 422.476 43.912 422.476 43.48C420.188 43.544 418.684 43.592 417.98 43.64C415.564 43.816 415.564 43.816 415.132 43.88L415.068 41.976C415.42 42.008 415.564 42.008 415.852 42.008C416.252 42.008 416.508 42.008 418.572 41.928C419.612 41.896 419.772 41.896 421.084 41.864C421.612 41.848 421.612 41.848 422.444 41.816C422.428 40.296 422.428 40.296 422.348 39.88L424.364 39.864C424.3 40.36 424.3 40.392 424.284 41.768C427.068 41.752 428.316 41.72 428.908 41.656L428.924 43.496C428.332 43.448 427.564 43.416 426.236 43.416C425.852 43.416 425.564 43.416 424.3 43.448V44.488ZM422.46 47.128C422.46 46.456 421.9 46.024 421.02 46.024C420.204 46.024 419.532 46.6 419.532 47.304C419.532 48.04 420.092 48.568 420.892 48.568C421.804 48.568 422.46 47.96 422.46 47.128Z" fill="#B33B22"/>
<path d="M410.764 51.3041L409.676 53.1761C408.972 52.3921 407.868 51.5761 406.716 50.9841C406.364 50.7921 406.236 50.7441 405.852 50.5841C405.852 50.6641 405.852 50.7281 405.852 50.7601C405.852 51.7681 405.564 52.4561 404.956 52.9201C404.348 53.3841 403.484 53.6081 402.316 53.6081C399.98 53.6081 398.636 52.6961 398.636 51.1121C398.636 49.3681 400.22 48.3441 402.908 48.3441C403.292 48.3441 403.564 48.3601 403.98 48.4081C403.98 48.2161 403.98 48.2161 403.964 48.0241C403.964 47.9441 403.964 47.8321 403.964 47.6721C403.948 47.4481 403.948 47.4481 403.932 46.8081C403.164 46.8241 402.668 46.8401 402.332 46.8401C401.356 46.8401 400.764 46.8241 399.436 46.7281C399.228 46.7121 399.068 46.7121 398.828 46.7121L398.86 44.9841C399.548 45.1441 401.068 45.2561 402.588 45.2561C402.908 45.2561 403.452 45.2401 403.9 45.2241C403.9 45.0801 403.9 44.5361 403.884 43.6241C403.372 43.6401 403.116 43.6401 402.876 43.6401C402.092 43.6401 400.028 43.5601 398.956 43.4801C398.78 43.4641 398.652 43.4641 398.604 43.4641C398.54 43.4641 398.46 43.4641 398.348 43.4641L398.364 41.6881C399.18 41.8961 400.828 42.0241 402.668 42.0241C402.924 42.0241 403.468 42.0081 403.868 41.9921C403.852 40.3921 403.852 40.3761 403.788 39.9761H405.82C405.74 40.4081 405.724 40.6161 405.708 41.9281C407.884 41.8001 409.276 41.6241 410.316 41.3201L410.396 43.0961C410.044 43.1121 410.044 43.1121 409.132 43.2401C407.724 43.4321 407.1 43.4801 405.692 43.5601C405.708 43.9601 405.708 44.1521 405.724 45.1441C406.524 45.0961 406.524 45.0961 407.996 44.9361C409.004 44.8081 409.26 44.7761 409.98 44.5841L410.028 46.3441C409.756 46.3601 409.356 46.4081 408.988 46.4561C408.748 46.4881 408.028 46.5681 406.828 46.6801C406.604 46.6961 406.364 46.7121 405.74 46.7441C405.788 48.2961 405.788 48.2961 405.804 48.6801C407.212 49.0961 408.46 49.7201 410.188 50.9361C410.46 51.1121 410.54 51.1761 410.764 51.3041ZM404.012 50.0721C403.484 49.9601 403.164 49.9281 402.684 49.9281C401.388 49.9281 400.604 50.3441 400.604 51.0321C400.604 51.6241 401.292 51.9921 402.428 51.9921C403.1 51.9921 403.596 51.8001 403.82 51.4801C403.948 51.2721 404.012 50.9361 404.012 50.4561C404.012 50.3921 404.012 50.0721 404.012 50.0721Z" fill="#B33B22"/>
<path d="M382.044 40.2161L384.284 40.2481C384.188 40.7121 384.156 41.1761 384.092 42.4081C384.028 43.8961 383.932 47.1441 383.932 48.2801C383.932 49.8001 384.028 50.3761 384.348 50.8561C384.716 51.3841 385.484 51.6881 386.492 51.6881C388.22 51.6881 389.612 50.7121 390.364 48.9521C390.716 48.1201 390.924 47.3681 391.1 46.2641C391.964 46.9681 392.252 47.1441 393.036 47.4961C392.396 49.6561 391.916 50.6961 391.132 51.5761C389.932 52.9361 388.348 53.6081 386.332 53.6081C385.228 53.6081 384.204 53.3521 383.532 52.9041C382.428 52.1681 381.964 50.9361 381.964 48.7921C381.964 47.9601 381.996 46.3601 382.092 42.3441C382.108 41.8641 382.108 41.5281 382.108 41.3041C382.108 40.8561 382.092 40.6321 382.044 40.2161Z" fill="#B33B22"/>
<path d="M365.372 42.2161V41.4641C364.268 41.5601 363.82 41.5921 362.62 41.6561C362.492 41.2081 362.364 40.9201 362.06 40.3761C365.196 40.3601 367.948 40.0241 369.036 39.5121L369.996 40.8241C369.852 40.8401 369.324 40.9201 369.116 40.9681C368.524 41.0801 367.724 41.2081 366.924 41.3201V42.2161H368.588C369.34 42.2161 369.708 42.2001 370.076 42.1361V43.5921C369.836 43.5441 369.628 43.5281 368.924 43.5281H366.924V44.2161H368.508C369.228 44.2161 369.516 44.2001 369.852 44.1681C369.82 44.5041 369.804 44.7601 369.804 45.5761V47.7361C369.82 48.5041 369.836 48.9841 369.852 49.1921C369.484 49.1601 369.164 49.1601 368.412 49.1601H366.924V49.8641H368.332C369.132 49.8641 369.468 49.8481 369.836 49.8001V51.3041C369.548 51.2401 369.324 51.2241 368.716 51.2241H366.924V52.0081C367.756 51.9281 368.3 51.8641 369.804 51.6561V52.3441C370.492 51.3201 371.02 50.0241 371.324 48.6641C371.564 47.4961 371.66 46.5041 371.74 44.4401C371.084 44.4401 370.828 44.4561 370.412 44.5041V42.7761C370.732 42.8241 371.004 42.8401 371.548 42.8401H371.788C371.804 42.4401 371.804 42.1681 371.804 41.6721C371.804 40.3441 371.788 40.0881 371.708 39.6401H373.548C373.468 40.0721 373.468 40.0721 373.42 42.8401H374.812C375.5 42.8401 375.884 42.8241 376.316 42.7761C376.252 43.3521 376.252 43.4801 376.204 45.7841C376.124 49.9121 375.916 52.1681 375.516 53.0961C375.228 53.8001 374.716 54.0401 373.516 54.0401C373.26 54.0401 372.476 54.0081 372.236 53.9921C372.204 53.2881 372.124 52.9521 371.868 52.2641C371.484 53.0801 371.228 53.4961 370.588 54.3601C370.252 53.8641 369.868 53.4801 369.324 53.0961C367.132 53.4161 365.964 53.5441 363.036 53.7681C362.732 53.8001 362.492 53.8321 362.108 53.8961L361.82 52.1841C362.156 52.2161 362.3 52.2161 362.652 52.2161C363.372 52.2161 363.676 52.2001 365.372 52.1041V51.2241H363.724C363.212 51.2241 362.668 51.2401 362.236 51.2881V49.7841C362.684 49.8481 363.02 49.8641 363.74 49.8641H365.372V49.1601H363.98C363.26 49.1601 362.876 49.1761 362.428 49.2081C362.46 48.8081 362.476 48.4721 362.476 47.6881V45.6241C362.476 44.8721 362.46 44.5681 362.428 44.1681C362.876 44.2001 363.292 44.2161 363.996 44.2161H365.372V43.5281H363.42C362.748 43.5281 362.38 43.5441 361.932 43.6081V42.1361C362.364 42.2001 362.764 42.2161 363.42 42.2161H365.372ZM365.372 45.4161H363.98V46.0881H365.372V45.4161ZM366.924 45.4161V46.0881H368.316V45.4161H366.924ZM365.372 47.2561H363.98V47.9601H365.372V47.2561ZM366.924 47.2561V47.9601H368.316V47.2561H366.924ZM374.604 44.4401H373.388C373.228 48.2481 372.86 50.1041 371.884 52.2481C372.7 52.3761 372.94 52.4081 373.292 52.4081C374.012 52.4081 374.124 52.2161 374.316 50.7281C374.428 49.8801 374.476 49.1921 374.54 47.4161C374.556 46.8561 374.556 46.8561 374.572 45.5601C374.588 45.0641 374.588 44.9681 374.604 44.4401Z" fill="#B33B22"/>
<path d="M355.068 45.48L356.284 45.832C356.188 45.96 356.188 45.96 356.044 46.2C355.996 46.28 355.852 46.472 355.708 46.68H357.116C357.692 46.68 358.012 46.664 358.348 46.616L359.292 47.608C359.084 47.976 359.084 47.976 358.892 48.36C358.764 48.584 358.108 49.592 357.916 49.864C356.988 51.112 355.5 52.312 353.9 53.128C352.732 53.72 351.756 54.04 350.172 54.344C349.948 53.688 349.724 53.304 349.308 52.728C351.212 52.488 352.3 52.12 353.884 51.24C353.388 50.712 353.292 50.632 352.604 50.12L353.82 49.224C354.636 49.832 354.764 49.928 355.228 50.344C356.044 49.688 356.54 49.128 357.276 48.072H354.508C353.308 49.208 352.188 49.992 350.668 50.68C350.38 50.216 350.092 49.864 349.628 49.368C351.612 48.632 353.564 47.24 354.428 45.928C353.244 46.728 352.156 47.272 350.668 47.8C350.396 47.208 350.172 46.888 349.692 46.376C351.292 45.928 351.884 45.672 353.1 44.968C353.036 44.92 353.004 44.872 352.972 44.84C352.684 44.52 352.652 44.472 352.476 44.328C352.444 44.296 352.38 44.232 352.268 44.152C352.204 44.088 352.092 44.008 351.948 43.896L353.116 43.032C353.82 43.576 353.98 43.704 354.38 44.104C355.308 43.384 355.724 42.968 356.332 42.104H353.452C352.62 42.968 351.788 43.624 350.588 44.312C350.284 43.816 350.012 43.48 349.58 43.112C350.812 42.504 351.948 41.624 352.716 40.68C353.02 40.28 353.356 39.72 353.42 39.448L355.116 39.96C355.02 40.088 355.02 40.088 354.844 40.376C354.828 40.392 354.78 40.456 354.716 40.552C354.684 40.584 354.636 40.648 354.572 40.728H356.412C356.988 40.728 357.292 40.712 357.628 40.664L358.524 41.624C358.348 41.88 358.348 41.88 358.076 42.296C357.228 43.608 356.444 44.44 355.068 45.48ZM346.732 43.656V41.944C346.156 42.072 345.916 42.12 345.084 42.248C344.972 41.768 344.796 41.384 344.444 40.76C345.98 40.6 347.052 40.344 348.332 39.88C348.78 39.704 349.036 39.592 349.324 39.384L350.316 40.792C349.228 41.272 349.228 41.272 348.396 41.528V43.656H348.908C349.436 43.656 349.708 43.64 350.012 43.592V45.256C349.692 45.208 349.404 45.192 348.908 45.192H348.476C349.068 46.248 349.292 46.504 350.172 47.272C349.884 47.72 349.724 48.04 349.404 48.808C348.956 48.28 348.828 48.104 348.3 47.256C348.364 47.72 348.396 48.424 348.396 49.032V52.328C348.396 53.224 348.428 53.752 348.492 54.296H346.636C346.7 53.752 346.732 53.256 346.732 52.328V49.56C346.732 49.096 346.764 48.392 346.828 47.72C346.364 49.096 345.788 50.136 344.908 51.288C344.7 50.632 344.444 50.136 344.06 49.576C345.036 48.536 346.044 46.728 346.508 45.192H345.644C345.084 45.192 344.796 45.208 344.412 45.272V43.576C344.764 43.64 345.036 43.656 345.644 43.656H346.732Z" fill="#B33B22"/>
<path d="M330.204 53.3841L328.268 53.4961C328.252 53.2081 328.236 53.1121 328.188 52.7441C327.884 50.8081 327.772 49.5761 327.772 47.9601C327.772 45.8961 327.964 44.0721 328.428 41.7041C328.604 40.8081 328.636 40.6481 328.668 40.2161L330.78 40.4401C330.396 41.3841 330.028 43.1761 329.772 45.2241C329.612 46.4241 329.548 47.3681 329.532 48.7601C329.532 49.1121 329.516 49.2401 329.5 49.6401C329.676 49.0801 329.708 48.9681 330.332 47.5281L331.612 48.1041C330.732 49.9601 330.188 51.8161 330.188 52.9521C330.188 53.0481 330.188 53.1761 330.204 53.3841ZM332.412 43.8001L332.444 41.8801C333.164 42.0721 334.012 42.1361 335.404 42.1361C337.18 42.1361 338.7 41.9921 339.756 41.7041L339.852 43.6401C339.724 43.6561 339.484 43.6881 338.716 43.7841C337.692 43.9121 336.476 43.9761 335.292 43.9761C334.124 43.9761 334.108 43.9761 332.412 43.8001ZM333.516 46.4401L335.084 47.1761C334.284 48.1041 333.948 48.7921 333.948 49.4801C333.948 50.3921 334.828 50.8721 336.492 50.8721C337.9 50.8721 339.292 50.6481 340.3 50.2641L340.46 52.2961C340.236 52.3121 340.172 52.3281 339.804 52.3921C338.524 52.6001 337.548 52.6961 336.492 52.6961C334.508 52.6961 333.228 52.2481 332.524 51.3041C332.22 50.9041 332.044 50.3121 332.044 49.7361C332.044 48.6961 332.524 47.6241 333.516 46.4401Z" fill="#B33B22"/>
<path d="M314.636 40.024L316.956 40.472C316.78 40.824 316.764 40.856 316.54 41.624C315.324 45.624 314.396 48.28 313.372 50.744C315.884 50.552 318.652 50.216 320.028 49.928C319.852 49.544 319.66 49.192 319.276 48.472C318.572 47.144 318.284 46.68 317.756 45.928L319.564 45.224C321.052 47.4 322.46 50.088 323.436 52.632L321.5 53.64C321.292 52.984 321.292 52.984 320.732 51.656C320.524 51.704 320.524 51.704 320.156 51.784C318.54 52.12 315.884 52.456 311.1 52.92C310.204 53 309.964 53.032 309.644 53.112L309.356 50.952C309.58 50.952 309.58 50.952 309.772 50.952C310.092 50.952 310.476 50.936 311.148 50.904C311.996 48.888 312.636 47.08 313.468 44.456C314.22 42.104 314.524 40.968 314.636 40.024Z" fill="#B33B22"/>
<path d="M292.557 47.9761V45.7521C293.261 45.8481 293.565 45.8641 295.149 45.8641H303.677C305.261 45.8641 305.565 45.8481 306.269 45.7521V47.9761C305.629 47.8961 305.453 47.8961 303.661 47.8961H295.165C293.373 47.8961 293.197 47.8961 292.557 47.9761Z" fill="#B33B22"/>
<path d="M281.565 46.504H277.997C277.341 46.504 277.005 46.52 276.557 46.568V44.84C276.989 44.92 277.277 44.936 277.997 44.936H282.653V43.96C282.653 43.384 282.621 43.032 282.573 42.696H284.445C284.397 43.064 284.397 43.176 284.397 43.896L284.413 44.952H285.805C286.509 44.952 286.829 44.936 287.245 44.856V46.584C286.813 46.536 286.493 46.52 285.789 46.52H284.413L284.493 52.616C284.493 53.272 284.525 53.592 284.589 53.976H282.637C282.685 53.592 282.701 53.24 282.701 52.664L282.685 48.664C282.685 48.488 282.701 47.864 282.701 47.672C282.477 48.104 282.381 48.248 282.157 48.568C281.069 50.088 279.261 51.56 276.973 52.792C276.589 52.104 276.397 51.864 275.789 51.288C277.069 50.712 278.205 50.008 279.229 49.128C280.205 48.296 281.069 47.32 281.565 46.504Z" fill="#B33B22"/>
<path d="M269.309 41.176L270.397 42.216C270.253 42.488 270.205 42.6 270.125 42.936C269.325 45.992 268.381 47.912 266.845 49.64C265.277 51.4 263.565 52.568 260.893 53.72C260.445 52.856 260.237 52.552 259.485 51.816C260.893 51.368 261.805 50.952 262.989 50.184C265.485 48.568 267.053 46.312 267.837 43.208H260.221C259.149 43.208 258.781 43.224 258.205 43.304V41.224C258.829 41.32 259.165 41.336 260.253 41.336H267.597C268.493 41.336 268.813 41.304 269.309 41.176Z" fill="#B33B22"/>
<path d="M246.781 42.7281H250.829C251.789 42.7281 252.349 42.7121 252.893 42.6481C252.829 43.2721 252.829 43.2721 252.797 45.0641C252.749 47.2561 252.589 49.9601 252.429 51.0161C252.221 52.4881 251.997 53.0481 251.501 53.4001C251.085 53.7041 250.493 53.8321 249.597 53.8321C248.861 53.8321 248.157 53.7841 247.149 53.6561C247.053 52.8401 246.941 52.3761 246.701 51.7201C247.725 51.9281 248.653 52.0401 249.453 52.0401C250.205 52.0401 250.445 51.7521 250.621 50.6801C250.829 49.4801 250.973 47.0001 250.989 44.4401H246.653C246.381 46.8081 245.949 48.4241 245.197 49.7681C244.269 51.4481 242.813 52.7921 240.589 54.0401C240.237 53.3681 239.821 52.8561 239.261 52.3761C241.453 51.4161 242.909 50.1361 243.773 48.3921C244.269 47.4161 244.573 46.1841 244.781 44.4401H241.997C241.181 44.4401 240.557 44.4721 240.013 44.5361V42.6161C240.589 42.6961 241.133 42.7281 242.045 42.7281H244.893C244.925 42.0881 244.925 41.9281 244.925 41.0961C244.925 40.3281 244.893 39.8641 244.829 39.5441H246.957C246.877 39.9601 246.877 39.9601 246.781 42.7281Z" fill="#B33B22"/>
<path d="M228.061 42.0401H226.061C225.629 42.0401 225.149 42.0721 224.525 42.1201V40.2001C224.989 40.2641 225.325 40.2801 226.029 40.2801H228.573C229.229 40.2801 229.661 40.2641 230.029 40.2001C229.981 40.6641 229.981 40.8081 229.981 41.2081C229.981 43.4801 230.557 45.5921 231.693 47.5441C232.365 48.6641 233.149 49.6241 234.253 50.6161C235.069 51.3681 235.533 51.7041 236.621 52.3441C236.013 52.9361 235.709 53.3521 235.261 54.1521C233.661 53.0321 232.461 51.8641 231.373 50.3921C230.781 49.6081 230.429 49.0001 229.965 48.0241C229.549 47.1441 229.405 46.7441 229.149 45.7521C228.573 47.8001 227.933 49.1601 226.861 50.5841C225.837 51.9121 224.637 53.0321 222.893 54.2001C222.557 53.4961 222.189 53.0161 221.581 52.5201C222.941 51.7361 223.725 51.1281 224.797 50.0081C226.045 48.7121 227.021 47.0001 227.533 45.2721C227.853 44.1681 227.997 43.3361 228.061 42.0401Z" fill="#B33B22"/>
<defs>
<linearGradient id="paint0_linear_339_3" x1="325" y1="0" x2="325" y2="60" gradientUnits="userSpaceOnUse">
<stop offset="0.09821" stop-color="#FFEC00"/>
<stop offset="1" stop-color="#FFBF00"/>
</linearGradient>
</defs>
</svg>
