<svg width="650" height="64" viewBox="0 0 650 64" fill="none" xmlns="http://www.w3.org/2000/svg">
<path d="M644 4H6C2.68629 4 0 6.68629 0 10V58C0 61.3137 2.68629 64 6 64H644C647.314 64 650 61.3137 650 58V10C650 6.68629 647.314 4 644 4Z" fill="#FF9C38"/>
<path d="M644 0H6C2.68629 0 0 2.68629 0 6V54C0 57.3137 2.68629 60 6 60H644C647.314 60 650 57.3137 650 54V6C650 2.68629 647.314 0 644 0Z" fill="url(#paint0_linear_350_1021)"/>
<path d="M496.378 15.4998L496.253 12.5748C496.828 12.6748 497.453 12.6998 498.778 12.6998C500.278 12.6998 502.503 12.5998 503.428 12.4748C503.928 12.4248 504.103 12.3748 504.428 12.1748L506.403 13.8748C506.178 14.1748 506.053 14.4498 505.878 14.9248C505.753 15.2248 504.228 19.8248 504.003 20.5998C505.953 20.8748 507.628 21.3498 509.528 22.1748C509.728 20.8998 509.778 19.8748 509.778 17.5498C509.778 16.9998 509.753 16.7248 509.678 16.2248L512.828 16.3498C512.728 16.8748 512.703 17.0748 512.678 18.0248C512.603 20.2248 512.478 21.7248 512.228 23.3248C513.028 23.7248 514.128 24.2998 514.903 24.7498C515.578 25.1498 515.678 25.1748 516.053 25.3498L514.928 28.6498C514.203 28.0248 512.753 27.0498 511.478 26.3248C510.778 28.1748 510.028 29.3998 508.753 30.7248C507.653 31.8748 506.403 32.7998 504.978 33.5498C503.928 32.2498 503.678 31.9998 502.703 31.2998C504.578 30.3998 505.553 29.7498 506.578 28.6748C507.578 27.5998 508.403 26.2498 508.803 24.9748C507.028 24.1248 505.553 23.6498 503.178 23.2498C502.078 26.5498 501.428 28.1498 500.703 29.3998C499.778 30.9998 498.653 31.7748 497.278 31.7748C494.978 31.7748 493.278 29.7498 493.278 27.0248C493.278 24.7248 494.403 22.7748 496.378 21.5498C497.678 20.7498 499.003 20.4248 501.103 20.3498C501.753 18.3748 502.053 17.4248 502.678 15.1248C501.403 15.2248 500.803 15.2498 498.353 15.3498C497.328 15.3998 496.878 15.4248 496.378 15.4998ZM500.328 22.9748C498.653 23.2248 497.778 23.6248 497.003 24.4748C496.378 25.1498 496.053 25.9998 496.053 26.8748C496.053 27.8998 496.603 28.7248 497.278 28.7248C497.753 28.7248 498.128 28.2748 498.703 27.1498C499.203 26.1498 499.803 24.5998 500.328 22.9748Z" fill="#B33B22"/>
<path d="M476.003 14.4251H473.478C472.628 14.4251 472.028 14.4501 471.403 14.5501V11.8501C471.953 11.9501 472.478 11.9751 473.478 11.9751H477.053C477.853 11.9751 478.403 11.9501 478.878 11.8751C478.828 12.4501 478.828 12.8001 478.828 13.2251C478.828 15.6751 479.403 18.2001 480.478 20.4751C481.753 23.2251 483.253 24.9501 485.978 26.9001C485.278 27.7501 484.853 28.4501 484.328 29.5251C482.503 28.1501 481.478 27.1501 480.328 25.6251C479.078 23.9501 478.378 22.4251 477.528 19.7001C476.903 22.3501 476.203 23.9251 474.803 25.8001C473.878 27.0751 473.103 27.8751 471.428 29.2251C470.753 28.3251 470.378 27.9251 469.453 27.0501C470.978 25.9501 471.728 25.2001 472.753 23.8501C474.078 22.0751 475.028 20.0251 475.528 17.9001C475.778 16.8751 475.878 16.1501 476.003 14.4251ZM463.428 13.2251L465.428 11.3501C467.228 12.9251 468.578 14.3251 469.803 15.9251L467.728 17.9501C466.178 15.8501 465.378 14.9751 463.428 13.2251ZM463.053 23.1251V20.3751C463.703 20.4751 464.103 20.5001 465.053 20.5001H467.103C467.853 20.5001 468.428 20.4751 469.003 20.3751C468.928 21.2001 468.903 21.7251 468.903 23.1251V28.3501C469.278 29.1501 469.503 29.4001 470.328 29.9501C471.528 30.7001 472.828 30.8751 477.128 30.8751C480.753 30.8751 483.928 30.7001 486.403 30.3501C485.978 31.5501 485.828 32.1751 485.653 33.3251C483.428 33.4001 479.803 33.4751 478.078 33.4751C473.978 33.4751 471.953 33.3251 470.653 32.9001C469.353 32.5001 468.453 31.8251 467.478 30.5501C466.678 31.3501 466.078 31.8751 464.903 32.7751C464.478 33.1001 464.328 33.2251 464.153 33.3751C463.903 33.5751 463.903 33.5751 463.778 33.6751L462.553 30.8251C463.628 30.3751 465.203 29.3251 466.278 28.3751V23.0001H464.753C464.053 23.0001 463.678 23.0251 463.053 23.1251Z" fill="#B33B22"/>
<path d="M436.978 12.0249L440.478 12.0749C440.328 12.7999 440.278 13.5249 440.178 15.4499C440.078 17.7749 439.928 22.8499 439.928 24.6249C439.928 26.9999 440.078 27.8999 440.578 28.6499C441.153 29.4749 442.353 29.9499 443.928 29.9499C446.628 29.9499 448.803 28.4249 449.978 25.6749C450.528 24.3749 450.853 23.1999 451.128 21.4749C452.478 22.5749 452.928 22.8499 454.153 23.3999C453.153 26.7749 452.403 28.3999 451.178 29.7749C449.303 31.8999 446.828 32.9499 443.678 32.9499C441.953 32.9499 440.353 32.5499 439.303 31.8499C437.578 30.6999 436.853 28.7749 436.853 25.4249C436.853 24.1249 436.903 21.6249 437.053 15.3499C437.078 14.5999 437.078 14.0749 437.078 13.7249C437.078 13.0249 437.053 12.6749 436.978 12.0249Z" fill="#B33B22"/>
<path d="M412.828 27.5751H407.253V29.0001H404.303C404.403 28.2251 404.428 27.5251 404.428 26.4251V16.7251C404.428 15.7001 404.403 15.0751 404.303 14.3251C405.228 14.4001 405.828 14.4251 407.078 14.4251H412.828V13.7001C412.828 12.4001 412.803 11.8001 412.678 10.9751H415.778C415.653 11.7251 415.603 12.4001 415.603 13.6001V14.4251H421.528C422.953 14.4251 423.503 14.4001 424.403 14.3251C424.303 15.0751 424.278 15.6251 424.278 16.7001V26.4251C424.278 27.6251 424.303 28.2751 424.403 29.0001H421.428V27.5751H415.603V30.9501C415.603 32.4501 415.653 33.2001 415.778 34.0751H412.653C412.778 33.1001 412.828 32.3751 412.828 30.9501V27.5751ZM412.828 16.9251H407.253V19.7251H412.828V16.9251ZM415.603 16.9251V19.7251H421.428V16.9251H415.603ZM412.828 22.2001H407.253V25.0751H412.828V22.2001ZM415.603 22.2001V25.0751H421.428V22.2001H415.603Z" fill="#B33B22"/>
<path d="M378.053 21.1001V19.1751C376.503 20.1751 375.803 20.5501 374.053 21.3251C373.628 20.3251 373.228 19.6251 372.603 18.7751C375.303 17.7001 376.978 16.7751 378.878 15.3001C380.528 14.0251 381.803 12.7001 382.828 11.1001H385.803C387.128 12.9501 388.128 13.9251 390.028 15.2501C392.153 16.7501 394.178 17.8001 396.453 18.6251C395.753 19.7001 395.428 20.4001 395.078 21.4251C393.503 20.7501 392.553 20.2501 390.803 19.1501V21.1001C390.153 21.0251 389.503 21.0001 388.553 21.0001H380.203C379.478 21.0001 378.728 21.0251 378.053 21.1001ZM380.228 18.4001H388.528C388.928 18.4001 389.153 18.4001 389.628 18.3751C387.328 16.8001 385.903 15.5001 384.403 13.5251C383.078 15.3001 381.528 16.7501 379.203 18.3751C379.628 18.4001 379.778 18.4001 380.228 18.4001ZM380.478 25.6251H376.678C375.403 25.6251 374.553 25.6751 373.728 25.7751V22.8751C374.553 22.9751 375.503 23.0251 376.678 23.0251H392.253C393.478 23.0251 394.353 22.9751 395.178 22.8751V25.7751C394.353 25.6751 393.503 25.6251 392.253 25.6251H383.653C382.878 27.4501 382.103 28.9251 381.053 30.4751C385.478 30.2251 385.478 30.2251 388.978 29.8501C388.178 28.9751 387.753 28.5251 386.353 27.0751L388.828 25.9751C391.503 28.6751 392.578 29.9251 394.603 32.6501L392.203 34.2251C391.378 33.0001 391.128 32.6501 390.703 32.0501C388.628 32.3251 387.128 32.5001 386.203 32.6001C383.728 32.8251 378.778 33.2751 377.778 33.3501C376.378 33.4501 375.128 33.5751 374.553 33.7001L374.153 30.6501C374.828 30.7001 375.253 30.7251 375.603 30.7251C375.778 30.7251 376.528 30.7001 377.803 30.6251C379.028 28.7751 379.803 27.3251 380.478 25.6251Z" fill="#B33B22"/>
<path d="M361.853 18.6749H360.453C360.478 19.5999 360.478 19.7249 360.478 20.1999H363.103C364.128 20.1999 364.578 20.1749 365.128 20.1249C365.053 20.6749 365.028 21.2999 365.028 21.8999V25.2749C365.028 26.2249 365.053 26.5749 365.103 27.0749C364.378 27.0249 363.878 26.9999 363.178 26.9999H360.928C361.528 28.1249 362.178 28.9249 363.078 29.6749C363.978 30.4249 364.778 30.8999 366.528 31.6499C365.928 32.4999 365.578 33.2249 365.228 34.2749C362.528 32.9749 360.578 31.1499 359.328 28.7499C358.203 31.2499 356.428 32.9999 353.728 34.2749C353.303 33.3999 352.853 32.7499 352.253 32.1499C351.778 33.6249 351.228 33.9499 349.278 33.9499C348.728 33.9499 348.453 33.9249 347.878 33.8749C347.878 32.8749 347.753 32.1999 347.478 31.3999C348.203 31.5499 348.653 31.6249 349.178 31.6249C350.228 31.6249 350.403 31.3249 350.653 28.6749L349.628 29.0999C349.553 28.0999 349.228 26.5749 348.953 25.6999L349.903 25.3999C350.353 26.7499 350.478 27.2249 350.678 28.3999C350.778 27.0749 350.828 26.3999 350.828 24.9499H345.753C344.978 24.9499 344.278 24.9749 343.728 25.0249C343.803 24.4249 343.828 23.7499 343.828 22.8999V14.2499C343.828 12.9999 343.803 12.3999 343.728 11.6749C344.453 11.7749 345.103 11.7999 346.253 11.7999H350.628C351.803 11.7999 352.278 11.7749 352.978 11.6749V14.0999C352.378 13.9999 351.953 13.9749 351.078 13.9749H350.253V15.5999H350.753C351.428 15.5999 351.878 15.5749 352.428 15.4999V16.1749C353.578 15.4999 354.328 14.9749 355.378 14.0249C356.453 13.0499 357.153 12.2249 357.753 11.1499H360.403C360.978 12.0499 361.503 12.6499 362.453 13.4499C363.703 14.5249 364.603 15.0749 366.553 15.9749C366.003 16.8499 365.678 17.5749 365.428 18.5499C364.503 18.0749 364.178 17.8999 363.603 17.5249V18.7749C363.003 18.6999 362.553 18.6749 361.853 18.6749ZM358.078 18.6749H356.753C356.078 18.6749 355.553 18.6999 355.053 18.7749V17.5749C354.553 17.9249 354.278 18.1249 353.478 18.6249C353.228 17.8999 353.003 17.4499 352.428 16.6499V17.6249C351.878 17.5499 351.428 17.5249 350.753 17.5249H350.253V19.1499H350.728C351.528 19.1499 351.853 19.1249 352.403 19.0499V21.1749C351.853 21.0999 351.353 21.0749 350.728 21.0749H350.253V22.7499H351.128C352.178 22.7499 352.628 22.7249 353.128 22.6499C353.078 23.0999 353.053 23.6499 353.028 24.7249C352.978 27.3999 352.728 30.1249 352.353 31.8499C354.828 30.7749 356.528 29.1499 357.378 26.9999H355.603C354.803 26.9999 354.278 27.0249 353.628 27.0999C353.703 26.5249 353.728 26.0749 353.728 25.2749V21.8999C353.728 21.0749 353.703 20.7749 353.653 20.1249C354.153 20.1749 354.628 20.1999 355.628 20.1999H358.078V18.6749ZM358.053 22.2499H356.053V24.8999H357.878C357.978 24.0249 358.028 23.3749 358.053 22.2499ZM362.678 22.2499H360.428C360.378 23.7249 360.353 24.1499 360.278 24.8999H362.678V22.2499ZM348.078 21.0749H346.228V22.7499H348.078V21.0749ZM348.078 19.1499V17.5249H346.228V19.1499H348.078ZM348.078 15.5999V13.9749H346.228V15.5999H348.078ZM356.778 16.4749H362.103C360.803 15.4499 360.178 14.8249 359.078 13.4499C358.128 14.7749 357.628 15.3499 356.403 16.4749H356.778ZM343.653 25.6249L345.328 25.9999C345.128 29.2499 344.903 30.7499 344.328 32.9249L342.528 32.0499C343.203 30.1499 343.553 28.0999 343.653 25.6249ZM345.628 25.9999L347.028 25.7749C347.203 27.6499 347.278 28.9499 347.278 30.4749C347.278 30.7499 347.278 31.1499 347.278 31.6999L345.628 31.9499C345.703 30.6749 345.728 30.1999 345.728 28.4999C345.728 27.2999 345.703 26.9999 345.628 25.9999ZM347.403 25.9249L348.553 25.6249C348.928 27.1249 349.128 28.6249 349.253 30.5249L347.903 30.9249C347.803 28.2999 347.728 27.5499 347.403 25.9249Z" fill="#B33B22"/>
<path d="M318.078 27.7751V31.1751C318.078 32.4751 318.103 33.3001 318.203 34.0751H315.253C315.353 33.1251 315.403 32.4251 315.403 31.1501V24.2501C315.403 22.9251 315.403 22.5251 315.453 21.4251C314.778 22.5751 314.303 23.2251 313.503 24.1001C313.178 22.8751 312.878 22.0251 312.403 21.0751C315.153 18.0751 316.903 14.6501 317.653 10.8501L320.428 11.6001C319.528 14.1751 318.928 15.6501 318.078 17.4501V27.2501C320.803 25.1751 323.253 21.8251 324.653 18.2001H321.978C321.128 18.2001 320.153 18.2501 319.328 18.3501V15.5501C320.103 15.6251 321.078 15.6751 322.053 15.6751H325.703V13.4001C325.703 12.5751 325.653 11.8001 325.528 11.0501H328.503C328.403 11.8251 328.353 12.5501 328.353 13.4251V15.6751H332.978C334.078 15.6751 335.053 15.6251 335.853 15.5251V18.3501C335.003 18.2501 334.003 18.2001 333.053 18.2001H329.378C330.203 20.1251 330.878 21.3001 332.303 23.2251C333.328 24.6501 334.678 25.9751 336.553 27.4001C335.878 28.1751 335.478 28.7751 334.828 29.9751C333.503 28.7501 332.903 28.1501 332.028 27.0751V29.4501C331.503 29.3751 330.978 29.3501 330.203 29.3501H328.328V31.3501C328.328 32.3251 328.378 33.1751 328.503 34.0751H325.528C325.653 33.1501 325.703 32.2751 325.703 31.3501V29.3501H323.953C323.253 29.3501 322.703 29.3751 322.178 29.4501V27.1001C321.203 28.3001 320.803 28.7251 319.553 29.8251C319.003 28.8751 318.703 28.4501 318.078 27.7751ZM328.328 26.9001H330.153C330.878 26.9001 331.253 26.8751 331.828 26.8251C330.403 24.9751 329.353 23.2251 328.278 20.7751C328.328 22.1751 328.328 22.7751 328.328 23.7751V26.9001ZM325.703 26.9001V23.8501C325.703 22.5501 325.703 22.0251 325.753 20.8501C324.628 23.5751 323.878 24.9251 322.403 26.8251C322.903 26.8751 323.328 26.9001 324.053 26.9001H325.703Z" fill="#B33B22"/>
<path d="M284.028 17.8749L283.853 14.6249C284.403 14.6499 284.678 14.6499 284.803 14.6499C285.253 14.6499 285.253 14.6499 288.928 14.3999C290.328 14.3249 294.478 14.0999 301.403 13.7749C303.453 13.6749 303.828 13.6499 304.278 13.5249L304.453 16.7249C304.178 16.6999 304.178 16.6999 303.928 16.6999C302.428 16.6999 300.578 17.1999 298.978 18.0499C295.803 19.6999 293.928 22.1999 293.928 24.7249C293.928 26.6749 295.153 28.1749 297.253 28.7999C298.478 29.1749 300.078 29.4499 300.978 29.4499C301.003 29.4499 301.228 29.4499 301.478 29.4249L301.028 32.8249C300.728 32.7499 300.603 32.7249 300.178 32.6749C297.428 32.3249 295.853 31.8749 294.328 31.0249C292.028 29.7249 290.753 27.5999 290.753 24.9999C290.753 22.8749 291.603 20.7749 293.128 19.0999C294.078 18.0749 294.978 17.4249 296.603 16.5999C294.578 16.8999 293.603 16.9749 288.178 17.3749C286.503 17.4999 285.003 17.6749 284.028 17.8749Z" fill="#B33B22"/>
<path d="M258.223 12.0249L261.723 12.0749C261.573 12.7999 261.523 13.5249 261.423 15.4499C261.323 17.7749 261.173 22.8499 261.173 24.6249C261.173 26.9999 261.323 27.8999 261.823 28.6499C262.398 29.4749 263.598 29.9499 265.173 29.9499C267.873 29.9499 270.048 28.4249 271.223 25.6749C271.773 24.3749 272.098 23.1999 272.373 21.4749C273.723 22.5749 274.173 22.8499 275.398 23.3999C274.398 26.7749 273.648 28.3999 272.423 29.7749C270.548 31.8999 268.073 32.9499 264.923 32.9499C263.198 32.9499 261.598 32.5499 260.548 31.8499C258.823 30.6999 258.098 28.7749 258.098 25.4249C258.098 24.1249 258.148 21.6249 258.298 15.3499C258.323 14.5999 258.323 14.0749 258.323 13.7249C258.323 13.0249 258.298 12.6749 258.223 12.0249Z" fill="#B33B22"/>
<path d="M243.398 14.4252L244.998 16.0002C244.748 16.3752 244.648 16.6002 244.373 17.5002C243.223 21.3002 241.448 24.6752 239.248 27.1502C236.948 29.7752 234.198 31.7252 230.348 33.5002C229.648 32.2502 229.323 31.8252 228.223 30.8752C230.723 29.8502 232.123 29.1002 233.698 27.9252C237.273 25.2752 239.623 21.8502 240.998 17.3752L233.473 17.5002C231.948 19.9252 229.998 22.0752 227.623 23.9002C226.873 22.8752 226.498 22.5502 225.198 21.7502C228.048 19.8002 229.848 17.8002 231.673 14.5002C232.448 13.0752 232.848 12.1002 232.948 11.2002L236.373 11.8752C236.223 12.1002 236.223 12.1002 235.948 12.6502C235.873 12.7752 235.873 12.7752 235.623 13.3502C235.548 13.5002 235.548 13.5002 235.298 14.0002C235.148 14.3502 235.148 14.3502 234.898 14.8002C235.223 14.7752 235.623 14.7502 236.098 14.7502L241.573 14.6752C242.548 14.6752 242.823 14.6252 243.398 14.4252Z" fill="#B33B22"/>
<path d="M197.123 18.4001L199.773 17.6251C200.823 19.5501 201.323 20.7501 202.223 23.5501L199.398 24.4501C198.748 21.9251 198.248 20.6001 197.123 18.4001ZM202.473 17.3501L205.098 16.6001C206.423 19.0751 206.898 20.1751 207.523 22.3501L204.748 23.2251C204.273 21.3251 203.523 19.4001 202.473 17.3501ZM211.073 17.1001L214.123 17.8001C213.973 18.1751 213.923 18.3001 213.773 19.0751C213.048 22.4751 211.923 25.2251 210.323 27.4001C208.473 29.9251 206.398 31.5501 202.698 33.4251C202.048 32.3251 201.748 31.9501 200.698 30.9501C202.448 30.2751 203.473 29.7251 204.948 28.6501C207.873 26.5251 209.548 23.9751 210.623 19.9751C210.948 18.7501 211.073 17.8751 211.073 17.1001Z" fill="#B33B22"/>
<path d="M168.223 12.2749L171.623 12.2999C171.523 12.9999 171.523 13.2249 171.523 14.5499V21.4499C171.523 22.6999 171.523 23.0249 171.623 23.6499H168.198C168.273 23.0749 168.323 22.2999 168.323 21.3999V14.5249C168.323 13.2499 168.298 12.9249 168.223 12.2749ZM179.498 12.3249H182.973C182.873 12.9499 182.848 13.2249 182.848 14.6499V18.0249C182.823 21.9249 182.648 24.0249 182.198 25.5999C181.473 28.0999 179.873 29.9749 177.273 31.4249C175.948 32.1749 174.698 32.6749 172.398 33.3499C171.948 32.1249 171.698 31.6999 170.648 30.3749C173.098 29.8999 174.548 29.3749 176.048 28.3749C178.398 26.8249 179.223 25.2999 179.498 21.9999C179.598 20.9249 179.623 19.8249 179.623 17.8249V14.6999C179.623 13.4249 179.598 12.8999 179.498 12.3249Z" fill="#B33B22"/>
<path d="M153.398 14.4252L154.998 16.0002C154.748 16.3752 154.648 16.6002 154.373 17.5002C153.223 21.3002 151.448 24.6752 149.248 27.1502C146.948 29.7752 144.198 31.7252 140.348 33.5002C139.648 32.2502 139.323 31.8252 138.223 30.8752C140.723 29.8502 142.123 29.1002 143.698 27.9252C147.273 25.2752 149.623 21.8502 150.998 17.3752L143.473 17.5002C141.948 19.9252 139.998 22.0752 137.623 23.9002C136.873 22.8752 136.498 22.5502 135.198 21.7502C138.048 19.8002 139.848 17.8002 141.673 14.5002C142.448 13.0752 142.848 12.1002 142.948 11.2002L146.373 11.8752C146.223 12.1002 146.223 12.1002 145.948 12.6502C145.873 12.7752 145.873 12.7752 145.623 13.3502C145.548 13.5002 145.548 13.5002 145.298 14.0002C145.148 14.3502 145.148 14.3502 144.898 14.8002C145.223 14.7752 145.623 14.7502 146.098 14.7502L151.573 14.6752C152.548 14.6752 152.823 14.6252 153.398 14.4252Z" fill="#B33B22"/>
<path d="M424.299 44.4878L424.283 45.8638C424.283 45.9278 424.299 46.0558 424.299 46.2478C424.651 46.9838 424.811 47.6398 424.811 48.5038C424.811 50.2478 423.979 51.7518 422.427 52.8238C421.755 53.2878 421.019 53.6238 419.531 54.1358C419.083 53.1438 418.923 52.9038 418.395 52.3278C419.707 52.0718 420.363 51.8478 421.115 51.3998C422.203 50.7758 422.843 49.9598 422.971 49.0638C422.507 49.7998 421.675 50.1998 420.619 50.1998C419.883 50.1998 419.307 50.0238 418.763 49.6238C418.011 49.0798 417.659 48.3758 417.659 47.4638C417.659 45.7678 418.987 44.5518 420.843 44.5518C421.531 44.5518 422.139 44.7278 422.507 45.0318C422.491 44.9518 422.491 44.9518 422.491 44.8398C422.475 44.8078 422.475 43.9118 422.475 43.4798C420.187 43.5438 418.683 43.5918 417.979 43.6398C415.563 43.8158 415.563 43.8158 415.131 43.8798L415.067 41.9758C415.419 42.0078 415.563 42.0078 415.851 42.0078C416.251 42.0078 416.507 42.0078 418.571 41.9278C419.611 41.8958 419.771 41.8958 421.083 41.8638C421.611 41.8478 421.611 41.8478 422.443 41.8158C422.427 40.2958 422.427 40.2958 422.347 39.8798L424.363 39.8638C424.299 40.3598 424.299 40.3918 424.283 41.7678C427.067 41.7518 428.315 41.7198 428.907 41.6558L428.923 43.4958C428.331 43.4478 427.563 43.4158 426.235 43.4158C425.851 43.4158 425.563 43.4158 424.299 43.4478V44.4878ZM422.459 47.1278C422.459 46.4558 421.899 46.0238 421.019 46.0238C420.203 46.0238 419.531 46.5998 419.531 47.3038C419.531 48.0398 420.091 48.5678 420.891 48.5678C421.803 48.5678 422.459 47.9598 422.459 47.1278Z" fill="#B33B22"/>
<path d="M410.764 51.3041L409.676 53.1761C408.972 52.3921 407.868 51.5761 406.716 50.9841C406.364 50.7921 406.236 50.7441 405.852 50.5841C405.852 50.6641 405.852 50.7281 405.852 50.7601C405.852 51.7681 405.564 52.4561 404.956 52.9201C404.348 53.3841 403.484 53.6081 402.316 53.6081C399.98 53.6081 398.636 52.6961 398.636 51.1121C398.636 49.3681 400.22 48.3441 402.908 48.3441C403.292 48.3441 403.564 48.3601 403.98 48.4081C403.98 48.2161 403.98 48.2161 403.964 48.0241C403.964 47.9441 403.964 47.8321 403.964 47.6721C403.948 47.4481 403.948 47.4481 403.932 46.8081C403.164 46.8241 402.668 46.8401 402.332 46.8401C401.356 46.8401 400.764 46.8241 399.436 46.7281C399.228 46.7121 399.068 46.7121 398.828 46.7121L398.86 44.9841C399.548 45.1441 401.068 45.2561 402.588 45.2561C402.908 45.2561 403.452 45.2401 403.9 45.2241C403.9 45.0801 403.9 44.5361 403.884 43.6241C403.372 43.6401 403.116 43.6401 402.876 43.6401C402.092 43.6401 400.028 43.5601 398.956 43.4801C398.78 43.4641 398.652 43.4641 398.604 43.4641C398.54 43.4641 398.46 43.4641 398.348 43.4641L398.364 41.6881C399.18 41.8961 400.828 42.0241 402.668 42.0241C402.924 42.0241 403.468 42.0081 403.868 41.9921C403.852 40.3921 403.852 40.3761 403.788 39.9761H405.82C405.74 40.4081 405.724 40.6161 405.708 41.9281C407.884 41.8001 409.276 41.6241 410.316 41.3201L410.396 43.0961C410.044 43.1121 410.044 43.1121 409.132 43.2401C407.724 43.4321 407.1 43.4801 405.692 43.5601C405.708 43.9601 405.708 44.1521 405.724 45.1441C406.524 45.0961 406.524 45.0961 407.996 44.9361C409.004 44.8081 409.26 44.7761 409.98 44.5841L410.028 46.3441C409.756 46.3601 409.356 46.4081 408.988 46.4561C408.748 46.4881 408.028 46.5681 406.828 46.6801C406.604 46.6961 406.364 46.7121 405.74 46.7441C405.788 48.2961 405.788 48.2961 405.804 48.6801C407.212 49.0961 408.46 49.7201 410.188 50.9361C410.46 51.1121 410.54 51.1761 410.764 51.3041ZM404.012 50.0721C403.484 49.9601 403.164 49.9281 402.684 49.9281C401.388 49.9281 400.604 50.3441 400.604 51.0321C400.604 51.6241 401.292 51.9921 402.428 51.9921C403.1 51.9921 403.596 51.8001 403.82 51.4801C403.948 51.2721 404.012 50.9361 404.012 50.4561C404.012 50.3921 404.012 50.0721 404.012 50.0721Z" fill="#B33B22"/>
<path d="M382.043 40.2158L384.283 40.2478C384.187 40.7118 384.155 41.1758 384.091 42.4078C384.027 43.8958 383.931 47.1438 383.931 48.2798C383.931 49.7998 384.027 50.3758 384.347 50.8558C384.715 51.3838 385.483 51.6878 386.491 51.6878C388.219 51.6878 389.611 50.7118 390.363 48.9518C390.715 48.1198 390.923 47.3678 391.099 46.2638C391.963 46.9678 392.251 47.1438 393.035 47.4958C392.395 49.6558 391.915 50.6958 391.131 51.5758C389.931 52.9358 388.347 53.6078 386.331 53.6078C385.227 53.6078 384.203 53.3518 383.531 52.9038C382.427 52.1678 381.963 50.9358 381.963 48.7918C381.963 47.9598 381.995 46.3598 382.091 42.3438C382.107 41.8638 382.107 41.5278 382.107 41.3038C382.107 40.8558 382.091 40.6318 382.043 40.2158Z" fill="#B33B22"/>
<path d="M365.371 42.2162V41.4642C364.267 41.5602 363.819 41.5922 362.619 41.6562C362.491 41.2082 362.363 40.9202 362.059 40.3762C365.195 40.3602 367.947 40.0242 369.035 39.5122L369.995 40.8242C369.851 40.8402 369.323 40.9202 369.115 40.9682C368.523 41.0802 367.723 41.2082 366.923 41.3202V42.2162H368.587C369.339 42.2162 369.707 42.2002 370.075 42.1362V43.5922C369.835 43.5442 369.627 43.5282 368.923 43.5282H366.923V44.2162H368.507C369.227 44.2162 369.515 44.2002 369.851 44.1682C369.819 44.5042 369.803 44.7602 369.803 45.5762V47.7362C369.819 48.5042 369.835 48.9842 369.851 49.1922C369.483 49.1602 369.163 49.1602 368.411 49.1602H366.923V49.8642H368.331C369.131 49.8642 369.467 49.8482 369.835 49.8002V51.3042C369.547 51.2402 369.323 51.2242 368.715 51.2242H366.923V52.0082C367.755 51.9282 368.299 51.8642 369.803 51.6562V52.3442C370.491 51.3202 371.019 50.0242 371.323 48.6642C371.563 47.4962 371.659 46.5042 371.739 44.4402C371.083 44.4402 370.827 44.4562 370.411 44.5042V42.7762C370.731 42.8242 371.003 42.8402 371.547 42.8402H371.787C371.803 42.4402 371.803 42.1682 371.803 41.6722C371.803 40.3442 371.787 40.0882 371.707 39.6402H373.547C373.467 40.0722 373.467 40.0722 373.419 42.8402H374.811C375.499 42.8402 375.883 42.8242 376.315 42.7762C376.251 43.3522 376.251 43.4802 376.203 45.7842C376.123 49.9122 375.915 52.1682 375.515 53.0962C375.227 53.8002 374.715 54.0402 373.515 54.0402C373.259 54.0402 372.475 54.0082 372.235 53.9922C372.203 53.2882 372.123 52.9522 371.867 52.2642C371.483 53.0802 371.227 53.4962 370.587 54.3602C370.251 53.8642 369.867 53.4802 369.323 53.0962C367.131 53.4162 365.963 53.5442 363.035 53.7682C362.731 53.8002 362.491 53.8322 362.107 53.8962L361.819 52.1842C362.155 52.2162 362.299 52.2162 362.651 52.2162C363.371 52.2162 363.675 52.2002 365.371 52.1042V51.2242H363.723C363.211 51.2242 362.667 51.2402 362.235 51.2882V49.7842C362.683 49.8482 363.019 49.8642 363.739 49.8642H365.371V49.1602H363.979C363.259 49.1602 362.875 49.1762 362.427 49.2082C362.459 48.8082 362.475 48.4722 362.475 47.6882V45.6242C362.475 44.8722 362.459 44.5682 362.427 44.1682C362.875 44.2002 363.291 44.2162 363.995 44.2162H365.371V43.5282H363.419C362.747 43.5282 362.379 43.5442 361.931 43.6082V42.1362C362.363 42.2002 362.763 42.2162 363.419 42.2162H365.371ZM365.371 45.4162H363.979V46.0882H365.371V45.4162ZM366.923 45.4162V46.0882H368.315V45.4162H366.923ZM365.371 47.2562H363.979V47.9602H365.371V47.2562ZM366.923 47.2562V47.9602H368.315V47.2562H366.923ZM374.603 44.4402H373.387C373.227 48.2482 372.859 50.1042 371.883 52.2482C372.699 52.3762 372.939 52.4082 373.291 52.4082C374.011 52.4082 374.123 52.2162 374.315 50.7282C374.427 49.8802 374.475 49.1922 374.539 47.4162C374.555 46.8562 374.555 46.8562 374.571 45.5602C374.587 45.0642 374.587 44.9682 374.603 44.4402Z" fill="#B33B22"/>
<path d="M355.068 45.4798L356.284 45.8318C356.188 45.9598 356.188 45.9598 356.044 46.1998C355.996 46.2798 355.852 46.4718 355.708 46.6798H357.116C357.692 46.6798 358.012 46.6638 358.348 46.6158L359.292 47.6078C359.084 47.9758 359.084 47.9758 358.892 48.3598C358.764 48.5838 358.108 49.5918 357.916 49.8638C356.988 51.1118 355.5 52.3118 353.9 53.1278C352.732 53.7198 351.756 54.0398 350.172 54.3438C349.948 53.6878 349.724 53.3038 349.308 52.7278C351.212 52.4878 352.3 52.1198 353.884 51.2398C353.388 50.7118 353.292 50.6318 352.604 50.1198L353.82 49.2238C354.636 49.8318 354.764 49.9278 355.228 50.3438C356.044 49.6878 356.54 49.1278 357.276 48.0718H354.508C353.308 49.2078 352.188 49.9918 350.668 50.6798C350.38 50.2158 350.092 49.8638 349.628 49.3678C351.612 48.6318 353.564 47.2398 354.428 45.9278C353.244 46.7278 352.156 47.2718 350.668 47.7998C350.396 47.2078 350.172 46.8878 349.692 46.3758C351.292 45.9278 351.884 45.6718 353.1 44.9678C353.036 44.9198 353.004 44.8718 352.972 44.8398C352.684 44.5198 352.652 44.4718 352.476 44.3278C352.444 44.2958 352.38 44.2318 352.268 44.1518C352.204 44.0878 352.092 44.0078 351.948 43.8958L353.116 43.0318C353.82 43.5758 353.98 43.7038 354.38 44.1038C355.308 43.3838 355.724 42.9678 356.332 42.1038H353.452C352.62 42.9678 351.788 43.6238 350.588 44.3118C350.284 43.8158 350.012 43.4798 349.58 43.1118C350.812 42.5038 351.948 41.6238 352.716 40.6798C353.02 40.2798 353.356 39.7198 353.42 39.4478L355.116 39.9598C355.02 40.0878 355.02 40.0878 354.844 40.3758C354.828 40.3918 354.78 40.4558 354.716 40.5518C354.684 40.5838 354.636 40.6478 354.572 40.7278H356.412C356.988 40.7278 357.292 40.7118 357.628 40.6638L358.524 41.6238C358.348 41.8798 358.348 41.8798 358.076 42.2958C357.228 43.6078 356.444 44.4398 355.068 45.4798ZM346.732 43.6558V41.9438C346.156 42.0718 345.916 42.1198 345.084 42.2478C344.972 41.7678 344.796 41.3838 344.444 40.7598C345.98 40.5998 347.052 40.3438 348.332 39.8798C348.78 39.7038 349.036 39.5918 349.324 39.3838L350.316 40.7918C349.228 41.2718 349.228 41.2718 348.396 41.5278V43.6558H348.908C349.436 43.6558 349.708 43.6398 350.012 43.5918V45.2558C349.692 45.2078 349.404 45.1918 348.908 45.1918H348.476C349.068 46.2478 349.292 46.5038 350.172 47.2718C349.884 47.7198 349.724 48.0398 349.404 48.8078C348.956 48.2798 348.828 48.1038 348.3 47.2558C348.364 47.7198 348.396 48.4238 348.396 49.0318V52.3278C348.396 53.2238 348.428 53.7518 348.492 54.2958H346.636C346.7 53.7518 346.732 53.2558 346.732 52.3278V49.5598C346.732 49.0958 346.764 48.3918 346.828 47.7198C346.364 49.0958 345.788 50.1358 344.908 51.2878C344.7 50.6318 344.444 50.1358 344.06 49.5758C345.036 48.5358 346.044 46.7278 346.508 45.1918H345.644C345.084 45.1918 344.796 45.2078 344.412 45.2718V43.5758C344.764 43.6398 345.036 43.6558 345.644 43.6558H346.732Z" fill="#B33B22"/>
<path d="M330.203 53.3838L328.267 53.4958C328.251 53.2078 328.235 53.1118 328.187 52.7438C327.883 50.8078 327.771 49.5758 327.771 47.9598C327.771 45.8958 327.963 44.0718 328.427 41.7038C328.603 40.8078 328.635 40.6478 328.667 40.2158L330.779 40.4398C330.395 41.3838 330.027 43.1758 329.771 45.2238C329.611 46.4238 329.547 47.3678 329.531 48.7598C329.531 49.1118 329.515 49.2398 329.499 49.6398C329.675 49.0798 329.707 48.9678 330.331 47.5278L331.611 48.1038C330.731 49.9598 330.187 51.8158 330.187 52.9518C330.187 53.0478 330.187 53.1758 330.203 53.3838ZM332.411 43.7998L332.443 41.8798C333.163 42.0718 334.011 42.1358 335.403 42.1358C337.179 42.1358 338.699 41.9918 339.755 41.7038L339.851 43.6398C339.723 43.6558 339.483 43.6878 338.715 43.7838C337.691 43.9118 336.475 43.9758 335.291 43.9758C334.123 43.9758 334.107 43.9758 332.411 43.7998ZM333.515 46.4398L335.083 47.1758C334.283 48.1038 333.947 48.7918 333.947 49.4798C333.947 50.3918 334.827 50.8718 336.491 50.8718C337.899 50.8718 339.291 50.6478 340.299 50.2638L340.459 52.2958C340.235 52.3118 340.171 52.3278 339.803 52.3918C338.523 52.5998 337.547 52.6958 336.491 52.6958C334.507 52.6958 333.227 52.2478 332.523 51.3038C332.219 50.9038 332.043 50.3118 332.043 49.7358C332.043 48.6958 332.523 47.6238 333.515 46.4398Z" fill="#B33B22"/>
<path d="M314.635 40.0239L316.955 40.4719C316.779 40.8239 316.763 40.8559 316.539 41.6239C315.323 45.6239 314.395 48.2799 313.371 50.7439C315.883 50.5519 318.651 50.2159 320.027 49.9279C319.851 49.5439 319.659 49.1919 319.275 48.4719C318.571 47.1439 318.283 46.6799 317.755 45.9279L319.563 45.2239C321.051 47.3999 322.459 50.0879 323.435 52.6319L321.499 53.6399C321.291 52.9839 321.291 52.9839 320.731 51.6559C320.523 51.7039 320.523 51.7039 320.155 51.7839C318.539 52.1199 315.883 52.4559 311.099 52.9199C310.203 52.9999 309.963 53.0319 309.643 53.1119L309.355 50.9519C309.579 50.9519 309.579 50.9519 309.771 50.9519C310.091 50.9519 310.475 50.9359 311.147 50.9039C311.995 48.8879 312.635 47.0799 313.467 44.4559C314.219 42.1039 314.523 40.9679 314.635 40.0239Z" fill="#B33B22"/>
<path d="M292.556 47.976V45.752C293.26 45.848 293.564 45.864 295.148 45.864H303.676C305.26 45.864 305.564 45.848 306.268 45.752V47.976C305.628 47.896 305.452 47.896 303.66 47.896H295.164C293.372 47.896 293.196 47.896 292.556 47.976Z" fill="#B33B22"/>
<path d="M281.564 46.5038H277.996C277.34 46.5038 277.004 46.5198 276.556 46.5678V44.8398C276.988 44.9198 277.276 44.9358 277.996 44.9358H282.652V43.9598C282.652 43.3838 282.62 43.0318 282.572 42.6958H284.444C284.396 43.0638 284.396 43.1758 284.396 43.8958L284.412 44.9518H285.804C286.508 44.9518 286.828 44.9358 287.244 44.8558V46.5838C286.812 46.5358 286.492 46.5198 285.788 46.5198H284.412L284.492 52.6158C284.492 53.2718 284.524 53.5918 284.588 53.9758H282.636C282.684 53.5918 282.7 53.2398 282.7 52.6638L282.684 48.6638C282.684 48.4878 282.7 47.8638 282.7 47.6718C282.476 48.1038 282.38 48.2478 282.156 48.5678C281.068 50.0878 279.26 51.5598 276.972 52.7918C276.588 52.1038 276.396 51.8638 275.788 51.2878C277.068 50.7118 278.204 50.0078 279.228 49.1278C280.204 48.2958 281.068 47.3198 281.564 46.5038Z" fill="#B33B22"/>
<path d="M269.308 41.1758L270.396 42.2158C270.252 42.4878 270.204 42.5998 270.124 42.9358C269.324 45.9918 268.38 47.9118 266.844 49.6398C265.276 51.3998 263.564 52.5678 260.892 53.7198C260.444 52.8558 260.236 52.5518 259.484 51.8158C260.892 51.3678 261.804 50.9518 262.988 50.1838C265.484 48.5678 267.052 46.3118 267.836 43.2078H260.22C259.148 43.2078 258.78 43.2238 258.204 43.3038V41.2238C258.828 41.3198 259.164 41.3358 260.252 41.3358H267.596C268.492 41.3358 268.812 41.3038 269.308 41.1758Z" fill="#B33B22"/>
<path d="M246.78 42.7279H250.828C251.788 42.7279 252.348 42.7119 252.892 42.6479C252.828 43.2719 252.828 43.2719 252.796 45.0639C252.748 47.2559 252.588 49.9599 252.428 51.0159C252.22 52.4879 251.996 53.0479 251.5 53.3999C251.084 53.7039 250.492 53.8319 249.596 53.8319C248.86 53.8319 248.156 53.7839 247.148 53.6559C247.052 52.8399 246.94 52.3759 246.7 51.7199C247.724 51.9279 248.652 52.0399 249.452 52.0399C250.204 52.0399 250.444 51.7519 250.62 50.6799C250.828 49.4799 250.972 46.9999 250.988 44.4399H246.652C246.38 46.8079 245.948 48.4239 245.196 49.7679C244.268 51.4479 242.812 52.7919 240.588 54.0399C240.236 53.3679 239.82 52.8559 239.26 52.3759C241.452 51.4159 242.908 50.1359 243.772 48.3919C244.268 47.4159 244.572 46.1839 244.78 44.4399H241.996C241.18 44.4399 240.556 44.4719 240.012 44.5359V42.6159C240.588 42.6959 241.132 42.7279 242.044 42.7279H244.892C244.924 42.0879 244.924 41.9279 244.924 41.0959C244.924 40.3279 244.892 39.8639 244.828 39.5439H246.956C246.876 39.9599 246.876 39.9599 246.78 42.7279Z" fill="#B33B22"/>
<path d="M228.06 42.0402H226.06C225.628 42.0402 225.148 42.0722 224.524 42.1202V40.2002C224.988 40.2642 225.324 40.2802 226.028 40.2802H228.572C229.228 40.2802 229.66 40.2642 230.028 40.2002C229.98 40.6642 229.98 40.8082 229.98 41.2082C229.98 43.4802 230.556 45.5922 231.692 47.5442C232.364 48.6642 233.148 49.6242 234.252 50.6162C235.068 51.3682 235.532 51.7042 236.62 52.3442C236.012 52.9362 235.708 53.3522 235.26 54.1522C233.66 53.0322 232.46 51.8642 231.372 50.3922C230.78 49.6082 230.428 49.0002 229.964 48.0242C229.548 47.1442 229.404 46.7442 229.148 45.7522C228.572 47.8002 227.932 49.1602 226.86 50.5842C225.836 51.9122 224.636 53.0322 222.892 54.2002C222.556 53.4962 222.188 53.0162 221.58 52.5202C222.94 51.7362 223.724 51.1282 224.796 50.0082C226.044 48.7122 227.02 47.0002 227.532 45.2722C227.852 44.1682 227.996 43.3362 228.06 42.0402Z" fill="#B33B22"/>
<defs>
<linearGradient id="paint0_linear_350_1021" x1="325" y1="0" x2="325" y2="60" gradientUnits="userSpaceOnUse">
<stop offset="0.09821" stop-color="#FFEC00"/>
<stop offset="1" stop-color="#FFBF00"/>
</linearGradient>
</defs>
</svg>
