<svg width="650" height="124" viewBox="0 0 650 124" fill="none" xmlns="http://www.w3.org/2000/svg">
<path d="M0 0H650V124H0V0Z" fill="#0C3584"/>
<path d="M154.499 22C145.402 22 138 29.402 138 38.4991C138 47.5979 145.402 55 154.499 55C163.598 55 171 47.5979 171 38.4991C171 29.402 163.598 22 154.499 22Z" fill="#FBB03B"/>
<path d="M157.282 47.7377C157.282 48.8781 156.233 49.8025 154.938 49.8025C153.643 49.8025 152.594 48.8781 152.594 47.7377C152.594 46.5967 153.643 45.6724 154.938 45.6724C156.233 45.6724 157.282 46.5967 157.282 47.7377Z" fill="white"/>
<path d="M150.996 34.6416C150.996 33.9028 150.996 32.1727 155.133 31.9246C156.736 31.8287 158.005 32.2025 158.705 32.9774C159.126 33.4436 159.305 34.032 159.207 34.6341C159.116 35.1985 157.658 35.9747 156.694 36.4881C154.845 37.4725 152.545 38.6975 152.545 41.2757V42.7403C152.545 43.9542 153.529 44.9384 154.743 44.9384C155.957 44.9384 156.941 43.9542 156.941 42.7403V41.2757C156.941 41.4234 156.886 41.5358 156.866 41.5635C157.073 41.2666 158.088 40.7262 158.76 40.3685C160.594 39.3919 163.106 38.0544 163.547 35.3378C163.858 33.4194 163.282 31.4846 161.966 30.0294C160.353 28.2443 157.832 27.3588 154.87 27.5365C147.405 27.9841 146.6 32.6544 146.6 34.6416C146.6 35.8556 147.584 36.8397 148.798 36.8397C150.012 36.8397 150.996 35.8556 150.996 34.6416Z" fill="white"/>
<path d="M154.499 71C145.402 71 138 78.402 138 87.4991C138 96.5979 145.402 104 154.499 104C163.598 104 171 96.5979 171 87.4991C171 78.402 163.598 71 154.499 71Z" fill="#FBB03B"/>
<path d="M157.282 96.7377C157.282 97.8781 156.233 98.8025 154.938 98.8025C153.643 98.8025 152.594 97.8781 152.594 96.7377C152.594 95.5967 153.643 94.6724 154.938 94.6724C156.233 94.6724 157.282 95.5967 157.282 96.7377Z" fill="white"/>
<path d="M150.996 83.6416C150.996 82.9028 150.996 81.1727 155.133 80.9246C156.736 80.8287 158.005 81.2025 158.705 81.9774C159.126 82.4436 159.305 83.032 159.207 83.6341C159.116 84.1985 157.658 84.9747 156.694 85.4881C154.845 86.4725 152.545 87.6975 152.545 90.2757V91.7403C152.545 92.9542 153.529 93.9384 154.743 93.9384C155.957 93.9384 156.941 92.9542 156.941 91.7403V90.2757C156.941 90.4234 156.886 90.5358 156.866 90.5635C157.073 90.2666 158.088 89.7262 158.76 89.3685C160.594 88.3919 163.106 87.0544 163.547 84.3378C163.858 82.4194 163.282 80.4846 161.966 79.0294C160.353 77.2443 157.832 76.3588 154.87 76.5365C147.405 76.9841 146.6 81.6544 146.6 83.6416C146.6 84.8556 147.584 85.8397 148.798 85.8397C150.012 85.8397 150.996 84.8556 150.996 83.6416Z" fill="white"/>
<path d="M489 37.02C490.32 37.02 491.38 38.08 491.38 39.4C491.38 40.72 490.32 41.78 489 41.78C487.68 41.78 486.62 40.72 486.62 39.4C486.62 38.08 487.68 37.02 489 37.02Z" fill="white"/>
<path d="M469 37.02C470.32 37.02 471.38 38.08 471.38 39.4C471.38 40.72 470.32 41.78 469 41.78C467.68 41.78 466.62 40.72 466.62 39.4C466.62 38.08 467.68 37.02 469 37.02Z" fill="white"/>
<path d="M449 37.02C450.32 37.02 451.38 38.08 451.38 39.4C451.38 40.72 450.32 41.78 449 41.78C447.68 41.78 446.62 40.72 446.62 39.4C446.62 38.08 447.68 37.02 449 37.02Z" fill="white"/>
<path d="M421.06 44.5602L419.9 42.2602C420.36 41.9402 421.14 41.2602 423.52 39.0602C423.56 37.8402 423.56 37.8202 423.6 36.1802C421.18 36.3602 421.18 36.3602 420.56 36.4802L420.42 34.2202C420.74 34.2402 420.9 34.2602 421.08 34.2602C421.44 34.2602 422.54 34.2002 423.66 34.1202C423.7 33.6002 423.72 33.3402 423.72 32.6202C423.72 32.2402 423.74 31.9602 423.74 31.7802C423.74 31.6802 423.74 31.6002 423.74 31.5802C423.74 31.2602 423.72 31.1002 423.66 30.7002L426.24 30.7202C426.12 31.2402 426.12 31.2602 426.04 32.6402C426.02 33.0202 426.02 33.0202 425.98 33.5802C425.98 33.7402 425.98 33.7402 425.98 33.9402C426.12 33.9002 426.16 33.9002 426.26 33.8402L427.02 34.6602C426.74 34.9002 426.6 35.0602 425.88 35.9602C425.84 36.8202 425.82 37.2602 425.8 37.3202L425.84 37.3002C425.92 37.2202 426.06 37.1002 426.32 36.9202C428.5 35.3402 430.12 34.7202 432.08 34.7202C433.52 34.7202 434.98 35.3402 435.98 36.3602C436.98 37.4002 437.52 38.8602 437.52 40.4802C437.52 43.0002 436.32 45.1202 434.34 46.1402C433.32 46.6402 432.14 46.9002 430.78 46.9002C429.76 46.9002 428.82 46.7602 427.8 46.4602C427.8 45.4002 427.74 44.9602 427.42 43.8602C428.54 44.3402 429.78 44.6002 430.98 44.6002C433.38 44.6002 435.06 42.9002 435.06 40.4602C435.06 38.3202 433.74 36.9802 431.64 36.9802C429.98 36.9802 428.02 38.0002 425.82 40.0002L425.8 42.0802C425.8 44.9402 425.86 47.1802 425.96 48.0602H423.36C423.46 47.4602 423.48 46.8802 423.48 44.8602V43.0802C423.48 42.5202 423.48 42.3002 423.52 41.9002H423.48C423.34 42.1002 423.2 42.2602 422.6 42.8402C421.88 43.5402 421.32 44.1602 421.06 44.5602Z" fill="white"/>
<path d="M406.88 38.7002L406.92 38.7402C408.74 38.0202 409.62 37.8202 411.12 37.8202C414.54 37.8202 416.74 39.5802 416.74 42.3202C416.74 44.2202 415.8 45.7402 414.02 46.7402C412.72 47.4802 411.02 47.8802 409.18 47.8802C407.5 47.8802 406.1 47.5602 405.3 46.9602C404.54 46.4002 404.1 45.5602 404.1 44.6602C404.1 43.0002 405.54 41.8002 407.54 41.8002C408.94 41.8002 410.16 42.3802 411 43.4402C411.4 43.9402 411.62 44.3802 411.92 45.2402C413.58 44.6202 414.3 43.7602 414.3 42.3402C414.3 40.7802 412.76 39.7602 410.34 39.7602C407.42 39.7602 404.5 40.9402 402.1 43.1202L400.74 40.9602C401.44 40.6202 402.24 40.0802 403.56 39.0802C405.42 37.6602 408.02 35.4202 409.54 33.8802C409.58 33.8402 409.78 33.6402 409.9 33.5202L409.88 33.5002C409.12 33.6002 407.84 33.6802 404.22 33.8402C403.78 33.8602 403.64 33.8802 403.26 33.9402L403.16 31.5402C403.84 31.6202 404.42 31.6602 405.52 31.6602C407.22 31.6602 409.66 31.5602 411.6 31.4202C412.3 31.3602 412.52 31.3202 412.84 31.1602L414.08 32.9202C413.74 33.1002 413.6 33.2202 413.04 33.7402C412.04 34.6602 410.58 35.9602 409.9 36.5402C409.54 36.8402 408.1 37.9202 407.7 38.1802C407.2 38.5202 407.2 38.5202 406.88 38.7002ZM409.76 45.8202C409.4 44.4402 408.64 43.7202 407.52 43.7202C406.8 43.7202 406.34 44.0802 406.34 44.6402C406.34 45.4402 407.24 45.9002 408.72 45.9002C409.1 45.9002 409.2 45.9002 409.76 45.8202Z" fill="white"/>
<path d="M385.1 30.4199L387.66 30.6799C387.54 31.0599 387.54 31.0599 387.34 32.0199C387.24 32.4999 387.14 32.8999 386.92 33.7799C388.3 33.6399 389.34 33.4599 390.12 33.2199L390.18 35.5199C389.96 35.5399 389.92 35.5399 389.54 35.6199C388.82 35.7399 387.6 35.8799 386.36 35.9799C385.78 37.9799 385.06 39.8799 384.16 41.7799C383.7 42.7599 383.52 43.1199 382.76 44.5199C382.5 44.9999 382.5 44.9999 382.38 45.2399L380.08 43.9599C380.78 43.0399 381.34 42.1399 382.02 40.7599C382.8 39.1599 383.14 38.3399 383.9 36.0399C383 36.0599 382.88 36.0599 382.64 36.0599C382.38 36.0599 382.26 36.0599 381.84 36.0399L380.78 36.0199V33.7399C381.5 33.8799 382.26 33.9199 383.48 33.9199C383.72 33.9199 384.06 33.9199 384.5 33.8999C384.84 32.4799 385.06 31.2799 385.1 30.4199ZM397.9 35.6199L396.82 37.6799C395.08 36.5199 393.3 35.6599 391.06 34.8799L392.26 32.9399C394.62 33.8399 396.12 34.5399 397.9 35.6199ZM397.82 44.6399L396.72 46.8799C396 46.0199 394.84 45.0799 393.66 44.3999C393.68 44.5799 393.7 44.7199 393.7 44.7999C393.7 45.5399 393.36 46.3999 392.84 46.9199C392.14 47.6399 390.94 48.0399 389.52 48.0399C386.88 48.0399 385.16 46.7199 385.16 44.6799C385.16 42.6599 386.94 41.2399 389.48 41.2399C390.08 41.2399 390.5 41.2799 391.34 41.4199C391.28 40.4999 391.24 39.7199 391.24 39.1199C391.24 38.3399 391.28 37.7599 391.4 37.0999L393.72 37.2199C393.52 37.9599 393.48 38.4199 393.48 39.2399C393.48 40.0399 393.52 40.8399 393.66 41.9799C395.1 42.6199 395.3 42.7199 396.82 43.8199C397.12 44.0199 397.2 44.0999 397.52 44.3599C397.68 44.5199 397.68 44.5199 397.82 44.6399ZM391.42 43.5399C390.72 43.2999 390.24 43.2199 389.62 43.2199C388.32 43.2199 387.48 43.7599 387.48 44.5999C387.48 45.4199 388.2 45.8999 389.44 45.8999C390.8 45.8999 391.46 45.3399 391.46 44.2199C391.46 44.0199 391.42 43.5399 391.42 43.5399Z" fill="white"/>
<path d="M364.28 47.48L361.86 47.62C361.84 47.26 361.82 47.14 361.76 46.68C361.38 44.26 361.24 42.72 361.24 40.7C361.24 38.12 361.48 35.84 362.06 32.88C362.28 31.76 362.32 31.56 362.36 31.02L365 31.3C364.52 32.48 364.06 34.72 363.74 37.28C363.54 38.78 363.46 39.96 363.44 41.7C363.44 42.14 363.42 42.3 363.4 42.8C363.62 42.1 363.66 41.96 364.44 40.16L366.04 40.88C364.94 43.2 364.26 45.52 364.26 46.94C364.26 47.06 364.26 47.22 364.28 47.48ZM367.04 35.5L367.08 33.1C367.98 33.34 369.04 33.42 370.78 33.42C373 33.42 374.9 33.24 376.22 32.88L376.34 35.3C376.18 35.32 375.88 35.36 374.92 35.48C373.64 35.64 372.12 35.72 370.64 35.72C369.18 35.72 369.16 35.72 367.04 35.5ZM368.42 38.8L370.38 39.72C369.38 40.88 368.96 41.74 368.96 42.6C368.96 43.74 370.06 44.34 372.14 44.34C373.9 44.34 375.64 44.06 376.9 43.58L377.1 46.12C376.82 46.14 376.74 46.16 376.28 46.24C374.68 46.5 373.46 46.62 372.14 46.62C369.66 46.62 368.06 46.06 367.18 44.88C366.8 44.38 366.58 43.64 366.58 42.92C366.58 41.62 367.18 40.28 368.42 38.8Z" fill="white"/>
<path d="M354.68 33.7199H344.24C343.36 35.0399 342.48 36.0599 341.26 37.1999C340.74 36.5399 340.32 36.1199 339.7 35.6399C341.4 34.1399 342.5 32.7599 343.32 31.1199C343.58 30.6199 343.7 30.2799 343.76 29.8599L346.16 30.2199C345.98 30.5599 345.98 30.5599 345.46 31.6199H354.68C355.82 31.6199 356.52 31.5799 357.18 31.4799V33.8399C356.52 33.7599 355.74 33.7199 354.68 33.7199ZM352.44 46.4599L350.94 48.1199C349.74 46.9599 348.84 46.1399 347.46 45.0399C345.92 46.3599 344.56 47.2199 341.68 48.6399C341.28 47.9399 340.98 47.5599 340.18 46.7599C342.9 45.5999 344.26 44.8599 345.72 43.7199C344.5 42.8199 343.82 42.3799 342.24 41.4399L343.7 40.0999C345.16 40.9399 345.82 41.3599 347.24 42.3199C348.18 41.3199 348.74 40.4999 348.98 39.7599L351.12 40.7799C350.92 40.9999 350.7 41.2999 350.26 41.8999C349.78 42.5799 349.46 42.9999 348.96 43.5599C350.18 44.5199 351.18 45.3399 352.44 46.4599ZM352.9 39.5399H343.18C342.14 39.5399 341.48 39.5799 340.88 39.6599V37.5599C341.34 37.6399 341.82 37.6599 342.6 37.6599H352.76C354.08 37.6599 354.5 37.6399 355.1 37.5799C355.02 38.2199 355 38.7399 355 39.3999C355 41.5199 355.2 43.2599 355.56 44.5399C355.8 45.3199 355.92 45.5799 356.26 45.8999C356.54 45.5199 356.68 44.5799 356.74 42.9399C357.4 43.5599 357.8 43.8199 358.46 44.1399C358.14 47.2799 357.52 48.5599 356.3 48.5599C355.4 48.5599 354.38 47.5199 353.82 45.9999C353.2 44.3599 352.94 42.4799 352.9 39.5399ZM343.66 36.5599V34.6199C343.92 34.6599 344.56 34.6999 345.16 34.6999H353.54C354.54 34.6999 355.22 34.6599 355.66 34.5999V36.5799C355.06 36.4999 354.54 36.4799 353.54 36.4799H345.56C344.74 36.4799 344.2 36.4999 343.66 36.5599Z" fill="white"/>
<path d="M321.08 40.5801L321.3 38.2801C322.22 38.6401 322.78 38.7601 324.82 39.0401C324.9 38.3201 325.08 36.9801 325.18 36.2401C324 36.0801 323.68 36.0401 322.32 35.7401C322.04 35.6801 321.94 35.6601 321.64 35.6001L321.84 33.4001C322.68 33.7201 324.1 34.0001 325.46 34.1201C325.74 32.4401 325.86 31.4001 325.86 30.8001C325.86 30.7401 325.86 30.7001 325.84 30.6001L328.5 30.8401C328.28 31.4601 328.22 31.7601 327.86 34.2201C330.12 34.1801 331.28 34.0801 332.42 33.8001L332.34 36.1401C332.08 36.1601 331.98 36.1801 331.54 36.2201C330.1 36.3401 329.46 36.3801 328.74 36.3801C328.54 36.3801 328.36 36.3801 327.5 36.3601C327.3 37.8201 327.24 38.2201 327.12 39.1801C327.72 39.2001 327.88 39.2001 328.1 39.2001C329.52 39.2001 330.96 39.0601 331.92 38.8001L331.86 41.1001C331.66 41.1001 331.6 41.1001 331.26 41.1601C330.38 41.2601 329.2 41.3401 328.26 41.3401C327.94 41.3401 327.76 41.3401 326.98 41.3001C326.92 41.8401 326.88 42.3601 326.88 42.7201C326.88 43.7001 327.1 44.3201 327.62 44.7801C328.2 45.2801 329 45.5201 330.1 45.5201C332.64 45.5201 334.1 44.4001 334.1 42.4401C334.1 41.2801 333.5 40.1601 332.3 39.0601C333.42 38.9801 333.84 38.9001 334.78 38.5601C335.28 39.1401 335.5 39.4401 335.72 39.8201C336.24 40.7001 336.58 41.8401 336.58 42.7601C336.58 44.1801 335.88 45.5601 334.66 46.5001C333.52 47.3801 332.02 47.8201 330.14 47.8201C326.5 47.8201 324.52 46.0801 324.52 42.8601C324.52 42.3401 324.54 41.8401 324.62 41.1601C323.42 41.0001 322.64 40.8801 321.84 40.7001C321.42 40.6001 321.36 40.6001 321.08 40.5801Z" fill="white"/>
<path d="M308.04 45.3402L307.58 43.2002C307.48 43.4602 307.46 43.5602 307.36 43.8802C306.52 42.9402 305.96 42.1602 305.34 41.0602C305.44 42.4202 305.46 42.7002 305.46 43.3402V46.6402C305.46 47.6002 305.48 48.1202 305.58 48.7202H303.26C303.36 48.0802 303.4 47.4802 303.4 46.6002V44.0202C303.4 43.2202 303.44 42.2802 303.48 41.6202C302.58 43.8202 301.94 44.9402 300.88 46.1202C300.66 45.3402 300.3 44.6202 299.86 44.0602C300.7 43.2002 301.34 42.3202 302.02 41.1002C302.44 40.3602 302.52 40.1602 303.08 38.8402H302.04C301.16 38.8402 300.72 38.8602 300.24 38.9402V36.8202C300.7 36.9002 301.12 36.9202 302.04 36.9202H303.38V32.1802C303.38 31.2802 303.36 30.7002 303.28 30.2202H305.56C305.48 30.7402 305.46 31.2002 305.46 32.1602V36.9202H306.4C307.16 36.9202 307.5 36.9002 307.94 36.8402V38.9202C307.46 38.8602 307.06 38.8402 306.36 38.8402H305.64C306.38 40.1002 307.12 41.0002 308.22 41.9002C307.94 42.4002 307.86 42.5802 307.66 43.0202C308.12 43.0002 308.82 42.8802 309.5 42.7402L314.18 41.7002V32.5602C314.18 31.4002 314.16 30.8602 314.06 30.2402H316.48C316.38 30.9002 316.36 31.4402 316.36 32.5402V41.2202C317.18 41.0202 317.54 40.9202 318.06 40.7202L318.48 43.0002C317.94 43.0602 317.38 43.1602 316.56 43.3602L316.36 43.4002V46.3202C316.36 47.4402 316.38 48.0402 316.48 48.6802H314.06C314.16 48.0002 314.18 47.5202 314.18 46.3002V43.8802L309.94 44.8402C309.06 45.0402 308.48 45.2002 308.04 45.3402ZM300.1 32.0802L301.8 31.3202C302.44 33.1002 302.74 34.1202 303.02 35.6402L301.34 36.3602C301.02 34.5202 300.66 33.2802 300.1 32.0802ZM306.98 31.2802L308.66 32.0202C308.14 33.8602 307.88 34.5602 307.06 36.3602L305.6 35.6002C306.24 34.2602 306.58 33.2202 306.98 31.2802ZM308.88 33.1002L310.28 31.5602C312 32.7602 312.64 33.3202 313.78 34.5002L312.42 36.1802C310.94 34.6002 310.84 34.5202 308.88 33.1002ZM308.26 38.0402L309.66 36.5602C311.24 37.6402 312.1 38.3802 313.14 39.5002L311.78 41.1202C310.38 39.6202 309.7 39.0202 308.26 38.0402Z" fill="white"/>
<path d="M287.8 38.2002H282.8C281.88 38.2002 281.36 38.2202 280.74 38.3002V36.4002C281.3 36.4602 281.82 36.4802 282.8 36.4802H285.22C284.92 35.8402 284.7 35.3802 284.48 35.0002H282.32C281.34 35.0002 280.58 35.0402 279.94 35.1002V33.1002C280.56 33.1802 281.2 33.2202 282.22 33.2202H282.86C282.48 32.5202 282.24 32.2002 281.5 31.3602L283.5 30.6002C284.18 31.5402 284.46 32.0202 285.04 33.2202H286.18V31.8002C286.18 31.2002 286.14 30.6402 286.08 30.2402H288.26C288.22 30.6002 288.2 31.0402 288.2 31.7202V33.2202H289.62V31.7202C289.62 31.0802 289.6 30.6202 289.56 30.2402H291.74C291.68 30.6202 291.64 31.1602 291.64 31.8002V33.2202H292.9C293.6 32.2202 293.98 31.5202 294.34 30.5402L296.4 31.3002C295.92 32.1002 295.6 32.6002 295.16 33.2202H295.72C296.76 33.2202 297.38 33.1802 297.98 33.1002V35.1002C297.36 35.0402 296.58 35.0002 295.6 35.0002H293.6C293.22 35.8002 293.14 35.9802 292.86 36.4802H295.18C296.16 36.4802 296.66 36.4602 297.24 36.4002V38.3002C296.62 38.2202 296.12 38.2002 295.18 38.2002H289.96V39.1602H294.14C295.04 39.1602 295.64 39.1402 296.2 39.0602V40.8602C295.64 40.7802 295.02 40.7602 294.14 40.7602H289.96V41.7602H295.54C296.68 41.7602 297.38 41.7202 297.96 41.6402V43.6402C297.22 43.5602 296.48 43.5202 295.56 43.5202H291.54C292.22 44.1002 293.12 44.6402 294.26 45.1202C295.54 45.6602 296.58 45.9402 298.42 46.2602C297.86 47.0202 297.62 47.4602 297.28 48.3002C293.92 47.3802 291.66 46.1602 289.86 44.3402C289.92 45.1002 289.92 45.2802 289.92 45.7602V46.7402C289.92 47.5802 289.96 48.2002 290.06 48.7602H287.7C287.78 48.1802 287.82 47.5202 287.82 46.7202V45.7602C287.82 45.3002 287.82 45.2202 287.88 44.4002C286.94 45.3602 286.2 45.9402 285 46.6002C283.72 47.3002 282.5 47.8202 280.92 48.2802C280.6 47.5802 280.22 46.9802 279.7 46.3602C282.62 45.7402 284.64 44.8602 286.24 43.5202H282.52C281.58 43.5202 280.86 43.5602 280.1 43.6402V41.6402C280.74 41.7202 281.42 41.7602 282.5 41.7602H287.8V40.7602H283.84C282.96 40.7602 282.36 40.7802 281.8 40.8602V39.0602C282.36 39.1402 282.94 39.1602 283.84 39.1602H287.8V38.2002ZM287.34 36.4802H290.64C290.94 35.9002 291.1 35.5402 291.3 35.0002H286.74C287.02 35.6002 287.14 35.9002 287.34 36.4802Z" fill="white"/>
<path d="M276.22 40.3202L276.52 40.7002C276.3 41.0402 276.3 41.0402 275.9 41.6602C275.2 42.7602 274.2 43.9202 273.14 44.9002C274.76 45.8002 276.3 46.3002 278.5 46.6402C277.94 47.5402 277.82 47.8202 277.46 48.8002C274.9 48.2002 273.02 47.4002 271.4 46.2602C269.76 47.3602 268 48.1202 265.72 48.7202C265.3 47.7602 265.08 47.3602 264.58 46.7202C266.6 46.3802 268.06 45.8602 269.7 44.8802C268.88 44.0802 268.38 43.4202 267.46 42.0202L269.36 41.3202H268.18C267.48 41.3202 267.12 41.3402 266.68 41.4002V40.3602H265.88C265.92 39.9402 265.94 39.7202 265.94 39.0402V37.4002C265.94 36.8602 265.92 36.5602 265.88 36.2002C266.22 36.2402 266.56 36.2602 267.44 36.2602H267.58C267.28 35.3602 267.04 34.8002 266.56 33.9202L268.32 33.3802C268.8 34.2602 268.9 34.4802 269.34 35.6602L267.76 36.2602H271.2C270.86 35.0002 270.74 34.6802 270.26 33.6202L272.14 33.1202C272.66 34.3402 272.78 34.6602 273.04 35.7202L271.32 36.2602H273.82C274.66 34.9402 275.06 34.1202 275.5 32.6402L277.5 33.3602C276.94 34.5402 276.46 35.3802 275.88 36.2602H276.12C277.12 36.2602 277.58 36.2402 278.12 36.1802C278.06 36.6202 278.06 36.9002 278.06 37.6402V39.0602C278.06 39.5002 278.08 39.8602 278.14 40.3202H276.22ZM275.96 40.0002V38.0202H267.96V39.4602H274.22C274.84 39.4602 275.2 39.4402 275.46 39.3802L275.96 40.0002ZM273.48 41.3202H269.44C270.04 42.3402 270.56 42.9602 271.42 43.7002C272.38 42.9202 272.84 42.3602 273.48 41.3202ZM262.02 33.9202V32.3002C262.02 31.3602 261.98 30.8802 261.9 30.2602H264.24C264.14 30.8602 264.12 31.3802 264.12 32.2802V33.9202H264.74C265.14 33.9202 265.38 33.9002 265.74 33.8402V35.9202C265.32 35.8802 265.06 35.8602 264.7 35.8602H264.12V38.8802C264.52 38.7202 264.76 38.6402 265.48 38.3402L265.52 40.3202C264.52 40.7202 264.52 40.7202 264.12 40.8802V46.6002C264.12 47.6602 263.88 48.0802 263.18 48.3002C262.66 48.4802 262.14 48.5402 261.28 48.5402C261.1 48.5402 260.82 48.5202 260.4 48.5002C260.32 47.7002 260.22 47.2602 259.92 46.4602C260.54 46.5602 261.02 46.6002 261.42 46.6002C261.9 46.6002 262.02 46.5002 262.02 46.0202V41.6202L261.12 41.9202C260.94 41.9802 260.94 41.9802 260.68 42.0802C260.58 42.1002 260.3 42.2202 260.06 42.3202L259.62 40.1002C260.16 40.0402 260.68 39.9002 262.02 39.5402V35.8602H261.26C260.78 35.8602 260.38 35.8802 259.86 35.9402V33.8202C260.3 33.9002 260.68 33.9202 261.28 33.9202H262.02ZM276.08 30.1602L277.62 32.0402C277.34 32.1002 277.34 32.1002 276.58 32.2602C274.26 32.7202 270.16 33.1402 266.42 33.2802C266.26 32.5602 266.06 32.0402 265.7 31.4202C265.92 31.4202 266.08 31.4202 266.22 31.4202C269.74 31.4202 274.7 30.7802 276.08 30.1602Z" fill="white"/>
<path d="M249 37.6602C249.96 37.6602 250.74 38.4402 250.74 39.4002C250.74 40.3602 249.96 41.1402 249 41.1402C248.04 41.1402 247.26 40.3602 247.26 39.4002C247.26 38.4402 248.04 37.6602 249 37.6602ZM255.68 37.6602C256.64 37.6602 257.42 38.4402 257.42 39.4002C257.42 40.3602 256.64 41.1402 255.68 41.1402C254.72 41.1402 253.94 40.3602 253.94 39.4002C253.94 38.4402 254.72 37.6602 255.68 37.6602ZM242.34 37.6602C243.3 37.6602 244.08 38.4402 244.08 39.4002C244.08 40.3602 243.3 41.1402 242.34 41.1402C241.38 41.1402 240.6 40.3602 240.6 39.4002C240.6 38.4402 241.38 37.6602 242.34 37.6602Z" fill="white"/>
<path d="M224.02 33.0202L224.8 30.6602C227.02 31.4002 229.98 31.8202 233.14 31.8202C233.24 31.8202 233.46 31.8202 233.7 31.8202L233.36 34.2802C229.72 34.1202 226.96 33.7602 224.02 33.0202ZM222.26 39.7002L221.68 37.0402C222.2 37.0202 222.2 37.0202 224 36.7002C226.84 36.2002 228.58 36.0202 230.28 36.0202C231.9 36.0202 233.14 36.2802 234.06 36.8402C235.3 37.5802 236 38.9202 236 40.5002C236 42.7802 234.62 44.8602 232.2 46.2402C230.56 47.1802 229.16 47.6002 225.9 48.1202C225.7 47.0602 225.48 46.5602 224.86 45.6202C227.18 45.5202 229.34 44.9602 230.88 44.1002C232.46 43.2202 233.32 41.9602 233.32 40.5802C233.32 39.0802 232.26 38.3202 230.18 38.3202C227.92 38.3202 223.92 39.0202 222.26 39.7002Z" fill="white"/>
<path d="M203.52 33.9001L203.4 31.5401C204.04 31.6201 204.44 31.6401 205.36 31.6401C207.16 31.6401 209.74 31.5401 211.3 31.4201C212.26 31.3401 212.76 31.2601 213.18 31.1001L214.48 32.7601C214.06 33.0601 213.96 33.1401 213.32 33.7401C211.88 35.0601 209.62 36.8601 207.82 38.1001C208.82 37.9601 210.26 37.8201 212.68 37.6201C213.94 37.5201 214.86 37.4601 215.32 37.4201C216.04 37.3401 216.56 37.3001 216.74 37.2801C217.06 37.2601 217.12 37.2601 217.4 37.2001L217.54 39.5401C217.22 39.5401 217.22 39.5401 216.94 39.5401C214.66 39.5401 212.86 39.8601 211.38 40.5201C209.76 41.2601 208.66 42.4801 208.66 43.5601C208.66 44.8601 210.1 45.5801 212.68 45.5801C213.44 45.5801 214 45.5401 214.58 45.4001L214.68 47.9401C214.46 47.9201 214.22 47.9201 213.94 47.9201C213.8 47.9201 213.48 47.9201 212.92 47.9401C212.82 47.9401 212.72 47.9401 212.66 47.9401C211.44 47.9401 209.98 47.7201 208.94 47.3801C207.22 46.8401 206.12 45.4601 206.12 43.8801C206.12 42.9401 206.5 42.0401 207.2 41.2801C207.76 40.6801 208.26 40.3201 209.34 39.7601C208.48 39.9201 207.84 40.0201 206.88 40.1401C205.98 40.2601 205.24 40.3401 204.68 40.4201C203.88 40.5201 202.8 40.6601 201.46 40.8601C201.06 40.9201 200.92 40.9601 200.54 41.0601L200.3 38.6201C200.44 38.6401 200.56 38.6401 200.62 38.6401C201.02 38.6401 201.86 38.5801 202.34 38.5201C202.44 38.5001 202.7 38.4801 203.1 38.4201C203.58 38.3801 203.78 38.3401 204.24 38.2601C206 37.2001 208.88 34.8801 210.38 33.3401C208.84 33.5601 208.12 33.6201 204.8 33.7801C204.28 33.8001 203.94 33.8401 203.52 33.9001Z" fill="white"/>
<path d="M187.74 31.6001V31.3601C187.74 30.9001 187.7 30.5001 187.62 30.1001H190.08C190 30.5201 189.96 30.9001 189.96 31.3401V31.6001H195.86C196.76 31.6001 197.32 31.5601 197.96 31.4801V33.5001C197.3 33.4201 196.8 33.4001 195.88 33.4001H182.08C181.18 33.4001 180.68 33.4201 180.02 33.5001V31.4801C180.66 31.5601 181.26 31.6001 182.2 31.6001H187.74ZM183.06 37.2801V35.5601C183.06 34.9201 183.04 34.5801 183 34.1001C183.58 34.1601 184.06 34.1801 184.94 34.1801H193.26C194.06 34.1801 194.48 34.1601 195.04 34.1001C195 34.6201 194.98 34.9201 194.98 35.5601V37.2801C194.98 38.0601 195 38.2801 195.04 38.7601C194.5 38.7001 194.04 38.6801 193.16 38.6801H184.88C184.1 38.6801 183.58 38.7001 183 38.7601C183.04 38.3401 183.06 37.9601 183.06 37.2801ZM185.14 35.8001V37.0201H192.88V35.8001H185.14ZM180.58 46.5001V41.1801C180.58 40.5001 180.56 39.9801 180.5 39.3601C181.14 39.4201 181.72 39.4401 182.58 39.4401H195.54C196.5 39.4401 196.98 39.4201 197.5 39.3601C197.44 39.9801 197.42 40.4401 197.42 41.1601V46.2601C197.42 47.2601 197.32 47.6401 196.94 47.9801C196.54 48.3401 195.94 48.4601 194.54 48.4601C194.12 48.4601 194.02 48.4601 193.38 48.4201C193.06 48.4001 193.06 48.4001 192.74 48.4001C192.7 47.5001 192.6 47.0401 192.3 46.4001C193.4 46.5201 194.26 46.5801 194.82 46.5801C195.2 46.5801 195.3 46.4801 195.3 46.1601V41.1801H182.7V46.5001C182.7 47.5201 182.72 48.0001 182.82 48.7001H180.46C180.54 48.2801 180.58 47.4401 180.58 46.5001ZM193.26 43.1801V44.8801C193.26 45.4601 193.28 45.8601 193.32 46.2201C192.94 46.1801 192.2 46.1601 191.66 46.1601H186.62V47.1601H184.56C184.62 46.7801 184.64 46.3401 184.64 45.5401V43.2201C184.64 42.6401 184.62 42.3001 184.58 41.9001C185.04 41.9401 185.46 41.9601 186.2 41.9601H191.68C192.44 41.9601 192.72 41.9401 193.32 41.9001C193.28 42.2801 193.26 42.5801 193.26 43.1801ZM186.62 43.4801V44.5801H191.34V43.4801H186.62Z" fill="white"/>
<path d="M549.355 91.9601H546.675C546.715 91.6201 546.735 91.3801 546.735 91.1201L546.715 90.7401C546.715 89.6801 546.975 88.8601 547.535 88.1401C547.955 87.6401 548.115 87.5001 549.415 86.6401C550.715 85.7801 551.175 85.1601 551.175 84.2401C551.175 83.0201 550.115 82.2601 548.415 82.2601C547.375 82.2601 546.495 82.6801 546.015 83.4001C545.735 83.8201 545.615 84.1601 545.535 84.9201L542.575 84.5601C542.895 83.1001 543.295 82.3401 544.155 81.5401C545.175 80.6201 546.695 80.1401 548.575 80.1401C550.255 80.1401 551.595 80.5401 552.595 81.3401C553.535 82.0801 554.015 83.0201 554.015 84.1401C554.015 85.1001 553.795 85.8601 553.315 86.5001C552.855 87.1401 552.475 87.4601 550.855 88.5601C549.615 89.4001 549.295 89.8801 549.295 90.9401C549.295 91.2601 549.315 91.5801 549.355 91.9601ZM546.555 93.6201H549.455V96.3601H546.555V93.6201Z" fill="white"/>
<path d="M524.135 81.7002L525.295 79.6802C526.675 80.4402 530.495 81.5802 532.755 81.9002L531.935 84.2002C528.515 83.4202 526.415 82.7602 524.135 81.7002ZM522.535 83.4602L525.035 83.6002C524.735 84.7002 524.395 86.5602 524.135 88.5202C524.095 88.8002 524.095 88.8002 524.035 89.1002L524.075 89.1402C525.235 88.0202 527.715 87.2402 530.135 87.2402C533.535 87.2402 535.775 88.9202 535.775 91.4802C535.775 92.9402 534.995 94.4202 533.715 95.3402C532.415 96.2802 530.755 96.7002 528.435 96.7002C526.715 96.7002 525.615 96.5602 523.335 96.0002C523.315 94.7602 523.275 94.3602 523.035 93.4202C524.995 94.1002 526.715 94.4202 528.415 94.4202C531.235 94.4202 533.195 93.2402 533.195 91.5402C533.195 90.2002 531.935 89.4002 529.815 89.4002C528.035 89.4002 526.175 89.9402 524.835 90.8602C524.475 91.1202 524.355 91.2402 523.935 91.7202L521.415 91.6402C521.475 91.2802 521.475 91.2002 521.575 90.4402C521.735 89.2002 522.055 86.9802 522.415 84.6202C522.495 84.1402 522.515 83.9002 522.535 83.4602Z" fill="white"/>
<path d="M502.474 80.02L505.275 80.06C505.155 80.64 505.115 81.22 505.035 82.76C504.955 84.62 504.835 88.68 504.835 90.1C504.835 92 504.954 92.72 505.354 93.32C505.814 93.98 506.775 94.36 508.035 94.36C510.195 94.36 511.935 93.14 512.875 90.94C513.315 89.9 513.574 88.96 513.794 87.58C514.874 88.46 515.235 88.68 516.215 89.12C515.415 91.82 514.815 93.12 513.835 94.22C512.335 95.92 510.355 96.76 507.835 96.76C506.455 96.76 505.175 96.44 504.335 95.88C502.955 94.96 502.375 93.42 502.375 90.74C502.375 89.7 502.415 87.7 502.535 82.68C502.555 82.08 502.555 81.66 502.555 81.38C502.555 80.82 502.534 80.54 502.474 80.02Z" fill="white"/>
<path d="M484.455 79.5801L487.055 79.8601C486.995 80.0401 486.935 80.2601 486.895 80.4801C486.855 80.7401 486.835 80.8401 486.775 81.1601C486.715 81.5801 486.715 81.5801 486.435 83.0801C486.355 83.5201 486.355 83.5601 486.295 83.8201C486.875 83.7801 487.155 83.7601 487.535 83.7601C488.855 83.7601 489.835 84.1201 490.495 84.8201C491.175 85.5801 491.435 86.5401 491.435 88.3601C491.435 91.8001 490.855 94.5401 489.895 95.6401C489.335 96.3001 488.735 96.5401 487.675 96.5401C486.755 96.5401 485.935 96.3801 484.595 95.9601C484.615 95.5601 484.635 95.2801 484.635 95.0801C484.635 94.5601 484.595 94.1601 484.435 93.3801C485.515 93.8601 486.655 94.1601 487.355 94.1601C487.935 94.1601 488.255 93.7801 488.555 92.8001C488.875 91.7601 489.075 89.9401 489.075 88.2401C489.075 86.4001 488.615 85.8601 487.035 85.8601C486.635 85.8601 486.335 85.8801 485.875 85.9201C485.275 88.3601 485.095 88.9601 484.655 90.2601C483.955 92.2601 483.415 93.5401 482.255 95.8801C482.155 96.0801 482.155 96.0801 481.955 96.4801C481.895 96.6001 481.895 96.6201 481.795 96.8201L479.475 95.5401C480.075 94.7401 480.875 93.3001 481.555 91.7801C482.415 89.8201 482.695 88.9801 483.495 86.1201C482.475 86.2401 480.575 86.5801 479.915 86.7601L479.675 84.4001C480.415 84.4001 482.835 84.1601 483.935 84.0001C484.295 81.8401 484.455 80.6201 484.455 79.9601C484.455 79.8801 484.455 79.7401 484.455 79.5801ZM491.615 83.4201L493.675 82.4201C495.675 84.7601 496.935 87.1401 497.795 90.2201L495.515 91.3801C495.135 89.6601 494.675 88.3401 493.915 86.8401C493.195 85.3601 492.555 84.4401 491.615 83.4201Z" fill="white"/>
<path d="M469.955 83.1799C469.575 86.3199 468.875 89.0799 467.875 91.3399C466.735 93.9199 465.455 95.0999 463.815 95.0999C461.535 95.0999 459.895 92.7799 459.895 89.5599C459.895 87.3599 460.675 85.2999 462.095 83.7399C463.775 81.8999 466.135 80.9399 468.975 80.9399C473.775 80.9399 476.895 83.8599 476.895 88.3599C476.895 91.8199 475.095 94.5799 472.035 95.8199C471.075 96.2199 470.295 96.4199 468.895 96.6599C468.555 95.5999 468.315 95.1599 467.675 94.3199C469.515 94.0799 470.715 93.7599 471.655 93.2199C473.395 92.2599 474.435 90.3599 474.435 88.2199C474.435 86.2999 473.575 84.7399 471.975 83.7799C471.355 83.4199 470.835 83.2599 469.955 83.1799ZM467.515 83.1999C466.475 83.3199 465.755 83.5999 464.935 84.1799C463.255 85.3799 462.215 87.4399 462.215 89.5799C462.215 91.2199 462.915 92.5199 463.795 92.5199C464.455 92.5199 465.135 91.6799 465.855 89.9599C466.615 88.1599 467.275 85.4599 467.515 83.1999Z" fill="white"/>
<path d="M446.275 87.7002L446.315 87.7402C448.135 87.0202 449.015 86.8202 450.515 86.8202C453.935 86.8202 456.135 88.5802 456.135 91.3202C456.135 93.2202 455.195 94.7402 453.415 95.7402C452.115 96.4802 450.415 96.8802 448.575 96.8802C446.895 96.8802 445.495 96.5602 444.695 95.9602C443.935 95.4002 443.495 94.5602 443.495 93.6602C443.495 92.0002 444.935 90.8002 446.935 90.8002C448.335 90.8002 449.555 91.3802 450.395 92.4402C450.795 92.9402 451.015 93.3802 451.315 94.2402C452.975 93.6202 453.695 92.7602 453.695 91.3402C453.695 89.7802 452.155 88.7602 449.735 88.7602C446.815 88.7602 443.895 89.9402 441.495 92.1202L440.135 89.9602C440.835 89.6202 441.635 89.0802 442.955 88.0802C444.815 86.6602 447.415 84.4202 448.935 82.8802C448.975 82.8402 449.175 82.6402 449.295 82.5202L449.275 82.5002C448.515 82.6002 447.235 82.6802 443.615 82.8402C443.175 82.8602 443.035 82.8802 442.655 82.9402L442.555 80.5402C443.235 80.6202 443.815 80.6602 444.915 80.6602C446.615 80.6602 449.055 80.5602 450.995 80.4202C451.695 80.3602 451.915 80.3202 452.235 80.1602L453.475 81.9202C453.135 82.1002 452.995 82.2202 452.435 82.7402C451.435 83.6602 449.975 84.9602 449.295 85.5402C448.935 85.8402 447.495 86.9202 447.095 87.1802C446.595 87.5202 446.595 87.5202 446.275 87.7002ZM449.155 94.8202C448.795 93.4402 448.035 92.7202 446.915 92.7202C446.195 92.7202 445.735 93.0802 445.735 93.6402C445.735 94.4402 446.635 94.9002 448.115 94.9002C448.495 94.9002 448.595 94.9002 449.155 94.8202Z" fill="white"/>
<path d="M424.455 79.5801L427.055 79.8601C426.995 80.0401 426.935 80.2601 426.895 80.4801C426.855 80.7401 426.835 80.8401 426.775 81.1601C426.715 81.5801 426.715 81.5801 426.435 83.0801C426.355 83.5201 426.355 83.5601 426.295 83.8201C426.875 83.7801 427.155 83.7601 427.535 83.7601C428.855 83.7601 429.835 84.1201 430.495 84.8201C431.175 85.5801 431.435 86.5401 431.435 88.3601C431.435 91.8001 430.855 94.5401 429.895 95.6401C429.335 96.3001 428.735 96.5401 427.675 96.5401C426.755 96.5401 425.935 96.3801 424.595 95.9601C424.615 95.5601 424.635 95.2801 424.635 95.0801C424.635 94.5601 424.595 94.1601 424.435 93.3801C425.515 93.8601 426.655 94.1601 427.355 94.1601C427.935 94.1601 428.255 93.7801 428.555 92.8001C428.875 91.7601 429.075 89.9401 429.075 88.2401C429.075 86.4001 428.615 85.8601 427.035 85.8601C426.635 85.8601 426.335 85.8801 425.875 85.9201C425.275 88.3601 425.095 88.9601 424.655 90.2601C423.955 92.2601 423.415 93.5401 422.255 95.8801C422.155 96.0801 422.155 96.0801 421.955 96.4801C421.895 96.6001 421.895 96.6201 421.795 96.8201L419.475 95.5401C420.075 94.7401 420.875 93.3001 421.555 91.7801C422.415 89.8201 422.695 88.9801 423.495 86.1201C422.475 86.2401 420.575 86.5801 419.915 86.7601L419.675 84.4001C420.415 84.4001 422.835 84.1601 423.935 84.0001C424.295 81.8401 424.455 80.6201 424.455 79.9601C424.455 79.8801 424.455 79.7401 424.455 79.5801ZM431.615 83.4201L433.675 82.4201C435.675 84.7601 436.935 87.1401 437.795 90.2201L435.515 91.3801C435.135 89.6601 434.675 88.3401 433.915 86.8401C433.195 85.3601 432.555 84.4401 431.615 83.4201Z" fill="white"/>
<path d="M404.455 79.5801L407.055 79.8601C406.995 80.0401 406.935 80.2601 406.895 80.4801C406.855 80.7401 406.835 80.8401 406.775 81.1601C406.715 81.5801 406.715 81.5801 406.435 83.0801C406.355 83.5201 406.355 83.5601 406.295 83.8201C406.875 83.7801 407.155 83.7601 407.535 83.7601C408.855 83.7601 409.835 84.1201 410.495 84.8201C411.175 85.5801 411.435 86.5401 411.435 88.3601C411.435 91.8001 410.855 94.5401 409.895 95.6401C409.335 96.3001 408.735 96.5401 407.675 96.5401C406.755 96.5401 405.935 96.3801 404.595 95.9601C404.615 95.5601 404.635 95.2801 404.635 95.0801C404.635 94.5601 404.595 94.1601 404.435 93.3801C405.515 93.8601 406.655 94.1601 407.355 94.1601C407.935 94.1601 408.255 93.7801 408.555 92.8001C408.875 91.7601 409.075 89.9401 409.075 88.2401C409.075 86.4001 408.615 85.8601 407.035 85.8601C406.635 85.8601 406.335 85.8801 405.875 85.9201C405.275 88.3601 405.095 88.9601 404.655 90.2601C403.955 92.2601 403.415 93.5401 402.255 95.8801C402.155 96.0801 402.155 96.0801 401.955 96.4801C401.895 96.6001 401.895 96.6201 401.795 96.8201L399.475 95.5401C400.075 94.7401 400.875 93.3001 401.555 91.7801C402.415 89.8201 402.695 88.9801 403.495 86.1201C402.475 86.2401 400.575 86.5801 399.915 86.7601L399.675 84.4001C400.415 84.4001 402.835 84.1601 403.935 84.0001C404.295 81.8401 404.455 80.6201 404.455 79.9601C404.455 79.8801 404.455 79.7401 404.455 79.5801ZM411.615 83.4201L413.675 82.4201C415.675 84.7601 416.935 87.1401 417.795 90.2201L415.515 91.3801C415.135 89.6601 414.675 88.3401 413.915 86.8401C413.195 85.3601 412.555 84.4401 411.615 83.4201Z" fill="white"/>
<path d="M392.394 84.6401L394.414 83.6401C395.954 85.6801 396.914 87.6801 397.674 90.3601L395.394 91.5001C395.014 89.8001 394.574 88.5601 393.814 87.0001C393.214 85.8201 392.914 85.3001 392.394 84.6401ZM391.414 80.8801L392.974 80.1001C393.774 80.9601 394.234 81.5801 394.854 82.7201L393.294 83.5401C392.754 82.5201 392.134 81.6401 391.414 80.8801ZM397.114 81.5601L395.594 82.4201C395.074 81.4801 394.474 80.6401 393.754 79.8401L395.254 79.0601C396.034 79.8801 396.574 80.6001 397.114 81.5601ZM384.334 79.7201L386.934 79.9801C386.874 80.1801 386.814 80.4001 386.774 80.6001C386.734 80.8801 386.714 80.9801 386.654 81.2801C386.594 81.7201 386.594 81.7201 386.314 83.2201C386.234 83.6601 386.234 83.6801 386.174 83.9401C386.754 83.9201 387.034 83.9001 387.414 83.9001C388.734 83.9001 389.714 84.2601 390.374 84.9601C391.054 85.7201 391.314 86.6801 391.314 88.5001C391.314 91.9401 390.734 94.6801 389.774 95.7801C389.214 96.4401 388.614 96.6801 387.554 96.6801C386.634 96.6801 385.814 96.5201 384.474 96.0801C384.494 95.7001 384.514 95.4001 384.514 95.2001C384.514 94.6801 384.474 94.2801 384.314 93.5001C385.394 93.9801 386.534 94.3001 387.234 94.3001C387.814 94.3001 388.134 93.9201 388.434 92.9401C388.754 91.9001 388.954 90.0801 388.954 88.3801C388.954 86.5401 388.494 86.0001 386.914 86.0001C386.514 86.0001 386.214 86.0201 385.754 86.0601C385.154 88.5001 384.974 89.0801 384.534 90.4001C383.834 92.3801 383.294 93.6601 382.134 96.0201C382.034 96.2001 382.034 96.2001 381.834 96.6001C381.774 96.7201 381.774 96.7601 381.674 96.9401L379.354 95.6601C379.954 94.8801 380.754 93.4401 381.434 91.9001C382.294 89.9401 382.574 89.1201 383.374 86.2401C382.354 86.3601 380.454 86.7201 379.794 86.9001L379.554 84.5401C380.294 84.5401 382.714 84.3001 383.814 84.1201C384.174 81.9801 384.334 80.7401 384.334 80.0801C384.334 80.0001 384.334 79.8801 384.334 79.7201Z" fill="white"/>
<path d="M367.535 91.3599H362.935C362.655 94.0199 362.055 95.8999 360.895 97.6799C360.055 96.8799 359.775 96.6599 358.955 96.0999C359.675 95.0599 360.135 93.9999 360.415 92.7199C360.615 91.7799 360.755 90.7399 360.815 89.6599C360.915 87.9799 360.995 85.1399 360.995 82.7799C360.995 81.3399 360.975 80.6999 360.895 79.8799C361.595 79.9399 362.115 79.9599 363.195 79.9599H374.415C375.535 79.9599 376.095 79.9399 376.715 79.8799C376.655 80.5599 376.635 81.0599 376.635 82.1399V95.2799C376.635 96.9399 376.035 97.3599 373.755 97.3599C373.135 97.3599 372.115 97.3199 371.515 97.2799C371.415 96.5199 371.275 96.0399 370.955 95.1999C371.955 95.2999 372.835 95.3599 373.475 95.3599C374.295 95.3599 374.475 95.2799 374.475 94.8599V91.3599H369.675V94.6399C369.675 95.7999 369.695 96.4399 369.775 97.0199H367.415C367.495 96.4199 367.535 95.8399 367.535 94.6599V91.3599ZM367.535 89.3799V86.6399H363.115C363.115 87.2199 363.095 87.6199 363.095 87.8999C363.075 88.8399 363.075 88.9799 363.075 89.3799H367.535ZM369.675 89.3799H374.475V86.6399H369.675V89.3799ZM367.535 84.6799V82.0599H363.175V84.1199L363.155 84.6799H367.535ZM369.675 84.6799H374.475V82.0599H369.675V84.6799Z" fill="white"/>
<path d="M351.615 84.7402H355.675C356.555 84.7402 356.915 84.7202 357.375 84.6802C357.315 85.0202 357.315 85.0202 357.195 86.0402C356.955 87.7202 356.635 88.1002 355.275 88.1802C355.275 88.7202 355.275 89.0402 355.275 89.3402V92.7802C355.275 93.6602 355.295 94.3802 355.355 94.9002C354.935 94.8602 354.055 94.8402 353.235 94.8402H352.275C353.715 95.5802 355.315 95.9602 357.735 96.1402C357.195 96.7802 356.975 97.1002 356.495 97.9402C353.655 97.4802 352.255 96.9802 349.975 95.6602L351.075 94.8402H345.875L346.875 95.6602C344.715 96.9402 343.455 97.4002 340.555 97.9602C340.135 97.2002 339.955 96.9402 339.335 96.2202C341.735 95.9402 343.095 95.5802 344.675 94.8402H343.735C342.875 94.8402 342.075 94.8602 341.615 94.9002C341.655 94.5402 341.695 93.7602 341.695 92.9002V89.1802C341.155 89.3802 340.875 89.4602 340.095 89.7002L339.935 89.3402C339.675 88.7002 339.595 88.5402 339.135 87.9202C341.675 87.3802 342.655 87.0202 343.715 86.2002H341.495C341.075 86.2002 340.395 86.2202 339.835 86.2402C340.415 85.0602 340.815 83.8402 340.995 82.6002C341.395 82.6402 341.875 82.6602 342.675 82.6602H345.295C345.335 82.1802 345.355 82.1802 345.355 81.9602H342.115C341.215 81.9602 340.615 81.9802 340.195 82.0602V80.3202C340.715 80.4002 341.175 80.4202 342.115 80.4202H345.415C345.415 79.8802 345.395 79.5602 345.335 79.1602H347.475C347.435 79.4002 347.435 79.5002 347.395 80.4202H349.635C349.635 79.8002 349.615 79.5802 349.535 79.1602H351.715C351.635 79.6002 351.615 79.8402 351.615 80.4202H354.335C354.995 80.4202 355.835 80.3802 356.295 80.3202C356.235 80.7802 356.215 81.0802 356.215 81.8802V82.6802C356.215 83.4202 356.215 83.6202 356.275 84.1002C355.635 84.0602 355.035 84.0402 354.315 84.0402H351.615V84.7402ZM353.315 87.1802H353.675C353.615 86.9602 353.595 86.8802 353.475 86.6402C353.895 86.7602 354.335 86.8202 354.595 86.8202C354.995 86.8202 355.075 86.7402 355.135 86.2002H351.615V87.1802H353.315ZM349.635 87.1802V86.2002H346.195C345.915 86.6002 345.735 86.8002 345.295 87.1802H349.635ZM345.075 84.0402H342.715C342.615 84.4002 342.575 84.5002 342.475 84.7402H344.835C344.935 84.4602 344.975 84.3402 345.075 84.0402ZM349.635 84.0402H347.075C346.995 84.3402 346.975 84.4402 346.895 84.7402H349.635V84.0402ZM349.635 81.9602H347.335C347.335 82.2402 347.315 82.3402 347.295 82.6602H349.635V81.9602ZM351.615 81.9602V82.6602H354.135V81.9602H351.615ZM343.755 88.5602V89.2602H353.195V88.5602H343.755ZM343.755 90.5402V91.2802H353.195V90.5402H343.755ZM343.755 92.5602V93.3002H353.195V92.5602H343.755Z" fill="white"/>
<path d="M320.535 81.2998H323.275C323.175 82.0398 323.115 83.0198 323.115 84.3398C323.115 86.0798 323.275 88.4798 323.495 89.6998C323.835 91.7798 324.475 93.0598 325.115 93.0598C325.415 93.0598 325.695 92.7598 325.935 92.1998C326.415 91.1198 326.775 89.9198 326.995 88.5798C327.695 89.3798 328.015 89.6798 328.995 90.3998C327.955 94.2998 326.795 95.9198 325.095 95.9198C323.755 95.9198 322.675 94.9398 321.875 93.0198C321.055 91.0198 320.695 88.1198 320.615 82.5798C320.595 81.8798 320.595 81.7398 320.535 81.2998ZM330.635 83.1998L332.735 82.1998C335.255 85.2198 336.655 88.5598 337.235 92.9598L334.755 93.8998C334.635 92.0198 334.175 89.9398 333.475 88.1198C332.795 86.2998 331.835 84.6798 330.635 83.1998Z" fill="white"/>
<path d="M304.135 81.7002L305.295 79.6802C306.675 80.4402 310.495 81.5802 312.755 81.9002L311.935 84.2002C308.515 83.4202 306.415 82.7602 304.135 81.7002ZM302.535 83.4602L305.035 83.6002C304.735 84.7002 304.395 86.5602 304.135 88.5202C304.095 88.8002 304.095 88.8002 304.035 89.1002L304.075 89.1402C305.235 88.0202 307.715 87.2402 310.135 87.2402C313.535 87.2402 315.775 88.9202 315.775 91.4802C315.775 92.9402 314.995 94.4202 313.715 95.3402C312.415 96.2802 310.755 96.7002 308.435 96.7002C306.715 96.7002 305.615 96.5602 303.335 96.0002C303.315 94.7602 303.275 94.3602 303.035 93.4202C304.995 94.1002 306.715 94.4202 308.415 94.4202C311.235 94.4202 313.195 93.2402 313.195 91.5402C313.195 90.2002 311.935 89.4002 309.815 89.4002C308.035 89.4002 306.175 89.9402 304.835 90.8602C304.475 91.1202 304.355 91.2402 303.935 91.7202L301.415 91.6402C301.475 91.2802 301.475 91.2002 301.575 90.4402C301.735 89.2002 302.055 86.9802 302.415 84.6202C302.495 84.1402 302.515 83.9002 302.535 83.4602Z" fill="white"/>
<path d="M290.695 79.3999L292.995 81.1599C292.655 81.3999 292.275 81.7399 290.535 83.3599C289.515 84.2999 288.115 85.4199 285.775 87.1999C285.155 87.6599 285.015 87.8199 285.015 88.0399C285.015 88.3399 285.055 88.3799 286.815 89.6999C289.935 92.0599 290.515 92.5599 293.115 94.9199C293.315 95.1199 293.435 95.2199 293.695 95.4199L291.635 97.4999C291.115 96.7799 290.395 96.0199 289.035 94.7599C287.615 93.4399 286.955 92.8999 283.875 90.4999C282.555 89.4799 282.195 88.9399 282.195 88.0199C282.195 87.4199 282.415 86.8799 282.855 86.3999C283.115 86.1199 283.135 86.0999 284.615 84.9599C286.775 83.3199 287.895 82.3599 289.235 81.0599C290.135 80.1599 290.355 79.8999 290.695 79.3999Z" fill="white"/>
<path d="M265.62 86.5802H265.64C266.22 85.9402 266.64 85.5802 268.08 84.5002C269.82 83.1802 271.08 82.6202 272.3 82.6202C273.98 82.6202 275.1 83.6802 275.1 85.2802C275.1 85.9402 274.96 86.8002 274.6 88.3402C273.92 91.3602 273.76 92.2002 273.76 92.8402C273.76 93.4802 274.06 93.8402 274.58 93.8402C275.02 93.8402 275.56 93.4402 275.98 92.8202C276.46 92.1202 276.9 91.2602 277.14 90.5402C277.58 91.6002 277.82 92.0202 278.48 92.9402C277.88 93.9802 277.6 94.3602 277.08 94.9202C276.2 95.9002 275.22 96.3602 274.12 96.3602C273.46 96.3602 272.84 96.1602 272.4 95.8402C271.68 95.2802 271.36 94.5402 271.36 93.3202C271.36 92.1602 271.44 91.6202 272.18 88.3002C272.48 87.0202 272.6 86.2402 272.6 85.7802C272.6 85.3002 272.32 85.0402 271.78 85.0402C271.14 85.0402 270.28 85.4202 269.3 86.1202C267.84 87.2002 266.42 88.4602 265.66 89.3802C265.62 90.2802 265.62 90.8402 265.62 91.4002C265.62 91.5602 265.62 91.5602 265.64 93.7802C265.66 96.2802 265.66 96.3402 265.74 97.0802H263.16C263.28 96.2602 263.28 96.2602 263.3 93.9002C263.3 91.7602 263.3 91.7602 263.34 91.2202L263.3 91.2402C263.12 91.5202 262.9 91.7802 261.88 92.9202C261.44 93.4202 261.16 93.7602 260.96 94.0602L259.8 91.6802C260.26 91.3602 260.58 91.0602 261.1 90.5402C262.98 88.6802 262.98 88.6802 263.36 88.2602C263.38 87.3002 263.38 87.0802 263.42 86.3002C263.42 85.8402 263.44 85.8002 263.44 85.2602C261.32 85.4002 260.92 85.4402 260.38 85.5402L260.26 83.2802C260.62 83.3202 260.8 83.3202 261.08 83.3202C261.46 83.3202 262.56 83.2602 263.5 83.2002C263.52 82.9002 263.52 82.9002 263.54 82.4402C263.54 81.8802 263.56 81.2602 263.56 80.8002C263.56 80.2802 263.56 80.1402 263.5 79.6802L266.04 79.7202C265.98 79.9602 265.98 80.0002 265.96 80.4602C265.96 80.5602 265.94 80.8202 265.9 81.2202C265.88 81.6202 265.86 81.7802 265.82 83.0002C265.84 83.0002 265.92 82.9602 266.06 82.9202L266.8 83.7602C266.6 83.9202 266.52 84.0002 266.22 84.3602C266.12 84.4602 266.12 84.4602 265.94 84.7202C265.86 84.8402 265.82 84.8802 265.7 85.0402L265.66 86.2202C265.66 86.2202 265.64 86.3402 265.62 86.5802Z" fill="white"/>
<path d="M244.78 80.1001L247.38 79.7001C247.46 81.0401 248.06 83.9201 248.7 85.9601C250 85.4601 250 85.4601 253.88 84.2001C254.24 84.0801 254.34 84.0401 254.64 83.9001L255.5 86.4201C253.76 86.7401 251.14 87.5001 248.9 88.3401C245.98 89.4201 244.52 90.6801 244.52 92.1201C244.52 93.5801 245.88 94.2001 249.1 94.2001C251.6 94.2001 254.06 93.9001 255.56 93.4001L255.78 96.1201C255.34 96.1401 255.24 96.1401 254.16 96.2601C252 96.4801 250.88 96.5601 249.48 96.5601C246.7 96.5601 244.96 96.2201 243.68 95.4601C242.58 94.8001 241.94 93.5801 241.94 92.1201C241.94 90.8001 242.58 89.5201 243.72 88.5401C244.5 87.8801 245.14 87.4801 246.44 86.8401C245.94 85.2201 245.6 83.8801 245.1 81.4001C244.9 80.4401 244.88 80.4001 244.78 80.1001ZM251.46 80.8201L253 80.1001C253.8 80.9801 254.16 81.5001 254.8 82.7801L253.26 83.5401C252.68 82.3801 252.18 81.6401 251.46 80.8201ZM257.02 81.6401L255.52 82.4401C254.96 81.3801 254.48 80.6601 253.76 79.8001L255.22 79.1001C256 79.9401 256.46 80.6001 257.02 81.6401Z" fill="white"/>
<path d="M224.28 96.48L221.86 96.62C221.84 96.26 221.82 96.14 221.76 95.68C221.38 93.26 221.24 91.72 221.24 89.7C221.24 87.12 221.48 84.84 222.06 81.88C222.28 80.76 222.32 80.56 222.36 80.02L225 80.3C224.52 81.48 224.06 83.72 223.74 86.28C223.54 87.78 223.46 88.96 223.44 90.7C223.44 91.14 223.42 91.3 223.4 91.8C223.62 91.1 223.66 90.96 224.44 89.16L226.04 89.88C224.94 92.2 224.26 94.52 224.26 95.94C224.26 96.06 224.26 96.22 224.28 96.48ZM227.04 84.5L227.08 82.1C227.98 82.34 229.04 82.42 230.78 82.42C233 82.42 234.9 82.24 236.22 81.88L236.34 84.3C236.18 84.32 235.88 84.36 234.92 84.48C233.64 84.64 232.12 84.72 230.64 84.72C229.18 84.72 229.16 84.72 227.04 84.5ZM228.42 87.8L230.38 88.72C229.38 89.88 228.96 90.74 228.96 91.6C228.96 92.74 230.06 93.34 232.14 93.34C233.9 93.34 235.64 93.06 236.9 92.58L237.1 95.12C236.82 95.14 236.74 95.16 236.28 95.24C234.68 95.5 233.46 95.62 232.14 95.62C229.66 95.62 228.06 95.06 227.18 93.88C226.8 93.38 226.58 92.64 226.58 91.92C226.58 90.62 227.18 89.28 228.42 87.8Z" fill="white"/>
<path d="M204.28 96.48L201.86 96.62C201.84 96.26 201.82 96.14 201.76 95.68C201.38 93.26 201.24 91.72 201.24 89.7C201.24 87.12 201.48 84.84 202.06 81.88C202.28 80.76 202.32 80.56 202.36 80.02L205 80.3C204.52 81.48 204.06 83.72 203.74 86.28C203.54 87.78 203.46 88.96 203.44 90.7C203.44 91.14 203.42 91.3 203.4 91.8C203.62 91.1 203.66 90.96 204.44 89.16L206.04 89.88C204.94 92.2 204.26 94.52 204.26 95.94C204.26 96.06 204.26 96.22 204.28 96.48ZM207.04 84.5L207.08 82.1C207.98 82.34 209.04 82.42 210.78 82.42C213 82.42 214.9 82.24 216.22 81.88L216.34 84.3C216.18 84.32 215.88 84.36 214.92 84.48C213.64 84.64 212.12 84.72 210.64 84.72C209.18 84.72 209.16 84.72 207.04 84.5ZM208.42 87.8L210.38 88.72C209.38 89.88 208.96 90.74 208.96 91.6C208.96 92.74 210.06 93.34 212.14 93.34C213.9 93.34 215.64 93.06 216.9 92.58L217.1 95.12C216.82 95.14 216.74 95.16 216.28 95.24C214.68 95.5 213.46 95.62 212.14 95.62C209.66 95.62 208.06 95.06 207.18 93.88C206.8 93.38 206.58 92.64 206.58 91.92C206.58 90.62 207.18 89.28 208.42 87.8Z" fill="white"/>
<path d="M185.1 79.4199L187.66 79.6799C187.54 80.0599 187.54 80.0599 187.34 81.0199C187.24 81.4999 187.14 81.8999 186.92 82.7799C188.3 82.6399 189.34 82.4599 190.12 82.2199L190.18 84.5199C189.96 84.5399 189.92 84.5399 189.54 84.6199C188.82 84.7399 187.6 84.8799 186.36 84.9799C185.78 86.9799 185.06 88.8799 184.16 90.7799C183.7 91.7599 183.52 92.1199 182.76 93.5199C182.5 93.9999 182.5 93.9999 182.38 94.2399L180.08 92.9599C180.78 92.0399 181.34 91.1399 182.02 89.7599C182.8 88.1599 183.14 87.3399 183.9 85.0399C183 85.0599 182.88 85.0599 182.64 85.0599C182.38 85.0599 182.26 85.0599 181.84 85.0399L180.78 85.0199V82.7399C181.5 82.8799 182.26 82.9199 183.48 82.9199C183.72 82.9199 184.06 82.9199 184.5 82.8999C184.84 81.4799 185.06 80.2799 185.1 79.4199ZM197.9 84.6199L196.82 86.6799C195.08 85.5199 193.3 84.6599 191.06 83.8799L192.26 81.9399C194.62 82.8399 196.12 83.5399 197.9 84.6199ZM197.82 93.6399L196.72 95.8799C196 95.0199 194.84 94.0799 193.66 93.3999C193.68 93.5799 193.7 93.7199 193.7 93.7999C193.7 94.5399 193.36 95.3999 192.84 95.9199C192.14 96.6399 190.94 97.0399 189.52 97.0399C186.88 97.0399 185.16 95.7199 185.16 93.6799C185.16 91.6599 186.94 90.2399 189.48 90.2399C190.08 90.2399 190.5 90.2799 191.34 90.4199C191.28 89.4999 191.24 88.7199 191.24 88.1199C191.24 87.3399 191.28 86.7599 191.4 86.0999L193.72 86.2199C193.52 86.9599 193.48 87.4199 193.48 88.2399C193.48 89.0399 193.52 89.8399 193.66 90.9799C195.1 91.6199 195.3 91.7199 196.82 92.8199C197.12 93.0199 197.2 93.0999 197.52 93.3599C197.68 93.5199 197.68 93.5199 197.82 93.6399ZM191.42 92.5399C190.72 92.2999 190.24 92.2199 189.62 92.2199C188.32 92.2199 187.48 92.7599 187.48 93.5999C187.48 94.4199 188.2 94.8999 189.44 94.8999C190.8 94.8999 191.46 94.3399 191.46 93.2199C191.46 93.0199 191.42 92.5399 191.42 92.5399Z" fill="white"/>
<g clip-path="url(#clip0_350_1163)">
<path d="M64 116C93.8234 116 118 91.8234 118 62C118 32.1766 93.8234 8 64 8C34.1766 8 10 32.1766 10 62C10 91.8234 34.1766 116 64 116Z" fill="white"/>
<path d="M76.4739 36.6453C75.9991 37.6823 74.6604 38.086 73.4831 37.5469C72.3057 37.0078 71.7367 35.7307 72.2114 34.6937C72.6864 33.6564 74.025 33.2526 75.2024 33.7917C76.3798 34.3308 76.9488 35.608 76.4739 36.6453Z" fill="#E50044"/>
<path d="M76.2098 22.121C76.5174 21.4493 77.2377 19.8762 81.1024 21.3728C82.5999 21.953 83.598 22.8211 83.9123 23.8173C84.1013 24.4166 84.0186 25.0259 83.6791 25.5326C83.3611 26.0078 81.7128 26.1067 80.6221 26.172C78.5313 26.2975 75.9296 26.4535 74.8563 28.7977L74.2466 30.1293C73.7413 31.2331 74.2264 32.5376 75.3301 33.043C76.4339 33.5483 77.7384 33.0632 78.2437 31.9594L78.8534 30.6278C78.7919 30.7621 78.6952 30.8414 78.6659 30.8585C78.9777 30.6747 80.1256 30.6059 80.8852 30.5603C82.9595 30.436 85.8004 30.2656 87.3318 27.979C88.4132 26.3643 88.6949 24.3653 88.1048 22.4946C87.3807 20.1997 85.4576 18.3453 82.69 17.2736C75.7169 14.5731 73.04 18.484 72.2127 20.2909C71.7074 21.3947 72.1925 22.6992 73.2962 23.2046C74.3999 23.7099 75.7045 23.2248 76.2098 22.121Z" fill="#E50044"/>
<path d="M95.518 93.0865L85.1357 89.8984L81.6895 95.0685L88.2375 97.4806" fill="#C59149"/>
<path d="M70.2707 93.7001C70.1559 94.9632 71.2951 96.5399 72.0705 97.5718H100.697C101.472 96.6691 101.837 95.1389 101.737 93.9581C100.662 81.2977 94.0227 71.5513 85.9927 71.5513C78.0175 71.5513 71.4132 81.1654 70.2707 93.7001Z" fill="#C59149"/>
<path d="M69.3956 93.6204C69.2633 95.0743 70.2654 96.6328 71.368 98.0998C71.5341 98.321 71.7946 98.4512 72.071 98.4512H100.697C100.954 98.4512 101.197 98.3391 101.364 98.1448C102.377 96.966 102.722 95.1551 102.614 93.8839C101.49 80.651 94.345 70.6719 85.9932 70.6719C77.5879 70.6719 70.6075 80.3234 69.3956 93.6204ZM85.9932 72.4307C93.424 72.4307 99.816 81.7173 100.862 94.0324C100.95 95.0698 100.592 96.345 100.031 96.9988C100.198 96.8044 100.441 96.6924 100.697 96.6924H72.071C72.3474 96.6924 72.6079 96.8226 72.774 97.0437C72.2603 96.3602 71.0578 94.7598 71.1469 93.7799C72.2562 81.6088 78.6387 72.4307 85.9932 72.4307Z" fill="#5D3B18"/>
<path d="M81.2298 72.4605C79.9076 74.7701 79.2617 97.5718 79.2617 97.5718H92.22C92.22 97.5718 92.2545 74.4077 90.6794 72.043C89.7606 74.338 82.2703 74.284 81.2298 72.4605Z" fill="white"/>
<path d="M80.4671 72.0235C79.1043 74.4038 78.4922 93.7024 78.3832 97.5467C78.3766 97.784 78.4662 98.0142 78.6315 98.1843C78.7971 98.3545 79.0245 98.4509 79.2621 98.4509H92.2203C92.7054 98.4509 93.0987 98.0576 93.0995 97.573C93.1053 93.66 93.0515 74.0171 91.4115 71.5556C91.2306 71.2834 90.9138 71.1345 90.5889 71.1683C90.2643 71.2017 89.9848 71.4127 89.8635 71.7161C89.6699 72.1997 88.4686 72.7591 86.5471 72.8913C84.1633 73.0559 82.2583 72.488 81.9937 72.0246C81.8375 71.7504 81.5462 71.5813 81.2307 71.5808C80.9154 71.5808 80.6238 71.7494 80.4671 72.0235ZM89.948 72.5304C90.8413 73.8713 91.3578 86.315 91.3411 97.5699C91.3418 97.0853 91.7351 96.692 92.2203 96.692H79.2621C79.4996 96.692 79.727 96.7885 79.8926 96.9586C80.0579 97.1287 80.1475 97.3589 80.141 97.5962C80.4512 86.6492 81.2057 74.2726 81.9932 72.8969C81.8365 73.171 81.5449 73.3396 81.2296 73.3396C80.9141 73.3392 80.6228 73.17 80.4666 72.8959C81.4101 74.5498 84.8087 74.7739 86.668 74.6457C87.8792 74.5624 90.7739 74.1731 91.4961 72.3694C91.3747 72.6728 91.0952 72.8838 90.7706 72.9171C90.4457 72.9509 90.129 72.802 89.948 72.5304Z" fill="#5D3B18"/>
<path d="M79.7514 87.1121C77.1808 87.0445 73.2786 88.5145 74.6381 91.8889C76.4934 92.361 76.8923 91.4285 78.1493 91.4038C78.7142 91.3937 80.0697 91.3518 80.5983 91.4063C80.9244 91.4386 81.9351 92.2645 82.261 91.8778C83.2417 90.7116 84.636 88.513 84.639 88.5085C84.3616 88.927 82.3218 87.1798 79.7514 87.1121Z" fill="#F9D2BD"/>
<path d="M79.7745 86.2335C77.8626 86.183 75.2728 86.8958 74.1039 88.579C73.5993 89.3049 73.1409 90.5262 73.8224 92.2178C73.9272 92.4778 74.1496 92.6722 74.4212 92.7414C75.8395 93.1024 76.6346 92.7797 77.2735 92.5208C77.6044 92.3865 77.8435 92.2896 78.1666 92.283C78.1648 92.283 78.4849 92.2764 78.4849 92.2764C79.0551 92.2638 80.1165 92.2406 80.508 92.281C80.4439 92.2749 80.4037 92.2602 80.402 92.2598C80.4509 92.2779 80.5943 92.3547 80.6893 92.4057C81.237 92.7 82.2568 93.2472 82.9333 92.4445C83.9011 91.2935 85.2298 89.2176 85.3779 88.9849C85.6372 88.578 85.5213 88.0362 85.1167 87.7733C84.7121 87.5107 84.1727 87.6208 83.9061 88.0232C84.1082 87.7182 84.4412 87.6733 84.5621 87.7001C84.4561 87.6768 84.1302 87.5238 83.8682 87.4007C82.9153 86.9539 81.4753 86.2784 79.7745 86.2335ZM83.9074 88.0211C83.9038 88.0261 83.898 88.0352 83.8948 88.0403C83.3798 88.849 82.3143 90.4484 81.5879 91.3122C81.7484 91.1218 81.9728 91.0895 82.0506 91.1042C81.9466 91.085 81.6699 90.936 81.5212 90.8563C81.2249 90.6973 80.9687 90.56 80.6847 90.5317C80.2261 90.4842 79.3641 90.4983 78.4465 90.5185L78.1335 90.5251C77.4838 90.5377 77.0009 90.7336 76.6127 90.8911C76.0907 91.1027 75.7136 91.2556 74.8548 91.037C75.1264 91.1062 75.3488 91.3006 75.4535 91.5605C75.1373 90.776 75.1683 90.1288 75.548 89.5821C76.3015 88.4972 78.264 87.953 79.7281 87.9913C81.0613 88.0267 82.252 88.585 83.1214 88.9929C83.9263 89.3706 84.8388 89.7986 85.3717 88.9945C85.6397 88.59 85.5297 88.0453 85.1255 87.7768C84.7217 87.5082 84.1765 87.6172 83.9074 88.0211Z" fill="#5D3B18"/>
<path d="M91.1544 89.6445C91.136 89.021 94.0391 86.0616 95.86 86.4418C97.6802 86.8224 99.929 88.9377 98.4488 89.4809C96.9692 90.0266 95.9945 90.8036 95.9945 90.8036L91.1544 89.6445Z" fill="#F9D2BD"/>
<path d="M92.0336 89.6188C92.0372 89.7369 92.0084 89.8086 92.0084 89.8086C92.2543 89.2053 94.5404 87.0643 95.6806 87.3026C96.7938 87.5353 97.9693 88.5531 98.0524 88.9352C98.0332 88.8464 98.1029 88.6868 98.1811 88.6404C98.1808 88.6404 98.1705 88.6465 98.1462 88.6556C96.5504 89.2442 95.491 90.0807 95.4469 90.1161C95.6586 89.9474 95.9363 89.8854 96.1996 89.9485L91.3594 88.7894C91.7456 88.8817 92.0218 89.2215 92.0336 89.6188ZM96.5429 91.4912C96.5419 91.4922 96.5424 91.4917 96.5413 91.4922C96.5502 91.4857 97.4382 90.791 98.7533 90.3059C99.4611 90.0464 99.8546 89.4805 99.8044 88.7934C99.705 87.4293 97.6639 85.9208 96.0403 85.5811C94.575 85.2751 92.9638 86.3959 92.1336 87.091C91.5662 87.5666 90.2493 88.7696 90.2758 89.6703C90.2877 90.0676 90.5638 90.4074 90.95 90.4997L95.7902 91.6589C96.0534 91.7219 96.3311 91.6598 96.5429 91.4912Z" fill="#5D3B18"/>
<path d="M74.6386 91.8889L89.3774 88.8301L92.983 94.2364L80.7898 98.7335C80.7898 98.7335 69.4324 101.816 70.4014 92.3715" fill="#C59149"/>
<path d="M74.8167 92.75L89.5556 89.6912C89.2045 89.7644 88.8442 89.6165 88.6453 89.3181L92.2509 94.7244C92.1015 94.5008 92.0631 94.2206 92.1464 93.9647C92.2297 93.7087 92.4256 93.5053 92.6782 93.4119L80.4851 97.909C80.5093 97.8999 80.5341 97.8923 80.559 97.8853C80.5063 97.8994 75.1964 99.2973 72.6245 97.1093C71.5103 96.1612 71.0564 94.5977 71.2755 92.4618C71.325 91.9786 70.9736 91.547 70.4907 91.4975C70.0076 91.4476 69.5757 91.7989 69.5262 92.282C69.2443 95.0309 69.9046 97.1068 71.4888 98.4517C74.7685 101.237 80.7657 99.6512 81.0194 99.5825C81.0444 99.5755 81.0691 99.5679 81.0934 99.5588L93.2865 95.0617C93.5392 94.9688 93.7351 94.7649 93.8184 94.5089C93.9017 94.2529 93.8634 93.9727 93.7139 93.7491L90.1083 88.3428C89.9094 88.0444 89.5492 87.8965 89.1981 87.9697L74.4593 91.0285C73.984 91.127 73.6786 91.5925 73.777 92.068C73.8757 92.5435 74.3412 92.849 74.8167 92.75Z" fill="#5D3B18"/>
<path d="M96.0404 91.252L85.1798 87.916L81.5742 93.3249L92.5565 98.5459C92.5565 98.5459 102.36 102.227 101.634 93.6318" fill="#C59149"/>
<path d="M96.299 90.4114L85.4383 87.0754C85.0665 86.9613 84.6641 87.1047 84.4486 87.4284L80.843 92.8372C80.7014 93.0497 80.659 93.3128 80.7272 93.5591C80.7951 93.8049 80.9664 94.0094 81.1969 94.1189L92.1792 99.34C92.2017 99.3506 92.2246 99.3602 92.2479 99.3688C92.467 99.4516 97.6534 101.36 100.617 99.1169C102.09 98.0017 102.727 96.1312 102.51 93.5576C102.469 93.074 102.044 92.715 101.56 92.7559C101.076 92.7968 100.717 93.2219 100.758 93.706C100.921 95.637 100.517 96.9855 99.5577 97.7135C97.7406 99.0917 94.1105 98.1875 92.865 97.7225C92.8888 97.7316 92.9115 97.7412 92.9345 97.7518L81.9521 92.5308C82.1826 92.6403 82.354 92.8448 82.4219 93.0906C82.4901 93.337 82.4476 93.6 82.306 93.8126L85.9116 88.4037C85.696 88.7273 85.2937 88.8707 84.9219 88.7566L95.7825 92.0925C96.2467 92.2349 96.7387 91.9744 96.8813 91.51C97.0239 91.046 96.7631 90.5543 96.299 90.4114Z" fill="#5D3B18"/>
<path d="M109.424 66.4207C110.256 62.4568 109.672 57.111 107.845 50.5001C105.801 43.1012 103.359 39.1034 95.4764 36.8392C91.2057 35.6134 86.721 34.8642 79.7723 39.4456C72.8242 44.0266 68.6971 49.2648 67.4002 52.8486C64.1801 61.7449 71.6123 68.1382 74.4541 68.6789C82.9803 71.7604 91.287 72.6333 92.574 73.747C94.2266 75.1792 98.0841 76.4893 101.01 75.5165C104.453 74.3705 108.116 72.6586 109.424 66.4207Z" fill="#965D2B"/>
<path d="M110.284 66.6017C111.133 62.5574 110.612 57.2142 108.693 50.266C106.593 42.6689 104.01 38.3758 95.7189 35.9942C91.3793 34.7487 86.5364 33.9327 79.2881 38.7118C71.8248 43.6322 67.8265 49.0862 66.5732 52.5497C64.8316 57.3611 66.0987 61.2372 67.4681 63.6418C69.3087 66.8732 72.382 69.1799 74.2895 69.5429C74.2438 69.5343 74.1989 69.5217 74.1549 69.506C78.8452 71.2013 83.4925 72.2402 86.8858 72.9995C89.1931 73.5155 91.5787 74.0491 91.9985 74.4121C93.7559 75.9351 97.962 77.4567 101.287 76.3511C104.904 75.1471 108.879 73.3019 110.284 66.6017ZM100.733 74.6821C98.0627 75.5702 94.554 74.3 93.1496 73.0828C92.4266 72.4573 90.7309 72.0575 87.2694 71.2836C83.9221 70.5349 79.3379 69.5096 74.7527 67.8521C74.7087 67.8365 74.6638 67.8239 74.6181 67.8153C73.3255 67.5694 70.6526 65.6798 68.9962 62.7715C67.8099 60.6885 66.7136 57.3283 68.2266 53.1482C69.3839 49.9497 73.1518 44.8635 80.2559 40.1798C86.8863 35.8082 91.1241 36.5048 95.2336 37.6844C102.769 39.8487 105.03 43.6168 106.997 50.7345C108.815 57.3126 109.342 62.5296 108.563 66.2402C107.349 72.0292 104.029 73.5851 100.733 74.6821Z" fill="#5D3B18"/>
<path d="M92.0634 51.785C97.338 53.4172 100.81 55.3103 104.605 58.3848C104.488 59.1461 104.329 59.9114 104.126 60.6767C106.815 61.7849 106.428 64.1672 105.796 65.3475C105.288 66.2946 103.739 68.7673 100.581 68.0267C96.3758 73.6158 89.7391 76.3904 83.6056 74.4806C77.4728 72.5713 73.584 66.5213 73.2937 59.5328C70.509 58.6927 70.0852 56.5764 70.3987 54.7454C70.6862 53.0678 71.9347 50.9257 74.5187 51.5493C74.8537 50.6017 75.2477 49.695 75.6935 48.8327C79.0246 48.5762 83.5258 49.5233 89.02 50.841C90.5408 48.7292 91.2648 48.1426 91.8655 47.5176C92.1833 49.1053 91.961 50.2543 92.0634 51.785Z" fill="#F9D2BD"/>
<path d="M91.8041 52.6254C96.8045 54.1725 100.238 55.9791 104.052 59.0682C103.809 58.8718 103.689 58.5608 103.736 58.2519C103.624 58.9864 103.469 59.7265 103.277 60.452C103.164 60.878 103.384 61.3218 103.792 61.4899C104.56 61.8065 105.054 62.2588 105.26 62.8348C105.522 63.5648 105.309 64.3973 105.022 64.9329C104 66.8382 102.574 67.5914 100.783 67.1709C100.443 67.0916 100.089 67.2199 99.8795 67.4985C95.758 72.9756 89.473 75.3866 83.8675 73.6414C78.2628 71.8967 74.4573 66.3445 74.1728 59.4968C74.1574 59.1227 73.9068 58.7996 73.5483 58.6916C71.6721 58.1252 70.9254 56.8833 71.266 54.8942C71.398 54.1243 71.8061 53.1255 72.5558 52.632C73.0433 52.3112 73.6183 52.2367 74.3132 52.4043C74.7511 52.5101 75.1981 52.2675 75.3484 51.8427C75.6644 50.9484 76.0435 50.0717 76.4751 49.2369C76.3353 49.5076 76.0652 49.6863 75.7616 49.7097C79.0965 49.453 83.8395 50.5028 88.8157 51.6963C89.1628 51.7796 89.5255 51.6448 89.7343 51.3553C90.9396 49.6815 91.6088 49.0173 92.1464 48.484C92.2691 48.3621 92.3852 48.247 92.5001 48.1273C92.2731 48.3633 91.9341 48.4537 91.6198 48.3621C91.3056 48.2702 91.0683 48.0114 91.0042 47.6906C91.1837 48.5885 91.1728 49.3526 91.1612 50.1613C91.1536 50.6876 91.1458 51.2318 91.1869 51.8442C91.2112 52.2072 91.4565 52.5176 91.8041 52.6254ZM91.2324 46.9086C91.1317 47.0134 91.0229 47.1214 90.9075 47.2357C90.3547 47.7843 89.5977 48.5357 88.307 50.3274C88.5158 50.0379 88.8785 49.9031 89.2256 49.9863C84.1078 48.7588 79.2164 47.68 75.6267 47.9564C75.3228 47.9799 75.053 48.1586 74.9132 48.4292C74.4447 49.3354 74.0332 50.2868 73.6904 51.2566C73.8406 50.8317 74.2877 50.5892 74.7256 50.6949C73.5645 50.4148 72.4798 50.5768 71.589 51.1632C70.5531 51.845 69.7845 53.1288 69.5328 54.5973C69.0444 57.4492 70.3229 59.5554 73.0405 60.3747C72.682 60.2667 72.4314 59.9436 72.416 59.5695C72.7315 67.1694 77.0214 73.3516 83.345 75.3205C89.6689 77.2894 96.7107 74.6344 101.285 68.5557C101.075 68.8343 100.721 68.9626 100.381 68.8833C102.931 69.481 105.188 68.3442 106.572 65.7634C106.797 65.3414 107.489 63.8425 106.915 62.2416C106.653 61.5101 106.015 60.504 104.462 59.8644C104.869 60.0324 105.089 60.4762 104.976 60.9023C105.185 60.1167 105.353 59.3146 105.475 58.5184C105.522 58.2095 105.401 57.8985 105.159 57.7021C101.156 54.4593 97.5573 52.5648 92.3241 50.9453C92.6717 51.0531 92.917 51.3636 92.9413 51.7266C92.9052 51.1856 92.9125 50.6777 92.9196 50.1866C92.9319 49.3212 92.9448 48.4267 92.7282 47.3453C92.6641 47.0245 92.4268 46.7658 92.1126 46.6739C91.7983 46.5823 91.4593 46.6726 91.2324 46.9086Z" fill="#5D3B18"/>
<path d="M84.367 56.2735C84.1509 56.9672 83.4131 57.3554 82.7197 57.1393C82.0261 56.9233 81.6389 56.1852 81.8547 55.4915C82.0705 54.7979 82.8083 54.4107 83.5017 54.6268C84.1954 54.8423 84.5828 55.5799 84.367 56.2735Z" fill="#5D3B18"/>
<path d="M95.9042 59.8666C95.6878 60.5608 94.9508 60.9485 94.2567 60.7324C93.5635 60.5163 93.1758 59.7788 93.3918 59.0846C93.6077 58.3909 94.346 58.0037 95.0392 58.2193C95.733 58.4354 96.12 59.1729 95.9042 59.8666Z" fill="#5D3B18"/>
<path d="M87.7347 63.7978C87.4232 63.3843 86.9575 62.3201 86.956 62.0187C86.956 62.0187 86.956 62.0344 86.9512 62.0612C86.9348 62.1525 86.9009 62.201 86.9004 62.2015C87.0034 62.0571 87.485 61.7497 87.773 61.5659C88.1221 61.3433 88.452 61.1332 88.7068 60.9036C89.0677 60.579 89.097 60.0231 88.7722 59.6621C88.4472 59.3012 87.8912 59.2719 87.5305 59.5971C87.3838 59.7288 87.1011 59.909 86.8275 60.0837C86.0679 60.5679 85.3503 61.0252 85.2203 61.7502C85.0421 62.7376 86.0447 64.4773 86.3302 64.856C86.6223 65.2437 87.1736 65.3214 87.5615 65.0291C87.9493 64.7368 88.027 64.1855 87.7347 63.7978Z" fill="#5D3B18"/>
<path style="mix-blend-mode:multiply" d="M82.0707 61.8781C81.5333 63.6041 79.6977 64.5684 77.9716 64.0307C76.2451 63.4936 75.2813 61.658 75.8188 59.9319C76.3561 58.2054 78.1915 57.2411 79.9181 57.7788C81.6443 58.3159 82.6081 60.1515 82.0707 61.8781Z" fill="url(#paint0_radial_350_1163)"/>
<path style="mix-blend-mode:multiply" d="M99.0173 67.1538C98.4798 68.8798 96.6442 69.8436 94.9182 69.3064C93.1914 68.7687 92.2277 66.9337 92.765 65.2071C93.3027 63.4805 95.1381 62.5168 96.8646 63.054C98.5907 63.5916 99.5546 65.4272 99.0173 67.1538Z" fill="url(#paint1_radial_350_1163)"/>
<path d="M84.5617 68.2638C84.9323 67.9367 85.4613 67.7812 85.6373 67.8357C85.9185 67.9236 86.2819 68.1291 86.5955 68.9484C86.7688 69.4022 87.2772 69.6289 87.7306 69.4558C88.1841 69.2821 88.4113 68.7737 88.2376 68.3204C87.7947 67.1622 87.1149 66.4545 86.1598 66.1566C85.2099 65.8613 84.0625 66.3586 83.3978 66.9457C83.0336 67.2673 82.9995 67.8226 83.3209 68.1866C83.6422 68.5506 84.1978 68.5849 84.5617 68.2638Z" fill="#5D3B18"/>
<path d="M81.1898 54.4727C81.5672 54.9294 82.8502 55.3342 83.4878 55.3564C84.6394 55.3973 85.4113 55.2034 86.0686 54.707C86.327 54.5121 86.3783 54.1443 86.1832 53.8861C85.9883 53.6276 85.6205 53.5764 85.3623 53.7715C84.9322 54.0961 84.4011 54.216 83.529 54.1849C83.0542 54.1683 82.2336 53.8469 82.0766 53.7074C82.0768 53.7076 82.0836 53.7137 82.094 53.726C81.8877 53.4764 81.5182 53.4413 81.2686 53.6476C81.0189 53.8535 80.9838 54.223 81.1898 54.4727Z" fill="#5D3B18"/>
<path d="M96.6744 58.2654C96.6901 58.2608 96.6994 58.2598 96.6994 58.2598C96.4911 58.2855 95.6329 58.0841 95.2323 57.8282C94.497 57.3597 94.128 56.9593 93.9581 56.4475C93.8561 56.1405 93.5244 55.9739 93.2173 56.0759C92.9098 56.1779 92.7435 56.5095 92.8454 56.817C93.1049 57.599 93.6302 58.1972 94.602 58.8167C95.1397 59.1599 96.4258 59.5547 96.995 59.3932C97.3062 59.3048 97.487 58.9802 97.3986 58.6692C97.31 58.3578 96.9859 58.177 96.6744 58.2654Z" fill="#5D3B18"/>
<path d="M57.1606 95.1473H26.9639C26.9639 80.4418 33.7239 68.52 42.0621 68.52C50.4003 68.52 57.1606 80.4418 57.1606 95.1473Z" fill="#F9D2BD"/>
<path d="M57.1609 94.2679H26.9642C27.4498 94.2679 27.8433 94.6617 27.8433 95.1474C27.8433 80.9497 34.222 69.3995 42.0624 69.3995C49.9029 69.3995 56.2817 80.9497 56.2817 95.1474C56.2817 94.6617 56.6753 94.2679 57.1609 94.2679ZM42.0624 67.6406C33.2525 67.6406 26.085 79.9804 26.085 95.1474C26.085 95.633 26.4785 96.0268 26.9642 96.0268H57.1609C57.6466 96.0268 58.0401 95.633 58.0401 95.1474C58.0401 79.9804 50.8726 67.6406 42.0624 67.6406Z" fill="#5D3B18"/>
<path d="M45.4798 74.8089C47.3878 73.8659 48.5419 73.0819 49.3676 71.4351C54.3491 75.6439 57.9822 84.0228 58.8126 94.008C58.9313 95.4347 56.8528 94.5386 56.8528 96.0233C49.5496 96.0233 33.3439 96.5403 28.0325 96.5403C28.0325 95.0853 25.191 95.4928 25.3051 94.0938C26.1141 84.1626 29.6947 75.8105 34.6199 71.5527C35.7858 73.9946 36.6549 74.5716 38.6301 75.1966C39.2884 75.4051 39.7933 79.4615 41.7758 81.1856C44.3166 79.4615 44.377 75.3542 45.4798 74.8089Z" fill="#586B07"/>
<path d="M45.8694 75.5967C47.9344 74.5764 49.2289 73.6733 50.1537 71.8291C50.0328 72.0699 49.8084 72.2421 49.5444 72.2961C49.2804 72.3501 49.006 72.2804 48.8003 72.1063C53.7227 76.2651 57.138 84.4799 57.9366 94.0804C57.9401 94.1254 57.9374 94.1445 57.9374 94.1451C57.9434 94.1062 57.9838 94.0436 58.0173 94.0213C57.9633 94.0572 57.774 94.1097 57.6491 94.1445C57.1478 94.2834 55.9738 94.609 55.9738 96.0231C55.9738 95.5374 56.3673 95.1436 56.853 95.1436C52.9011 95.1436 46.2278 95.2976 40.3401 95.4334C35.2629 95.5506 30.4672 95.6606 28.0326 95.6606C28.5183 95.6606 28.9118 96.0544 28.9118 96.54C28.9118 95.1961 27.6672 94.7408 26.9233 94.4682C26.6696 94.3753 26.245 94.2198 26.1574 94.1142C26.1683 94.1274 26.1804 94.1582 26.1812 94.1753C26.1812 94.1753 26.1809 94.1718 26.1816 94.1653C26.9584 84.6298 30.3279 76.4252 35.1951 72.2178C34.9876 72.3971 34.7084 72.4692 34.4401 72.4132C34.1715 72.3566 33.9448 72.179 33.8267 71.9311C35.1183 74.6365 36.2224 75.3569 38.3649 76.0344C38.1847 75.9774 38.105 75.8734 38.1042 75.8723C38.217 76.0228 38.4329 76.6452 38.6063 77.1455C39.1187 78.6247 39.8206 80.6501 41.1989 81.8487C41.5 82.1106 41.9395 82.1369 42.2696 81.9128C44.0209 80.7244 44.7297 78.6434 45.2472 77.1244C45.4471 76.5372 45.7207 75.734 45.9027 75.5765C45.9027 75.5765 45.8919 75.5861 45.8694 75.5967ZM42.3529 80.522C41.3286 79.6314 40.7155 77.862 40.2677 76.5696C39.8217 75.2827 39.5758 74.5734 38.8958 74.3583C37.1838 73.8167 36.4889 73.4259 35.4134 71.1738C35.2952 70.926 35.0686 70.7482 34.8 70.6917C34.5317 70.6356 34.2525 70.7079 34.045 70.8871C28.8371 75.3897 25.2421 84.0381 24.4288 94.0224C24.3175 95.387 25.5703 95.8454 26.3187 96.1195C26.5842 96.2169 27.0787 96.3976 27.1542 96.5223C27.1534 96.5214 27.1522 96.5178 27.1517 96.5163C27.1517 96.5163 27.1534 96.5234 27.1534 96.54C27.1534 96.7733 27.2461 96.9969 27.4109 97.162C27.5757 97.3266 27.7994 97.4195 28.0326 97.4195C30.4874 97.4195 35.293 97.3084 40.3805 97.1913C46.2588 97.056 52.9212 96.9025 56.853 96.9025C57.3386 96.9025 57.7321 96.5087 57.7321 96.0231C57.7321 95.962 57.74 95.9373 57.74 95.9373C57.7357 95.9504 57.7198 95.9731 57.7087 95.9817C57.7654 95.9373 57.978 95.8782 58.1186 95.8393C58.6242 95.699 59.8083 95.3708 59.6889 93.9351C58.8526 83.8791 55.2064 75.2166 49.9351 70.7634C49.7291 70.5892 49.455 70.5195 49.191 70.5736C48.927 70.6276 48.7026 70.7997 48.5816 71.0405C47.8708 72.4586 46.8894 73.1311 45.0904 74.0206C44.3162 74.4033 43.9926 75.3539 43.5827 76.5574C43.121 77.913 42.5463 79.6001 41.2822 80.4578C41.6123 80.2337 42.0518 80.2599 42.3529 80.522Z" fill="#5D3B18"/>
<path d="M54.1685 98.3784C54.1685 96.2788 53.6394 89.9794 53.1192 87.4784C53.0366 87.0826 52.6487 86.8282 52.2526 86.9105C51.8563 86.9928 51.6022 87.381 51.6844 87.7773C52.1794 90.1561 52.703 96.3828 52.703 98.3784C52.703 98.7833 53.0311 99.111 53.4357 99.111C53.8404 99.111 54.1685 98.7833 54.1685 98.3784Z" fill="#7D8BBA"/>
<path d="M42.9989 85.0873C42.9989 85.8587 42.3736 86.4837 41.6025 86.4837C40.8313 86.4837 40.2061 85.8587 40.2061 85.0873C40.2061 84.3159 40.8313 83.6909 41.6025 83.6909C42.3736 83.6909 42.9989 84.3159 42.9989 85.0873Z" fill="#5D3B18"/>
<path d="M42.9989 93.014C42.9989 93.7854 42.3736 94.4104 41.6025 94.4104C40.8313 94.4104 40.2061 93.7854 40.2061 93.014C40.2061 92.2426 40.8313 91.6177 41.6025 91.6177C42.3736 91.6177 42.9989 92.2426 42.9989 93.014Z" fill="#C59149"/>
<path d="M35.3218 87.8672C32.576 87.7935 28.408 89.3741 29.8604 93.0004C31.8419 93.5073 32.268 92.5062 33.6099 92.4794C34.2141 92.4683 35.6615 92.4229 36.2259 92.4819C36.5743 92.5163 37.6537 93.4038 38.0015 92.9883C39.0496 91.7353 40.5383 89.3726 40.5413 89.3676C40.2455 89.8169 38.0666 87.9394 35.3218 87.8672Z" fill="#F9D2BD"/>
<path d="M35.3448 86.9881C33.3254 86.934 30.5869 87.6867 29.3463 89.4683C28.8112 90.2367 28.324 91.5301 29.0439 93.3273C29.1481 93.5873 29.3703 93.7827 29.6421 93.8518C31.1395 94.235 31.9793 93.8927 32.6542 93.6171C32.9993 93.4767 33.2719 93.3652 33.6268 93.3581C33.6255 93.3581 33.9633 93.3511 33.9633 93.3511C34.5744 93.3374 35.7123 93.3122 36.1339 93.3561C36.0748 93.3505 36.0369 93.3369 36.0354 93.3364C36.0889 93.3556 36.2459 93.4404 36.3499 93.4964C36.9209 93.8049 37.9833 94.3789 38.6752 93.5525C39.771 92.2424 41.282 89.8409 41.2948 89.8197C41.541 89.4093 41.414 88.8777 41.0089 88.6232C40.604 88.3683 40.0696 88.4844 39.8066 88.8837C40.0039 88.5844 40.3296 88.5374 40.448 88.5626C40.3336 88.5384 39.9797 88.3713 39.6953 88.237C38.6818 87.7584 37.1498 87.0355 35.3448 86.9881ZM39.7869 88.915C39.7899 88.91 39.7924 88.9059 39.7957 88.9009C39.7814 88.9236 38.3292 91.2256 37.3265 92.4242C37.479 92.2419 37.6928 92.2086 37.767 92.2212C37.653 92.202 37.349 92.0375 37.1855 91.9491C36.8737 91.781 36.6046 91.6356 36.3118 91.6069C35.8254 91.5558 34.8652 91.572 33.9239 91.5932L33.5932 91.6003C32.9104 91.6139 32.4215 91.8133 31.9901 91.989C31.4229 92.2202 31.013 92.3878 30.0778 92.1485C30.3496 92.2177 30.5718 92.413 30.676 92.6731C30.3275 91.8027 30.3645 91.0833 30.7894 90.4735C31.6102 89.2947 33.7247 88.7035 35.2978 88.7459C36.7338 88.7838 38.0116 89.3871 38.9448 89.8273C39.8245 90.2428 40.7345 90.6723 41.2752 89.851C41.0121 90.2503 40.4777 90.3664 40.0729 90.1115C39.6677 89.857 39.5408 89.3255 39.7869 88.915Z" fill="#5D3B18"/>
<path d="M47.5001 90.5881C47.4809 89.9187 50.5817 86.7372 52.526 87.1466C54.4699 87.555 56.8719 89.8288 55.2918 90.4124C53.7106 90.998 52.6699 91.8335 52.6699 91.8335L47.5001 90.5881Z" fill="#F9D2BD"/>
<path d="M48.3793 90.563C48.3824 90.6731 48.3571 90.7392 48.3569 90.7397C48.6072 90.095 51.1173 87.7486 52.3451 88.007C53.5628 88.263 54.8564 89.4034 54.9264 89.8128C54.9137 89.7386 54.9716 89.6074 55.0349 89.5665C55.0349 89.5665 55.021 89.5756 54.9874 89.5877C53.2912 90.2162 52.1669 91.1103 52.1197 91.1482C52.3322 90.9775 52.6114 90.9154 52.8762 90.979L47.7064 89.7336C48.092 89.8265 48.3679 90.1662 48.3793 90.563ZM53.2207 92.5193C53.2195 92.5203 53.2202 92.5198 53.219 92.5208C53.2286 92.5132 54.1827 91.761 55.5975 91.237C56.3265 90.9679 56.7314 90.3848 56.6794 89.6775C56.5736 88.2393 54.42 86.646 52.7071 86.2866C51.1805 85.965 49.4907 87.1377 48.6197 87.8656C48.1438 88.263 46.5934 89.6362 46.6215 90.6135C46.6328 91.0104 46.9087 91.3501 47.2944 91.443L52.4643 92.6884C52.729 92.752 53.0082 92.6899 53.2207 92.5193Z" fill="#5D3B18"/>
<path d="M29.86 93.0004L45.6019 89.7129L49.4529 95.5236L36.4295 100.356C36.4295 100.356 24.2992 103.669 25.3341 93.5194" fill="#586B07"/>
<path d="M30.0401 93.8612L45.782 90.5736C45.4297 90.6474 45.0682 90.4984 44.8696 90.1985L48.7205 96.0093C48.572 95.7857 48.5341 95.5064 48.6172 95.251C48.7005 94.996 48.8956 94.7926 49.1473 94.6992L36.1239 99.532C36.1484 99.523 36.1731 99.5149 36.1981 99.5083C36.1418 99.5235 30.4609 101.029 27.6858 98.6733C26.4686 97.6404 25.9718 95.9366 26.2091 93.6087C26.2583 93.1256 25.9067 92.694 25.4236 92.6445C24.9405 92.5956 24.5091 92.9469 24.4598 93.43C24.16 96.3707 24.8637 98.587 26.5517 100.017C30.0358 102.969 36.3925 101.278 36.6616 101.205C36.6866 101.198 36.7113 101.19 36.7358 101.181L49.7592 96.348C50.0108 96.2546 50.2059 96.0512 50.2892 95.7962C50.3723 95.5408 50.3344 95.2616 50.186 95.038L46.3351 89.2272C46.1364 88.9274 45.7749 88.7784 45.4226 88.8521L29.6806 92.1397C29.2053 92.2391 28.9004 92.7046 28.9996 93.1801C29.0991 93.6557 29.5648 93.9601 30.0401 93.8612Z" fill="#5D3B18"/>
<path d="M53.4924 92.4693L41.119 88.7305L37.2676 94.5432L48.9981 100.155C48.9981 100.155 59.5677 103.904 58.7912 94.6664" fill="#586B07"/>
<path d="M53.7471 91.6277L41.3735 87.8889C41.0019 87.7763 40.6008 87.9212 40.3863 88.2447L36.5349 94.0575C36.3945 94.2695 36.3526 94.5321 36.4205 94.7774C36.4881 95.0228 36.6591 95.2267 36.8885 95.3362L48.619 100.948C48.6467 100.961 48.6753 100.973 48.7045 100.983C48.939 101.067 54.484 102.993 57.6467 100.554C59.2183 99.3417 59.8981 97.3359 59.6676 94.5926C59.627 94.109 59.2017 93.7495 58.7178 93.7904C58.2339 93.8308 57.8747 94.2559 57.9154 94.74C58.0925 96.8482 57.6417 98.335 56.5753 99.1594C54.1727 101.016 49.3401 99.3432 49.2914 99.326C49.3333 99.3406 49.373 99.3583 49.4121 99.379C49.3777 99.3618 37.6473 93.7501 37.6473 93.7501C37.8767 93.8596 38.0476 94.0635 38.1153 94.3089C38.1832 94.5542 38.1413 94.8167 38.0009 95.0288L41.8523 89.2161C41.6378 89.5397 41.2367 89.6846 40.8649 89.572L53.2382 93.3108C53.7032 93.4511 54.1939 93.1886 54.3342 92.7237C54.4749 92.2587 54.2118 91.7681 53.7471 91.6277Z" fill="#5D3B18"/>
<path d="M60.6188 51.5961C59.908 53.7336 59.0811 55.8988 58.1719 58.004C59.1939 58.5144 62.7573 59.4171 60.3851 63.8763C59.8157 64.9471 57.7905 66.3198 54.0927 65.4413C51.4221 69.2549 48.167 72.0674 44.2338 72.7545C37.3843 73.9499 30.5283 70.1353 28.9285 63.3064C28.3008 60.6282 28.4706 57.3957 29.1426 54.0925C25.5542 51.6637 25.5024 49.8973 25.9918 48.4383C26.5038 46.9122 27.7128 44.697 32.1302 45.2321C33.5659 42.2187 35.3269 39.5385 37.2084 37.6357C42.3421 32.4434 46.1842 32.6489 53.6402 36.0112C61.8027 39.6899 63.2758 43.6116 60.6188 51.5961Z" fill="#F9D2BD"/>
<path d="M59.7843 51.3189C59.0801 53.4362 58.266 55.5682 57.3644 57.6555C57.1793 58.0841 57.3614 58.5823 57.7789 58.7908C57.9063 58.8544 58.0542 58.9181 58.211 58.9852C58.8819 59.2735 59.8959 59.7086 60.2021 60.5789C60.4507 61.2857 60.251 62.256 59.6087 63.4636C59.1561 64.3148 57.3677 65.3159 54.2957 64.5864C53.9451 64.5031 53.5791 64.6419 53.3724 64.9373C50.5511 68.9659 47.4256 71.3043 44.0823 71.8884C37.3782 73.0586 31.2313 69.283 29.7842 63.1062C29.2314 60.7476 29.3074 57.6918 30.0038 54.2679C30.0747 53.9201 29.9291 53.5637 29.635 53.3646C26.0749 50.9549 26.5628 49.5 26.8251 48.7183C27.3117 47.2673 28.3426 45.6592 32.0242 46.1052C32.3993 46.1506 32.7612 45.9515 32.9238 45.6105C34.3621 42.5913 36.0598 40.0476 37.8334 38.2542C42.7131 33.3186 46.1223 33.5859 53.2784 36.8129C60.8308 40.2168 62.3509 43.606 59.7843 51.3189ZM54.0014 35.21C46.6766 31.9068 42.2018 31.3348 36.5829 37.0178C34.6728 38.9496 32.8584 41.6593 31.3361 44.8542C31.4987 44.5132 31.8606 44.3141 32.2357 44.3595C28.5353 43.9112 26.1542 45.1894 25.1581 48.1589C24.3453 50.5819 25.4222 52.6363 28.6496 54.821C28.3555 54.6219 28.2099 54.2655 28.2808 53.9176C27.5235 57.6403 27.4534 60.8667 28.0723 63.507C29.7352 70.6056 36.748 74.9538 44.3847 73.621C48.2053 72.9536 51.7137 70.3713 54.8127 65.9459C54.6059 66.2413 54.2399 66.3801 53.8893 66.2968C58.2375 67.3302 60.506 65.5208 61.161 64.2896C62.044 62.6296 62.2795 61.1853 61.861 59.9954C61.2989 58.397 59.7412 57.7287 58.9044 57.3692C58.7661 57.3101 58.6467 57.2586 58.5644 57.2177C58.9819 57.4262 59.1639 57.9245 58.9789 58.3531C59.9004 56.2189 60.7329 54.039 61.4528 51.8738C64.2956 43.3314 62.3457 38.9705 54.0014 35.21Z" fill="#5D3B18"/>
<path d="M42.1189 53.4073C41.5268 54.3314 40.0675 56.6569 39.3085 58.2911C39.0899 58.7626 39.0967 59.2685 39.3279 59.7163C39.9254 60.8744 41.9309 61.3277 42.5314 61.4388C43.0087 61.5276 43.4676 61.2121 43.5562 60.735C43.6448 60.2575 43.3295 59.7986 42.852 59.7102H42.853C42.0036 59.5507 41.0313 59.1539 40.8899 58.9091C40.9071 58.9388 40.9129 59.0044 40.9013 59.0367C40.9013 59.0367 40.902 59.0352 40.9036 59.0317C41.3985 57.966 42.4065 56.2177 43.5996 54.3564C43.8616 53.9475 43.7425 53.4038 43.3338 53.1415C42.9249 52.8795 42.381 52.9986 42.1189 53.4073Z" fill="#5D3B18"/>
<path d="M48.1763 28.4978C43.9372 30.7221 45.7675 28.8325 44.7823 28.4751C39.8434 26.6829 38.1706 30.5595 36.7715 32.1781C51.6415 37.7707 56.6198 48.7141 58.3115 49.5739C58.6177 53.4949 57.2125 57.0203 55.1563 62.1252C56.9202 60.4698 57.0189 59.7968 58.0192 58.981C59.0092 58.1733 59.2485 57.4312 60.0997 58.9982C76.152 39.4038 56.1134 24.3338 48.1763 28.4978Z" fill="#5D3B18"/>
<path d="M47.7684 27.7192C46.09 28.5996 45.6428 28.6809 45.5458 28.6847C45.7381 28.6769 45.9966 28.8856 46.0395 29.0835C46.036 29.0666 46.03 29.0182 46.0257 28.9825C45.9911 28.6988 45.8992 27.9446 45.0826 27.6485C40.2975 25.9121 38.078 28.9482 36.7517 30.7621C36.5207 31.0781 36.3027 31.3765 36.1068 31.6029C35.9188 31.8205 35.8488 32.1161 35.9197 32.3948C35.9907 32.6734 36.1934 32.8996 36.4625 33.0008C47.5523 37.1718 53.0914 44.4733 55.7534 47.9824C56.7704 49.3228 57.3305 50.0611 57.9136 50.3575C57.6405 50.2186 57.4593 49.9475 57.4353 49.6421C57.7278 53.3883 56.3072 56.9151 54.3411 61.7964C54.1869 62.179 54.3197 62.6178 54.6602 62.8505C55.0007 63.0837 55.4576 63.0484 55.7585 62.7662C56.7505 61.8353 57.2455 61.1956 57.6433 60.6817C57.9588 60.2738 58.1868 59.979 58.5752 59.6625C58.7764 59.4984 58.9425 59.3434 59.0892 59.2071C59.2043 59.1001 59.3615 58.9531 59.4208 58.9193C59.3067 58.9845 59.0735 58.9648 58.9753 58.8814C58.9869 58.8916 59.0949 58.99 59.3274 59.4176C59.4673 59.6751 59.7257 59.8457 60.0173 59.8735C60.3086 59.9007 60.5946 59.7816 60.7801 59.5554C68.2166 50.4779 69.0651 40.6517 63.0494 33.2699C58.7784 28.0294 51.9235 25.5393 47.7684 27.7192ZM60.8728 58.5785C60.5237 57.9354 60.1079 57.3256 59.4365 57.216C58.7643 57.1064 58.3003 57.5386 57.8909 57.9203C57.7576 58.0439 57.6201 58.1722 57.4638 58.2999C56.9193 58.7436 56.5955 59.1621 56.2525 59.6054C55.8741 60.0941 55.4452 60.6484 54.5549 61.4839C54.8558 61.2017 55.3127 61.1664 55.6532 61.3996C55.9937 61.6323 56.1265 62.071 55.9723 62.4537C58.028 57.3497 59.5132 53.6627 59.1886 49.5053C59.1646 49.1999 58.9834 48.9288 58.7103 48.7899C58.4647 48.6468 57.7685 47.7293 57.1543 46.9195C54.3929 43.2794 48.6465 35.7045 37.0814 31.3551C37.3505 31.4563 37.5532 31.6825 37.6241 31.9611C37.6948 32.2398 37.6251 32.5354 37.4371 32.753C37.6799 32.4723 37.9185 32.1456 38.1713 31.8001C39.4683 30.0261 40.9384 28.0153 44.4829 29.3013C44.369 29.2602 44.2799 29.1388 44.262 29.0706C44.2676 29.0916 44.2751 29.1542 44.2802 29.1956C44.31 29.4392 44.3796 30.0096 44.934 30.3004C45.5852 30.642 46.4384 30.4027 48.5852 29.2761C51.9802 27.495 57.9798 29.8327 61.6863 34.3808C64.3019 37.5906 69.3172 46.3599 59.4201 58.4407C59.6053 58.2146 59.8916 58.0954 60.1829 58.1227C60.4744 58.1505 60.7329 58.3211 60.8728 58.5785Z" fill="#5D3B18"/>
<path d="M30.3213 45.289C32.4803 44.2798 29.8838 52.1124 30.6957 49.4565C31.413 47.109 39.2383 36.1312 43.3596 32.0385C44.138 31.2655 42.6619 24.4881 36.3648 32.1359C33.6265 35.4618 30.6649 44.0213 30.3213 45.289Z" fill="#5D3B18"/>
<path d="M30.694 46.0853C30.7168 46.0745 30.7281 46.0712 30.7281 46.0712C30.584 46.1128 30.3336 45.9947 30.274 45.8571C30.4903 46.3559 30.0241 48.7007 29.699 49.7313C29.8426 49.2762 30.319 49.0316 30.7774 49.1644C31.236 49.2971 31.5081 49.7583 31.3862 50.22C31.3933 50.1935 31.4359 50.0435 31.5369 49.7131C32.1502 47.7061 39.7403 36.872 43.9794 32.6621C44.57 32.0758 44.4898 30.902 44.2417 30.0751C43.8557 28.7898 43.0079 27.9264 41.9151 27.7066C40.1835 27.358 38.0879 28.66 35.6864 31.5767C32.7013 35.2025 29.7174 44.1571 29.4731 45.0588C29.3835 45.3891 29.4938 45.7416 29.7558 45.9617C30.0178 46.182 30.3839 46.2302 30.694 46.0853ZM37.044 32.6945C39.11 30.1851 40.9035 29.0028 41.8412 29.5319C42.5659 29.9405 42.7532 31.242 42.6456 31.5472C42.6459 31.5467 42.6676 31.4866 42.7405 31.4142C38.7417 35.3853 30.6733 46.5215 29.8553 49.1992C29.645 49.887 29.4789 50.4303 30.1069 50.7781C30.4701 50.9793 30.9247 50.899 31.1969 50.5855C31.4786 50.2611 32.6642 46.1121 31.7022 44.8374C31.3882 44.4212 30.7627 44.1119 29.9494 44.4923C30.2594 44.3472 30.6256 44.3954 30.8877 44.6157C31.1494 44.8361 31.26 45.1883 31.1703 45.5187C31.5114 44.2603 34.4546 35.8394 37.044 32.6945Z" fill="#5D3B18"/>
<path style="mix-blend-mode:multiply" d="M37.2677 57.0069C36.5223 58.6542 34.5824 59.3857 32.9351 58.6401C31.2876 57.8949 30.5563 55.9548 31.3017 54.308C32.0471 52.6602 33.9867 51.9287 35.6345 52.6744C37.2815 53.4195 38.0128 55.3596 37.2677 57.0069Z" fill="url(#paint2_radial_350_1163)"/>
<path style="mix-blend-mode:multiply" d="M53.4384 64.3228C52.693 65.9701 50.7532 66.7016 49.1062 65.9565C47.4584 65.2108 46.7273 63.2707 47.4725 61.6239C48.2179 59.9761 50.1577 59.2446 51.8053 59.9903C53.4523 60.7354 54.1838 62.6755 53.4384 64.3228Z" fill="url(#paint3_radial_350_1163)"/>
<path d="M43.3889 51.3901C43.3722 51.4022 43.3833 51.3956 43.3654 51.4059C43.3773 51.3991 43.6655 51.2416 44.293 51.4234C44.6227 51.5195 44.9728 52.503 45.0652 53.3178C45.1016 53.6396 45.3918 53.8708 45.7134 53.8342C46.0352 53.7979 46.2665 53.5076 46.2299 53.186C46.1827 52.768 45.8825 50.6653 44.6202 50.2976C43.454 49.9596 42.8204 50.3551 42.7053 50.4379C42.4423 50.6267 42.3822 50.993 42.571 51.2558C42.7598 51.5188 43.1261 51.5789 43.3889 51.3901Z" fill="#5D3B18"/>
<path d="M38.0691 54.1996L34.3684 52.5255C31.6859 51.3119 33.0283 47.5397 33.0283 47.5397C33.4945 46.5088 34.7432 46.058 35.8034 46.5376L41.6944 49.2027C42.7545 49.6822 43.2397 50.9181 42.7735 51.949C42.7735 51.949 41.0537 55.55 38.0691 54.1996Z" fill="white"/>
<path d="M38.31 53.6656L34.6092 51.9915C32.4432 51.0116 33.5682 47.769 33.5799 47.7365C33.7181 47.4353 34.0057 47.169 34.3712 47.0312C34.7582 46.8853 35.1807 46.8997 35.5611 47.0718L41.4521 49.7369C42.2202 50.0843 42.573 50.9685 42.2386 51.7076C42.1836 51.8211 40.7304 54.7608 38.31 53.6656ZM43.3069 52.1907C43.9074 50.8624 43.2922 49.2826 41.9352 48.6687L36.0442 46.0036C35.3786 45.7025 34.6375 45.6777 33.9574 45.9342C33.2989 46.1826 32.7789 46.667 32.4934 47.2983C31.9484 48.8239 31.6155 51.9239 34.1261 53.0597L37.8268 54.7338C40.6014 55.9891 42.6213 53.6264 43.3069 52.1907Z" fill="#5D3B18"/>
<path d="M46.9915 58.2365L50.6927 59.9111C53.3752 61.1247 55.3216 57.6261 55.3216 57.6261C55.7881 56.5958 55.3024 55.3594 54.2422 54.8798L48.3518 52.2148C47.2921 51.7351 46.0426 52.1865 45.5764 53.2174C45.5764 53.2174 44.0071 56.8865 46.9915 58.2365Z" fill="white"/>
<path d="M46.7492 58.7706L50.4503 60.4452C52.9609 61.5811 55.0691 59.2841 55.8329 57.9109C56.1404 57.2369 56.1611 56.5261 55.9127 55.8673C55.6565 55.1873 55.1487 54.6468 54.483 54.3457L48.5926 51.6807C47.9274 51.3798 47.1864 51.355 46.5066 51.6112C45.8472 51.8598 45.327 52.3445 45.0415 52.9758C44.4158 54.4386 43.9748 57.5156 46.7492 58.7706ZM46.1098 53.459C46.2663 53.1129 46.554 52.8463 46.92 52.7082C47.307 52.5623 47.7293 52.5768 48.1094 52.7489L53.9999 55.4139C54.38 55.5859 54.6698 55.8938 54.8157 56.2808C54.9536 56.6468 54.9434 57.0385 54.7869 57.3844C54.7397 57.4636 53.0889 60.3523 50.9335 59.3769L47.2323 57.7024C44.7989 56.6018 46.0598 53.5761 46.1098 53.459Z" fill="#5D3B18"/>
<path d="M39.9535 51.113C39.6476 51.7724 38.8645 52.0591 38.2057 51.7527C37.5466 51.4467 37.2612 50.6642 37.5671 50.0054C37.873 49.3466 38.655 49.0603 39.3139 49.3663C39.9731 49.6722 40.2592 50.4542 39.9535 51.113Z" fill="#5D3B18"/>
<path d="M50.9629 56.0944C50.6564 56.7538 49.8742 57.04 49.2146 56.7341C48.5563 56.4286 48.2695 55.6462 48.576 54.9869C48.8817 54.3275 49.6644 54.0413 50.323 54.3472C50.9828 54.6532 51.2683 55.4356 50.9629 56.0944Z" fill="#5D3B18"/>
<path d="M38.0216 47.6036C38.3399 48.1024 39.5632 48.6615 40.1927 48.7622C41.3304 48.9445 42.1202 48.8465 42.8342 48.4345C43.1144 48.2728 43.2106 47.9143 43.0488 47.6339C42.887 47.3537 42.5286 47.2575 42.2482 47.4193C41.7809 47.6889 41.239 47.7427 40.378 47.6046C39.909 47.5297 39.1338 47.1101 38.9952 46.9524C38.9952 46.9524 39.0013 46.9594 39.0101 46.9731C38.836 46.7002 38.4735 46.6202 38.2006 46.7941C37.9277 46.9683 37.8477 47.3307 38.0216 47.6036Z" fill="#5D3B18"/>
<path d="M52.922 53.2676C52.9379 53.265 52.947 53.265 52.947 53.265C52.737 53.265 51.9101 52.9599 51.5443 52.6572C50.8721 52.1011 50.5548 51.6589 50.4491 51.13C50.3857 50.8125 50.077 50.6068 49.7594 50.6702C49.4419 50.7335 49.2362 51.0422 49.2996 51.3597C49.4608 52.1677 49.9089 52.8258 50.7971 53.5606C51.2883 53.967 52.5158 54.5165 53.1007 54.4262C53.4208 54.3767 53.6401 54.0773 53.5907 53.7575C53.5412 53.4374 53.2418 53.2181 52.922 53.2676Z" fill="#5D3B18"/>
<path d="M37.9962 64.6284C38.4819 64.2957 39.1498 64.1695 39.4002 64.283C39.7339 64.434 40.1496 64.7389 40.4035 65.7657C40.5199 66.2373 40.9965 66.525 41.468 66.4084C41.9393 66.2918 42.227 65.8152 42.1104 65.3437C41.78 64.0064 41.1305 63.1356 40.1248 62.6807C39.1331 62.2319 37.8112 62.6236 37.0027 63.1774C36.6021 63.4521 36.4996 63.9993 36.774 64.3997C37.0484 64.8005 37.5956 64.9025 37.9962 64.6284Z" fill="#5D3B18"/>
</g>
<defs>
<radialGradient id="paint0_radial_350_1163" cx="0" cy="0" r="1" gradientUnits="userSpaceOnUse" gradientTransform="translate(78.9334 60.9092) rotate(17.2953) scale(3.27389 3.27389)">
<stop offset="0.33708" stop-color="#F9DAD9"/>
<stop offset="0.96067" stop-color="white"/>
</radialGradient>
<radialGradient id="paint1_radial_350_1163" cx="0" cy="0" r="1" gradientUnits="userSpaceOnUse" gradientTransform="translate(95.8796 66.1846) rotate(17.2952) scale(3.27411 3.27411)">
<stop offset="0.33708" stop-color="#F9DAD9"/>
<stop offset="0.96067" stop-color="white"/>
</radialGradient>
<radialGradient id="paint2_radial_350_1163" cx="0" cy="0" r="1" gradientUnits="userSpaceOnUse" gradientTransform="translate(34.2783 55.6615) rotate(24.3429) scale(3.274)">
<stop offset="0.33708" stop-color="#F9DAD9"/>
<stop offset="0.96067" stop-color="white"/>
</radialGradient>
<radialGradient id="paint3_radial_350_1163" cx="0" cy="0" r="1" gradientUnits="userSpaceOnUse" gradientTransform="translate(50.4488 62.9775) rotate(24.343) scale(3.27406)">
<stop offset="0.33708" stop-color="#F9DAD9"/>
<stop offset="0.96067" stop-color="white"/>
</radialGradient>
<clipPath id="clip0_350_1163">
<rect width="108" height="108" fill="white" transform="translate(10 8)"/>
</clipPath>
</defs>
</svg>
