<svg width="315" height="178" viewBox="0 0 315 178" fill="none" xmlns="http://www.w3.org/2000/svg">
<path fill-rule="evenodd" clip-rule="evenodd" d="M314 1H1V177H314V1ZM0 0V178H315V0H0Z" fill="#A0A0A0"/>
<path fill-rule="evenodd" clip-rule="evenodd" d="M77 1H1V59H77V1ZM0 0V60H78V0H0Z" fill="#A0A0A0"/>
<path fill-rule="evenodd" clip-rule="evenodd" d="M314 1H78V59H314V1ZM77 0V60H315V0H77Z" fill="#A0A0A0"/>
<path fill-rule="evenodd" clip-rule="evenodd" d="M77 60H1V118H77V60ZM0 59V119H78V59H0Z" fill="#A0A0A0"/>
<path fill-rule="evenodd" clip-rule="evenodd" d="M314 60H78V118H314V60ZM77 59V119H315V59H77Z" fill="#A0A0A0"/>
<path fill-rule="evenodd" clip-rule="evenodd" d="M77 119H1V177H77V119ZM0 118V178H78V118H0Z" fill="#A0A0A0"/>
<path fill-rule="evenodd" clip-rule="evenodd" d="M314 119H78V177H314V119ZM77 118V178H315V118H77Z" fill="#A0A0A0"/>
<path d="M59.3201 30.8718V23.4318C59.3201 22.5678 59.2881 22.1198 59.2241 21.6558H60.8721C60.7921 22.1838 60.7761 22.5998 60.7761 23.4318V30.5358C61.4961 30.3598 61.8641 30.2638 62.2801 30.1038L62.5521 31.6398C62.1361 31.6878 61.6401 31.7678 61.0161 31.9118L60.7761 31.9758V34.4558C60.7761 35.2878 60.8081 35.7838 60.8721 36.2798H59.2241C59.3041 35.7838 59.3201 35.3838 59.3201 34.4398V32.3118L55.5921 33.1758C54.9201 33.3198 54.4401 33.4638 54.0881 33.5758L53.7681 32.0238C54.1681 32.0078 54.7121 31.9278 55.3201 31.7838L59.3201 30.8718ZM50.4401 28.3278H49.5121C48.8241 28.3278 48.4881 28.3438 48.0881 28.4078V26.9838C48.4241 27.0478 48.7921 27.0638 49.5121 27.0638H50.6641V23.2878C50.6641 22.5198 50.6321 22.0558 50.5841 21.6558H52.1361C52.0721 22.0558 52.0561 22.4878 52.0561 23.2718V27.0638H52.8881C53.4641 27.0638 53.7521 27.0478 54.0881 26.9998V28.3918C53.7041 28.3438 53.3841 28.3278 52.8561 28.3278H52.1681C52.8561 29.4478 53.4161 30.1038 54.3281 30.8558C54.0561 31.2398 53.8481 31.6398 53.6401 32.1198C52.7921 31.1598 52.4881 30.7118 51.9601 29.7838C52.0081 30.4238 52.0561 31.3678 52.0561 31.8318V34.6318C52.0561 35.3838 52.0721 35.8638 52.1521 36.3278H50.5681C50.6481 35.7998 50.6641 35.3198 50.6641 34.5998V32.2638C50.6641 31.5758 50.6961 30.7598 50.7441 30.1198C50.0241 32.0078 49.4481 33.0478 48.5041 34.1198C48.2321 33.4318 48.1041 33.1918 47.7681 32.7758C48.9201 31.5918 49.6881 30.3278 50.4401 28.3278ZM48.0561 23.0958L49.1921 22.5838C49.7201 23.9758 49.9601 24.7438 50.2161 26.0238L49.0641 26.5038C48.7921 25.0318 48.5201 24.1038 48.0561 23.0958ZM53.4161 22.5358L54.5681 23.0318C54.1361 24.5838 53.9121 25.1758 53.2881 26.5198L52.2961 26.0078C52.8721 24.8078 53.0961 24.0878 53.4161 22.5358ZM54.9841 23.7838L55.9281 22.7598C57.2881 23.7358 57.8321 24.1998 58.7441 25.1918L57.8481 26.2958C56.7601 25.1118 56.4241 24.8078 54.9841 23.7838ZM54.4881 27.7518L55.4161 26.7598C56.7121 27.6558 57.4161 28.2478 58.2481 29.1438L57.3361 30.2318C56.2801 29.0798 55.6561 28.5358 54.4881 27.7518Z" fill="black"/>
<path d="M38.2159 27.9279H34.1199C33.3679 27.9279 32.9359 27.9439 32.4719 28.0079V26.6799C32.9199 26.7439 33.3199 26.7599 34.1199 26.7599H36.1999C35.9599 26.1359 35.7679 25.7519 35.5119 25.3039H33.6719C32.9039 25.3039 32.3279 25.3359 31.8319 25.3839V24.0239C32.2799 24.0879 32.7919 24.1199 33.6079 24.1199H34.3599C34.0879 23.6239 33.7359 23.1599 33.1919 22.5519L34.5039 22.0239C35.1599 22.8879 35.3199 23.1279 35.8159 24.1199H36.9039V22.9519C36.9039 22.4399 36.8719 21.9919 36.8079 21.6719H38.2959C38.2639 21.9599 38.2479 22.3439 38.2479 22.9039V24.1199H39.6079V22.9039C39.6079 22.3759 39.5759 21.9759 39.5439 21.6719H41.0319C40.9679 22.0079 40.9519 22.4399 40.9519 22.9519V24.1199H42.1679C42.6959 23.3999 43.0959 22.6639 43.3519 21.9599L44.7439 22.4879C44.3439 23.1439 43.9599 23.7199 43.6719 24.1199H44.3119C45.1599 24.1199 45.6399 24.0879 46.1199 24.0239V25.3839C45.6079 25.3359 45.0319 25.3039 44.2479 25.3039H42.5359C42.2799 25.8799 42.1039 26.2319 41.8319 26.7599H43.8479C44.6639 26.7599 45.0639 26.7439 45.5439 26.6799V28.0079C45.0639 27.9439 44.6319 27.9279 43.8479 27.9279H39.5919V28.8399H42.9679C43.7039 28.8399 44.2159 28.8239 44.6479 28.7599V30.0399C44.1999 29.9759 43.7039 29.9599 42.9679 29.9599H39.6079V30.9039H44.2319C45.1759 30.9039 45.6719 30.8719 46.1359 30.8079V32.1839C45.5439 32.1199 44.9679 32.0879 44.2479 32.0879H40.6799C41.9599 33.2239 43.9439 34.0559 46.5039 34.5199C46.1039 35.0159 45.9279 35.3039 45.6879 35.8799C42.9199 35.1279 41.1599 34.1999 39.5439 32.5999C39.5919 33.2079 39.5919 33.4639 39.5919 33.8159V34.7279C39.5919 35.3999 39.6239 35.9119 39.6879 36.3599H38.1359C38.1999 35.8959 38.2319 35.3839 38.2319 34.7119V33.8319C38.2319 33.4639 38.2319 33.2879 38.2639 32.6319C37.4319 33.4799 36.8399 33.9279 35.8159 34.5039C34.7599 35.0959 33.8799 35.4639 32.5199 35.8799C32.2479 35.3039 32.1039 35.0799 31.6719 34.5839C33.0959 34.2639 33.9279 34.0079 34.8559 33.5439C35.7999 33.0959 36.4879 32.6639 37.1439 32.0879H33.8159C33.0799 32.0879 32.5199 32.1199 31.9439 32.1839V30.8079C32.4079 30.8719 32.9199 30.9039 33.8159 30.9039H38.2159V29.9599H35.0159C34.2959 29.9599 33.7999 29.9759 33.3679 30.0399V28.7599C33.8319 28.8239 34.2959 28.8399 35.0159 28.8399H38.2159V27.9279ZM37.6239 26.7599H40.3599C40.6639 26.1839 40.8399 25.7679 40.9999 25.3039H37.0319C37.3039 25.8799 37.3999 26.1199 37.6239 26.7599Z" fill="black"/>
<path d="M21.8478 27.688V28.968C22.1518 28.984 22.3438 29 22.6318 29H27.1438C27.6398 29 27.8958 28.984 28.1198 28.936L28.8718 29.848C28.7758 29.976 28.7758 29.976 28.6158 30.216C27.6718 31.656 27.1118 32.328 26.1198 33.256C27.5758 34.184 28.7598 34.616 30.5678 34.92C30.2478 35.368 30.0078 35.848 29.8318 36.376C27.8638 35.864 26.3758 35.176 24.9998 34.152C23.5598 35.16 22.1838 35.784 20.2798 36.296C20.1038 35.8 19.9278 35.512 19.4798 34.968C21.1118 34.664 22.5358 34.12 23.9118 33.256C23.5118 32.888 23.2558 32.616 22.9678 32.296C22.7278 32.024 22.6958 31.992 22.2478 31.352C22.0718 31.112 22.0558 31.112 21.9118 30.92L23.1598 30.312C23.6718 31.192 24.1198 31.72 24.9838 32.456C25.9758 31.624 26.4238 31.096 26.9198 30.232H22.6638C22.1198 30.232 21.8318 30.248 21.4798 30.296V29.288H20.4398C20.4718 28.984 20.4878 28.76 20.4878 28.312V27.384C20.4878 27 20.4718 26.728 20.4398 26.456C20.7278 26.488 20.9838 26.504 21.7198 26.504H26.8558C27.6078 25.368 27.9278 24.712 28.3278 23.464L29.6558 23.992C29.1758 24.984 28.7438 25.768 28.2478 26.504H28.6798C29.4638 26.504 29.8158 26.488 30.2318 26.44C30.1838 26.792 30.1838 26.968 30.1838 27.528V28.6C30.1838 28.952 30.1998 29.224 30.2478 29.576H28.8078V27.688H21.8478ZM17.5118 24.68V23.288C17.5118 22.568 17.4798 22.2 17.3998 21.672H18.9998C18.9198 22.136 18.9038 22.568 18.9038 23.272V24.68H19.4638C19.8158 24.68 20.0078 24.664 20.3278 24.616V26.008C19.9758 25.976 19.7518 25.96 19.4158 25.96H18.9038V28.648C19.3358 28.472 19.5278 28.392 20.1198 28.136L20.1678 29.464C19.5918 29.72 19.4638 29.768 18.9038 30.008V34.776C18.9038 35.384 18.7918 35.688 18.5038 35.88C18.2478 36.04 17.7678 36.152 17.2238 36.152C17.2078 36.152 17.1758 36.152 17.1278 36.152C16.5678 36.136 16.4878 36.136 16.1678 36.136C16.1038 35.528 16.0558 35.368 15.8318 34.76C16.2638 34.824 16.6798 34.856 16.9678 34.856C17.4158 34.856 17.5118 34.792 17.5118 34.408V30.536C16.9198 30.76 16.8878 30.776 16.7918 30.808C16.3918 30.952 16.1998 31.032 15.8638 31.176L15.5278 29.704C16.0398 29.608 16.4398 29.496 17.5118 29.16V25.96H16.8558C16.4398 25.96 16.1198 25.976 15.7198 26.024V24.6C16.0718 24.664 16.3918 24.68 16.8718 24.68H17.5118ZM28.7278 21.624L29.7838 22.872C29.5278 22.92 29.5278 22.92 29.1118 23.016C27.1118 23.448 23.9598 23.8 20.8878 23.928C20.7598 23.416 20.6478 23.112 20.3758 22.664C22.1038 22.664 23.7678 22.552 25.5598 22.312C27.0798 22.104 28.2638 21.848 28.7278 21.624ZM23.1598 26.024L21.9918 26.488C21.6878 25.592 21.4798 25.112 21.0638 24.408L22.2318 24.04C22.6478 24.744 22.7758 25 23.1598 26.024ZM26.0878 26.008L24.8558 26.408C24.5998 25.384 24.4558 25.032 24.0238 24.184L25.2718 23.832C25.6558 24.552 25.7518 24.808 26.0878 26.008Z" fill="black"/>
<path d="M287.406 22.8159L289.438 22.9279C289.246 23.4719 289.166 23.8879 288.862 26.0159C288.75 26.6879 288.686 27.2319 288.654 27.6159H288.702C288.734 27.5199 288.734 27.5199 288.798 27.2639C288.958 26.7039 289.374 25.9199 289.806 25.3599C290.686 24.2719 291.678 23.7279 292.846 23.7279C293.934 23.7279 294.894 24.2399 295.582 25.1679C296.382 26.2399 296.734 27.5359 296.734 29.4239C296.734 32.5119 295.294 34.8159 292.606 35.9999C291.79 36.3679 290.67 36.6879 289.47 36.8959C289.15 35.9839 288.974 35.6319 288.526 35.0079C290.126 34.8319 291.054 34.5919 292.03 34.0959C293.886 33.1519 294.734 31.6319 294.734 29.1999C294.734 26.8959 293.966 25.6159 292.59 25.6159C291.982 25.6159 291.422 25.8879 290.862 26.4639C289.614 27.7599 288.846 29.7279 288.846 31.6319C288.846 31.7119 288.846 31.8239 288.846 31.9679L286.926 31.9999C286.942 31.9039 286.942 31.8239 286.942 31.7919C286.942 31.7279 286.942 31.6319 286.942 31.4879C286.926 31.0239 286.894 29.8399 286.894 29.5199C286.894 28.2239 286.99 26.4479 287.118 25.3439L287.358 23.3599C287.39 23.0879 287.406 23.0239 287.406 22.8159Z" fill="#0C3584"/>
<path d="M277.758 26.6082L279.566 27.1202C279.502 27.2482 279.502 27.2482 279.374 27.5842C279.214 28.0322 279.198 28.0482 279.15 28.1922C279.806 28.3522 280.27 28.5762 280.814 28.9762C281.838 29.7442 282.334 30.7362 282.334 32.0002C282.334 33.7442 281.39 35.1042 279.582 36.0002C278.638 36.4642 277.726 36.7042 276.318 36.8482C276.142 36.1602 275.998 35.8722 275.47 35.0402C276.766 35.0242 277.582 34.8482 278.526 34.4002C279.806 33.7922 280.398 33.0082 280.398 31.9042C280.398 30.8962 279.742 30.0802 278.606 29.6962C277.726 31.6002 276.974 32.7522 275.822 33.9522C274.382 35.4722 272.958 36.2562 271.63 36.2562C270.142 36.2562 269.134 35.1202 269.134 33.4562C269.134 32.1442 269.694 30.8802 270.718 29.8722C271.358 29.2482 271.95 28.8482 272.91 28.4322C272.91 27.9202 272.942 27.2802 272.974 26.5122C272.798 26.5122 271.934 26.4962 270.382 26.4482C270.222 26.4482 270.11 26.4482 270.078 26.4482C270.03 26.4482 269.886 26.4482 269.71 26.4642V24.6722C270.43 24.8322 271.374 24.9122 272.702 24.9122C272.718 24.9122 272.734 24.9122 273.054 24.9122C273.07 24.5922 273.07 24.5922 273.118 23.9522C273.134 23.7442 273.15 23.3442 273.15 23.0402C273.15 22.9762 273.15 22.9122 273.118 22.7842L275.102 22.8802C274.974 23.3122 274.91 23.7282 274.814 24.8482C277.374 24.7042 279.646 24.3842 280.878 24.0002L280.958 25.8402C280.734 25.8562 280.67 25.8562 280.334 25.9042C278.574 26.1922 275.982 26.4322 274.702 26.4642C274.654 27.1522 274.638 27.6642 274.622 28.0002C275.486 27.8242 275.854 27.7922 276.83 27.7922C277.022 27.7922 277.15 27.7922 277.438 27.8242C277.614 27.3122 277.71 26.9762 277.758 26.6082ZM272.942 30.2562C272.238 30.7202 271.966 30.9602 271.646 31.3602C271.166 31.9842 270.926 32.6402 270.926 33.3122C270.926 34.0322 271.278 34.4802 271.838 34.4802C272.286 34.4802 272.718 34.2882 273.23 33.8722C273.022 32.8322 272.942 31.8082 272.942 30.2562ZM274.75 32.6722L274.782 32.6882C274.846 32.5922 274.846 32.5922 274.958 32.4642C275.71 31.6162 276.35 30.5922 276.942 29.2642C276.766 29.2482 276.686 29.2482 276.526 29.2482C275.822 29.2482 275.246 29.3282 274.606 29.5362C274.622 31.0082 274.622 31.1682 274.718 32.2882C274.734 32.3842 274.734 32.3842 274.734 32.4962C274.734 32.5762 274.734 32.5922 274.75 32.6722Z" fill="#0C3584"/>
<path d="M255.118 30.1442H259.262C259.838 30.1442 260.19 30.1282 260.574 30.0802C260.542 30.4002 260.526 30.5122 260.51 30.9282C260.414 33.1202 260.078 34.9442 259.566 35.9362C259.166 36.7362 258.478 37.0082 256.942 37.0082C256.19 37.0082 255.438 36.9602 254.414 36.8642C254.334 36.1282 254.238 35.7442 253.998 35.0402C255.214 35.2482 256.11 35.3442 256.958 35.3442C257.582 35.3442 257.854 35.2482 257.998 34.9442C258.318 34.3042 258.51 33.2962 258.638 31.6802H254.222C253.774 31.6802 253.406 31.6962 253.038 31.7282C253.47 30.1122 253.758 28.1922 253.806 26.6402C254.158 26.6882 254.494 26.7042 255.054 26.7042H258.622V24.7522H254.862C254.27 24.7522 253.71 24.7842 253.182 24.8482V23.0722C253.662 23.1362 254.238 23.1682 254.878 23.1682H258.894C259.518 23.1682 259.998 23.1522 260.446 23.1042C260.414 23.5042 260.398 23.8722 260.398 24.4002V27.0242C260.398 27.5522 260.414 27.8882 260.446 28.2722C260.046 28.2402 259.534 28.2242 259.022 28.2242H255.454C255.358 28.9122 255.262 29.4562 255.118 30.1442ZM263.63 22.7842H265.662C265.582 23.3602 265.566 23.7282 265.566 24.5602V35.2002C265.566 36.1602 265.582 36.6082 265.662 37.2482H263.63C263.71 36.5762 263.742 36.1282 263.742 35.2002V24.5602C263.742 23.7282 263.726 23.4082 263.63 22.7842Z" fill="#0C3584"/>
<path d="M240.286 27.4398H239.038C238.382 27.4398 238.078 27.4558 237.598 27.5198V26.8318H236.59C236.638 26.4798 236.654 26.2078 236.654 25.6798V24.8318C236.654 24.3198 236.638 24.0318 236.59 23.6638C237.07 23.7118 237.422 23.7278 238.222 23.7278H240.238V23.6318C240.238 23.1518 240.222 22.8318 240.158 22.5278H242.062C241.998 22.8478 241.982 23.1198 241.982 23.6158V23.7278H243.614C244.446 23.7278 244.878 23.7118 245.39 23.6638C245.358 24.0158 245.342 24.3198 245.342 24.8158V25.6158C245.342 26.0958 245.358 26.3998 245.39 26.7358H244.494V27.5198C244.014 27.4558 243.726 27.4398 243.086 27.4398H241.854V28.1598H243.326C243.902 28.1598 244.206 28.1438 244.59 28.0958V29.5038C244.206 29.4558 243.982 29.4398 243.326 29.4398H241.854V30.2398H243.95C244.622 30.2398 244.926 30.2238 245.342 30.1598V31.7118C244.942 31.6638 244.606 31.6478 243.95 31.6478H237.934C237.358 31.6478 236.91 31.6638 236.51 31.7118V30.1598C236.926 30.2238 237.246 30.2398 237.934 30.2398H240.286V29.4398H238.686C238.03 29.4398 237.79 29.4558 237.39 29.5038V28.0958C237.774 28.1438 238.11 28.1598 238.686 28.1598H240.286V27.4398ZM239.038 26.1438H240.286C240.27 25.7758 240.254 25.6478 240.206 25.4238H241.934C241.886 25.6478 241.87 25.7918 241.854 26.1438H243.086C243.406 26.1438 243.598 26.1438 243.838 26.1278V25.1038H238.206V26.1278C238.494 26.1438 238.654 26.1438 239.038 26.1438ZM238.83 32.3358H243.294C243.838 32.3358 244.19 32.3198 244.558 32.2878C244.51 32.6878 244.494 33.0238 244.494 33.6958V35.7118C244.494 36.4158 244.51 36.7518 244.574 37.1518H242.83V36.6558H239.214V37.3278H237.438C237.518 36.8798 237.534 36.5118 237.534 35.9038V33.7758C237.534 33.2158 237.518 32.7678 237.47 32.2878C237.838 32.3198 238.254 32.3358 238.83 32.3358ZM239.214 33.6798V35.2318H242.83V33.6798H239.214ZM245.982 23.6638H247.79C247.726 24.0798 247.71 24.5118 247.71 25.3278V31.8078C247.71 32.7518 247.726 33.0878 247.79 33.5038H245.982C246.046 33.0398 246.062 32.7038 246.062 31.7918V25.3598C246.062 24.4798 246.046 24.1118 245.982 23.6638ZM248.83 22.6558H250.702C250.622 23.0878 250.59 23.6318 250.59 24.5918V35.2638C250.59 36.7518 250.11 37.1198 248.174 37.1198C247.79 37.1198 247.518 37.1038 246.686 37.0558C246.59 36.3678 246.478 35.9358 246.238 35.3918C247.182 35.4878 247.678 35.5358 248.046 35.5358C248.782 35.5358 248.926 35.4558 248.926 35.0398V24.6398C248.926 23.6638 248.91 23.1838 248.83 22.6558Z" fill="#0C3584"/>
<path d="M227.07 34.6722V28.7362H224.718C224.014 28.7362 223.566 28.7522 223.102 28.8162V27.1202C223.518 27.1842 223.982 27.2002 224.718 27.2002H230.846C231.598 27.2002 232.062 27.1842 232.494 27.1202V28.8162C232.046 28.7522 231.582 28.7362 230.846 28.7362H228.75V30.7842H231.774C232.51 30.7842 232.91 30.7682 233.342 30.6882V32.4002C232.862 32.3362 232.478 32.3202 231.774 32.3202H228.75V35.0722C229.534 35.1842 230.414 35.2322 231.358 35.2322C232.286 35.2322 233.374 35.1842 235.006 35.0402C234.75 35.6962 234.638 36.1282 234.558 36.8642C233.246 36.8962 232.414 36.9122 231.15 36.9122C227.406 36.9122 225.31 36.0962 223.998 34.1602C223.486 35.2642 222.878 36.1442 221.806 37.2962C221.39 36.7042 221.166 36.4962 220.43 35.9842C221.742 34.8002 222.67 33.2642 223.182 31.4562C223.358 30.8002 223.486 30.0802 223.502 29.7282L225.278 30.0642C225.198 30.3362 225.198 30.3522 225.054 31.0082C224.974 31.3282 224.878 31.6962 224.638 32.4482C225.278 33.5842 225.934 34.1762 227.07 34.6722ZM226.798 24.1922V23.6002C226.798 23.2002 226.766 22.9282 226.702 22.5762H228.67C228.606 22.9122 228.59 23.1682 228.59 23.5842V24.1922H232.91C233.55 24.1922 234.094 24.1762 234.686 24.1282C234.638 24.4962 234.622 24.8482 234.622 25.3122V26.5602C234.622 27.0242 234.638 27.3922 234.686 27.8082H232.958V25.8082H222.622V27.8082H220.846C220.91 27.4242 220.926 27.1042 220.926 26.5442V25.3122C220.926 24.8962 220.894 24.4962 220.862 24.1282C221.438 24.1762 221.982 24.1922 222.622 24.1922H226.798Z" fill="#0C3584"/>
<path d="M213.55 30.288H212.398V34.88C214.19 34.48 214.19 34.48 215.054 34.192L215.102 35.808C213.438 36.304 212.366 36.56 209.998 37.088C209.646 37.168 209.358 37.248 209.182 37.312L208.862 35.504C209.182 35.504 209.758 35.408 210.75 35.232V24.8C210.75 24.08 210.734 23.696 210.686 23.088C211.006 23.152 211.39 23.168 212.222 23.168H216.798C217.566 23.168 217.87 23.152 218.286 23.088C218.254 23.472 218.238 23.84 218.238 24.864V28.592C218.238 29.504 218.254 29.808 218.302 30.336C217.998 30.304 217.998 30.304 217.854 30.304L219.15 31.408C219.07 31.44 218.83 31.632 218.702 31.744C218.206 32.176 217.23 32.928 216.542 33.408C217.326 34.368 218.238 35.072 219.486 35.68C219.07 36.16 218.814 36.576 218.478 37.312C216.926 36.336 215.95 35.424 215.134 34.208C214.366 33.056 213.95 32.032 213.55 30.288ZM217.006 30.288H215.086C215.294 31.12 215.422 31.488 215.71 32.096C216.67 31.424 217.502 30.688 217.79 30.304C217.582 30.288 217.23 30.288 217.006 30.288ZM212.398 24.704V26H216.606V24.704H212.398ZM212.398 27.408V28.832H216.606V27.408H212.398ZM205.07 35.456V24.464C205.07 23.968 205.054 23.696 205.022 22.992C205.31 23.024 205.614 23.04 206.19 23.04H208.542C209.182 23.04 209.518 23.008 209.71 22.96L210.622 24.08C210.51 24.288 210.462 24.416 210.126 25.296C209.79 26.176 209.422 27.008 208.894 28.032C209.55 28.928 209.806 29.392 210.03 30.08C210.19 30.576 210.286 31.168 210.286 31.664C210.286 32.608 209.998 33.216 209.422 33.488C208.99 33.712 208.542 33.776 207.39 33.776C207.358 33.008 207.294 32.64 207.054 32.096C207.278 32.128 207.55 32.16 207.758 32.16C208.382 32.16 208.59 31.984 208.59 31.456C208.59 30.912 208.462 30.352 208.238 29.808C207.998 29.28 207.758 28.912 207.118 28.176C207.822 26.816 207.998 26.4 208.606 24.576H206.75V35.456C206.75 36.128 206.782 36.72 206.83 37.296H204.974C205.038 36.816 205.07 36.208 205.07 35.456Z" fill="#0C3584"/>
<path d="M195.757 29.3602L201.437 23.6802L201.949 24.2082L196.269 29.9202L201.949 35.6002L201.437 36.1282L195.757 30.4962L190.093 36.1282L189.565 35.6002L195.245 29.9202L189.565 24.2082L190.093 23.6802L195.757 29.3602ZM195.773 24.0642C196.445 24.0642 196.989 24.6082 196.989 25.2802C196.989 25.9682 196.445 26.5122 195.773 26.5122C195.101 26.5122 194.541 25.9522 194.541 25.2802C194.541 24.6082 195.101 24.0642 195.773 24.0642ZM191.181 28.6882C191.853 28.6882 192.397 29.2322 192.397 29.9042C192.397 30.5922 191.853 31.1362 191.181 31.1362C190.509 31.1362 189.949 30.5762 189.949 29.9042C189.949 29.2322 190.493 28.6882 191.181 28.6882ZM200.333 28.7042C201.005 28.7042 201.549 29.2482 201.549 29.9202C201.549 30.5922 201.005 31.1362 200.333 31.1362C199.661 31.1362 199.117 30.5922 199.117 29.9202C199.117 29.2482 199.661 28.7042 200.333 28.7042ZM195.757 33.3442C196.429 33.3442 196.973 33.8882 196.973 34.5762C196.973 35.2482 196.413 35.8082 195.757 35.8082C195.117 35.8082 194.525 35.2162 194.525 34.5762C194.525 33.9682 195.101 33.3442 195.645 33.3442C195.661 33.3442 195.677 33.3442 195.693 33.3602C195.709 33.3762 195.709 33.3762 195.725 33.3762C195.725 33.3762 195.725 33.3762 195.757 33.3442Z" fill="#0C3584"/>
<path d="M177.981 32.3039H171.037C170.893 33.1199 170.765 33.6479 170.573 34.2079C170.141 35.4239 169.597 36.3519 168.685 37.3759C168.221 36.7519 167.821 36.3519 167.197 35.9039C168.093 35.0079 168.541 34.2879 168.909 33.0879C169.389 31.5999 169.549 29.7279 169.549 25.5679C169.549 24.4159 169.533 23.7119 169.469 23.1519C170.093 23.2159 170.525 23.2319 171.341 23.2319H178.013C178.893 23.2319 179.325 23.2159 179.869 23.1519C179.805 23.5839 179.789 24.0159 179.789 24.9599V35.3279C179.789 36.1279 179.613 36.5919 179.213 36.8479C178.861 37.0879 178.413 37.1679 177.357 37.1679C176.845 37.1679 176.317 37.1519 175.501 37.1039C175.405 36.3359 175.309 35.9679 175.037 35.3119C175.853 35.4399 176.733 35.5039 177.389 35.5039C177.869 35.5039 177.981 35.4239 177.981 35.0719V32.3039ZM171.229 30.6719H177.981V28.5279H171.357C171.357 29.0239 171.325 29.3759 171.229 30.6719ZM171.373 26.8959H177.981V24.8959H171.373V26.8959Z" fill="#0C3584"/>
<path d="M164.197 23.4561H166.149L160.373 38.6081H158.405L164.197 23.4561Z" fill="#0C3584"/>
<path d="M152.406 36.4482C151.046 36.4482 149.894 36.0002 149.046 35.1522C148.566 34.6722 148.198 34.1122 147.99 33.5362C147.574 32.4002 147.366 31.1522 147.366 29.8562C147.366 28.1602 147.75 26.4002 148.342 25.4242C149.206 23.9842 150.646 23.2002 152.422 23.2002C153.782 23.2002 154.95 23.6482 155.798 24.4962C156.278 24.9762 156.646 25.5362 156.854 26.1122C157.27 27.2322 157.478 28.5122 157.478 29.8242C157.478 31.7922 157.046 33.5202 156.294 34.5602C155.398 35.8082 154.07 36.4482 152.406 36.4482ZM152.422 34.5922C153.126 34.5922 153.75 34.3522 154.15 33.9202C154.87 33.1682 155.27 31.6802 155.27 29.8082C155.27 27.9522 154.87 26.4962 154.15 25.7122C153.766 25.2802 153.126 25.0402 152.406 25.0402C151.638 25.0402 151.078 25.2962 150.614 25.8562C149.91 26.6882 149.558 28.0002 149.558 29.7442C149.558 31.4242 149.862 32.8162 150.374 33.5522C150.87 34.2562 151.542 34.5922 152.422 34.5922Z" fill="#0C3584"/>
<path d="M141.016 36.4482C139.656 36.4482 138.504 36.0002 137.656 35.1522C137.176 34.6722 136.808 34.1122 136.6 33.5362C136.184 32.4002 135.976 31.1522 135.976 29.8562C135.976 28.1602 136.36 26.4002 136.952 25.4242C137.816 23.9842 139.256 23.2002 141.032 23.2002C142.392 23.2002 143.56 23.6482 144.408 24.4962C144.888 24.9762 145.256 25.5362 145.464 26.1122C145.88 27.2322 146.088 28.5122 146.088 29.8242C146.088 31.7922 145.656 33.5202 144.904 34.5602C144.008 35.8082 142.68 36.4482 141.016 36.4482ZM141.032 34.5922C141.736 34.5922 142.36 34.3522 142.76 33.9202C143.48 33.1682 143.88 31.6802 143.88 29.8082C143.88 27.9522 143.48 26.4962 142.76 25.7122C142.376 25.2802 141.736 25.0402 141.016 25.0402C140.248 25.0402 139.688 25.2962 139.224 25.8562C138.52 26.6882 138.168 28.0002 138.168 29.7442C138.168 31.4242 138.472 32.8162 138.984 33.5522C139.48 34.2562 140.152 34.5922 141.032 34.5922Z" fill="#0C3584"/>
<path d="M134.345 23.3762V25.2322C133.833 25.7282 133.369 26.3842 132.681 27.5362C130.985 30.3682 130.137 32.8162 129.705 36.1922H127.177C127.705 33.5202 128.185 31.9842 129.113 30.0002C129.849 28.4162 130.505 27.3282 131.913 25.3442H126.969C126.025 25.3442 125.529 25.3762 124.873 25.4562V23.3442C125.609 23.4242 126.121 23.4562 127.065 23.4562H132.153C133.353 23.4562 133.769 23.4402 134.345 23.3762Z" fill="#0C3584"/>
<path d="M122.96 33.856V36.192C122.96 37.568 122.608 38.08 121.312 38.592L120.736 37.744C121.712 37.472 121.936 37.184 121.952 36.192H120.608V33.856H122.96Z" fill="#0C3584"/>
<path d="M118.642 23.3762V25.2322C118.13 25.7282 117.666 26.3842 116.978 27.5362C115.282 30.3682 114.434 32.8162 114.002 36.1922H111.474C112.002 33.5202 112.482 31.9842 113.41 30.0002C114.146 28.4162 114.802 27.3282 116.21 25.3442H111.266C110.322 25.3442 109.826 25.3762 109.17 25.4562V23.3442C109.906 23.4242 110.418 23.4562 111.362 23.4562H116.45C117.65 23.4562 118.066 23.4402 118.642 23.3762Z" fill="#0C3584"/>
<path d="M101.426 36.2881H99.058C99.138 35.6641 99.186 35.0081 99.186 34.2241V33.1361H96.77C96.05 33.1361 95.634 33.1681 95.09 33.2641V31.4401C95.65 31.5361 96.034 31.5681 96.77 31.5681H99.186V31.0881L98.658 30.2721H96.802C96.066 30.2721 95.666 30.3041 95.122 30.4001V28.5761C95.65 28.6721 96.066 28.7041 96.802 28.7041H97.698L95.474 25.1841C95.01 24.4641 94.594 23.8401 94.354 23.5361H97.106C97.25 24.0001 97.426 24.3521 97.874 25.1041L100.242 29.1681L102.61 25.1201C103.058 24.3681 103.25 23.9681 103.378 23.5361H106.146C105.938 23.8081 105.298 24.7201 105.01 25.1841L102.802 28.7041H103.698C104.418 28.7041 104.85 28.6721 105.378 28.5761V30.4001C104.834 30.3041 104.402 30.2721 103.698 30.2721H101.826L101.298 31.1041V31.5681H103.666C104.386 31.5681 104.786 31.5361 105.346 31.4401V33.2641C104.802 33.1681 104.37 33.1361 103.666 33.1361H101.298V34.2241C101.298 35.1361 101.33 35.6481 101.426 36.2881Z" fill="#0C3584"/>
<path d="M57.4638 85.0081H60.6798C61.4638 85.0081 61.7518 84.9921 62.1198 84.9601C62.0558 85.2801 62.0558 85.2801 62.0078 85.7121C61.8478 86.7201 61.7678 87.0241 61.5438 87.2481C61.3198 87.4721 61.0478 87.5521 60.4078 87.5681C60.3918 88.0801 60.3918 88.1441 60.3918 88.7041V91.3761C60.3918 92.1441 60.4078 92.6561 60.4558 93.0561C60.0398 93.0241 59.4158 93.0081 58.7278 93.0081H57.7518C58.4398 93.3761 58.6638 93.4721 59.2398 93.6641C60.2478 93.9841 61.0478 94.1281 62.3918 94.2561C61.9118 94.8481 61.8318 94.9601 61.5598 95.4881C60.4398 95.2961 59.8798 95.1521 59.0318 94.8641C58.0398 94.5441 57.5118 94.2881 56.4878 93.6961L57.3998 93.0081H52.7758L53.6238 93.6961C51.9118 94.6881 50.9198 95.0401 48.6638 95.4881C48.4398 94.9921 48.2478 94.7041 47.8478 94.3041C49.8638 94.0481 50.9838 93.7281 52.3918 93.0081H51.4478C50.7438 93.0081 50.1518 93.0241 49.7198 93.0561C49.7678 92.7521 49.7838 92.1761 49.7838 91.4401V88.2241C49.3678 88.3841 49.0958 88.4801 48.3278 88.7361C48.1358 88.2401 47.9918 88.0001 47.6558 87.5841C49.7518 87.1361 50.8398 86.7041 51.6238 86.0001H49.6398C49.2078 86.0001 48.6958 86.0161 48.2638 86.0481C48.7278 85.1361 48.9998 84.3041 49.1758 83.2801C49.5278 83.3121 49.9118 83.3281 50.5678 83.3281H52.6958C52.7278 83.0081 52.7278 82.8961 52.7438 82.6401H50.0398C49.3678 82.6401 48.8718 82.6721 48.4878 82.7201V81.5201C48.8878 81.5841 49.2558 81.6001 50.0398 81.6001H52.7758C52.7598 81.1041 52.7438 80.9281 52.6958 80.5601H54.1518C54.1198 80.7681 54.1038 81.1041 54.0878 81.6001H56.1518V81.5041C56.1518 81.0881 56.1358 80.8801 56.0718 80.5601H57.5438C57.4798 80.8961 57.4638 81.1041 57.4638 81.5201V81.6001H59.7038C60.3118 81.6001 60.8718 81.5681 61.2398 81.5201C61.1918 81.8721 61.1758 82.1281 61.1758 82.6721V83.2801C61.1758 83.8401 61.1758 83.9841 61.2238 84.3201C60.7118 84.2881 60.2958 84.2721 59.6878 84.2721H57.4638V85.0081ZM58.8078 87.0081H59.3998C59.3358 86.7841 59.3198 86.7041 59.2238 86.4641C59.5918 86.5761 59.9118 86.6401 60.1198 86.6401C60.5038 86.6401 60.5358 86.5921 60.6158 86.0001H57.4638C57.4798 86.3361 57.4958 86.4801 57.5278 86.6881H56.0878C56.1358 86.4641 56.1358 86.3841 56.1518 86.0001H53.1598C52.8558 86.4321 52.6478 86.6401 52.1518 87.0081H58.8078ZM52.5518 84.2721H50.3278C50.1518 84.7681 50.1518 84.7841 50.0558 85.0081H52.3118C52.4238 84.7201 52.4558 84.6081 52.5518 84.2721ZM56.1518 84.2721H53.8478C53.7838 84.5601 53.7358 84.7041 53.6398 85.0081H56.1518V84.2721ZM56.1518 82.6401H54.0558C54.0238 82.9281 54.0238 83.0401 53.9918 83.3281H56.1518V82.6401ZM57.4638 82.6401V83.3281H59.7998V82.6401H57.4638ZM51.1598 88.0161V88.7201H59.0158V88.0161H51.1598ZM51.1598 89.6321V90.3361H59.0158V89.6321H51.1598ZM51.1598 91.2481V91.9841H59.0158V91.2481H51.1598Z" fill="black"/>
<path d="M41.016 92.4162H39V93.4882C39 94.4962 39.016 94.8162 39.08 95.2002H37.64C37.72 94.7682 37.736 94.3362 37.736 93.4882V88.4482C37.736 87.5522 37.72 87.2482 37.672 86.7362C38.12 86.7682 38.456 86.7842 39.336 86.7842H44.136C44.936 86.7842 45.288 86.7682 45.704 86.7042C45.656 87.1202 45.64 87.5682 45.64 88.4642V93.9042C45.64 94.8642 45.304 95.1202 44.024 95.1202C43.864 95.1202 43.784 95.1202 43.128 95.1042C43.08 94.5442 43.016 94.2722 42.856 93.8722C43.304 93.9522 43.64 93.9842 43.96 93.9842C44.296 93.9842 44.36 93.9202 44.36 93.6002V92.4162H42.232V93.2482C42.232 94.1442 42.248 94.5762 42.312 94.9922H40.92C41 94.5122 41.016 94.0962 41.016 93.2482V92.4162ZM41.016 91.2642V90.1442H39V91.2642H41.016ZM42.232 91.2642H44.36V90.1442H42.232V91.2642ZM41.016 89.0402V87.9202H39V89.0402H41.016ZM42.232 89.0402H44.36V87.9202H42.232V89.0402ZM44.68 85.8882H37.176C37.144 91.0082 36.792 93.0402 35.624 95.1042C35.32 94.7362 34.952 94.3522 34.52 94.0002C34.552 94.7202 34.552 94.8162 34.6 95.2802H33.032C33.112 94.6402 33.128 94.2082 33.128 93.3442V88.6882C33.128 88.0162 33.144 87.3122 33.176 86.4802C32.84 87.2162 32.488 87.7922 31.96 88.4482C31.912 88.3202 31.864 88.2082 31.848 88.1442C31.672 87.6322 31.672 87.6322 31.272 86.9442C32.216 85.8722 32.968 84.6562 33.592 83.1522C34.008 82.1282 34.264 81.2642 34.392 80.5122L35.848 80.8642C35.752 81.1362 35.736 81.1682 35.576 81.6642C35.224 82.8322 35.016 83.3122 34.52 84.3042V93.3282C34.52 93.3442 34.52 93.8402 34.52 93.9842C35 93.2482 35.144 92.9122 35.336 92.1922C35.672 90.9442 35.832 89.1202 35.832 86.4642C35.832 85.6642 35.816 85.1202 35.768 84.5922C36.232 84.6562 36.664 84.6722 37.4 84.6722H44.536C45.368 84.6722 45.768 84.6562 46.248 84.5922V85.9522C45.784 85.9042 45.272 85.8882 44.68 85.8882ZM38.232 82.0162V81.5842C38.232 81.1042 38.216 80.8322 38.168 80.5762H39.672C39.624 80.8482 39.608 81.1042 39.608 81.5842V82.0162H42.008V81.5842C42.008 81.0882 41.992 80.8482 41.944 80.5762H43.448C43.4 80.8322 43.384 81.1202 43.384 81.5842V82.0162H44.6C45.224 82.0162 45.848 81.9842 46.184 81.9202V83.2962C45.736 83.2482 45.32 83.2322 44.6 83.2322H43.384V83.4402C43.384 83.8562 43.4 84.0482 43.432 84.2882H41.96C41.992 84.0162 42.008 83.7762 42.008 83.4242V83.2322H39.608V83.4242C39.608 83.8562 39.624 84.0322 39.656 84.2882H38.184C38.216 84.0642 38.232 83.7602 38.232 83.4402V83.2322H37.384C36.584 83.2322 36.216 83.2482 35.816 83.2962V81.9362C36.248 81.9842 36.792 82.0162 37.384 82.0162H38.232Z" fill="black"/>
<path d="M28.7278 87.3279L29.4798 88.0799C29.3838 88.2399 29.3838 88.2399 29.1758 88.7039C28.8878 89.3119 28.2638 90.3999 27.8798 90.9119C27.5918 91.3279 27.3198 91.6479 26.9198 92.0799C27.9918 92.8479 28.9038 93.2479 30.6798 93.7759C30.3598 94.2879 30.1838 94.6399 29.9758 95.1839C28.0878 94.5119 27.0158 93.9519 25.8958 93.0559C24.8558 93.9039 23.6558 94.5599 21.9918 95.1999C21.7678 94.7199 21.5438 94.3679 21.1758 93.9839C21.1758 94.3999 21.1918 94.6879 21.2398 95.0559H19.8958V94.4639H17.7358V95.2639H16.3438C16.4078 94.8159 16.4398 94.3039 16.4398 93.7119V91.4239C16.4398 90.8959 16.4238 90.5439 16.3598 90.1279C16.8078 90.1759 17.1278 90.1919 17.6238 90.1919H20.1038C20.7598 90.1919 20.9358 90.1919 21.2238 90.1439C21.1758 90.5119 21.1758 90.7199 21.1758 91.3279V93.9359C22.7278 93.4399 23.8638 92.8799 24.8718 92.1279C23.8798 91.0719 23.3678 90.2559 22.6958 88.6719C22.3278 88.6879 22.1838 88.6879 21.8798 88.7359V87.3119C22.1998 87.3759 22.5038 87.3919 22.9518 87.3919H27.5598C28.1998 87.3919 28.4878 87.3759 28.7278 87.3279ZM27.6718 88.6559H24.0718C24.5518 89.7599 24.9998 90.3999 25.8958 91.2479C26.6958 90.4159 27.0958 89.8399 27.6718 88.6559ZM17.7358 91.3439V93.2959H19.8958V91.3439H17.7358ZM16.3918 82.3679V81.0239C16.8078 81.0879 17.0638 81.1039 17.6878 81.1039H19.9278C20.5518 81.1039 20.8078 81.0879 21.2238 81.0239V82.3679C20.8398 82.3199 20.4878 82.3039 19.9278 82.3039H17.6878C17.1438 82.3039 16.7598 82.3199 16.3918 82.3679ZM15.8638 84.6719V83.2639C16.2478 83.3279 16.5518 83.3439 17.1438 83.3439H20.3598C21.0158 83.3439 21.2878 83.3279 21.6398 83.2799V84.6719C21.3038 84.6239 21.0638 84.6079 20.4558 84.6079H17.1438C16.5998 84.6079 16.2638 84.6239 15.8638 84.6719ZM16.4078 86.9279V85.6479C16.7278 85.6799 16.9678 85.6959 17.5118 85.6959H20.1198C20.6638 85.6959 20.8878 85.6799 21.1918 85.6479V86.9279C20.8398 86.8959 20.5998 86.8799 20.1198 86.8799H17.5118C16.9838 86.8799 16.7278 86.8959 16.4078 86.9279ZM16.4078 89.1519V87.8719C16.7438 87.9039 16.9678 87.9199 17.5118 87.9199H20.1198C20.6638 87.9199 20.8878 87.9039 21.1918 87.8719V89.1519C20.7598 89.1039 20.6478 89.1039 20.1038 89.1039H17.4958C16.9678 89.1039 16.7598 89.1199 16.4078 89.1519ZM26.5358 82.4319H24.4878C24.4398 83.9679 24.2638 84.7519 23.7838 85.6639C23.4478 86.3039 23.1278 86.6879 22.5358 87.1839C22.1518 86.7839 21.7838 86.4799 21.3838 86.2559C22.7118 85.3279 23.1598 84.2719 23.1598 82.0959C23.1598 81.6639 23.1438 81.5199 23.0958 81.0879C23.5118 81.1359 23.8958 81.1519 24.3438 81.1519H26.5838C27.1438 81.1519 27.5438 81.1359 27.9438 81.0879C27.8958 81.4719 27.8798 81.8879 27.8798 82.5119V84.9279C27.8798 85.1679 28.0078 85.2319 28.4718 85.2319C28.9358 85.2319 29.1118 85.1839 29.1758 84.9919C29.2718 84.7519 29.3198 84.2719 29.3678 83.2639C29.8158 83.5199 30.1038 83.6479 30.5838 83.7919C30.3918 86.2079 30.1998 86.4479 28.4078 86.4479C26.8238 86.4479 26.5358 86.3039 26.5358 85.4719V82.4319Z" fill="black"/>
<path d="M237.145 91.3039H230.201C230.057 92.1199 229.929 92.6479 229.737 93.2079C229.305 94.4239 228.761 95.3519 227.849 96.3759C227.385 95.7519 226.985 95.3519 226.361 94.9039C227.257 94.0079 227.705 93.2879 228.073 92.0879C228.553 90.5999 228.713 88.7279 228.713 84.5679C228.713 83.4159 228.697 82.7119 228.633 82.1519C229.257 82.2159 229.689 82.2319 230.505 82.2319H237.177C238.057 82.2319 238.489 82.2159 239.033 82.1519C238.969 82.5839 238.953 83.0159 238.953 83.9599V94.3279C238.953 95.1279 238.777 95.5919 238.377 95.8479C238.025 96.0879 237.577 96.1679 236.521 96.1679C236.009 96.1679 235.481 96.1519 234.665 96.1039C234.569 95.3359 234.473 94.9679 234.201 94.3119C235.017 94.4399 235.897 94.5039 236.553 94.5039C237.033 94.5039 237.145 94.4239 237.145 94.0719V91.3039ZM230.393 89.6719H237.145V87.5279H230.521C230.521 88.0239 230.489 88.3759 230.393 89.6719ZM230.537 85.8959H237.145V83.8959H230.537V85.8959Z" fill="#0C3584"/>
<path d="M223.361 82.4561H225.313L219.537 97.6081H217.569L223.361 82.4561Z" fill="#0C3584"/>
<path d="M211.57 95.4482C210.21 95.4482 209.058 95.0002 208.21 94.1522C207.73 93.6722 207.362 93.1122 207.154 92.5362C206.738 91.4002 206.53 90.1522 206.53 88.8562C206.53 87.1602 206.914 85.4002 207.506 84.4242C208.37 82.9842 209.81 82.2002 211.586 82.2002C212.946 82.2002 214.114 82.6482 214.962 83.4962C215.442 83.9762 215.81 84.5362 216.018 85.1122C216.434 86.2322 216.642 87.5122 216.642 88.8242C216.642 90.7922 216.21 92.5202 215.458 93.5602C214.562 94.8082 213.234 95.4482 211.57 95.4482ZM211.586 93.5922C212.29 93.5922 212.914 93.3522 213.314 92.9202C214.034 92.1682 214.434 90.6802 214.434 88.8082C214.434 86.9522 214.034 85.4962 213.314 84.7122C212.93 84.2802 212.29 84.0402 211.57 84.0402C210.802 84.0402 210.242 84.2962 209.778 84.8562C209.074 85.6882 208.722 87.0002 208.722 88.7442C208.722 90.4242 209.026 91.8162 209.538 92.5522C210.034 93.2562 210.706 93.5922 211.586 93.5922Z" fill="#0C3584"/>
<path d="M200.18 95.4482C198.82 95.4482 197.668 95.0002 196.82 94.1522C196.34 93.6722 195.972 93.1122 195.764 92.5362C195.348 91.4002 195.14 90.1522 195.14 88.8562C195.14 87.1602 195.524 85.4002 196.116 84.4242C196.98 82.9842 198.42 82.2002 200.196 82.2002C201.556 82.2002 202.724 82.6482 203.572 83.4962C204.052 83.9762 204.42 84.5362 204.628 85.1122C205.044 86.2322 205.252 87.5122 205.252 88.8242C205.252 90.7922 204.82 92.5202 204.068 93.5602C203.172 94.8082 201.844 95.4482 200.18 95.4482ZM200.196 93.5922C200.9 93.5922 201.524 93.3522 201.924 92.9202C202.644 92.1682 203.044 90.6802 203.044 88.8082C203.044 86.9522 202.644 85.4962 201.924 84.7122C201.54 84.2802 200.9 84.0402 200.18 84.0402C199.412 84.0402 198.852 84.2962 198.388 84.8562C197.684 85.6882 197.332 87.0002 197.332 88.7442C197.332 90.4242 197.636 91.8162 198.148 92.5522C198.644 93.2562 199.316 93.5922 200.196 93.5922Z" fill="#0C3584"/>
<path d="M183.765 92.168L186.053 91.72C186.261 92.456 186.405 92.712 186.805 93.032C187.333 93.448 187.973 93.656 188.741 93.656C190.325 93.656 191.333 92.84 191.333 91.576C191.333 90.84 191.013 90.232 190.437 89.896C190.053 89.672 189.301 89.512 188.597 89.512C187.893 89.512 187.429 89.528 186.885 89.592V87.608C187.397 87.672 187.749 87.688 188.437 87.688C190.037 87.688 190.981 86.952 190.981 85.72C190.981 84.616 190.229 83.992 188.869 83.992C188.085 83.992 187.509 84.168 187.125 84.488C186.805 84.792 186.645 85.064 186.453 85.72L184.165 85.336C184.565 84.152 184.933 83.592 185.685 83.048C186.501 82.456 187.541 82.168 188.821 82.168C191.493 82.168 193.221 83.512 193.221 85.592C193.221 86.552 192.805 87.432 192.117 87.944C191.765 88.216 191.413 88.344 190.565 88.568C191.701 88.744 192.293 89.016 192.853 89.64C193.381 90.232 193.621 90.904 193.621 91.848C193.621 92.712 193.253 93.592 192.661 94.184C191.781 95.032 190.437 95.48 188.725 95.48C186.853 95.48 185.573 95 184.661 93.96C184.261 93.512 184.053 93.096 183.765 92.168Z" fill="#0C3584"/>
<path d="M182.124 92.856V95.192C182.124 96.568 181.772 97.08 180.476 97.592L179.9 96.744C180.876 96.472 181.1 96.184 181.116 95.192H179.772V92.856H182.124Z" fill="#0C3584"/>
<path d="M168.062 92.168L170.35 91.72C170.558 92.456 170.702 92.712 171.102 93.032C171.63 93.448 172.27 93.656 173.038 93.656C174.622 93.656 175.63 92.84 175.63 91.576C175.63 90.84 175.31 90.232 174.734 89.896C174.35 89.672 173.598 89.512 172.894 89.512C172.19 89.512 171.726 89.528 171.182 89.592V87.608C171.694 87.672 172.046 87.688 172.734 87.688C174.334 87.688 175.278 86.952 175.278 85.72C175.278 84.616 174.526 83.992 173.166 83.992C172.382 83.992 171.806 84.168 171.422 84.488C171.102 84.792 170.942 85.064 170.75 85.72L168.462 85.336C168.862 84.152 169.23 83.592 169.982 83.048C170.798 82.456 171.838 82.168 173.118 82.168C175.79 82.168 177.518 83.512 177.518 85.592C177.518 86.552 177.102 87.432 176.414 87.944C176.062 88.216 175.71 88.344 174.862 88.568C175.998 88.744 176.59 89.016 177.15 89.64C177.678 90.232 177.918 90.904 177.918 91.848C177.918 92.712 177.55 93.592 176.958 94.184C176.078 95.032 174.734 95.48 173.022 95.48C171.15 95.48 169.87 95 168.958 93.96C168.558 93.512 168.35 93.096 168.062 92.168Z" fill="#0C3584"/>
<path d="M160.59 95.2881H158.222C158.302 94.6641 158.35 94.0081 158.35 93.2241V92.1361H155.934C155.214 92.1361 154.798 92.1681 154.254 92.2641V90.4401C154.814 90.5361 155.198 90.5681 155.934 90.5681H158.35V90.0881L157.822 89.2721H155.966C155.23 89.2721 154.83 89.3041 154.286 89.4001V87.5761C154.814 87.6721 155.23 87.7041 155.966 87.7041H156.862L154.638 84.1841C154.174 83.4641 153.758 82.8401 153.518 82.5361H156.27C156.414 83.0001 156.59 83.3521 157.038 84.1041L159.406 88.1681L161.774 84.1201C162.222 83.3681 162.414 82.9681 162.542 82.5361H165.31C165.102 82.8081 164.462 83.7201 164.174 84.1841L161.966 87.7041H162.862C163.582 87.7041 164.014 87.6721 164.542 87.5761V89.4001C163.998 89.3041 163.566 89.2721 162.862 89.2721H160.99L160.462 90.1041V90.5681H162.83C163.55 90.5681 163.95 90.5361 164.51 90.4401V92.2641C163.966 92.1681 163.534 92.1361 162.83 92.1361H160.462V93.2241C160.462 94.1361 160.494 94.6481 160.59 95.2881Z" fill="#0C3584"/>
<path d="M54.152 145.384H52.728C52.088 145.384 51.656 145.4 51.192 145.464V144.504C50.216 145.144 49.4 145.576 48.312 146.024C48.088 145.496 47.896 145.176 47.48 144.664C50.488 143.576 52.888 141.816 54.104 139.816H55.784C56.424 140.792 57.192 141.56 58.408 142.456C59.72 143.432 60.92 144.056 62.616 144.616C62.28 145.096 62.04 145.544 61.848 146.072C60.504 145.512 59.816 145.144 58.68 144.424V145.464C58.232 145.4 57.832 145.384 57.16 145.384H55.64V147.176H59.832C60.632 147.176 61.096 147.144 61.512 147.08V148.584C61.064 148.52 60.552 148.488 59.832 148.488H55.64V152.344H60.104C60.872 152.344 61.416 152.312 61.944 152.248V153.816C61.4 153.736 60.744 153.704 60.088 153.704H49.992C49.304 153.704 48.712 153.736 48.072 153.816V152.248C48.616 152.312 49.208 152.344 49.976 152.344H54.152V148.488H50.2C49.544 148.488 49.032 148.52 48.552 148.584V147.08C49 147.144 49.464 147.176 50.216 147.176H54.152V145.384ZM52.696 144.136H57.176C57.624 144.136 57.896 144.136 58.2 144.104C56.744 143.096 55.848 142.264 54.952 141.08C54.056 142.296 53.272 143.048 51.768 144.12C52.12 144.136 52.312 144.136 52.696 144.136ZM49.992 149.336L51.304 148.792C51.864 149.752 52.2 150.424 52.632 151.544L51.304 152.072C50.952 151.032 50.536 150.152 49.992 149.336ZM58.52 148.808L59.928 149.352C59.816 149.592 59.72 149.768 59.656 149.88C59 151.176 59 151.176 58.376 152.152L57.128 151.672C57.656 150.904 58.12 149.96 58.52 148.808Z" fill="black"/>
<path d="M35.0478 145.928V144.648C34.1038 145.288 33.4318 145.672 32.3598 146.152C32.1358 145.608 31.8798 145.208 31.5278 144.808C34.5038 143.592 36.7758 141.848 38.1678 139.688H39.7518C40.5518 140.84 41.2238 141.528 42.4398 142.424C43.8318 143.448 45.2238 144.216 46.6798 144.744C46.3118 145.256 46.0718 145.736 45.8958 146.232C44.8558 145.752 44.1678 145.384 43.0318 144.632V145.928C42.6158 145.88 42.2158 145.864 41.6238 145.864H36.3598C35.9118 145.864 35.4318 145.88 35.0478 145.928ZM36.3758 144.488H41.6238C42.0878 144.488 42.4078 144.472 42.7438 144.456C41.0318 143.288 40.0238 142.36 38.9998 140.984C38.0558 142.28 36.9998 143.272 35.3358 144.456C35.6878 144.488 35.8958 144.488 36.3758 144.488ZM36.7278 148.824H34.0878C33.2718 148.824 32.7438 148.856 32.2318 148.92V147.352C32.7438 147.416 33.3198 147.448 34.0878 147.448H44.0078C44.8078 147.448 45.3678 147.416 45.8638 147.352V148.92C45.3358 148.856 44.8078 148.824 44.0078 148.824H38.4078C37.7998 150.2 37.2878 151.16 36.5998 152.216C40.3438 151.928 40.3438 151.928 42.1518 151.72C41.4798 150.968 41.1598 150.632 40.4078 149.896L41.6398 149.24C43.4958 151.096 44.4078 152.12 45.3998 153.48L44.1358 154.36C43.6238 153.576 43.4318 153.32 43.1118 152.888C40.4558 153.24 37.4158 153.544 35.0318 153.72C33.7358 153.816 33.1118 153.88 32.7118 153.96L32.4718 152.328C32.8238 152.344 33.1438 152.36 33.3678 152.36C33.4958 152.36 33.7358 152.344 34.1038 152.328C34.2478 152.328 34.2478 152.328 34.8878 152.296C35.6718 151.096 36.2158 150.056 36.7278 148.824Z" fill="black"/>
<path d="M22.2479 141.88H20.0719C19.6879 141.88 19.2559 141.912 18.6799 141.96V140.36C19.0639 140.424 19.3999 140.44 20.0559 140.44H22.4239C23.1439 140.44 23.5279 140.424 23.8959 140.36C23.8639 140.728 23.8479 141.048 23.8479 141.368C23.8479 143.512 24.3759 145.528 25.4159 147.4C26.0559 148.536 26.8559 149.56 27.9119 150.568C28.7759 151.416 29.3039 151.8 30.5359 152.536C29.9759 153.064 29.7679 153.336 29.3679 154.04C27.6079 152.808 26.3439 151.544 25.1919 149.896C24.1999 148.472 23.5759 147.096 23.1279 145.32C22.5839 147.416 21.9279 148.84 20.8559 150.296C19.8159 151.72 18.5839 152.856 16.8079 154.072C16.5039 153.48 16.1999 153.128 15.6719 152.696C17.1599 151.816 17.9919 151.144 19.0799 149.928C20.3119 148.568 21.2239 146.936 21.7199 145.24C22.0559 144.072 22.1839 143.24 22.2479 141.88Z" fill="black"/>
<path d="M281.445 140.816L283.477 140.928C283.285 141.472 283.205 141.888 282.901 144.016C282.789 144.688 282.725 145.232 282.693 145.616H282.741C282.773 145.52 282.773 145.52 282.837 145.264C282.997 144.704 283.413 143.92 283.845 143.36C284.725 142.272 285.717 141.728 286.885 141.728C287.973 141.728 288.933 142.24 289.621 143.168C290.421 144.24 290.773 145.536 290.773 147.424C290.773 150.512 289.333 152.816 286.645 154C285.829 154.368 284.709 154.688 283.509 154.896C283.189 153.984 283.013 153.632 282.565 153.008C284.165 152.832 285.093 152.592 286.069 152.096C287.925 151.152 288.773 149.632 288.773 147.2C288.773 144.896 288.005 143.616 286.629 143.616C286.021 143.616 285.461 143.888 284.901 144.464C283.653 145.76 282.885 147.728 282.885 149.632C282.885 149.712 282.885 149.824 282.885 149.968L280.965 150C280.981 149.904 280.981 149.824 280.981 149.792C280.981 149.728 280.981 149.632 280.981 149.488C280.965 149.024 280.933 147.84 280.933 147.52C280.933 146.224 281.029 144.448 281.157 143.344L281.397 141.36C281.429 141.088 281.445 141.024 281.445 140.816Z" fill="#0C3584"/>
<path d="M271.797 144.608L273.605 145.12C273.541 145.248 273.541 145.248 273.413 145.584C273.253 146.032 273.237 146.048 273.189 146.192C273.845 146.352 274.309 146.576 274.853 146.976C275.877 147.744 276.373 148.736 276.373 150C276.373 151.744 275.429 153.104 273.621 154C272.677 154.464 271.765 154.704 270.357 154.848C270.181 154.16 270.037 153.872 269.509 153.04C270.805 153.024 271.621 152.848 272.565 152.4C273.845 151.792 274.437 151.008 274.437 149.904C274.437 148.896 273.781 148.08 272.645 147.696C271.765 149.6 271.013 150.752 269.861 151.952C268.421 153.472 266.997 154.256 265.669 154.256C264.181 154.256 263.173 153.12 263.173 151.456C263.173 150.144 263.733 148.88 264.757 147.872C265.397 147.248 265.989 146.848 266.949 146.432C266.949 145.92 266.981 145.28 267.013 144.512C266.837 144.512 265.973 144.496 264.421 144.448C264.261 144.448 264.149 144.448 264.117 144.448C264.069 144.448 263.925 144.448 263.749 144.464V142.672C264.469 142.832 265.413 142.912 266.741 142.912C266.757 142.912 266.773 142.912 267.093 142.912C267.109 142.592 267.109 142.592 267.157 141.952C267.173 141.744 267.189 141.344 267.189 141.04C267.189 140.976 267.189 140.912 267.157 140.784L269.141 140.88C269.013 141.312 268.949 141.728 268.853 142.848C271.413 142.704 273.685 142.384 274.917 142L274.997 143.84C274.773 143.856 274.709 143.856 274.373 143.904C272.613 144.192 270.021 144.432 268.741 144.464C268.693 145.152 268.677 145.664 268.661 146C269.525 145.824 269.893 145.792 270.869 145.792C271.061 145.792 271.189 145.792 271.477 145.824C271.653 145.312 271.749 144.976 271.797 144.608ZM266.981 148.256C266.277 148.72 266.005 148.96 265.685 149.36C265.205 149.984 264.965 150.64 264.965 151.312C264.965 152.032 265.317 152.48 265.877 152.48C266.325 152.48 266.757 152.288 267.269 151.872C267.061 150.832 266.981 149.808 266.981 148.256ZM268.789 150.672L268.821 150.688C268.885 150.592 268.885 150.592 268.997 150.464C269.749 149.616 270.389 148.592 270.981 147.264C270.805 147.248 270.725 147.248 270.565 147.248C269.861 147.248 269.285 147.328 268.645 147.536C268.661 149.008 268.661 149.168 268.757 150.288C268.773 150.384 268.773 150.384 268.773 150.496C268.773 150.576 268.773 150.592 268.789 150.672Z" fill="#0C3584"/>
<path d="M249.157 148.144H253.301C253.877 148.144 254.229 148.128 254.613 148.08C254.581 148.4 254.565 148.512 254.549 148.928C254.453 151.12 254.117 152.944 253.605 153.936C253.205 154.736 252.517 155.008 250.981 155.008C250.229 155.008 249.477 154.96 248.453 154.864C248.373 154.128 248.277 153.744 248.037 153.04C249.253 153.248 250.149 153.344 250.997 153.344C251.621 153.344 251.893 153.248 252.037 152.944C252.357 152.304 252.549 151.296 252.677 149.68H248.261C247.813 149.68 247.445 149.696 247.077 149.728C247.509 148.112 247.797 146.192 247.845 144.64C248.197 144.688 248.533 144.704 249.093 144.704H252.661V142.752H248.901C248.309 142.752 247.749 142.784 247.221 142.848V141.072C247.701 141.136 248.277 141.168 248.917 141.168H252.933C253.557 141.168 254.037 141.152 254.485 141.104C254.453 141.504 254.437 141.872 254.437 142.4V145.024C254.437 145.552 254.453 145.888 254.485 146.272C254.085 146.24 253.573 146.224 253.061 146.224H249.493C249.397 146.912 249.301 147.456 249.157 148.144ZM257.669 140.784H259.701C259.621 141.36 259.605 141.728 259.605 142.56V153.2C259.605 154.16 259.621 154.608 259.701 155.248H257.669C257.749 154.576 257.781 154.128 257.781 153.2V142.56C257.781 141.728 257.765 141.408 257.669 140.784Z" fill="#0C3584"/>
<path d="M234.325 145.44H233.077C232.421 145.44 232.117 145.456 231.637 145.52V144.832H230.629C230.677 144.48 230.693 144.208 230.693 143.68V142.832C230.693 142.32 230.677 142.032 230.629 141.664C231.109 141.712 231.461 141.728 232.261 141.728H234.277V141.632C234.277 141.152 234.261 140.832 234.197 140.528H236.101C236.037 140.848 236.021 141.12 236.021 141.616V141.728H237.653C238.485 141.728 238.917 141.712 239.429 141.664C239.397 142.016 239.381 142.32 239.381 142.816V143.616C239.381 144.096 239.397 144.4 239.429 144.736H238.533V145.52C238.053 145.456 237.765 145.44 237.125 145.44H235.893V146.16H237.365C237.941 146.16 238.245 146.144 238.629 146.096V147.504C238.245 147.456 238.021 147.44 237.365 147.44H235.893V148.24H237.989C238.661 148.24 238.965 148.224 239.381 148.16V149.712C238.981 149.664 238.645 149.648 237.989 149.648H231.973C231.397 149.648 230.949 149.664 230.549 149.712V148.16C230.965 148.224 231.285 148.24 231.973 148.24H234.325V147.44H232.725C232.069 147.44 231.829 147.456 231.429 147.504V146.096C231.813 146.144 232.149 146.16 232.725 146.16H234.325V145.44ZM233.077 144.144H234.325C234.309 143.776 234.293 143.648 234.245 143.424H235.973C235.925 143.648 235.909 143.792 235.893 144.144H237.125C237.445 144.144 237.637 144.144 237.877 144.128V143.104H232.245V144.128C232.533 144.144 232.693 144.144 233.077 144.144ZM232.869 150.336H237.333C237.877 150.336 238.229 150.32 238.597 150.288C238.549 150.688 238.533 151.024 238.533 151.696V153.712C238.533 154.416 238.549 154.752 238.613 155.152H236.869V154.656H233.253V155.328H231.477C231.557 154.88 231.573 154.512 231.573 153.904V151.776C231.573 151.216 231.557 150.768 231.509 150.288C231.877 150.32 232.293 150.336 232.869 150.336ZM233.253 151.68V153.232H236.869V151.68H233.253ZM240.021 141.664H241.829C241.765 142.08 241.749 142.512 241.749 143.328V149.808C241.749 150.752 241.765 151.088 241.829 151.504H240.021C240.085 151.04 240.101 150.704 240.101 149.792V143.36C240.101 142.48 240.085 142.112 240.021 141.664ZM242.869 140.656H244.741C244.661 141.088 244.629 141.632 244.629 142.592V153.264C244.629 154.752 244.149 155.12 242.213 155.12C241.829 155.12 241.557 155.104 240.725 155.056C240.629 154.368 240.517 153.936 240.277 153.392C241.221 153.488 241.717 153.536 242.085 153.536C242.821 153.536 242.965 153.456 242.965 153.04V142.64C242.965 141.664 242.949 141.184 242.869 140.656Z" fill="#0C3584"/>
<path d="M221.109 152.672V146.736H218.757C218.053 146.736 217.605 146.752 217.141 146.816V145.12C217.557 145.184 218.021 145.2 218.757 145.2H224.885C225.637 145.2 226.101 145.184 226.533 145.12V146.816C226.085 146.752 225.621 146.736 224.885 146.736H222.789V148.784H225.813C226.549 148.784 226.949 148.768 227.381 148.688V150.4C226.901 150.336 226.517 150.32 225.813 150.32H222.789V153.072C223.573 153.184 224.453 153.232 225.397 153.232C226.325 153.232 227.413 153.184 229.045 153.04C228.789 153.696 228.677 154.128 228.597 154.864C227.285 154.896 226.453 154.912 225.189 154.912C221.445 154.912 219.349 154.096 218.037 152.16C217.525 153.264 216.917 154.144 215.845 155.296C215.429 154.704 215.205 154.496 214.469 153.984C215.781 152.8 216.709 151.264 217.221 149.456C217.397 148.8 217.525 148.08 217.541 147.728L219.317 148.064C219.237 148.336 219.237 148.352 219.093 149.008C219.013 149.328 218.917 149.696 218.677 150.448C219.317 151.584 219.973 152.176 221.109 152.672ZM220.837 142.192V141.6C220.837 141.2 220.805 140.928 220.741 140.576H222.709C222.645 140.912 222.629 141.168 222.629 141.584V142.192H226.949C227.589 142.192 228.133 142.176 228.725 142.128C228.677 142.496 228.661 142.848 228.661 143.312V144.56C228.661 145.024 228.677 145.392 228.725 145.808H226.997V143.808H216.661V145.808H214.885C214.949 145.424 214.965 145.104 214.965 144.544V143.312C214.965 142.896 214.933 142.496 214.901 142.128C215.477 142.176 216.021 142.192 216.661 142.192H220.837Z" fill="#0C3584"/>
<path d="M207.589 148.288H206.437V152.88C208.229 152.48 208.229 152.48 209.093 152.192L209.141 153.808C207.477 154.304 206.405 154.56 204.037 155.088C203.685 155.168 203.397 155.248 203.221 155.312L202.901 153.504C203.221 153.504 203.797 153.408 204.789 153.232V142.8C204.789 142.08 204.773 141.696 204.725 141.088C205.045 141.152 205.429 141.168 206.261 141.168H210.837C211.605 141.168 211.909 141.152 212.325 141.088C212.293 141.472 212.277 141.84 212.277 142.864V146.592C212.277 147.504 212.293 147.808 212.341 148.336C212.037 148.304 212.037 148.304 211.893 148.304L213.189 149.408C213.109 149.44 212.869 149.632 212.741 149.744C212.245 150.176 211.269 150.928 210.581 151.408C211.365 152.368 212.277 153.072 213.525 153.68C213.109 154.16 212.853 154.576 212.517 155.312C210.965 154.336 209.989 153.424 209.173 152.208C208.405 151.056 207.989 150.032 207.589 148.288ZM211.045 148.288H209.125C209.333 149.12 209.461 149.488 209.749 150.096C210.709 149.424 211.541 148.688 211.829 148.304C211.621 148.288 211.269 148.288 211.045 148.288ZM206.437 142.704V144H210.645V142.704H206.437ZM206.437 145.408V146.832H210.645V145.408H206.437ZM199.109 153.456V142.464C199.109 141.968 199.093 141.696 199.061 140.992C199.349 141.024 199.653 141.04 200.229 141.04H202.581C203.221 141.04 203.557 141.008 203.749 140.96L204.661 142.08C204.549 142.288 204.501 142.416 204.165 143.296C203.829 144.176 203.461 145.008 202.933 146.032C203.589 146.928 203.845 147.392 204.069 148.08C204.229 148.576 204.325 149.168 204.325 149.664C204.325 150.608 204.037 151.216 203.461 151.488C203.029 151.712 202.581 151.776 201.429 151.776C201.397 151.008 201.333 150.64 201.093 150.096C201.317 150.128 201.589 150.16 201.797 150.16C202.421 150.16 202.629 149.984 202.629 149.456C202.629 148.912 202.501 148.352 202.277 147.808C202.037 147.28 201.797 146.912 201.157 146.176C201.861 144.816 202.037 144.4 202.645 142.576H200.789V153.456C200.789 154.128 200.821 154.72 200.869 155.296H199.013C199.077 154.816 199.109 154.208 199.109 153.456Z" fill="#0C3584"/>
<path d="M189.796 147.36L195.476 141.68L195.988 142.208L190.308 147.92L195.988 153.6L195.476 154.128L189.796 148.496L184.132 154.128L183.604 153.6L189.284 147.92L183.604 142.208L184.132 141.68L189.796 147.36ZM189.812 142.064C190.484 142.064 191.028 142.608 191.028 143.28C191.028 143.968 190.484 144.512 189.812 144.512C189.14 144.512 188.58 143.952 188.58 143.28C188.58 142.608 189.14 142.064 189.812 142.064ZM185.22 146.688C185.892 146.688 186.436 147.232 186.436 147.904C186.436 148.592 185.892 149.136 185.22 149.136C184.548 149.136 183.988 148.576 183.988 147.904C183.988 147.232 184.532 146.688 185.22 146.688ZM194.372 146.704C195.044 146.704 195.588 147.248 195.588 147.92C195.588 148.592 195.044 149.136 194.372 149.136C193.7 149.136 193.156 148.592 193.156 147.92C193.156 147.248 193.7 146.704 194.372 146.704ZM189.796 151.344C190.468 151.344 191.012 151.888 191.012 152.576C191.012 153.248 190.452 153.808 189.796 153.808C189.156 153.808 188.564 153.216 188.564 152.576C188.564 151.968 189.14 151.344 189.684 151.344C189.7 151.344 189.716 151.344 189.732 151.36C189.748 151.376 189.748 151.376 189.764 151.376C189.764 151.376 189.764 151.376 189.796 151.344Z" fill="#0C3584"/>
<path d="M170.758 154.448C169.398 154.448 168.246 154 167.398 153.152C166.918 152.672 166.55 152.112 166.342 151.536C165.926 150.4 165.718 149.152 165.718 147.856C165.718 146.16 166.102 144.4 166.694 143.424C167.558 141.984 168.998 141.2 170.774 141.2C172.134 141.2 173.302 141.648 174.15 142.496C174.63 142.976 174.998 143.536 175.206 144.112C175.622 145.232 175.83 146.512 175.83 147.824C175.83 149.792 175.398 151.52 174.646 152.56C173.75 153.808 172.422 154.448 170.758 154.448ZM170.774 152.592C171.478 152.592 172.102 152.352 172.502 151.92C173.222 151.168 173.622 149.68 173.622 147.808C173.622 145.952 173.222 144.496 172.502 143.712C172.118 143.28 171.478 143.04 170.758 143.04C169.99 143.04 169.43 143.296 168.966 143.856C168.262 144.688 167.91 146 167.91 147.744C167.91 149.424 168.214 150.816 168.726 151.552C169.222 152.256 169.894 152.592 170.774 152.592Z" fill="#0C3584"/>
<path d="M159.367 154.448C158.007 154.448 156.855 154 156.007 153.152C155.527 152.672 155.159 152.112 154.951 151.536C154.535 150.4 154.327 149.152 154.327 147.856C154.327 146.16 154.711 144.4 155.303 143.424C156.167 141.984 157.607 141.2 159.383 141.2C160.743 141.2 161.911 141.648 162.759 142.496C163.239 142.976 163.607 143.536 163.815 144.112C164.231 145.232 164.439 146.512 164.439 147.824C164.439 149.792 164.007 151.52 163.255 152.56C162.359 153.808 161.031 154.448 159.367 154.448ZM159.383 152.592C160.087 152.592 160.711 152.352 161.111 151.92C161.831 151.168 162.231 149.68 162.231 147.808C162.231 145.952 161.831 144.496 161.111 143.712C160.727 143.28 160.087 143.04 159.367 143.04C158.599 143.04 158.039 143.296 157.575 143.856C156.871 144.688 156.519 146 156.519 147.744C156.519 149.424 156.823 150.816 157.335 151.552C157.831 152.256 158.503 152.592 159.383 152.592Z" fill="#0C3584"/>
<path d="M143.241 151.344L145.449 150.88C145.593 151.344 145.705 151.552 145.929 151.808C146.377 152.352 147.049 152.624 147.897 152.624C149.481 152.624 150.521 151.568 150.521 149.984C150.521 148.416 149.529 147.408 148.009 147.408C147.225 147.408 146.521 147.664 146.025 148.144C145.801 148.368 145.689 148.512 145.545 148.864L143.545 148.672C143.705 147.536 143.721 147.456 143.753 147.008L144.121 143.04C144.137 142.752 144.169 142.208 144.185 141.408C144.665 141.44 145.033 141.456 145.881 141.456H149.817C150.921 141.456 151.321 141.44 152.041 141.328V143.344C151.337 143.248 150.713 143.216 149.833 143.216H146.073L145.817 146.016C145.801 146.144 145.769 146.368 145.721 146.688C146.505 146.016 147.353 145.712 148.457 145.712C149.753 145.712 150.793 146.096 151.577 146.912C152.361 147.68 152.713 148.64 152.713 149.92C152.713 152.736 150.873 154.48 147.897 154.48C146.313 154.48 145.129 154.032 144.249 153.088C143.817 152.624 143.593 152.24 143.241 151.344Z" fill="#0C3584"/>
<path d="M141.312 151.856V154.192C141.312 155.568 140.96 156.08 139.664 156.592L139.088 155.744C140.064 155.472 140.288 155.184 140.304 154.192H138.96V151.856H141.312Z" fill="#0C3584"/>
<path d="M136.962 144.064L134.802 144.576C134.386 143.408 133.794 142.96 132.658 142.96C131.522 142.96 130.69 143.52 130.146 144.624C129.746 145.456 129.57 146.224 129.49 147.456C130.354 146.288 131.298 145.856 132.914 145.856C134.546 145.856 135.922 146.56 136.626 147.76C137.01 148.384 137.202 149.216 137.202 150.16C137.202 152.688 135.282 154.48 132.562 154.48C131.282 154.48 130.098 154.096 129.314 153.424C128.13 152.4 127.458 150.48 127.458 148.064C127.458 146.096 127.954 144.208 128.77 143.12C129.714 141.84 130.994 141.216 132.674 141.216C134.05 141.216 135.186 141.632 135.954 142.432C136.37 142.864 136.61 143.232 136.962 144.064ZM132.546 147.6C130.978 147.6 129.81 148.688 129.81 150.16C129.81 151.616 130.946 152.688 132.514 152.688C133.442 152.688 134.258 152.272 134.706 151.568C134.946 151.2 135.074 150.672 135.074 150.112C135.074 148.528 134.13 147.6 132.546 147.6Z" fill="#0C3584"/>
<path d="M122.371 154.192H119.955C120.051 153.568 120.083 152.944 120.083 152.112V143.296H119.315C118.723 143.296 118.259 143.328 117.667 143.392V141.36C118.163 141.44 118.515 141.456 119.267 141.456H120.739C121.555 141.456 121.795 141.44 122.371 141.376C122.275 142.32 122.243 143.056 122.243 144.016V152.112C122.243 152.96 122.275 153.536 122.371 154.192Z" fill="#0C3584"/>
<path d="M108.387 154.288H106.019C106.099 153.664 106.147 153.008 106.147 152.224V151.136H103.731C103.011 151.136 102.595 151.168 102.051 151.264V149.44C102.611 149.536 102.995 149.568 103.731 149.568H106.147V149.088L105.619 148.272H103.763C103.027 148.272 102.627 148.304 102.083 148.4V146.576C102.611 146.672 103.027 146.704 103.763 146.704H104.659L102.435 143.184C101.971 142.464 101.555 141.84 101.315 141.536H104.067C104.211 142 104.387 142.352 104.835 143.104L107.203 147.168L109.571 143.12C110.019 142.368 110.211 141.968 110.339 141.536H113.107C112.899 141.808 112.259 142.72 111.971 143.184L109.763 146.704H110.659C111.379 146.704 111.811 146.672 112.339 146.576V148.4C111.795 148.304 111.363 148.272 110.659 148.272H108.787L108.259 149.104V149.568H110.627C111.347 149.568 111.747 149.536 112.307 149.44V151.264C111.763 151.168 111.331 151.136 110.627 151.136H108.259V152.224C108.259 153.136 108.291 153.648 108.387 154.288Z" fill="#0C3584"/>
</svg>
