<svg xmlns="http://www.w3.org/2000/svg" xmlns:xlink="http://www.w3.org/1999/xlink" width="44" height="44" viewBox="0 0 44 44">
  <defs>
    <linearGradient id="linear-gradient" x1="0.5" y1="0.941" x2="0.5" y2="0.444" gradientUnits="objectBoundingBox">
      <stop offset="0" stop-color="#fd8000"/>
      <stop offset="1" stop-color="#fead5b"/>
    </linearGradient>
  </defs>
  <g id="グループ_97" data-name="グループ 97" transform="translate(9462 86)">
    <g id="長方形_475" data-name="長方形 475" transform="translate(-9462 -86)" stroke="#fe8723" stroke-width="1" fill="url(#linear-gradient)">
      <rect width="44" height="44" rx="5" stroke="none"/>
      <rect x="0.5" y="0.5" width="43" height="43" rx="4.5" fill="none"/>
    </g>
    <g id="グループ_96" data-name="グループ 96" transform="translate(-2234.222 -98.222)">
      <g id="パス_28" data-name="パス 28" transform="translate(-7213.925 24.179) rotate(45)" fill="#fff">
        <path d="M 25.21799278259277 2.126984357833862 L 0.5056818127632141 2.126340389251709 L 0.5056390762329102 0.5551104545593262 L 25.21794891357422 0.5557543635368347 L 25.21799278259277 2.126984357833862 Z" stroke="none"/>
        <path d="M 1.005653381347656 1.055123448371887 L 1.005668640136719 1.62635350227356 L 24.71797752380371 1.626971364021301 L 24.71796226501465 1.055741310119629 L 1.005653381347656 1.055123448371887 M 0.005624771118164062 0.05509734153747559 L 25.71793556213379 0.05576729774475098 L 25.7180061340332 2.626997470855713 L 0.005695343017578125 2.626327514648438 L 0.005624771118164062 0.05509734153747559 Z" stroke="none" fill="#fff"/>
      </g>
      <g id="パス_29" data-name="パス 29" transform="translate(-7195.778 26.04) rotate(135)" fill="#fff">
        <path d="M 0.4999514520168304 2.071003913879395 L 0.4999881088733673 0.4999839067459106 L 25.21251678466797 0.4993495941162109 L 25.21247291564941 2.070369482040405 L 0.4999514520168304 2.071003913879395 Z" stroke="none"/>
        <path d="M 24.71250343322754 0.9993624687194824 L 0.9999732971191406 0.9999710321426392 L 0.9999561309814453 1.570991039276123 L 24.71248626708984 1.570382356643677 L 24.71250343322754 0.9993624687194824 M 25.7125301361084 -0.0006632804870605469 L 25.71245956420898 2.570356845855713 L -7.05718994140625e-05 2.571016788482666 L 0 -3.337860107421875e-06 L 25.7125301361084 -0.0006632804870605469 Z" stroke="none" fill="#fff"/>
      </g>
    </g>
  </g>
</svg>
