<svg width="406" height="198" viewBox="0 0 406 198" fill="none" xmlns="http://www.w3.org/2000/svg">
<path d="M405 1H1V197H405V1Z" fill="#FFFFDF" stroke="#666666" stroke-width="2"/>
<path d="M64 2H2V196H64V2Z" fill="#FF9900"/>
<path d="M217 2H63V22H217V2Z" fill="#FFCACA"/>
<path d="M217 22H63V60H217V22Z" fill="#FFCACA"/>
<path d="M217 60H65V98H217V60Z" fill="#FFCACA"/>
<path d="M324 2H217V96H324V2Z" fill="#BDDE7A"/>
<path d="M404 2H325V96H404V2Z" fill="#FBE96C"/>
<path d="M128.719 7.209V15.954C128.719 16.174 128.631 16.251 128.4 16.251C128.191 16.262 127.399 16.273 126.596 16.24C126.728 16.471 126.882 16.856 126.937 17.087C127.96 17.098 128.642 17.076 129.038 16.944C129.423 16.801 129.588 16.559 129.588 15.954V7.209H128.719ZM131.348 9.981C132.283 11.554 133.163 13.6 133.427 14.898L134.285 14.535C134.01 13.226 133.086 11.224 132.118 9.684L131.348 9.981ZM125.848 9.761C125.584 11.235 124.979 13.127 124 14.282C124.22 14.37 124.572 14.568 124.77 14.711C125.76 13.49 126.398 11.521 126.75 9.926L125.848 9.761ZM136.298 9.596H143.965V11.301H144.757V8.87H143.052C143.426 8.43 143.833 7.902 144.174 7.407L143.327 7.121C143.052 7.638 142.568 8.364 142.15 8.87H140.203L140.676 8.683C140.533 8.221 140.159 7.517 139.785 7L139.07 7.264C139.4 7.748 139.752 8.408 139.884 8.87H137.64L138.014 8.683C137.816 8.265 137.365 7.638 136.958 7.187L136.276 7.495C136.606 7.902 136.991 8.463 137.2 8.87H135.517V11.301H136.298V9.596ZM144.955 13.215H140.522V12.94C141.49 12.478 142.513 11.785 143.195 11.081L142.667 10.685L142.502 10.729H137.134V11.455H141.677C141.226 11.807 140.665 12.159 140.126 12.423H139.708V13.215H135.308V13.974H139.708V16.097C139.708 16.262 139.653 16.317 139.422 16.328C139.213 16.339 138.465 16.339 137.629 16.317C137.75 16.526 137.915 16.867 137.97 17.098C138.971 17.098 139.598 17.087 139.994 16.966C140.39 16.845 140.522 16.603 140.522 16.119V13.974H144.955V13.215ZM151.599 8.265H149.366V7.088H148.585V8.265H146.385V8.98H151.599V8.265ZM150.246 11.18C150.477 10.696 150.741 9.97 150.972 9.332L150.202 9.145C150.07 9.695 149.795 10.509 149.586 11.015L150.246 11.18ZM148.244 10.982C148.189 10.509 147.991 9.761 147.738 9.222L147.056 9.365C147.287 9.926 147.485 10.663 147.54 11.147L148.244 10.982ZM150.345 13.71V15.734H147.595V13.71H150.345ZM146.836 17.098H147.595V16.449H150.345V17.032H151.137V12.984H146.836V17.098ZM146.099 12.027H151.753V11.279H146.099V12.027ZM155.559 7.66L155.427 7.693H152.193V17.087H152.985V8.463H155.064C154.723 9.343 154.239 10.531 153.788 11.455C154.899 12.412 155.207 13.226 155.207 13.919C155.207 14.315 155.141 14.645 154.91 14.788C154.778 14.865 154.602 14.898 154.437 14.909C154.206 14.92 153.909 14.92 153.568 14.887C153.711 15.118 153.788 15.47 153.799 15.701C154.118 15.712 154.481 15.712 154.756 15.679C155.042 15.646 155.273 15.569 155.471 15.437C155.856 15.184 156.01 14.678 156.01 14.007C155.999 13.226 155.724 12.357 154.624 11.345C155.141 10.344 155.702 9.079 156.153 8.045L155.559 7.66Z" fill="black"/>
<path d="M77.719 40.203H79.446V41.6H77.719V40.203ZM82.064 40.203V41.6H80.249V40.203H82.064ZM79.446 45.439H80.249V42.821C80.964 43.723 81.965 44.603 82.856 45.087C82.988 44.878 83.23 44.592 83.417 44.449C82.438 44.02 81.305 43.129 80.612 42.26H82.856V39.554H80.249V38.641H83.351V37.937H80.249V36.815H79.446V37.937H76.52V38.641H79.446V39.554H76.971V42.26H79.017C78.379 43.184 77.301 44.064 76.311 44.493C76.487 44.636 76.718 44.922 76.839 45.109C77.774 44.625 78.764 43.734 79.446 42.777V45.439ZM76.212 38.762C75.827 38.234 75.002 37.53 74.298 37.068L73.693 37.563C74.408 38.047 75.222 38.773 75.563 39.301L76.212 38.762ZM75.904 41.105H73.572V41.875H75.101V44.658C74.551 45.12 73.935 45.582 73.429 45.912L73.869 46.737C74.452 46.264 75.002 45.791 75.53 45.329C76.234 46.176 77.213 46.572 78.643 46.627C79.853 46.671 82.108 46.649 83.307 46.605C83.34 46.352 83.483 45.967 83.571 45.769C82.284 45.857 79.842 45.89 78.643 45.846C77.378 45.791 76.421 45.417 75.904 44.614V41.105ZM90.93 39.499H88.796V40.192H94.021V39.499H91.744V38.476H94.34V37.783H91.744V36.793H90.93V37.783H88.444V38.476H90.93V39.499ZM89.137 41.655H93.625V42.92H94.384V40.984H88.4V42.92H89.137V41.655ZM87.839 37.178H84.99V37.838H87.839V37.178ZM88.169 38.619H84.462V39.29H88.169V38.619ZM87.19 43.701V45.538H85.606V43.701H87.19ZM87.883 43.03H84.913V46.715H85.606V46.198H87.883V43.03ZM84.924 42.216H87.883V41.556H84.924V42.216ZM84.924 40.753H87.883V40.104H84.924V40.753ZM90.017 42.381C89.929 44.438 89.676 45.582 87.916 46.209C88.081 46.363 88.301 46.671 88.389 46.847C90.325 46.088 90.688 44.713 90.787 42.381H90.017ZM92.921 45.978C92.69 45.978 92.657 45.945 92.657 45.67V42.381H91.898V45.67C91.898 46.473 92.074 46.715 92.822 46.715H93.735C94.384 46.715 94.582 46.33 94.637 44.856C94.439 44.79 94.109 44.669 93.966 44.537C93.933 45.802 93.889 45.978 93.647 45.978H92.921ZM98.498 43.327V42.04H99.488V43.327H98.498ZM96.914 42.04H97.904V43.327H96.892C96.914 43.03 96.914 42.733 96.914 42.469V42.04ZM98.564 38.421C98.432 38.806 98.245 39.235 98.08 39.565H96.815C97.013 39.213 97.189 38.828 97.365 38.421H98.564ZM98.498 40.214H99.488V41.424H98.498V40.214ZM96.914 40.214H97.904V41.424H96.914V40.214ZM104.493 38.047C104.427 39.323 104.328 39.829 104.207 39.972C104.13 40.071 104.042 40.082 103.899 40.071C103.745 40.071 103.338 40.071 102.909 40.027C103.008 40.214 103.074 40.5 103.096 40.709C103.547 40.731 103.998 40.742 104.229 40.72C104.515 40.698 104.68 40.621 104.823 40.445C105.065 40.181 105.153 39.477 105.241 37.662C105.252 37.563 105.252 37.354 105.252 37.354H100.5V38.047H101.985C101.776 39.081 101.336 39.95 100.181 40.456V39.565H98.806C99.059 39.092 99.312 38.531 99.499 38.047L99.015 37.739L98.894 37.772H97.607C97.695 37.508 97.783 37.233 97.86 36.958L97.101 36.793C96.771 38.135 96.166 39.433 95.385 40.269C95.561 40.379 95.88 40.632 96.001 40.764C96.078 40.676 96.155 40.577 96.232 40.467V42.469C96.232 43.701 96.155 45.329 95.418 46.484C95.583 46.561 95.891 46.737 96.001 46.858C96.518 46.066 96.749 44.988 96.848 43.965H99.488V45.945C99.488 46.088 99.433 46.132 99.279 46.143C99.136 46.154 98.641 46.154 98.069 46.132C98.179 46.319 98.3 46.638 98.333 46.825C99.092 46.825 99.532 46.814 99.807 46.693C100.093 46.572 100.181 46.341 100.181 45.945V40.467C100.335 40.599 100.533 40.841 100.621 41.017C101.974 40.401 102.502 39.345 102.733 38.047H104.493ZM105.549 44.02H103.459V42.667H105.362V41.963H103.459V40.841H102.678V41.963H101.721C101.809 41.677 101.886 41.38 101.952 41.083L101.259 40.94C101.061 41.875 100.731 42.777 100.247 43.404C100.434 43.492 100.753 43.646 100.885 43.745C101.094 43.448 101.292 43.074 101.457 42.667H102.678V44.02H100.368V44.724H102.678V46.781H103.459V44.724H105.549V44.02Z" fill="black"/>
<path d="M180.533 37.9479H178.531V36.8369H177.739V37.9479H175.715V38.6299H180.533V37.9479ZM179.268 40.3899C179.477 39.9939 179.697 39.3779 179.906 38.8279L179.158 38.6519C179.059 39.1249 178.806 39.8069 178.608 40.2469L179.268 40.3899ZM177.486 40.2359C177.431 39.8179 177.244 39.1689 177.013 38.6739L176.375 38.8389C176.584 39.3339 176.76 39.9939 176.804 40.4229L177.486 40.2359ZM180.269 44.6469C180.016 44.4159 178.949 43.5469 178.531 43.2389V42.9749H180.577V42.2819H178.531V41.1269H180.665V40.4339H175.561V41.1269H177.739V42.2819H175.594V42.9749H177.563C177.013 43.9429 176.144 44.9329 175.352 45.4499C175.528 45.5929 175.77 45.8569 175.902 46.0439C176.518 45.5599 177.2 44.7789 177.739 43.9319V46.8139H178.531V44.0199C178.993 44.4379 179.554 44.9769 179.785 45.2519L180.269 44.6469ZM185.516 40.4779H181.842V38.5199C183.063 38.2779 184.438 37.9479 185.373 37.5299L184.713 36.9249C184.009 37.2769 182.777 37.6289 181.655 37.8709L181.061 37.6839V41.5119C181.061 43.0519 180.907 44.9549 179.51 46.3189C179.697 46.4289 179.994 46.7149 180.093 46.8909C181.633 45.3619 181.842 43.1619 181.842 41.5229V41.2479H183.481V46.7699H184.284V41.2479H185.516V40.4779ZM191.83 43.8329V41.9849H194.03V41.2809H191.83V39.7189H194.305V38.9819H188.684V39.7189H191.06V41.2809H188.992V41.9849H191.06V43.8329H188.53V44.5259H194.525V43.8329H191.83ZM192.523 42.4689C192.919 42.8429 193.381 43.3709 193.59 43.7119L194.151 43.3819C193.931 43.0409 193.447 42.5349 193.04 42.1829L192.523 42.4689ZM187.804 45.5379V38.0579H195.163V45.5379H187.804ZM186.99 37.2989V46.8469H187.804V46.2969H195.163V46.8469H196.01V37.2989H186.99ZM201.048 37.1779H198.045V37.8379H201.048V37.1779ZM200.388 43.8219V45.6589H198.672V43.8219H200.388ZM201.103 43.1509H197.957V46.8249H198.672V46.3299H201.103V43.1509ZM197.979 42.3039H201.059V41.6549H197.979V42.3039ZM201.059 40.1589H197.979V40.8079H201.059V40.1589ZM197.462 39.3119H201.433V38.6409H197.462V39.3119ZM206.097 43.6459V45.5929H203.039V43.6459H206.097ZM202.269 46.8359H203.039V46.3299H206.097V46.7919H206.889V42.9199H202.269V46.8359ZM205.811 39.7519V41.3469H203.699C203.798 40.8849 203.897 40.3349 203.996 39.7519H205.811ZM206.592 41.3469V39.0479H204.117C204.183 38.6629 204.249 38.2779 204.304 37.9149H207.208V37.1999H201.807V37.9149H203.501C203.446 38.2779 203.391 38.6629 203.325 39.0479H201.972V39.7519H203.215C203.116 40.3239 203.006 40.8849 202.907 41.3469H201.477V42.0729H207.56V41.3469H206.592Z" fill="black"/>
<path d="M286.181 38.111H284.179V37H283.387V38.111H281.363V38.793H286.181V38.111ZM284.916 40.553C285.125 40.157 285.345 39.541 285.554 38.991L284.806 38.815C284.707 39.288 284.454 39.97 284.256 40.41L284.916 40.553ZM283.134 40.399C283.079 39.981 282.892 39.332 282.661 38.837L282.023 39.002C282.232 39.497 282.408 40.157 282.452 40.586L283.134 40.399ZM285.917 44.81C285.664 44.579 284.597 43.71 284.179 43.402V43.138H286.225V42.445H284.179V41.29H286.313V40.597H281.209V41.29H283.387V42.445H281.242V43.138H283.211C282.661 44.106 281.792 45.096 281 45.613C281.176 45.756 281.418 46.02 281.55 46.207C282.166 45.723 282.848 44.942 283.387 44.095V46.977H284.179V44.183C284.641 44.601 285.202 45.14 285.433 45.415L285.917 44.81ZM291.164 40.641H287.49V38.683C288.711 38.441 290.086 38.111 291.021 37.693L290.361 37.088C289.657 37.44 288.425 37.792 287.303 38.034L286.709 37.847V41.675C286.709 43.215 286.555 45.118 285.158 46.482C285.345 46.592 285.642 46.878 285.741 47.054C287.281 45.525 287.49 43.325 287.49 41.686V41.411H289.129V46.933H289.932V41.411H291.164V40.641ZM297.478 43.996V42.148H299.678V41.444H297.478V39.882H299.953V39.145H294.332V39.882H296.708V41.444H294.64V42.148H296.708V43.996H294.178V44.689H300.173V43.996H297.478ZM298.171 42.632C298.567 43.006 299.029 43.534 299.238 43.875L299.799 43.545C299.579 43.204 299.095 42.698 298.688 42.346L298.171 42.632ZM293.452 45.701V38.221H300.811V45.701H293.452ZM292.638 37.462V47.01H293.452V46.46H300.811V47.01H301.658V37.462H292.638ZM306.696 37.341H303.693V38.001H306.696V37.341ZM306.036 43.985V45.822H304.32V43.985H306.036ZM306.751 43.314H303.605V46.988H304.32V46.493H306.751V43.314ZM303.627 42.467H306.707V41.818H303.627V42.467ZM306.707 40.322H303.627V40.971H306.707V40.322ZM303.11 39.475H307.081V38.804H303.11V39.475ZM311.745 43.809V45.756H308.687V43.809H311.745ZM307.917 46.999H308.687V46.493H311.745V46.955H312.537V43.083H307.917V46.999ZM311.459 39.915V41.51H309.347C309.446 41.048 309.545 40.498 309.644 39.915H311.459ZM312.24 41.51V39.211H309.765C309.831 38.826 309.897 38.441 309.952 38.078H312.856V37.363H307.455V38.078H309.149C309.094 38.441 309.039 38.826 308.973 39.211H307.62V39.915H308.863C308.764 40.487 308.654 41.048 308.555 41.51H307.125V42.236H313.208V41.51H312.24Z" fill="black"/>
<path d="M114.621 83.1074C114.132 83.1074 113.691 83.0136 113.301 82.8261C112.913 82.636 112.603 82.3756 112.371 82.0449C112.139 81.7141 112.016 81.3365 112 80.9121H113.172C113.201 81.2558 113.353 81.5384 113.629 81.7597C113.905 81.9811 114.236 82.0917 114.621 82.0917C114.928 82.0917 115.201 82.0214 115.438 81.8808C115.677 81.7376 115.865 81.541 116 81.291C116.138 81.041 116.207 80.7558 116.207 80.4355C116.207 80.11 116.137 79.8196 115.996 79.5644C115.856 79.3092 115.661 79.1087 115.414 78.9628C115.169 78.817 114.888 78.7428 114.57 78.7402C114.328 78.7402 114.085 78.7819 113.84 78.8652C113.595 78.9485 113.397 79.0579 113.246 79.1933L112.141 79.0292L112.59 74.998H116.988V76.0332H113.594L113.34 78.2714H113.387C113.543 78.1204 113.75 77.9941 114.008 77.8925C114.268 77.791 114.547 77.7402 114.844 77.7402C115.331 77.7402 115.764 77.8561 116.145 78.0878C116.527 78.3196 116.828 78.636 117.047 79.0371C117.268 79.4355 117.378 79.8938 117.375 80.4121C117.378 80.9303 117.26 81.3925 117.023 81.7988C116.789 82.205 116.464 82.5253 116.047 82.7597C115.633 82.9915 115.158 83.1074 114.621 83.1074ZM121.587 83.1308C120.97 83.1282 120.442 82.9654 120.005 82.6425C119.567 82.3196 119.233 81.8496 119.001 81.2324C118.769 80.6152 118.653 79.8717 118.653 79.0019C118.653 78.1347 118.769 77.3938 119.001 76.7792C119.235 76.1647 119.571 75.6959 120.009 75.373C120.449 75.0501 120.975 74.8886 121.587 74.8886C122.199 74.8886 122.724 75.0514 123.161 75.3769C123.599 75.6998 123.933 76.1686 124.165 76.7832C124.399 77.3951 124.517 78.1347 124.517 79.0019C124.517 79.8743 124.401 80.6191 124.169 81.2363C123.937 81.8509 123.603 82.3209 123.165 82.6464C122.728 82.9694 122.202 83.1308 121.587 83.1308ZM121.587 82.0878C122.129 82.0878 122.552 81.8235 122.856 81.2949C123.164 80.7662 123.317 80.0019 123.317 79.0019C123.317 78.3378 123.247 77.7766 123.106 77.3183C122.968 76.8574 122.769 76.5084 122.509 76.2714C122.251 76.0319 121.944 75.9121 121.587 75.9121C121.048 75.9121 120.625 76.1777 120.317 76.7089C120.01 77.2402 119.855 78.0045 119.853 79.0019C119.853 79.6686 119.922 80.2324 120.06 80.6933C120.2 81.1516 120.399 81.4993 120.657 81.7363C120.915 81.9707 121.225 82.0878 121.587 82.0878ZM128.719 74.022C128.037 75.705 126.816 77.223 125.43 78.158C125.628 78.301 125.98 78.609 126.123 78.785C127.509 77.751 128.785 76.112 129.577 74.264L128.719 74.022ZM127.212 77.927V78.719H129.456C129.203 80.578 128.598 82.316 126.013 83.174C126.2 83.35 126.431 83.68 126.541 83.889C129.335 82.877 130.039 80.886 130.325 78.719H133.163C133.031 81.491 132.877 82.591 132.591 82.866C132.492 82.987 132.36 83.009 132.129 83.009C131.876 83.009 131.194 82.998 130.479 82.932C130.633 83.174 130.732 83.504 130.754 83.746C131.436 83.779 132.118 83.801 132.481 83.768C132.866 83.724 133.097 83.658 133.328 83.383C133.702 82.965 133.867 81.7 134.021 78.323C134.032 78.213 134.043 77.927 134.043 77.927H127.212ZM131.744 74.308C132.558 75.936 133.944 77.707 135.154 78.686C135.308 78.455 135.616 78.136 135.825 77.96C134.637 77.124 133.229 75.474 132.514 74L131.744 74.308ZM138.025 75.452V76.431C138.278 76.42 138.828 76.398 139.235 76.398H144.504V81.59H139.103C138.641 81.59 138.168 81.557 137.882 81.524V82.525C138.179 82.503 138.674 82.481 139.125 82.481H144.504C144.493 82.745 144.493 82.976 144.482 83.097H145.472C145.461 82.921 145.428 82.426 145.428 82.03V76.354C145.428 76.09 145.45 75.749 145.461 75.496C145.241 75.507 144.911 75.518 144.647 75.518H139.224C138.872 75.518 138.388 75.496 138.025 75.452ZM148.255 78.235V79.313C148.596 79.28 149.179 79.258 149.784 79.258H155.823C156.318 79.258 156.78 79.302 157 79.313V78.235C156.758 78.257 156.362 78.29 155.812 78.29H149.784C149.168 78.29 148.585 78.257 148.255 78.235ZM166.385 75.639L165.824 75.21C165.648 75.265 165.362 75.298 164.999 75.298H160.753C160.423 75.298 159.796 75.254 159.642 75.232V76.233C159.763 76.222 160.368 76.178 160.753 76.178H165.043C164.768 77.091 163.965 78.389 163.217 79.236C162.084 80.501 160.456 81.81 158.685 82.503L159.389 83.24C161.017 82.503 162.502 81.293 163.679 80.028C164.801 81.029 165.967 82.327 166.704 83.295L167.474 82.635C166.759 81.766 165.417 80.336 164.262 79.346C165.043 78.356 165.736 77.069 166.11 76.123C166.176 75.969 166.319 75.727 166.385 75.639Z" fill="black"/>
<path d="M244.621 85.1074C244.132 85.1074 243.691 85.0136 243.301 84.8261C242.913 84.636 242.603 84.3756 242.371 84.0449C242.139 83.7141 242.016 83.3365 242 82.9121H243.172C243.201 83.2558 243.353 83.5384 243.629 83.7597C243.905 83.9811 244.236 84.0917 244.621 84.0917C244.928 84.0917 245.201 84.0214 245.438 83.8808C245.677 83.7376 245.865 83.541 246 83.291C246.138 83.041 246.207 82.7558 246.207 82.4355C246.207 82.11 246.137 81.8196 245.996 81.5644C245.856 81.3092 245.661 81.1087 245.414 80.9628C245.169 80.817 244.888 80.7428 244.57 80.7402C244.328 80.7402 244.085 80.7819 243.84 80.8652C243.595 80.9485 243.397 81.0579 243.246 81.1933L242.141 81.0292L242.59 76.998H246.988V78.0332H243.594L243.34 80.2714H243.387C243.543 80.1204 243.75 79.9941 244.008 79.8925C244.268 79.791 244.547 79.7402 244.844 79.7402C245.331 79.7402 245.764 79.8561 246.145 80.0878C246.527 80.3196 246.828 80.636 247.047 81.0371C247.268 81.4355 247.378 81.8938 247.375 82.4121C247.378 82.9303 247.26 83.3925 247.023 83.7988C246.789 84.205 246.464 84.5253 246.047 84.7597C245.633 84.9915 245.158 85.1074 244.621 85.1074ZM251.587 85.1308C250.97 85.1282 250.442 84.9654 250.005 84.6425C249.567 84.3196 249.233 83.8496 249.001 83.2324C248.769 82.6152 248.653 81.8717 248.653 81.0019C248.653 80.1347 248.769 79.3938 249.001 78.7792C249.235 78.1647 249.571 77.6959 250.009 77.373C250.449 77.0501 250.975 76.8886 251.587 76.8886C252.199 76.8886 252.724 77.0514 253.161 77.3769C253.599 77.6998 253.933 78.1686 254.165 78.7832C254.399 79.3951 254.517 80.1347 254.517 81.0019C254.517 81.8743 254.401 82.6191 254.169 83.2363C253.937 83.8509 253.603 84.3209 253.165 84.6464C252.728 84.9694 252.202 85.1308 251.587 85.1308ZM251.587 84.0878C252.129 84.0878 252.552 83.8235 252.856 83.2949C253.164 82.7662 253.317 82.0019 253.317 81.0019C253.317 80.3378 253.247 79.7766 253.106 79.3183C252.968 78.8574 252.769 78.5084 252.509 78.2714C252.251 78.0319 251.944 77.9121 251.587 77.9121C251.048 77.9121 250.625 78.1777 250.317 78.7089C250.01 79.2402 249.855 80.0045 249.853 81.0019C249.853 81.6686 249.922 82.2324 250.06 82.6933C250.2 83.1516 250.399 83.4993 250.657 83.7363C250.915 83.9707 251.225 84.0878 251.587 84.0878ZM258.719 76.022C258.037 77.705 256.816 79.223 255.43 80.158C255.628 80.301 255.98 80.609 256.123 80.785C257.509 79.751 258.785 78.112 259.577 76.264L258.719 76.022ZM257.212 79.927V80.719H259.456C259.203 82.578 258.598 84.316 256.013 85.174C256.2 85.35 256.431 85.68 256.541 85.889C259.335 84.877 260.039 82.886 260.325 80.719H263.163C263.031 83.491 262.877 84.591 262.591 84.866C262.492 84.987 262.36 85.009 262.129 85.009C261.876 85.009 261.194 84.998 260.479 84.932C260.633 85.174 260.732 85.504 260.754 85.746C261.436 85.779 262.118 85.801 262.481 85.768C262.866 85.724 263.097 85.658 263.328 85.383C263.702 84.965 263.867 83.7 264.021 80.323C264.032 80.213 264.043 79.927 264.043 79.927H257.212ZM261.744 76.308C262.558 77.936 263.944 79.707 265.154 80.686C265.308 80.455 265.616 80.136 265.825 79.96C264.637 79.124 263.229 77.474 262.514 76L261.744 76.308ZM268.025 77.452V78.431C268.278 78.42 268.828 78.398 269.235 78.398H274.504V83.59H269.103C268.641 83.59 268.168 83.557 267.882 83.524V84.525C268.179 84.503 268.674 84.481 269.125 84.481H274.504C274.493 84.745 274.493 84.976 274.482 85.097H275.472C275.461 84.921 275.428 84.426 275.428 84.03V78.354C275.428 78.09 275.45 77.749 275.461 77.496C275.241 77.507 274.911 77.518 274.647 77.518H269.224C268.872 77.518 268.388 77.496 268.025 77.452ZM278.255 80.235V81.313C278.596 81.28 279.179 81.258 279.784 81.258H285.823C286.318 81.258 286.78 81.302 287 81.313V80.235C286.758 80.257 286.362 80.29 285.812 80.29H279.784C279.168 80.29 278.585 80.257 278.255 80.235ZM296.385 77.639L295.824 77.21C295.648 77.265 295.362 77.298 294.999 77.298H290.753C290.423 77.298 289.796 77.254 289.642 77.232V78.233C289.763 78.222 290.368 78.178 290.753 78.178H295.043C294.768 79.091 293.965 80.389 293.217 81.236C292.084 82.501 290.456 83.81 288.685 84.503L289.389 85.24C291.017 84.503 292.502 83.293 293.679 82.028C294.801 83.029 295.967 84.327 296.704 85.295L297.474 84.635C296.759 83.766 295.417 82.336 294.262 81.346C295.043 80.356 295.736 79.069 296.11 78.123C296.176 77.969 296.319 77.727 296.385 77.639Z" fill="black"/>
<path d="M353 77C353 79.0483 353.714 80.7185 354.799 82L355.342 81.6744C354.302 80.4244 353.66 78.8697 353.66 77C353.66 75.1303 354.302 73.5756 355.342 72.3256L354.799 72C353.714 73.2815 353 74.9517 353 77ZM358.56 81.0961C358.159 81.0961 357.797 81.0065 357.476 80.8274C357.157 80.6459 356.902 80.3972 356.711 80.0815C356.521 79.7656 356.419 79.405 356.406 78.9997H357.369C357.393 79.3279 357.518 79.5978 357.745 79.8091C357.972 80.0205 358.244 80.1261 358.56 80.1261C358.814 80.1261 359.037 80.059 359.232 79.9247C359.428 79.788 359.583 79.6003 359.694 79.3615C359.807 79.1228 359.864 78.8505 359.864 78.5446C359.864 78.2338 359.807 77.9565 359.691 77.7128C359.576 77.4691 359.416 77.2776 359.212 77.1383C359.011 76.999 358.78 76.9282 358.519 76.9257C358.32 76.9257 358.12 76.9655 357.919 77.0451C357.717 77.1246 357.554 77.2291 357.43 77.3584L356.522 77.2017L356.891 73.3522H360.506V74.3407H357.716L357.508 76.478H357.546C357.674 76.3338 357.845 76.2132 358.057 76.1162C358.27 76.0193 358.5 75.9708 358.744 75.9708C359.144 75.9708 359.501 76.0815 359.813 76.3027C360.128 76.5241 360.375 76.8262 360.555 77.2092C360.736 77.5897 360.827 78.0273 360.824 78.5223C360.827 79.0171 360.73 79.4585 360.536 79.8464C360.342 80.2343 360.075 80.5402 359.733 80.764C359.392 80.9854 359.002 81.0961 358.56 81.0961ZM364.286 81.1184C363.779 81.1159 363.346 80.9605 362.986 80.6521C362.627 80.3438 362.351 79.895 362.161 79.3056C361.97 78.7162 361.875 78.0062 361.875 77.1756C361.875 76.3475 361.97 75.64 362.161 75.0531C362.354 74.4663 362.629 74.0186 362.989 73.7103C363.351 73.4019 363.783 73.2477 364.286 73.2477C364.789 73.2477 365.221 73.4032 365.58 73.714C365.94 74.0223 366.215 74.47 366.405 75.0569C366.598 75.6412 366.695 76.3475 366.695 77.1756C366.695 78.0087 366.599 78.7199 366.409 79.3093C366.218 79.8962 365.943 80.345 365.583 80.6558C365.224 80.9643 364.792 81.1184 364.286 81.1184ZM364.286 80.1224C364.732 80.1224 365.079 79.87 365.33 79.3653C365.582 78.8604 365.709 78.1305 365.709 77.1756C365.709 76.5414 365.651 76.0055 365.536 75.5679C365.422 75.1278 365.258 74.7945 365.044 74.5682C364.832 74.3395 364.58 74.2251 364.286 74.2251C363.843 74.2251 363.496 74.4787 363.243 74.986C362.99 75.4933 362.863 76.2232 362.861 77.1756C362.861 77.8123 362.918 78.3506 363.031 78.7908C363.146 79.2284 363.311 79.5604 363.522 79.7868C363.734 80.0106 363.989 80.1224 364.286 80.1224ZM370.148 72.4202C369.588 74.0273 368.584 75.4769 367.445 76.3698C367.608 76.5063 367.897 76.8004 368.015 76.9685C369.154 75.9811 370.203 74.416 370.854 72.6513L370.148 72.4202ZM368.91 76.1492V76.9055H370.754C370.546 78.6807 370.049 80.3403 367.924 81.1597C368.078 81.3277 368.268 81.6429 368.358 81.8424C370.655 80.876 371.233 78.9748 371.468 76.9055H373.801C373.693 79.5525 373.566 80.6029 373.331 80.8655C373.25 80.9811 373.141 81.0021 372.951 81.0021C372.743 81.0021 372.183 80.9916 371.595 80.9286C371.722 81.1597 371.803 81.4748 371.821 81.7059C372.382 81.7374 372.942 81.7584 373.241 81.7269C373.557 81.6849 373.747 81.6219 373.937 81.3592C374.244 80.9601 374.38 79.7521 374.506 76.5273C374.515 76.4223 374.524 76.1492 374.524 76.1492H368.91ZM372.635 72.6933C373.304 74.2479 374.443 75.9391 375.438 76.874C375.564 76.6534 375.817 76.3487 375.989 76.1807C375.013 75.3824 373.855 73.8067 373.268 72.3992L372.635 72.6933ZM379 77C379 74.9517 378.286 73.2815 377.201 72L376.658 72.3256C377.698 73.5756 378.34 75.1303 378.34 77C378.34 78.8697 377.698 80.4244 376.658 81.6744L377.201 82C378.286 80.7185 379 79.0483 379 77Z" fill="black"/>
<path d="M234.29 39.41H236.017V40.807H234.29V39.41ZM238.635 39.41V40.807H236.82V39.41H238.635ZM236.017 44.646H236.82V42.028C237.535 42.93 238.536 43.81 239.427 44.294C239.559 44.085 239.801 43.799 239.988 43.656C239.009 43.227 237.876 42.336 237.183 41.467H239.427V38.761H236.82V37.848H239.922V37.144H236.82V36.022H236.017V37.144H233.091V37.848H236.017V38.761H233.542V41.467H235.588C234.95 42.391 233.872 43.271 232.882 43.7C233.058 43.843 233.289 44.129 233.41 44.316C234.345 43.832 235.335 42.941 236.017 41.984V44.646ZM232.783 37.969C232.398 37.441 231.573 36.737 230.869 36.275L230.264 36.77C230.979 37.254 231.793 37.98 232.134 38.508L232.783 37.969ZM232.475 40.312H230.143V41.082H231.672V43.865C231.122 44.327 230.506 44.789 230 45.119L230.44 45.944C231.023 45.471 231.573 44.998 232.101 44.536C232.805 45.383 233.784 45.779 235.214 45.834C236.424 45.878 238.679 45.856 239.878 45.812C239.911 45.559 240.054 45.174 240.142 44.976C238.855 45.064 236.413 45.097 235.214 45.053C233.949 44.998 232.992 44.624 232.475 43.821V40.312ZM247.501 38.706H245.367V39.399H250.592V38.706H248.315V37.683H250.911V36.99H248.315V36H247.501V36.99H245.015V37.683H247.501V38.706ZM245.708 40.862H250.196V42.127H250.955V40.191H244.971V42.127H245.708V40.862ZM244.41 36.385H241.561V37.045H244.41V36.385ZM244.74 37.826H241.033V38.497H244.74V37.826ZM243.761 42.908V44.745H242.177V42.908H243.761ZM244.454 42.237H241.484V45.922H242.177V45.405H244.454V42.237ZM241.495 41.423H244.454V40.763H241.495V41.423ZM241.495 39.96H244.454V39.311H241.495V39.96ZM246.588 41.588C246.5 43.645 246.247 44.789 244.487 45.416C244.652 45.57 244.872 45.878 244.96 46.054C246.896 45.295 247.259 43.92 247.358 41.588H246.588ZM249.492 45.185C249.261 45.185 249.228 45.152 249.228 44.877V41.588H248.469V44.877C248.469 45.68 248.645 45.922 249.393 45.922H250.306C250.955 45.922 251.153 45.537 251.208 44.063C251.01 43.997 250.68 43.876 250.537 43.744C250.504 45.009 250.46 45.185 250.218 45.185H249.492ZM255.069 42.534V41.247H256.059V42.534H255.069ZM253.485 41.247H254.475V42.534H253.463C253.485 42.237 253.485 41.94 253.485 41.676V41.247ZM255.135 37.628C255.003 38.013 254.816 38.442 254.651 38.772H253.386C253.584 38.42 253.76 38.035 253.936 37.628H255.135ZM255.069 39.421H256.059V40.631H255.069V39.421ZM253.485 39.421H254.475V40.631H253.485V39.421ZM261.064 37.254C260.998 38.53 260.899 39.036 260.778 39.179C260.701 39.278 260.613 39.289 260.47 39.278C260.316 39.278 259.909 39.278 259.48 39.234C259.579 39.421 259.645 39.707 259.667 39.916C260.118 39.938 260.569 39.949 260.8 39.927C261.086 39.905 261.251 39.828 261.394 39.652C261.636 39.388 261.724 38.684 261.812 36.869C261.823 36.77 261.823 36.561 261.823 36.561H257.071V37.254H258.556C258.347 38.288 257.907 39.157 256.752 39.663V38.772H255.377C255.63 38.299 255.883 37.738 256.07 37.254L255.586 36.946L255.465 36.979H254.178C254.266 36.715 254.354 36.44 254.431 36.165L253.672 36C253.342 37.342 252.737 38.64 251.956 39.476C252.132 39.586 252.451 39.839 252.572 39.971C252.649 39.883 252.726 39.784 252.803 39.674V41.676C252.803 42.908 252.726 44.536 251.989 45.691C252.154 45.768 252.462 45.944 252.572 46.065C253.089 45.273 253.32 44.195 253.419 43.172H256.059V45.152C256.059 45.295 256.004 45.339 255.85 45.35C255.707 45.361 255.212 45.361 254.64 45.339C254.75 45.526 254.871 45.845 254.904 46.032C255.663 46.032 256.103 46.021 256.378 45.9C256.664 45.779 256.752 45.548 256.752 45.152V39.674C256.906 39.806 257.104 40.048 257.192 40.224C258.545 39.608 259.073 38.552 259.304 37.254H261.064ZM262.12 43.227H260.03V41.874H261.933V41.17H260.03V40.048H259.249V41.17H258.292C258.38 40.884 258.457 40.587 258.523 40.29L257.83 40.147C257.632 41.082 257.302 41.984 256.818 42.611C257.005 42.699 257.324 42.853 257.456 42.952C257.665 42.655 257.863 42.281 258.028 41.874H259.249V43.227H256.939V43.931H259.249V45.988H260.03V43.931H262.12V43.227Z" fill="black"/>
<path d="M356.473 40.388H357.871V41.776H356.473V40.388ZM359.99 40.388V41.776H358.521V40.388H359.99ZM357.871 45.5902H358.521V42.9891C359.099 43.8852 359.91 44.7596 360.631 45.2404C360.738 45.0328 360.934 44.7486 361.085 44.6066C360.292 44.1803 359.375 43.2951 358.814 42.4317H360.631V39.7432H358.521V38.8361H361.032V38.1366H358.521V37.0219H357.871V38.1366H355.502V38.8361H357.871V39.7432H355.867V42.4317H357.523C357.007 43.3497 356.134 44.224 355.333 44.6503C355.475 44.7923 355.662 45.0765 355.76 45.2623C356.517 44.7814 357.318 43.8962 357.871 42.9454V45.5902ZM355.253 38.9563C354.941 38.4317 354.273 37.7322 353.703 37.2732L353.214 37.765C353.792 38.2459 354.451 38.9672 354.727 39.4918L355.253 38.9563ZM355.003 41.2842H353.116V42.0492H354.353V44.8142C353.908 45.2732 353.41 45.7322 353 46.0601L353.356 46.8798C353.828 46.4098 354.273 45.9399 354.701 45.4809C355.271 46.3224 356.063 46.7158 357.221 46.7705C358.2 46.8142 360.025 46.7923 360.996 46.7486C361.023 46.4973 361.138 46.1148 361.21 45.918C360.168 46.0055 358.191 46.0383 357.221 45.9945C356.197 45.9399 355.422 45.5683 355.003 44.7705V41.2842ZM367.166 39.6885H365.439V40.3771H369.668V39.6885H367.825V38.6721H369.927V37.9836H367.825V37H367.166V37.9836H365.154V38.6721H367.166V39.6885ZM365.715 41.8306H369.348V43.0874H369.962V41.1639H365.119V43.0874H365.715V41.8306ZM364.664 37.3825H362.358V38.0383H364.664V37.3825ZM364.932 38.8142H361.931V39.4809H364.932V38.8142ZM364.139 43.8634V45.6885H362.857V43.8634H364.139ZM364.7 43.1967H362.296V46.8579H362.857V46.3443H364.7V43.1967ZM362.305 42.388H364.7V41.7322H362.305V42.388ZM362.305 40.9344H364.7V40.2896H362.305V40.9344ZM366.427 42.5519C366.356 44.5956 366.151 45.7322 364.727 46.3552C364.86 46.5082 365.038 46.8142 365.11 46.9891C366.677 46.235 366.971 44.8689 367.051 42.5519H366.427ZM368.778 46.1257C368.591 46.1257 368.564 46.0929 368.564 45.8197V42.5519H367.95V45.8197C367.95 46.6175 368.092 46.8579 368.698 46.8579H369.437C369.962 46.8579 370.123 46.4754 370.167 45.0109C370.007 44.9454 369.74 44.8251 369.624 44.694C369.597 45.9508 369.562 46.1257 369.366 46.1257H368.778ZM373.292 43.4918V42.2131H374.094V43.4918H373.292ZM372.01 42.2131H372.812V43.4918H371.992C372.01 43.1967 372.01 42.9016 372.01 42.6393V42.2131ZM373.346 38.6175C373.239 39 373.088 39.4262 372.954 39.7541H371.93C372.09 39.4044 372.233 39.0219 372.375 38.6175H373.346ZM373.292 40.3989H374.094V41.6011H373.292V40.3989ZM372.01 40.3989H372.812V41.6011H372.01V40.3989ZM378.145 38.2459C378.092 39.5137 378.012 40.0164 377.914 40.1585C377.851 40.2568 377.78 40.2678 377.664 40.2568C377.54 40.2568 377.21 40.2568 376.863 40.2131C376.943 40.3989 376.997 40.6831 377.014 40.8907C377.379 40.9126 377.745 40.9235 377.932 40.9016C378.163 40.8798 378.297 40.8033 378.412 40.6284C378.608 40.3661 378.679 39.6667 378.751 37.8634C378.76 37.765 378.76 37.5574 378.76 37.5574H374.913V38.2459H376.115C375.946 39.2732 375.59 40.1366 374.655 40.6393V39.7541H373.542C373.747 39.2842 373.951 38.7268 374.103 38.2459L373.711 37.9399L373.613 37.9727H372.571C372.642 37.7104 372.714 37.4372 372.776 37.1639L372.162 37C371.895 38.3333 371.405 39.623 370.773 40.4536C370.915 40.5628 371.173 40.8142 371.271 40.9454C371.334 40.8579 371.396 40.7596 371.458 40.6503V42.6393C371.458 43.8634 371.396 45.4809 370.799 46.6284C370.933 46.7049 371.182 46.8798 371.271 47C371.69 46.2131 371.877 45.1421 371.957 44.1257H374.094V46.0929C374.094 46.235 374.049 46.2787 373.925 46.2896C373.809 46.3005 373.408 46.3005 372.945 46.2787C373.034 46.4645 373.132 46.7814 373.159 46.9672C373.773 46.9672 374.129 46.9563 374.352 46.8361C374.584 46.7158 374.655 46.4863 374.655 46.0929V40.6503C374.779 40.7814 374.94 41.0219 375.011 41.1967C376.106 40.5847 376.534 39.5355 376.721 38.2459H378.145ZM379 44.1803H377.308V42.8361H378.849V42.1366H377.308V41.0219H376.676V42.1366H375.901C375.973 41.8525 376.035 41.5574 376.088 41.2623L375.527 41.1202C375.367 42.0492 375.1 42.9454 374.708 43.5683C374.86 43.6557 375.118 43.8087 375.225 43.9071C375.394 43.612 375.554 43.2404 375.688 42.8361H376.676V44.1803H374.806V44.8798H376.676V46.9235H377.308V44.8798H379V44.1803Z" fill="black"/>
<path d="M133.481 39.389H130.874V38.003H133.481V39.389ZM133.481 41.479H130.874V40.082H133.481V41.479ZM127.398 40.082H130.071V41.479H127.398V40.082ZM127.398 38.003H130.071V39.389H127.398V38.003ZM134.284 37.277H126.628V42.205H134.284V37.277ZM132.04 43.976C131.545 43.481 130.555 42.821 129.741 42.425L129.202 42.92C130.016 43.36 131.006 44.031 131.479 44.526L132.04 43.976ZM126.309 46.275C126.848 45.571 127.233 44.427 127.497 43.525L126.771 43.272C126.529 44.13 126.111 45.208 125.572 45.89L126.309 46.275ZM129.73 45.857C129.114 45.857 129.004 45.802 129.004 45.494V43.327H128.19V45.505C128.19 46.374 128.498 46.616 129.675 46.616H131.886C132.887 46.616 133.151 46.242 133.261 44.757C133.03 44.702 132.689 44.581 132.502 44.449C132.447 45.681 132.359 45.857 131.82 45.857H129.73ZM133.14 43.448C133.767 44.306 134.405 45.45 134.625 46.187L135.417 45.835C135.164 45.087 134.504 43.976 133.866 43.151L133.14 43.448ZM141.181 40.038V38.773H143.645C143.161 39.213 142.633 39.642 142.094 40.038H141.181ZM146.142 40.742V40.038H143.271C144.173 39.312 144.998 38.531 145.702 37.673L145.031 37.31C144.657 37.761 144.25 38.201 143.799 38.63V38.102H141.181V36.793H140.367V38.102H137.584V38.773H140.367V40.038H136.748V40.742H141.049C140.631 41.006 140.191 41.27 139.751 41.512L139.399 41.468L139.344 41.721C138.365 42.227 137.331 42.667 136.297 43.019C136.462 43.173 136.715 43.492 136.825 43.668C137.595 43.371 138.376 43.03 139.135 42.656C138.948 43.393 138.75 44.141 138.574 44.658L139.399 44.79C139.443 44.625 139.498 44.438 139.553 44.24H144.074C143.876 45.34 143.689 45.868 143.447 46.055C143.348 46.143 143.216 46.154 142.974 46.154C142.721 46.154 142.006 46.143 141.324 46.077C141.456 46.286 141.566 46.605 141.577 46.825C142.259 46.869 142.908 46.869 143.238 46.858C143.623 46.836 143.854 46.781 144.085 46.583C144.448 46.264 144.679 45.549 144.943 43.932C144.965 43.8 144.987 43.558 144.987 43.558H139.729C139.806 43.294 139.872 43.019 139.938 42.733C141.676 42.601 143.678 42.359 144.998 41.996L144.459 41.435C143.458 41.721 141.72 41.963 140.147 42.128C140.906 41.699 141.643 41.237 142.336 40.742H146.142ZM152.368 39.191C152.368 39.026 152.368 38.872 152.368 38.718V36.815H151.521V38.718C151.521 38.872 151.521 39.026 151.521 39.191H147.957V40.005H151.477C151.312 42.062 150.608 44.471 147.627 46.242C147.825 46.374 148.122 46.693 148.254 46.891C151.444 44.944 152.17 42.282 152.324 40.005H156.075C155.866 43.877 155.624 45.428 155.228 45.802C155.096 45.934 154.953 45.967 154.722 45.967C154.447 45.967 153.743 45.956 152.995 45.89C153.16 46.132 153.259 46.484 153.27 46.726C153.941 46.77 154.645 46.792 155.03 46.759C155.448 46.715 155.712 46.627 155.965 46.319C156.449 45.769 156.68 44.13 156.922 39.62C156.933 39.499 156.944 39.191 156.944 39.191H152.368Z" fill="black"/>
<path d="M258.796 12.72V9.805H261.953V12.72H258.796ZM254.803 12.72V9.805H257.949V12.72H254.803ZM258.796 9.002V7.044H257.949V9.002H254V14.205H254.803V13.523H257.949V17.087H258.796V13.523H261.953V14.15H262.789V9.002H258.796ZM265.594 9.596H273.261V11.301H274.053V8.87H272.348C272.722 8.43 273.129 7.902 273.47 7.407L272.623 7.121C272.348 7.638 271.864 8.364 271.446 8.87H269.499L269.972 8.683C269.829 8.221 269.455 7.517 269.081 7L268.366 7.264C268.696 7.748 269.048 8.408 269.18 8.87H266.936L267.31 8.683C267.112 8.265 266.661 7.638 266.254 7.187L265.572 7.495C265.902 7.902 266.287 8.463 266.496 8.87H264.813V11.301H265.594V9.596ZM274.251 13.215H269.818V12.94C270.786 12.478 271.809 11.785 272.491 11.081L271.963 10.685L271.798 10.729H266.43V11.455H270.973C270.522 11.807 269.961 12.159 269.422 12.423H269.004V13.215H264.604V13.974H269.004V16.097C269.004 16.262 268.949 16.317 268.718 16.328C268.509 16.339 267.761 16.339 266.925 16.317C267.046 16.526 267.211 16.867 267.266 17.098C268.267 17.098 268.894 17.087 269.29 16.966C269.686 16.845 269.818 16.603 269.818 16.119V13.974H274.251V13.215ZM280.895 8.265H278.662V7.088H277.881V8.265H275.681V8.98H280.895V8.265ZM279.542 11.18C279.773 10.696 280.037 9.97 280.268 9.332L279.498 9.145C279.366 9.695 279.091 10.509 278.882 11.015L279.542 11.18ZM277.54 10.982C277.485 10.509 277.287 9.761 277.034 9.222L276.352 9.365C276.583 9.926 276.781 10.663 276.836 11.147L277.54 10.982ZM279.641 13.71V15.734H276.891V13.71H279.641ZM276.132 17.098H276.891V16.449H279.641V17.032H280.433V12.984H276.132V17.098ZM275.395 12.027H281.049V11.279H275.395V12.027ZM284.855 7.66L284.723 7.693H281.489V17.087H282.281V8.463H284.36C284.019 9.343 283.535 10.531 283.084 11.455C284.195 12.412 284.503 13.226 284.503 13.919C284.503 14.315 284.437 14.645 284.206 14.788C284.074 14.865 283.898 14.898 283.733 14.909C283.502 14.92 283.205 14.92 282.864 14.887C283.007 15.118 283.084 15.47 283.095 15.701C283.414 15.712 283.777 15.712 284.052 15.679C284.338 15.646 284.569 15.569 284.767 15.437C285.152 15.184 285.306 14.678 285.306 14.007C285.295 13.226 285.02 12.357 283.92 11.345C284.437 10.344 284.998 9.079 285.449 8.045L284.855 7.66Z" fill="black"/>
<path d="M357.984 15.2489V16.3624H355.771V15.2489H357.984ZM358.578 16.9629V14.6594H355.177V17.5087H355.771V16.9629H358.578ZM360.413 13.2729H353.396V17.9672H354.035V13.9607H359.747V16.9847C359.747 17.1376 359.72 17.1921 359.567 17.1921C359.406 17.214 358.902 17.214 358.326 17.1921C358.416 17.3996 358.506 17.7271 358.542 17.9454C359.289 17.9454 359.756 17.9454 360.053 17.8253C360.332 17.6834 360.413 17.4432 360.413 17.0066V13.2729ZM358.623 11.9956H355.114V10.9367H358.623V11.9956ZM354.475 10.3581V12.5852H359.289V10.3581H354.475ZM357.165 9.03712V8H356.491V9.03712H353V9.74673H360.755V9.03712H357.165ZM369.887 9.6048H367.745V8H367.089V9.6048H364.983V10.3581H369.887V9.6048ZM368.024 11.0022C368.609 11.7118 369.221 12.7162 369.482 13.3603L370.048 12.9672C369.761 12.3122 369.122 11.3515 368.546 10.6528L368.024 11.0022ZM366.162 10.6856C365.883 11.4607 365.343 12.3668 364.776 12.9454C364.92 13.0655 365.136 13.2948 365.235 13.4476C365.829 12.8035 366.405 11.8755 366.774 10.9803L366.162 10.6856ZM364.983 13.917C364.812 13.6004 364.084 12.3231 363.814 11.9192V11.0895H364.902V10.3362H363.814V8H363.184V10.3362H361.871V11.0895H363.121C362.842 12.5852 362.266 14.2882 361.7 15.2052C361.817 15.3908 361.979 15.7074 362.051 15.9258C362.473 15.2162 362.878 14.0699 363.184 12.8799V17.9563H363.814V12.8799C364.102 13.4476 364.453 14.1681 364.606 14.5393L364.983 13.917ZM368.258 12.5961C368.078 13.4039 367.799 14.1572 367.403 14.8341C366.999 14.179 366.684 13.4476 366.45 12.6616L365.874 12.8581C366.153 13.8188 366.531 14.6921 366.999 15.4563C366.396 16.2642 365.613 16.9192 364.633 17.3668C364.74 17.5197 364.902 17.8253 364.983 18C365.973 17.5415 366.774 16.8755 367.394 16.0677C368.015 16.8974 368.753 17.5633 369.599 17.9891C369.689 17.7707 369.904 17.4432 370.057 17.2904C369.194 16.9083 368.438 16.2642 367.817 15.4454C368.312 14.6594 368.672 13.7533 368.924 12.7707L368.258 12.5961ZM375.275 9.21179H373.449V8.04367H372.81V9.21179H371.011V9.9214H375.275V9.21179ZM374.169 12.1048C374.358 11.6245 374.574 10.9039 374.763 10.2707L374.133 10.0852C374.025 10.631 373.8 11.4389 373.629 11.941L374.169 12.1048ZM372.531 11.9083C372.487 11.4389 372.325 10.6965 372.118 10.1616L371.56 10.3035C371.749 10.8603 371.911 11.5917 371.956 12.0721L372.531 11.9083ZM374.25 14.6157V16.6245H372.001V14.6157H374.25ZM371.38 17.9782H372.001V17.3341H374.25V17.9127H374.898V13.8952H371.38V17.9782ZM370.777 12.9454H375.401V12.2031H370.777V12.9454ZM378.514 8.61135L378.406 8.64411H375.761V17.9672H376.409V9.4083H378.109C377.83 10.2817 377.435 11.4607 377.066 12.3777C377.974 13.3275 378.226 14.1354 378.226 14.8231C378.226 15.2162 378.172 15.5437 377.983 15.6856C377.875 15.762 377.731 15.7948 377.597 15.8057C377.408 15.8166 377.165 15.8166 376.886 15.7838C377.003 16.0131 377.066 16.3624 377.075 16.5917C377.336 16.6026 377.633 16.6026 377.857 16.5699C378.091 16.5371 378.28 16.4607 378.442 16.3297C378.757 16.0786 378.883 15.5764 378.883 14.9105C378.874 14.1354 378.649 13.2729 377.749 12.2686C378.172 11.2751 378.631 10.0197 379 8.99345L378.514 8.61135Z" fill="black"/>
<path d="M26.2749 20.1901V21.7191C26.5829 21.6971 27.1769 21.6751 27.6389 21.6751H32.5779V26.2291H27.5069C27.0119 26.2291 26.5169 26.1961 26.1319 26.1631V27.7361C26.4949 27.7031 27.1219 27.6701 27.5509 27.6701H32.5669C32.5669 27.8791 32.5669 28.0661 32.5559 28.2421H34.1509C34.1289 27.9121 34.1069 27.3291 34.1069 26.9441V21.2461C34.1069 20.9271 34.1289 20.4871 34.1399 20.2341C33.9529 20.2451 33.4909 20.2561 33.1719 20.2561H27.6279C27.2539 20.2561 26.6819 20.2341 26.2749 20.1901ZM36.5599 22.9071V24.6341C36.9669 24.6011 37.7039 24.5791 38.3309 24.5791H44.2379C44.6999 24.5791 45.2609 24.6231 45.5249 24.6341V22.9071C45.2389 22.9291 44.7549 22.9731 44.2379 22.9731H38.3309C37.7589 22.9731 36.9559 22.9401 36.5599 22.9071ZM55.174 20.5421L54.272 19.8711C54.052 19.9481 53.612 20.0141 53.139 20.0141H49.256C48.926 20.0141 48.255 19.9811 47.958 19.9371V21.4991C48.189 21.4881 48.794 21.4221 49.256 21.4221H52.985C52.743 22.2031 52.072 23.2921 51.346 24.1171C50.312 25.2721 48.607 26.6141 46.836 27.2741L47.969 28.4621C49.476 27.7471 50.939 26.6031 52.105 25.3711C53.139 26.3721 54.162 27.4941 54.877 28.4841L56.131 27.3951C55.482 26.6031 54.151 25.1951 53.062 24.2491C53.799 23.2591 54.415 22.0821 54.789 21.2241C54.888 21.0041 55.086 20.6631 55.174 20.5421Z" fill="white"/>
<path d="M13.391 75.7331H11.455V73.8301H13.391V75.7331ZM10.223 72.6861V76.8661H14.711V72.6861H10.223ZM9.16698 78.1421V71.3881H15.778V78.1421H9.16698ZM7.80298 70.0461V79.9461H9.16698V79.3631H15.778V79.9461H17.208V70.0461H7.80298ZM23.896 76.4481V75.3921C23.962 75.4581 24.006 75.5131 24.05 75.5571C24.226 75.3151 24.402 75.0511 24.556 74.7651C24.754 75.5571 24.996 76.2831 25.304 76.9321C24.82 77.6141 24.182 78.1641 23.368 78.5931C23.115 78.4061 22.796 78.2081 22.455 78.0101C22.73 77.5811 22.917 77.0641 23.038 76.4481H23.896ZM20.739 76.4481H21.806C21.707 76.8441 21.564 77.1741 21.388 77.4491C21.069 77.2951 20.75 77.1631 20.42 77.0311L20.739 76.4481ZM26.657 72.8731C26.536 73.8411 26.338 74.7101 26.063 75.4581C25.766 74.6661 25.546 73.7971 25.392 72.8731H26.657ZM28.626 72.8731V71.6631H25.7C25.843 71.0801 25.964 70.4751 26.052 69.8591L24.732 69.6831C24.468 71.6411 23.94 73.5111 23.005 74.6331C23.247 74.7981 23.643 75.1391 23.896 75.3921H21.278L21.542 74.8641L21.069 74.7651H21.773V73.4341C22.202 73.7751 22.664 74.1601 22.906 74.3911L23.599 73.4891C23.357 73.3241 22.576 72.8621 22.048 72.5651H23.852V71.5311H22.807C23.071 71.1901 23.412 70.7281 23.753 70.2551L22.653 69.8151C22.477 70.2331 22.169 70.8161 21.916 71.2121L22.642 71.5311H21.773V69.6831H20.574V71.5311H19.65L20.354 71.2231C20.266 70.8381 19.98 70.2771 19.694 69.8591L18.748 70.2551C18.979 70.6511 19.221 71.1571 19.32 71.5311H18.484V72.5651H20.2C19.672 73.1371 18.935 73.6651 18.264 73.9401C18.506 74.1711 18.781 74.6001 18.924 74.8861C19.474 74.5781 20.068 74.1161 20.574 73.6101V74.6661L20.332 74.6111C20.222 74.8531 20.09 75.1171 19.958 75.3921H18.363V76.4481H19.408C19.133 76.9761 18.858 77.4711 18.616 77.8561L19.76 78.2081L19.881 77.9991C20.09 78.0871 20.299 78.1861 20.497 78.2961C19.98 78.5931 19.298 78.7691 18.407 78.8901C18.616 79.1541 18.847 79.5941 18.924 79.9681C20.101 79.7261 20.981 79.4071 21.63 78.9231C22.081 79.2091 22.477 79.4951 22.774 79.7481L23.269 79.2421C23.445 79.5061 23.61 79.8031 23.687 79.9901C24.644 79.5061 25.403 78.9121 26.008 78.1861C26.503 78.9011 27.108 79.4841 27.856 79.9351C28.054 79.5721 28.461 79.0661 28.758 78.8021C27.955 78.3841 27.317 77.7571 26.811 76.9761C27.405 75.8651 27.779 74.5011 28.01 72.8731H28.626Z" fill="white"/>
<path d="M23.6758 109.047H27.5808V114.91C27.5808 115.053 27.5368 115.108 27.3938 115.108C27.2508 115.119 26.8108 115.119 26.4038 115.097C26.5578 115.383 26.7008 115.867 26.7448 116.186C27.4708 116.186 27.9768 116.175 28.3178 115.988C28.6808 115.79 28.7908 115.493 28.7908 114.932V107.991H22.4988V110.84C22.4988 112.215 22.4218 114.118 21.5638 115.438C21.8608 115.559 22.3888 115.889 22.6088 116.087C23.5328 114.646 23.6758 112.402 23.6758 110.84V109.047ZM23.9398 111.225V112.105H27.2728V111.225H26.0958V110.642H27.2398V109.762H26.0958V109.201H25.0178V109.762H23.9838V110.642H25.0178V111.225H23.9398ZM26.0408 113.381V114.173H25.0618V113.381H26.0408ZM25.0618 115.031H27.0308V112.534H24.0828V115.526H25.0618V115.031ZM21.6518 109.729C21.3768 109.19 20.6838 108.442 20.1118 107.914L19.0778 108.574C19.6388 109.124 20.2988 109.916 20.5408 110.466L21.6518 109.729ZM21.4978 111.951H19.1548V113.15H20.2878V115.581C19.8698 115.955 19.3858 116.318 18.9898 116.604L19.6058 117.847C20.1338 117.374 20.5628 116.945 20.9808 116.505C21.6408 117.363 22.5428 117.682 23.8628 117.737C25.2378 117.803 27.6688 117.781 29.0658 117.704C29.1208 117.352 29.3078 116.78 29.4508 116.483C27.9108 116.615 25.2158 116.648 23.8628 116.582C22.7298 116.538 21.9268 116.219 21.4978 115.471V111.951ZM33.6797 109V117H32.2305V110.41H32.1836L30.3125 111.605V110.277L32.3008 109H33.6797ZM41.391 113.733H39.455V111.83H41.391V113.733ZM38.223 110.686V114.866H42.711V110.686H38.223ZM37.167 116.142V109.388H43.778V116.142H37.167ZM35.803 108.046V117.946H37.167V117.363H43.778V117.946H45.208V108.046H35.803Z" fill="white"/>
<path d="M22.129 141.047H26.034V146.91C26.034 147.053 25.99 147.108 25.847 147.108C25.704 147.119 25.264 147.119 24.857 147.097C25.011 147.383 25.154 147.867 25.198 148.186C25.924 148.186 26.43 148.175 26.771 147.988C27.134 147.79 27.244 147.493 27.244 146.932V139.991H20.952V142.84C20.952 144.215 20.875 146.118 20.017 147.438C20.314 147.559 20.842 147.889 21.062 148.087C21.986 146.646 22.129 144.402 22.129 142.84V141.047ZM22.393 143.225V144.105H25.726V143.225H24.549V142.642H25.693V141.762H24.549V141.201H23.471V141.762H22.437V142.642H23.471V143.225H22.393ZM24.494 145.381V146.173H23.515V145.381H24.494ZM23.515 147.031H25.484V144.534H22.536V147.526H23.515V147.031ZM20.105 141.729C19.83 141.19 19.137 140.442 18.565 139.914L17.531 140.574C18.092 141.124 18.752 141.916 18.994 142.466L20.105 141.729ZM19.951 143.951H17.608V145.15H18.741V147.581C18.323 147.955 17.839 148.318 17.443 148.604L18.059 149.847C18.587 149.374 19.016 148.945 19.434 148.505C20.094 149.363 20.996 149.682 22.316 149.737C23.691 149.803 26.122 149.781 27.519 149.704C27.574 149.352 27.761 148.78 27.904 148.483C26.364 148.615 23.669 148.648 22.316 148.582C21.183 148.538 20.38 148.219 19.951 147.471V143.951ZM28.8789 149V147.953L31.6563 145.23C31.9219 144.962 32.1432 144.724 32.3203 144.516C32.4974 144.307 32.6302 144.105 32.7188 143.91C32.8073 143.715 32.8516 143.507 32.8516 143.285C32.8516 143.033 32.7943 142.816 32.6797 142.637C32.5651 142.454 32.4076 142.314 32.207 142.215C32.0065 142.116 31.7786 142.066 31.5234 142.066C31.2604 142.066 31.0299 142.121 30.832 142.23C30.6341 142.337 30.4805 142.49 30.3711 142.688C30.2643 142.885 30.2109 143.121 30.2109 143.395H28.832C28.832 142.887 28.9479 142.445 29.1797 142.07C29.4115 141.695 29.7305 141.405 30.1367 141.199C30.5456 140.993 31.0143 140.891 31.543 140.891C32.0794 140.891 32.5508 140.991 32.957 141.191C33.3633 141.392 33.6784 141.667 33.9023 142.016C34.1289 142.365 34.2422 142.763 34.2422 143.211C34.2422 143.51 34.1849 143.805 34.0703 144.094C33.9557 144.383 33.7539 144.703 33.4648 145.055C33.1784 145.406 32.776 145.832 32.2578 146.332L30.8789 147.734V147.789H34.3633V149H28.8789ZM41.391 145.733H39.455V143.83H41.391V145.733ZM38.223 142.686V146.866H42.711V142.686H38.223ZM37.167 148.142V141.388H43.778V148.142H37.167ZM35.803 140.046V149.946H37.167V149.363H43.778V149.946H45.208V140.046H35.803Z" fill="white"/>
<path d="M11.524 172.189H9.96197C10.006 172.475 10.039 172.827 10.072 173.3C10.083 173.542 10.094 173.806 10.105 174.092H6.46397C6.08997 174.092 5.56197 174.059 5.24297 174.015V175.478C5.62797 175.456 6.10097 175.434 6.49697 175.434H9.49997C8.61997 176.688 6.80497 178.239 4.65997 179.251L5.67197 180.395C7.40997 179.471 9.19197 177.942 10.16 176.677C10.182 177.81 10.182 178.91 10.182 179.647C10.182 179.966 10.072 180.109 9.79697 180.109C9.42297 180.109 8.82897 180.065 8.33397 179.977L8.45497 181.407C9.08197 181.451 9.69797 181.473 10.369 181.473C11.205 181.473 11.612 181.066 11.601 180.362C11.579 178.877 11.535 177.04 11.502 175.434H12.921C13.218 175.434 13.636 175.456 13.988 175.467V174.004C13.724 174.048 13.207 174.092 12.844 174.092H11.469C11.469 173.806 11.458 173.542 11.458 173.3C11.458 172.959 11.48 172.53 11.524 172.189ZM23.844 172.937C23.844 172.585 24.13 172.299 24.482 172.299C24.823 172.299 25.109 172.585 25.109 172.937C25.109 173.278 24.823 173.564 24.482 173.564C24.13 173.564 23.844 173.278 23.844 172.937ZM23.162 172.937C23.162 173.014 23.173 173.08 23.184 173.146C22.953 173.179 22.711 173.19 22.557 173.19H17.464C17.101 173.19 16.474 173.146 16.155 173.102V174.653C16.43 174.631 16.958 174.609 17.464 174.609H22.579C22.436 175.555 22.018 176.798 21.292 177.711C20.401 178.833 19.158 179.79 16.98 180.296L18.179 181.616C20.137 180.978 21.611 179.889 22.601 178.569C23.525 177.348 23.998 175.643 24.251 174.565C24.284 174.466 24.306 174.356 24.339 174.235C24.383 174.246 24.438 174.246 24.482 174.246C25.197 174.246 25.791 173.652 25.791 172.937C25.791 172.211 25.197 171.617 24.482 171.617C23.756 171.617 23.162 172.211 23.162 172.937ZM29.399 172.288L28.596 173.498C29.322 173.905 30.466 174.653 31.082 175.082L31.907 173.861C31.335 173.465 30.125 172.684 29.399 172.288ZM27.353 180.098L28.178 181.55C29.157 181.374 30.73 180.824 31.852 180.186C33.656 179.152 35.207 177.755 36.23 176.237L35.383 174.741C34.503 176.314 32.974 177.821 31.104 178.866C29.905 179.526 28.585 179.889 27.353 180.098ZM27.705 174.796L26.902 176.017C27.639 176.402 28.783 177.15 29.41 177.579L30.213 176.347C29.652 175.951 28.442 175.192 27.705 174.796ZM39.343 174.785V176.116C39.607 176.094 40.3 176.072 40.707 176.072H44.337V177.403H40.828C40.41 177.403 39.915 177.392 39.629 177.37V178.668C39.882 178.657 40.41 178.646 40.828 178.646H44.337V180.109H40.179C39.783 180.109 39.409 180.087 39.222 180.065V181.418C39.409 181.407 39.86 181.385 40.168 181.385H44.337C44.337 181.55 44.337 181.726 44.326 181.825H45.712C45.712 181.627 45.701 181.253 45.701 181.077V175.555C45.701 175.324 45.701 174.961 45.712 174.818C45.536 174.829 45.129 174.84 44.865 174.84H40.707C40.3 174.84 39.629 174.818 39.343 174.785ZM50.651 172.64L49.617 173.74C50.42 174.301 51.795 175.5 52.367 176.116L53.489 174.972C52.851 174.301 51.421 173.157 50.651 172.64ZM49.276 179.966L50.2 181.418C51.751 181.154 53.17 180.538 54.281 179.867C56.052 178.8 57.515 177.282 58.351 175.797L57.493 174.246C56.8 175.731 55.37 177.414 53.489 178.525C52.422 179.163 50.992 179.724 49.276 179.966Z" fill="white"/>
<path d="M405 22H63V24H405V22Z" fill="#666666"/>
<path d="M404 60H63V62H404V60Z" fill="#666666"/>
<path d="M405 96H1V98H405V96Z" fill="#666666"/>
<path d="M405 128H1V130H405V128Z" fill="#666666"/>
<path d="M404 160H1V162H404V160Z" fill="#666666"/>
<path d="M117 60V24H115V60H117Z" fill="#666666"/>
<path d="M167 60V24H165V60H167Z" fill="#666666"/>
<path d="M217 62V24H215V62H217Z" fill="#666666"/>
<path d="M270 62V24H268V62H270Z" fill="#666666"/>
<path d="M217 197V97H215V197H217Z" fill="#666666"/>
<path d="M326 197V0L324 0V197H326Z" fill="#666666"/>
<path d="M217 194V0L215 0V194H217Z" fill="#666666"/>
<path d="M65 196L65 2H63L63 196H65Z" fill="#666666"/>
<path d="M123.578 117.109C123.25 117.104 122.922 117.042 122.594 116.922C122.266 116.802 121.966 116.6 121.695 116.316C121.424 116.03 121.207 115.643 121.043 115.156C120.879 114.667 120.797 114.052 120.797 113.312C120.797 112.604 120.863 111.977 120.996 111.43C121.129 110.88 121.322 110.418 121.574 110.043C121.827 109.665 122.132 109.379 122.488 109.184C122.848 108.988 123.253 108.891 123.703 108.891C124.151 108.891 124.549 108.98 124.898 109.16C125.25 109.337 125.536 109.585 125.758 109.902C125.979 110.22 126.122 110.586 126.188 111H125.234C125.146 110.641 124.974 110.342 124.719 110.105C124.464 109.868 124.125 109.75 123.703 109.75C123.083 109.75 122.595 110.02 122.238 110.559C121.884 111.098 121.706 111.854 121.703 112.828H121.766C121.911 112.607 122.085 112.418 122.285 112.262C122.488 112.103 122.712 111.98 122.957 111.895C123.202 111.809 123.461 111.766 123.734 111.766C124.193 111.766 124.612 111.88 124.992 112.109C125.372 112.336 125.677 112.65 125.906 113.051C126.135 113.449 126.25 113.906 126.25 114.422C126.25 114.917 126.139 115.37 125.918 115.781C125.697 116.19 125.385 116.516 124.984 116.758C124.586 116.997 124.117 117.115 123.578 117.109ZM123.578 116.25C123.906 116.25 124.201 116.168 124.461 116.004C124.724 115.84 124.931 115.62 125.082 115.344C125.236 115.068 125.313 114.76 125.313 114.422C125.313 114.091 125.238 113.79 125.09 113.52C124.944 113.246 124.742 113.029 124.484 112.867C124.229 112.706 123.938 112.625 123.609 112.625C123.362 112.625 123.132 112.674 122.918 112.773C122.704 112.87 122.517 113.003 122.355 113.172C122.197 113.341 122.072 113.535 121.98 113.754C121.889 113.97 121.844 114.198 121.844 114.437C121.844 114.755 121.918 115.052 122.066 115.328C122.217 115.604 122.423 115.827 122.684 115.996C122.947 116.165 123.245 116.25 123.578 116.25ZM128.801 115.906L128.738 116.328C128.694 116.625 128.626 116.943 128.535 117.281C128.447 117.62 128.354 117.939 128.258 118.238C128.161 118.538 128.082 118.776 128.02 118.953H127.316C127.35 118.786 127.395 118.566 127.449 118.293C127.504 118.02 127.559 117.714 127.613 117.375C127.671 117.039 127.717 116.695 127.754 116.344L127.801 115.906H128.801ZM132.87 117.109C132.542 117.104 132.214 117.042 131.886 116.922C131.558 116.802 131.258 116.6 130.987 116.316C130.716 116.03 130.499 115.643 130.335 115.156C130.171 114.667 130.089 114.052 130.089 113.312C130.089 112.604 130.155 111.977 130.288 111.43C130.421 110.88 130.614 110.418 130.866 110.043C131.119 109.665 131.424 109.379 131.78 109.184C132.14 108.988 132.545 108.891 132.995 108.891C133.443 108.891 133.841 108.98 134.19 109.16C134.542 109.337 134.828 109.585 135.05 109.902C135.271 110.22 135.414 110.586 135.479 111H134.526C134.438 110.641 134.266 110.342 134.011 110.105C133.756 109.868 133.417 109.75 132.995 109.75C132.375 109.75 131.887 110.02 131.53 110.559C131.176 111.098 130.998 111.854 130.995 112.828H131.058C131.203 112.607 131.377 112.418 131.577 112.262C131.78 112.103 132.004 111.98 132.249 111.895C132.494 111.809 132.753 111.766 133.026 111.766C133.485 111.766 133.904 111.88 134.284 112.109C134.664 112.336 134.969 112.65 135.198 113.051C135.427 113.449 135.542 113.906 135.542 114.422C135.542 114.917 135.431 115.37 135.21 115.781C134.989 116.19 134.677 116.516 134.276 116.758C133.878 116.997 133.409 117.115 132.87 117.109ZM132.87 116.25C133.198 116.25 133.493 116.168 133.753 116.004C134.016 115.84 134.223 115.62 134.374 115.344C134.528 115.068 134.604 114.76 134.604 114.422C134.604 114.091 134.53 113.79 134.382 113.52C134.236 113.246 134.034 113.029 133.776 112.867C133.521 112.706 133.229 112.625 132.901 112.625C132.654 112.625 132.424 112.674 132.21 112.773C131.996 112.87 131.809 113.003 131.647 113.172C131.489 113.341 131.364 113.535 131.272 113.754C131.181 113.97 131.136 114.198 131.136 114.437C131.136 114.755 131.21 115.052 131.358 115.328C131.509 115.604 131.715 115.827 131.976 115.996C132.239 116.165 132.537 116.25 132.87 116.25ZM139.688 117.109C139.099 117.109 138.598 116.949 138.184 116.629C137.77 116.306 137.453 115.839 137.234 115.227C137.016 114.612 136.906 113.87 136.906 113C136.906 112.135 137.016 111.397 137.234 110.785C137.456 110.171 137.773 109.702 138.188 109.379C138.604 109.053 139.104 108.891 139.688 108.891C140.271 108.891 140.77 109.053 141.184 109.379C141.6 109.702 141.918 110.171 142.137 110.785C142.358 111.397 142.469 112.135 142.469 113C142.469 113.87 142.359 114.612 142.141 115.227C141.922 115.839 141.605 116.306 141.191 116.629C140.777 116.949 140.276 117.109 139.688 117.109ZM139.688 116.25C140.271 116.25 140.724 115.969 141.047 115.406C141.37 114.844 141.531 114.042 141.531 113C141.531 112.307 141.457 111.717 141.309 111.23C141.163 110.743 140.952 110.372 140.676 110.117C140.402 109.862 140.073 109.734 139.688 109.734C139.109 109.734 138.658 110.02 138.332 110.59C138.007 111.158 137.844 111.961 137.844 113C137.844 113.693 137.917 114.281 138.063 114.766C138.208 115.25 138.418 115.618 138.691 115.871C138.967 116.124 139.299 116.25 139.688 116.25ZM146.562 117.109C145.974 117.109 145.473 116.949 145.059 116.629C144.645 116.306 144.328 115.839 144.109 115.227C143.891 114.612 143.781 113.87 143.781 113C143.781 112.135 143.891 111.397 144.109 110.785C144.331 110.171 144.648 109.702 145.063 109.379C145.479 109.053 145.979 108.891 146.562 108.891C147.146 108.891 147.645 109.053 148.059 109.379C148.475 109.702 148.793 110.171 149.012 110.785C149.233 111.397 149.344 112.135 149.344 113C149.344 113.87 149.234 114.612 149.016 115.227C148.797 115.839 148.48 116.306 148.066 116.629C147.652 116.949 147.151 117.109 146.562 117.109ZM146.562 116.25C147.146 116.25 147.599 115.969 147.922 115.406C148.245 114.844 148.406 114.042 148.406 113C148.406 112.307 148.332 111.717 148.184 111.23C148.038 110.743 147.827 110.372 147.551 110.117C147.277 109.862 146.948 109.734 146.562 109.734C145.984 109.734 145.533 110.02 145.207 110.59C144.882 111.158 144.719 111.961 144.719 113C144.719 113.693 144.792 114.281 144.938 114.766C145.083 115.25 145.293 115.618 145.566 115.871C145.842 116.124 146.174 116.25 146.562 116.25ZM155.874 112.567V109.344H159.218V112.567H155.874ZM151.848 109.344H155.071V112.567H151.848V109.344ZM160.043 108.552H151.034V117.847H151.848V113.381H159.218V116.747C159.218 116.956 159.141 117.022 158.943 117.022C158.734 117.033 158.019 117.044 157.271 117.011C157.392 117.231 157.535 117.605 157.579 117.825C158.558 117.825 159.174 117.814 159.537 117.682C159.911 117.539 160.043 117.275 160.043 116.747V108.552Z" fill="black"/>
<path d="M246.385 117L249.963 109.922V109.859H245.838V109H250.963V109.906L247.4 117H246.385ZM252.435 115.906L252.372 116.328C252.328 116.625 252.26 116.943 252.169 117.281C252.08 117.62 251.988 117.939 251.892 118.238C251.795 118.538 251.716 118.776 251.653 118.953H250.95C250.984 118.786 251.028 118.566 251.083 118.293C251.138 118.02 251.192 117.714 251.247 117.375C251.304 117.039 251.351 116.695 251.388 116.344L251.435 115.906H252.435ZM254.216 117L257.794 109.922V109.859H253.669V109H258.794V109.906L255.231 117H254.216ZM262.688 117.109C262.099 117.109 261.598 116.949 261.184 116.629C260.77 116.306 260.453 115.839 260.234 115.227C260.016 114.612 259.906 113.87 259.906 113C259.906 112.135 260.016 111.397 260.234 110.785C260.456 110.171 260.773 109.702 261.188 109.379C261.604 109.053 262.104 108.891 262.688 108.891C263.271 108.891 263.77 109.053 264.184 109.379C264.6 109.702 264.918 110.171 265.137 110.785C265.358 111.397 265.469 112.135 265.469 113C265.469 113.87 265.359 114.612 265.141 115.227C264.922 115.839 264.605 116.306 264.191 116.629C263.777 116.949 263.276 117.109 262.688 117.109ZM262.688 116.25C263.271 116.25 263.724 115.969 264.047 115.406C264.37 114.844 264.531 114.042 264.531 113C264.531 112.307 264.457 111.717 264.309 111.23C264.163 110.743 263.952 110.372 263.676 110.117C263.402 109.862 263.073 109.734 262.688 109.734C262.109 109.734 261.658 110.02 261.332 110.59C261.007 111.158 260.844 111.961 260.844 113C260.844 113.693 260.917 114.281 261.063 114.766C261.208 115.25 261.418 115.618 261.691 115.871C261.967 116.124 262.299 116.25 262.688 116.25ZM269.562 117.109C268.974 117.109 268.473 116.949 268.059 116.629C267.645 116.306 267.328 115.839 267.109 115.227C266.891 114.612 266.781 113.87 266.781 113C266.781 112.135 266.891 111.397 267.109 110.785C267.331 110.171 267.648 109.702 268.063 109.379C268.479 109.053 268.979 108.891 269.562 108.891C270.146 108.891 270.645 109.053 271.059 109.379C271.475 109.702 271.793 110.171 272.012 110.785C272.233 111.397 272.344 112.135 272.344 113C272.344 113.87 272.234 114.612 272.016 115.227C271.797 115.839 271.48 116.306 271.066 116.629C270.652 116.949 270.151 117.109 269.562 117.109ZM269.562 116.25C270.146 116.25 270.599 115.969 270.922 115.406C271.245 114.844 271.406 114.042 271.406 113C271.406 112.307 271.332 111.717 271.184 111.23C271.038 110.743 270.827 110.372 270.551 110.117C270.277 109.862 269.948 109.734 269.562 109.734C268.984 109.734 268.533 110.02 268.207 110.59C267.882 111.158 267.719 111.961 267.719 113C267.719 113.693 267.792 114.281 267.938 114.766C268.083 115.25 268.293 115.618 268.566 115.871C268.842 116.124 269.174 116.25 269.562 116.25ZM278.874 112.567V109.344H282.218V112.567H278.874ZM274.848 109.344H278.071V112.567H274.848V109.344ZM283.043 108.552H274.034V117.847H274.848V113.381H282.218V116.747C282.218 116.956 282.141 117.022 281.943 117.022C281.734 117.033 281.019 117.044 280.271 117.011C280.392 117.231 280.535 117.605 280.579 117.825C281.558 117.825 282.174 117.814 282.537 117.682C282.911 117.539 283.043 117.275 283.043 116.747V108.552Z" fill="black"/>
<path d="M352.219 118.227C351.781 118.227 351.394 118.136 351.058 117.953C350.725 117.768 350.464 117.514 350.278 117.191C350.091 116.866 349.998 116.495 350 116.079C349.998 115.753 350.052 115.453 350.162 115.177C350.273 114.9 350.424 114.669 350.615 114.483C350.809 114.296 351.024 114.177 351.263 114.127V114.081C350.95 113.986 350.701 113.779 350.517 113.461C350.331 113.141 350.24 112.777 350.242 112.369C350.24 111.978 350.324 111.629 350.495 111.321C350.664 111.012 350.898 110.77 351.196 110.592C351.495 110.414 351.836 110.326 352.219 110.326C352.597 110.326 352.935 110.414 353.232 110.592C353.53 110.77 353.764 111.012 353.933 111.321C354.106 111.629 354.193 111.978 354.195 112.369C354.193 112.777 354.098 113.141 353.911 113.461C353.726 113.779 353.481 113.986 353.175 114.081V114.127C353.411 114.177 353.623 114.296 353.813 114.483C354.002 114.669 354.153 114.9 354.266 115.177C354.378 115.453 354.435 115.753 354.438 116.079C354.435 116.495 354.34 116.866 354.151 117.191C353.964 117.514 353.703 117.768 353.37 117.953C353.038 118.136 352.655 118.227 352.219 118.227ZM352.219 117.401C352.514 117.401 352.769 117.344 352.984 117.232C353.198 117.12 353.364 116.961 353.481 116.755C353.598 116.55 353.658 116.31 353.659 116.034C353.658 115.744 353.594 115.487 353.468 115.264C353.343 115.042 353.172 114.866 352.955 114.738C352.74 114.611 352.495 114.547 352.219 114.547C351.941 114.547 351.692 114.611 351.473 114.738C351.256 114.866 351.085 115.042 350.96 115.264C350.837 115.487 350.776 115.744 350.778 116.034C350.776 116.31 350.832 116.55 350.947 116.755C351.063 116.961 351.231 117.12 351.448 117.232C351.664 117.344 351.921 117.401 352.219 117.401ZM352.219 113.751C352.452 113.751 352.66 113.696 352.841 113.585C353.024 113.476 353.166 113.322 353.271 113.124C353.374 112.926 353.428 112.694 353.43 112.429C353.428 112.168 353.376 111.942 353.274 111.749C353.172 111.554 353.031 111.404 352.85 111.298C352.669 111.19 352.459 111.136 352.219 111.136C351.974 111.136 351.761 111.19 351.578 111.298C351.395 111.404 351.254 111.554 351.154 111.749C351.054 111.942 351.005 112.168 351.007 112.429C351.005 112.694 351.055 112.926 351.157 113.124C351.262 113.322 351.405 113.476 351.587 113.585C351.77 113.696 351.981 113.751 352.219 113.751ZM356.592 117.07L356.542 117.476C356.505 117.762 356.45 118.067 356.376 118.392C356.303 118.718 356.228 119.025 356.149 119.313C356.071 119.601 356.005 119.83 355.955 120H355.381C355.409 119.839 355.445 119.628 355.49 119.365C355.534 119.103 355.579 118.809 355.623 118.483C355.67 118.16 355.708 117.829 355.738 117.492L355.776 117.07H356.592ZM357.974 118.122V117.446L360.128 114.667C360.381 114.342 360.589 114.058 360.753 113.818C360.916 113.576 361.038 113.348 361.116 113.134C361.197 112.92 361.238 112.694 361.238 112.458C361.238 112.188 361.182 111.955 361.071 111.757C360.964 111.558 360.814 111.406 360.626 111.298C360.437 111.19 360.224 111.136 359.988 111.136C359.737 111.136 359.519 111.198 359.332 111.321C359.146 111.441 359.003 111.61 358.901 111.828C358.801 112.046 358.751 112.301 358.751 112.594H357.999C357.999 112.143 358.087 111.748 358.263 111.408C358.44 111.066 358.68 110.801 358.984 110.611C359.29 110.421 359.633 110.326 360.014 110.326C360.396 110.326 360.735 110.421 361.031 110.611C361.326 110.801 361.558 111.058 361.725 111.381C361.893 111.704 361.977 112.063 361.977 112.458C361.977 112.742 361.933 113.018 361.847 113.289C361.762 113.556 361.612 113.855 361.4 114.186C361.19 114.514 360.898 114.915 360.524 115.388L359.057 117.236V117.296H362.092V118.122H357.974ZM365.449 118.227C365.074 118.227 364.738 118.14 364.438 117.965C364.138 117.79 363.898 117.549 363.718 117.244C363.537 116.938 363.438 116.59 363.421 116.199H364.186C364.216 116.547 364.35 116.835 364.588 117.063C364.828 117.289 365.115 117.401 365.449 117.401C365.716 117.401 365.955 117.327 366.163 117.18C366.373 117.032 366.537 116.829 366.657 116.571C366.778 116.311 366.839 116.017 366.839 115.689C366.839 115.353 366.776 115.054 366.65 114.791C366.527 114.526 366.357 114.317 366.14 114.164C365.924 114.011 365.676 113.933 365.397 113.931C365.197 113.928 364.993 113.965 364.782 114.04C364.572 114.112 364.399 114.206 364.263 114.322L363.523 114.216L363.919 110.431H367.31V111.257H364.581L364.352 113.526H364.39C364.524 113.401 364.692 113.296 364.894 113.214C365.095 113.131 365.306 113.09 365.525 113.09C365.925 113.09 366.28 113.203 366.593 113.428C366.908 113.651 367.154 113.956 367.332 114.344C367.513 114.732 367.603 115.175 367.603 115.673C367.603 116.165 367.51 116.602 367.323 116.988C367.138 117.371 366.883 117.674 366.558 117.897C366.233 118.117 365.863 118.227 365.449 118.227ZM370.999 118.227C370.519 118.227 370.11 118.073 369.772 117.766C369.434 117.455 369.176 117.006 368.997 116.418C368.819 115.826 368.729 115.113 368.729 114.277C368.729 113.445 368.819 112.735 368.997 112.147C369.178 111.557 369.437 111.106 369.775 110.795C370.115 110.482 370.523 110.326 370.999 110.326C371.475 110.326 371.883 110.482 372.22 110.795C372.56 111.106 372.819 111.557 372.998 112.147C373.178 112.735 373.269 113.445 373.269 114.277C373.269 115.113 373.179 115.826 373.001 116.418C372.823 117.006 372.564 117.455 372.226 117.766C371.888 118.073 371.479 118.227 370.999 118.227ZM370.999 117.401C371.475 117.401 371.845 117.131 372.109 116.59C372.372 116.049 372.504 115.278 372.504 114.277C372.504 113.61 372.443 113.043 372.322 112.575C372.203 112.107 372.031 111.75 371.806 111.505C371.582 111.259 371.314 111.136 370.999 111.136C370.527 111.136 370.159 111.411 369.893 111.959C369.628 112.506 369.495 113.278 369.495 114.277C369.495 114.943 369.554 115.508 369.673 115.974C369.792 116.44 369.963 116.794 370.186 117.037C370.411 117.28 370.682 117.401 370.999 117.401ZM378.598 113.86V110.761H381.327V113.86H378.598ZM375.312 110.761H377.943V113.86H375.312V110.761ZM382 110H374.648V118.937H375.312V114.643H381.327V117.879C381.327 118.08 381.264 118.143 381.102 118.143C380.932 118.154 380.348 118.165 379.738 118.133C379.837 118.344 379.953 118.704 379.989 118.915C380.788 118.915 381.291 118.905 381.587 118.778C381.892 118.641 382 118.387 382 117.879V110Z" fill="black"/>
<path d="M121.233 141V149H120.265V142.016H120.218L118.265 143.312V142.328L120.265 141H121.233ZM126.144 149.109C125.555 149.109 125.054 148.949 124.64 148.629C124.226 148.306 123.909 147.839 123.69 147.227C123.472 146.612 123.362 145.87 123.362 145C123.362 144.135 123.472 143.397 123.69 142.785C123.912 142.171 124.229 141.702 124.644 141.379C125.06 141.053 125.56 140.891 126.144 140.891C126.727 140.891 127.226 141.053 127.64 141.379C128.056 141.702 128.374 142.171 128.593 142.785C128.814 143.397 128.925 144.135 128.925 145C128.925 145.87 128.815 146.612 128.597 147.227C128.378 147.839 128.062 148.306 127.647 148.629C127.233 148.949 126.732 149.109 126.144 149.109ZM126.144 148.25C126.727 148.25 127.18 147.969 127.503 147.406C127.826 146.844 127.987 146.042 127.987 145C127.987 144.307 127.913 143.717 127.765 143.23C127.619 142.743 127.408 142.372 127.132 142.117C126.858 141.862 126.529 141.734 126.144 141.734C125.565 141.734 125.114 142.02 124.788 142.59C124.463 143.158 124.3 143.961 124.3 145C124.3 145.693 124.373 146.281 124.519 146.766C124.664 147.25 124.874 147.618 125.147 147.871C125.424 148.124 125.756 148.25 126.144 148.25ZM131.521 147.906L131.458 148.328C131.414 148.625 131.346 148.943 131.255 149.281C131.166 149.62 131.074 149.939 130.978 150.238C130.881 150.538 130.802 150.776 130.739 150.953H130.036C130.07 150.786 130.114 150.566 130.169 150.293C130.224 150.02 130.278 149.714 130.333 149.375C130.39 149.039 130.437 148.695 130.474 148.344L130.521 147.906H131.521ZM133.302 149L136.88 141.922V141.859H132.755V141H137.88V141.906L134.317 149H133.302ZM141.737 149.109C141.201 149.109 140.727 149.014 140.315 148.824C139.907 148.632 139.588 148.367 139.358 148.031C139.129 147.693 139.016 147.307 139.019 146.875C139.016 146.536 139.082 146.224 139.218 145.937C139.353 145.648 139.538 145.408 139.772 145.215C140.009 145.02 140.274 144.896 140.565 144.844V144.797C140.183 144.698 139.878 144.483 139.651 144.152C139.425 143.819 139.313 143.44 139.315 143.016C139.313 142.609 139.416 142.246 139.624 141.926C139.832 141.605 140.119 141.353 140.483 141.168C140.851 140.983 141.269 140.891 141.737 140.891C142.201 140.891 142.615 140.983 142.979 141.168C143.344 141.353 143.631 141.605 143.839 141.926C144.05 142.246 144.157 142.609 144.159 143.016C144.157 143.44 144.041 143.819 143.812 144.152C143.585 144.483 143.284 144.698 142.909 144.797V144.844C143.198 144.896 143.459 145.02 143.69 145.215C143.922 145.408 144.107 145.648 144.245 145.937C144.383 146.224 144.453 146.536 144.456 146.875C144.453 147.307 144.336 147.693 144.104 148.031C143.875 148.367 143.556 148.632 143.147 148.824C142.741 149.014 142.271 149.109 141.737 149.109ZM141.737 148.25C142.099 148.25 142.412 148.191 142.675 148.074C142.938 147.957 143.141 147.792 143.284 147.578C143.427 147.365 143.5 147.115 143.503 146.828C143.5 146.526 143.422 146.259 143.269 146.027C143.115 145.796 142.905 145.613 142.64 145.48C142.377 145.348 142.076 145.281 141.737 145.281C141.396 145.281 141.091 145.348 140.823 145.48C140.558 145.613 140.348 145.796 140.194 146.027C140.043 146.259 139.969 146.526 139.972 146.828C139.969 147.115 140.038 147.365 140.179 147.578C140.322 147.792 140.526 147.957 140.792 148.074C141.058 148.191 141.373 148.25 141.737 148.25ZM141.737 144.453C142.024 144.453 142.278 144.396 142.499 144.281C142.723 144.167 142.899 144.007 143.026 143.801C143.154 143.595 143.219 143.354 143.222 143.078C143.219 142.807 143.155 142.572 143.03 142.371C142.905 142.168 142.732 142.012 142.511 141.902C142.289 141.79 142.032 141.734 141.737 141.734C141.438 141.734 141.176 141.79 140.952 141.902C140.728 142.012 140.555 142.168 140.433 142.371C140.31 142.572 140.25 142.807 140.253 143.078C140.25 143.354 140.312 143.595 140.437 143.801C140.564 144.007 140.74 144.167 140.964 144.281C141.188 144.396 141.446 144.453 141.737 144.453ZM148.562 149.109C147.974 149.109 147.473 148.949 147.059 148.629C146.645 148.306 146.328 147.839 146.109 147.227C145.891 146.612 145.781 145.87 145.781 145C145.781 144.135 145.891 143.397 146.109 142.785C146.331 142.171 146.648 141.702 147.063 141.379C147.479 141.053 147.979 140.891 148.562 140.891C149.146 140.891 149.645 141.053 150.059 141.379C150.475 141.702 150.793 142.171 151.012 142.785C151.233 143.397 151.344 144.135 151.344 145C151.344 145.87 151.234 146.612 151.016 147.227C150.797 147.839 150.48 148.306 150.066 148.629C149.652 148.949 149.151 149.109 148.562 149.109ZM148.562 148.25C149.146 148.25 149.599 147.969 149.922 147.406C150.245 146.844 150.406 146.042 150.406 145C150.406 144.307 150.332 143.717 150.184 143.23C150.038 142.743 149.827 142.372 149.551 142.117C149.277 141.862 148.948 141.734 148.562 141.734C147.984 141.734 147.533 142.02 147.207 142.59C146.882 143.158 146.719 143.961 146.719 145C146.719 145.693 146.792 146.281 146.938 146.766C147.083 147.25 147.293 147.618 147.566 147.871C147.842 148.124 148.174 148.25 148.562 148.25ZM157.874 144.567V141.344H161.218V144.567H157.874ZM153.848 141.344H157.071V144.567H153.848V141.344ZM162.043 140.552H153.034V149.847H153.848V145.381H161.218V148.747C161.218 148.956 161.141 149.022 160.943 149.022C160.734 149.033 160.019 149.044 159.271 149.011C159.392 149.231 159.535 149.605 159.579 149.825C160.558 149.825 161.174 149.814 161.537 149.682C161.911 149.539 162.043 149.275 162.043 148.747V140.552Z" fill="black"/>
<path d="M122.224 180.69V182.648H117.417V180.69H122.224ZM116.603 183.891H117.417V183.385H122.224V183.858H123.071V179.931H116.603V183.891ZM117.978 175.674H122.037C121.487 176.334 120.739 176.939 119.903 177.456C119.111 176.961 118.418 176.389 117.89 175.773L117.978 175.674ZM122.785 174.904L122.642 174.948H118.594C118.836 174.64 119.056 174.31 119.254 173.98L118.473 173.705C117.703 175.058 116.372 176.29 114.997 177.038C115.184 177.181 115.492 177.489 115.624 177.643C116.218 177.28 116.812 176.818 117.373 176.29C117.879 176.873 118.495 177.401 119.177 177.885C117.758 178.633 116.163 179.183 114.711 179.491C114.854 179.667 115.041 180.008 115.107 180.228C116.691 179.854 118.396 179.227 119.914 178.369C121.278 179.194 122.84 179.821 124.435 180.184C124.556 179.964 124.776 179.623 124.963 179.436C123.445 179.139 121.949 178.6 120.673 177.907C121.762 177.17 122.708 176.301 123.346 175.289L122.785 174.904ZM128.879 183.109C128.364 183.109 127.904 183.021 127.5 182.844C127.099 182.667 126.78 182.421 126.543 182.105C126.309 181.788 126.181 181.419 126.161 181H127.145C127.166 181.258 127.254 181.48 127.411 181.668C127.567 181.853 127.771 181.996 128.024 182.098C128.277 182.199 128.556 182.25 128.864 182.25C129.208 182.25 129.512 182.19 129.778 182.07C130.043 181.951 130.252 181.784 130.403 181.57C130.554 181.357 130.629 181.109 130.629 180.828C130.629 180.534 130.556 180.275 130.411 180.051C130.265 179.824 130.051 179.647 129.77 179.52C129.489 179.392 129.145 179.328 128.739 179.328H128.098V178.469H128.739C129.056 178.469 129.335 178.411 129.575 178.297C129.817 178.182 130.006 178.021 130.141 177.812C130.279 177.604 130.348 177.359 130.348 177.078C130.348 176.807 130.288 176.572 130.168 176.371C130.049 176.171 129.879 176.014 129.661 175.902C129.444 175.79 129.189 175.734 128.895 175.734C128.619 175.734 128.359 175.785 128.114 175.887C127.872 175.986 127.674 176.13 127.52 176.32C127.366 176.508 127.283 176.734 127.27 177H126.333C126.348 176.581 126.474 176.214 126.711 175.898C126.948 175.581 127.258 175.333 127.641 175.156C128.027 174.979 128.45 174.891 128.911 174.891C129.405 174.891 129.83 174.991 130.184 175.191C130.538 175.389 130.81 175.651 131 175.977C131.191 176.302 131.286 176.654 131.286 177.031C131.286 177.482 131.167 177.866 130.93 178.184C130.696 178.501 130.377 178.721 129.973 178.844V178.906C130.478 178.99 130.873 179.204 131.157 179.551C131.441 179.895 131.583 180.32 131.583 180.828C131.583 181.263 131.464 181.654 131.227 182C130.993 182.344 130.672 182.615 130.266 182.812C129.86 183.01 129.398 183.109 128.879 183.109ZM134.324 181.906L134.261 182.328C134.217 182.625 134.149 182.943 134.058 183.281C133.97 183.62 133.877 183.939 133.781 184.238C133.684 184.538 133.605 184.776 133.542 184.953H132.839C132.873 184.786 132.917 184.566 132.972 184.293C133.027 184.02 133.082 183.714 133.136 183.375C133.194 183.039 133.24 182.695 133.277 182.344L133.324 181.906H134.324ZM138.393 183.109C138.065 183.104 137.737 183.042 137.409 182.922C137.081 182.802 136.781 182.6 136.51 182.316C136.239 182.03 136.022 181.643 135.858 181.156C135.694 180.667 135.612 180.052 135.612 179.312C135.612 178.604 135.678 177.977 135.811 177.43C135.944 176.88 136.137 176.418 136.389 176.043C136.642 175.665 136.946 175.379 137.303 175.184C137.663 174.988 138.068 174.891 138.518 174.891C138.966 174.891 139.364 174.98 139.713 175.16C140.065 175.337 140.351 175.585 140.573 175.902C140.794 176.22 140.937 176.586 141.002 177H140.049C139.961 176.641 139.789 176.342 139.534 176.105C139.278 175.868 138.94 175.75 138.518 175.75C137.898 175.75 137.41 176.02 137.053 176.559C136.699 177.098 136.521 177.854 136.518 178.828H136.581C136.726 178.607 136.9 178.418 137.1 178.262C137.303 178.103 137.527 177.98 137.772 177.895C138.017 177.809 138.276 177.766 138.549 177.766C139.008 177.766 139.427 177.88 139.807 178.109C140.187 178.336 140.492 178.65 140.721 179.051C140.95 179.449 141.065 179.906 141.065 180.422C141.065 180.917 140.954 181.37 140.733 181.781C140.512 182.19 140.2 182.516 139.799 182.758C139.401 182.997 138.932 183.115 138.393 183.109ZM138.393 182.25C138.721 182.25 139.015 182.168 139.276 182.004C139.539 181.84 139.746 181.62 139.897 181.344C140.051 181.068 140.127 180.76 140.127 180.422C140.127 180.091 140.053 179.79 139.905 179.52C139.759 179.246 139.557 179.029 139.299 178.867C139.044 178.706 138.752 178.625 138.424 178.625C138.177 178.625 137.946 178.674 137.733 178.773C137.519 178.87 137.332 179.003 137.17 179.172C137.012 179.341 136.887 179.535 136.795 179.754C136.704 179.97 136.659 180.198 136.659 180.437C136.659 180.755 136.733 181.052 136.881 181.328C137.032 181.604 137.238 181.827 137.499 181.996C137.762 182.165 138.06 182.25 138.393 182.25ZM145.304 183.109C144.789 183.109 144.329 183.021 143.925 182.844C143.524 182.667 143.205 182.421 142.968 182.105C142.734 181.788 142.606 181.419 142.585 181H143.57C143.591 181.258 143.679 181.48 143.835 181.668C143.992 181.853 144.196 181.996 144.449 182.098C144.701 182.199 144.981 182.25 145.289 182.25C145.632 182.25 145.937 182.19 146.203 182.07C146.468 181.951 146.677 181.784 146.828 181.57C146.979 181.357 147.054 181.109 147.054 180.828C147.054 180.534 146.981 180.275 146.835 180.051C146.69 179.824 146.476 179.647 146.195 179.52C145.914 179.392 145.57 179.328 145.164 179.328H144.523V178.469H145.164C145.481 178.469 145.76 178.411 146 178.297C146.242 178.182 146.431 178.021 146.566 177.812C146.704 177.604 146.773 177.359 146.773 177.078C146.773 176.807 146.713 176.572 146.593 176.371C146.473 176.171 146.304 176.014 146.085 175.902C145.869 175.79 145.614 175.734 145.32 175.734C145.044 175.734 144.783 175.785 144.539 175.887C144.296 175.986 144.098 176.13 143.945 176.32C143.791 176.508 143.708 176.734 143.695 177H142.757C142.773 176.581 142.899 176.214 143.136 175.898C143.373 175.581 143.683 175.333 144.066 175.156C144.451 174.979 144.875 174.891 145.335 174.891C145.83 174.891 146.255 174.991 146.609 175.191C146.963 175.389 147.235 175.651 147.425 175.977C147.615 176.302 147.71 176.654 147.71 177.031C147.71 177.482 147.592 177.866 147.355 178.184C147.121 178.501 146.802 178.721 146.398 178.844V178.906C146.903 178.99 147.298 179.204 147.582 179.551C147.865 179.895 148.007 180.32 148.007 180.828C148.007 181.263 147.889 181.654 147.652 182C147.417 182.344 147.097 182.615 146.691 182.812C146.285 183.01 145.822 183.109 145.304 183.109ZM152.214 183.109C151.626 183.109 151.125 182.949 150.71 182.629C150.296 182.306 149.98 181.839 149.761 181.227C149.542 180.612 149.433 179.87 149.433 179C149.433 178.135 149.542 177.397 149.761 176.785C149.983 176.171 150.3 175.702 150.714 175.379C151.131 175.053 151.631 174.891 152.214 174.891C152.798 174.891 153.296 175.053 153.71 175.379C154.127 175.702 154.445 176.171 154.664 176.785C154.885 177.397 154.996 178.135 154.996 179C154.996 179.87 154.886 180.612 154.667 181.227C154.449 181.839 154.132 182.306 153.718 182.629C153.304 182.949 152.803 183.109 152.214 183.109ZM152.214 182.25C152.798 182.25 153.251 181.969 153.574 181.406C153.897 180.844 154.058 180.042 154.058 179C154.058 178.307 153.984 177.717 153.835 177.23C153.69 176.743 153.479 176.372 153.203 176.117C152.929 175.862 152.6 175.734 152.214 175.734C151.636 175.734 151.184 176.02 150.859 176.59C150.533 177.158 150.371 177.961 150.371 179C150.371 179.693 150.444 180.281 150.589 180.766C150.735 181.25 150.945 181.618 151.218 181.871C151.494 182.124 151.826 182.25 152.214 182.25ZM161.526 178.567V175.344H164.87V178.567H161.526ZM157.5 175.344H160.723V178.567H157.5V175.344ZM165.695 174.552H156.686V183.847H157.5V179.381H164.87V182.747C164.87 182.956 164.793 183.022 164.595 183.022C164.386 183.033 163.671 183.044 162.923 183.011C163.044 183.231 163.187 183.605 163.231 183.825C164.21 183.825 164.826 183.814 165.189 183.682C165.563 183.539 165.695 183.275 165.695 182.747V174.552Z" fill="black"/>
<path d="M245.907 180.69V182.648H241.1V180.69H245.907ZM240.286 183.891H241.1V183.385H245.907V183.858H246.754V179.931H240.286V183.891ZM241.661 175.674H245.72C245.17 176.334 244.422 176.939 243.586 177.456C242.794 176.961 242.101 176.389 241.573 175.773L241.661 175.674ZM246.468 174.904L246.325 174.948H242.277C242.519 174.64 242.739 174.31 242.937 173.98L242.156 173.705C241.386 175.058 240.055 176.29 238.68 177.038C238.867 177.181 239.175 177.489 239.307 177.643C239.901 177.28 240.495 176.818 241.056 176.29C241.562 176.873 242.178 177.401 242.86 177.885C241.441 178.633 239.846 179.183 238.394 179.491C238.537 179.667 238.724 180.008 238.79 180.228C240.374 179.854 242.079 179.227 243.597 178.369C244.961 179.194 246.523 179.821 248.118 180.184C248.239 179.964 248.459 179.623 248.646 179.436C247.128 179.139 245.632 178.6 244.356 177.907C245.445 177.17 246.391 176.301 247.029 175.289L246.468 174.904ZM252.562 183.109C252.046 183.109 251.587 183.021 251.183 182.844C250.782 182.667 250.463 182.421 250.226 182.105C249.992 181.788 249.864 181.419 249.843 181H250.828C250.848 181.258 250.937 181.48 251.093 181.668C251.25 181.853 251.454 181.996 251.707 182.098C251.959 182.199 252.239 182.25 252.546 182.25C252.89 182.25 253.195 182.19 253.46 182.07C253.726 181.951 253.934 181.784 254.085 181.57C254.236 181.357 254.312 181.109 254.312 180.828C254.312 180.534 254.239 180.275 254.093 180.051C253.947 179.824 253.734 179.647 253.453 179.52C253.171 179.392 252.828 179.328 252.421 179.328H251.781V178.469H252.421C252.739 178.469 253.018 178.411 253.257 178.297C253.5 178.182 253.688 178.021 253.824 177.812C253.962 177.604 254.031 177.359 254.031 177.078C254.031 176.807 253.971 176.572 253.851 176.371C253.731 176.171 253.562 176.014 253.343 175.902C253.127 175.79 252.872 175.734 252.578 175.734C252.302 175.734 252.041 175.785 251.796 175.887C251.554 175.986 251.356 176.13 251.203 176.32C251.049 176.508 250.966 176.734 250.953 177H250.015C250.031 176.581 250.157 176.214 250.394 175.898C250.631 175.581 250.941 175.333 251.324 175.156C251.709 174.979 252.132 174.891 252.593 174.891C253.088 174.891 253.513 174.991 253.867 175.191C254.221 175.389 254.493 175.651 254.683 175.977C254.873 176.302 254.968 176.654 254.968 177.031C254.968 177.482 254.85 177.866 254.613 178.184C254.378 178.501 254.059 178.721 253.656 178.844V178.906C254.161 178.99 254.556 179.204 254.839 179.551C255.123 179.895 255.265 180.32 255.265 180.828C255.265 181.263 255.147 181.654 254.91 182C254.675 182.344 254.355 182.615 253.949 182.812C253.542 183.01 253.08 183.109 252.562 183.109ZM258.006 181.906L257.944 182.328C257.9 182.625 257.832 182.943 257.741 183.281C257.652 183.62 257.56 183.939 257.463 184.238C257.367 184.538 257.288 184.776 257.225 184.953H256.522C256.556 184.786 256.6 184.566 256.655 184.293C256.709 184.02 256.764 183.714 256.819 183.375C256.876 183.039 256.923 182.695 256.959 182.344L257.006 181.906H258.006ZM262.014 183.109C261.478 183.109 261.004 183.014 260.592 182.824C260.183 182.632 259.864 182.367 259.635 182.031C259.406 181.693 259.293 181.307 259.295 180.875C259.293 180.536 259.359 180.224 259.495 179.937C259.63 179.648 259.815 179.408 260.049 179.215C260.286 179.02 260.551 178.896 260.842 178.844V178.797C260.459 178.698 260.155 178.483 259.928 178.152C259.702 177.819 259.59 177.44 259.592 177.016C259.59 176.609 259.693 176.246 259.901 175.926C260.109 175.605 260.396 175.353 260.76 175.168C261.127 174.983 261.545 174.891 262.014 174.891C262.478 174.891 262.892 174.983 263.256 175.168C263.621 175.353 263.907 175.605 264.116 175.926C264.327 176.246 264.433 176.609 264.436 177.016C264.433 177.44 264.318 177.819 264.088 178.152C263.862 178.483 263.561 178.698 263.186 178.797V178.844C263.475 178.896 263.736 179.02 263.967 179.215C264.199 179.408 264.384 179.648 264.522 179.937C264.66 180.224 264.73 180.536 264.733 180.875C264.73 181.307 264.613 181.693 264.381 182.031C264.152 182.367 263.833 182.632 263.424 182.824C263.018 183.014 262.548 183.109 262.014 183.109ZM262.014 182.25C262.376 182.25 262.689 182.191 262.952 182.074C263.215 181.957 263.418 181.792 263.561 181.578C263.704 181.365 263.777 181.115 263.78 180.828C263.777 180.526 263.699 180.259 263.545 180.027C263.392 179.796 263.182 179.613 262.917 179.48C262.653 179.348 262.353 179.281 262.014 179.281C261.673 179.281 261.368 179.348 261.1 179.48C260.834 179.613 260.625 179.796 260.471 180.027C260.32 180.259 260.246 180.526 260.249 180.828C260.246 181.115 260.315 181.365 260.456 181.578C260.599 181.792 260.803 181.957 261.069 182.074C261.334 182.191 261.65 182.25 262.014 182.25ZM262.014 178.453C262.301 178.453 262.555 178.396 262.776 178.281C263 178.167 263.176 178.007 263.303 177.801C263.431 177.595 263.496 177.354 263.499 177.078C263.496 176.807 263.432 176.572 263.307 176.371C263.182 176.168 263.009 176.012 262.788 175.902C262.566 175.79 262.308 175.734 262.014 175.734C261.715 175.734 261.453 175.79 261.229 175.902C261.005 176.012 260.832 176.168 260.709 176.371C260.587 176.572 260.527 176.807 260.53 177.078C260.527 177.354 260.588 177.595 260.713 177.801C260.841 178.007 261.017 178.167 261.241 178.281C261.465 178.396 261.722 178.453 262.014 178.453ZM268.73 183.109C268.272 183.109 267.859 183.018 267.492 182.836C267.125 182.654 266.83 182.404 266.609 182.086C266.388 181.768 266.266 181.406 266.246 181H267.183C267.22 181.362 267.384 181.661 267.675 181.898C267.97 182.133 268.321 182.25 268.73 182.25C269.058 182.25 269.35 182.173 269.605 182.02C269.863 181.866 270.065 181.655 270.21 181.387C270.359 181.116 270.433 180.81 270.433 180.469C270.433 180.12 270.356 179.809 270.203 179.535C270.052 179.259 269.843 179.042 269.578 178.883C269.312 178.724 269.009 178.643 268.667 178.641C268.423 178.638 268.171 178.676 267.914 178.754C267.656 178.829 267.444 178.927 267.277 179.047L266.371 178.937L266.855 175H271.011V175.859H267.667L267.386 178.219H267.433C267.597 178.089 267.803 177.98 268.05 177.895C268.298 177.809 268.556 177.766 268.824 177.766C269.313 177.766 269.75 177.883 270.132 178.117C270.518 178.349 270.82 178.667 271.039 179.07C271.26 179.474 271.371 179.935 271.371 180.453C271.371 180.964 271.256 181.419 271.027 181.82C270.8 182.219 270.488 182.534 270.089 182.766C269.691 182.995 269.238 183.109 268.73 183.109ZM275.532 183.109C274.943 183.109 274.442 182.949 274.028 182.629C273.614 182.306 273.297 181.839 273.079 181.227C272.86 180.612 272.75 179.87 272.75 179C272.75 178.135 272.86 177.397 273.079 176.785C273.3 176.171 273.618 175.702 274.032 175.379C274.448 175.053 274.948 174.891 275.532 174.891C276.115 174.891 276.614 175.053 277.028 175.379C277.444 175.702 277.762 176.171 277.981 176.785C278.202 177.397 278.313 178.135 278.313 179C278.313 179.87 278.204 180.612 277.985 181.227C277.766 181.839 277.45 182.306 277.036 182.629C276.622 182.949 276.12 183.109 275.532 183.109ZM275.532 182.25C276.115 182.25 276.568 181.969 276.891 181.406C277.214 180.844 277.375 180.042 277.375 179C277.375 178.307 277.301 177.717 277.153 177.23C277.007 176.743 276.796 176.372 276.52 176.117C276.247 175.862 275.917 175.734 275.532 175.734C274.954 175.734 274.502 176.02 274.176 176.59C273.851 177.158 273.688 177.961 273.688 179C273.688 179.693 273.761 180.281 273.907 180.766C274.053 181.25 274.262 181.618 274.536 181.871C274.812 182.124 275.144 182.25 275.532 182.25ZM284.843 178.567V175.344H288.187V178.567H284.843ZM280.817 175.344H284.04V178.567H280.817V175.344ZM289.012 174.552H280.003V183.847H280.817V179.381H288.187V182.747C288.187 182.956 288.11 183.022 287.912 183.022C287.703 183.033 286.988 183.044 286.24 183.011C286.361 183.231 286.504 183.605 286.548 183.825C287.527 183.825 288.143 183.814 288.506 183.682C288.88 183.539 289.012 183.275 289.012 182.747V174.552Z" fill="black"/>
<path d="M245.32 140V148H244.352V141.016H244.305L242.352 142.312V141.328L244.352 140H245.32ZM247.621 148V147.297L250.262 144.406C250.572 144.068 250.827 143.773 251.027 143.523C251.228 143.271 251.376 143.034 251.473 142.812C251.572 142.589 251.621 142.354 251.621 142.109C251.621 141.828 251.553 141.585 251.418 141.379C251.285 141.173 251.103 141.014 250.871 140.902C250.639 140.79 250.379 140.734 250.09 140.734C249.783 140.734 249.514 140.798 249.285 140.926C249.059 141.051 248.883 141.227 248.758 141.453C248.635 141.68 248.574 141.945 248.574 142.25H247.652C247.652 141.781 247.76 141.37 247.977 141.016C248.193 140.661 248.487 140.385 248.859 140.187C249.234 139.99 249.655 139.891 250.121 139.891C250.59 139.891 251.005 139.99 251.367 140.187C251.729 140.385 252.013 140.652 252.219 140.988C252.424 141.324 252.527 141.698 252.527 142.109C252.527 142.404 252.474 142.691 252.367 142.973C252.263 143.251 252.081 143.562 251.82 143.906C251.562 144.247 251.204 144.664 250.746 145.156L248.949 147.078V147.141H252.668V148H247.621ZM255.672 146.906L255.609 147.328C255.565 147.625 255.497 147.943 255.406 148.281C255.318 148.62 255.225 148.939 255.129 149.238C255.033 149.538 254.953 149.776 254.891 149.953H254.188C254.221 149.786 254.266 149.566 254.32 149.293C254.375 149.02 254.43 148.714 254.484 148.375C254.542 148.039 254.589 147.695 254.625 147.344L254.672 146.906H255.672ZM259.703 148.109C259.245 148.109 258.832 148.018 258.465 147.836C258.098 147.654 257.803 147.404 257.582 147.086C257.361 146.768 257.24 146.406 257.219 146H258.156C258.193 146.362 258.357 146.661 258.648 146.898C258.943 147.133 259.294 147.25 259.703 147.25C260.031 147.25 260.323 147.173 260.578 147.02C260.836 146.866 261.038 146.655 261.184 146.387C261.332 146.116 261.406 145.81 261.406 145.469C261.406 145.12 261.329 144.809 261.176 144.535C261.025 144.259 260.816 144.042 260.551 143.883C260.285 143.724 259.982 143.643 259.641 143.641C259.396 143.638 259.145 143.676 258.887 143.754C258.629 143.829 258.417 143.927 258.25 144.047L257.344 143.937L257.828 140H261.984V140.859H258.641L258.359 143.219H258.406C258.57 143.089 258.776 142.98 259.023 142.895C259.271 142.809 259.529 142.766 259.797 142.766C260.286 142.766 260.723 142.883 261.105 143.117C261.491 143.349 261.793 143.667 262.012 144.07C262.233 144.474 262.344 144.935 262.344 145.453C262.344 145.964 262.229 146.419 262 146.82C261.773 147.219 261.461 147.534 261.063 147.766C260.664 147.995 260.211 148.109 259.703 148.109ZM263.708 146.359V145.562L267.224 140H267.802V141.234H267.411L264.755 145.437V145.5H269.489V146.359H263.708ZM267.474 148V146.117V145.746V140H268.396V148H267.474ZM273.562 148.109C272.974 148.109 272.473 147.949 272.059 147.629C271.645 147.306 271.328 146.839 271.109 146.227C270.891 145.612 270.781 144.87 270.781 144C270.781 143.135 270.891 142.397 271.109 141.785C271.331 141.171 271.648 140.702 272.063 140.379C272.479 140.053 272.979 139.891 273.562 139.891C274.146 139.891 274.645 140.053 275.059 140.379C275.475 140.702 275.793 141.171 276.012 141.785C276.233 142.397 276.344 143.135 276.344 144C276.344 144.87 276.234 145.612 276.016 146.227C275.797 146.839 275.48 147.306 275.066 147.629C274.652 147.949 274.151 148.109 273.562 148.109ZM273.562 147.25C274.146 147.25 274.599 146.969 274.922 146.406C275.245 145.844 275.406 145.042 275.406 144C275.406 143.307 275.332 142.717 275.184 142.23C275.038 141.743 274.827 141.372 274.551 141.117C274.277 140.862 273.948 140.734 273.562 140.734C272.984 140.734 272.533 141.02 272.207 141.59C271.882 142.158 271.719 142.961 271.719 144C271.719 144.693 271.792 145.281 271.938 145.766C272.083 146.25 272.293 146.618 272.566 146.871C272.842 147.124 273.174 147.25 273.562 147.25ZM282.874 143.567V140.344H286.218V143.567H282.874ZM278.848 140.344H282.071V143.567H278.848V140.344ZM287.043 139.552H278.034V148.847H278.848V144.381H286.218V147.747C286.218 147.956 286.141 148.022 285.943 148.022C285.734 148.033 285.019 148.044 284.271 148.011C284.392 148.231 284.535 148.605 284.579 148.825C285.558 148.825 286.174 148.814 286.537 148.682C286.911 148.539 287.043 148.275 287.043 147.747V139.552Z" fill="black"/>
<path d="M350.38 141.431V149.122H349.603V142.408H349.565L348 143.654V142.708L349.603 141.431H350.38ZM354.39 149.227C353.977 149.227 353.608 149.142 353.285 148.972C352.964 148.802 352.708 148.566 352.518 148.262C352.33 147.957 352.228 147.602 352.211 147.199H353C353.016 147.447 353.088 147.661 353.213 147.842C353.338 148.02 353.502 148.157 353.704 148.255C353.907 148.352 354.131 148.401 354.377 148.401C354.653 148.401 354.897 148.344 355.11 148.228C355.323 148.114 355.49 147.953 355.611 147.747C355.732 147.543 355.793 147.304 355.793 147.034C355.793 146.751 355.734 146.502 355.617 146.287C355.5 146.069 355.33 145.899 355.104 145.776C354.878 145.653 354.603 145.592 354.277 145.592H353.763V144.766H354.277C354.532 144.766 354.755 144.71 354.947 144.601C355.141 144.49 355.293 144.335 355.401 144.134C355.511 143.934 355.567 143.699 355.567 143.429C355.567 143.168 355.519 142.942 355.423 142.749C355.327 142.557 355.192 142.406 355.016 142.298C354.843 142.19 354.639 142.136 354.402 142.136C354.181 142.136 353.973 142.185 353.776 142.284C353.582 142.379 353.424 142.517 353.3 142.7C353.178 142.881 353.11 143.098 353.1 143.354H352.349C352.361 142.951 352.463 142.598 352.653 142.294C352.843 141.989 353.091 141.751 353.397 141.581C353.707 141.411 354.046 141.326 354.415 141.326C354.812 141.326 355.152 141.422 355.435 141.614C355.719 141.805 355.938 142.057 356.09 142.37C356.242 142.683 356.319 143.021 356.319 143.383C356.319 143.817 356.223 144.186 356.033 144.492C355.846 144.797 355.59 145.008 355.266 145.127V145.186C355.672 145.267 355.988 145.473 356.215 145.806C356.443 146.137 356.557 146.546 356.557 147.034C356.557 147.452 356.461 147.828 356.271 148.161C356.084 148.492 355.827 148.752 355.501 148.942C355.176 149.132 354.805 149.227 354.39 149.227ZM358.753 148.07L358.703 148.476C358.668 148.762 358.613 149.067 358.54 149.392C358.47 149.718 358.395 150.025 358.318 150.313C358.241 150.601 358.177 150.83 358.128 151H357.564C357.591 150.839 357.627 150.628 357.67 150.365C357.714 150.103 357.758 149.809 357.801 149.483C357.848 149.16 357.885 148.829 357.914 148.492L357.952 148.07H358.753ZM359.96 147.545V146.778L362.777 141.431H363.241V142.617H362.928L360.799 146.658V146.719H364.593V147.545H359.96ZM362.977 149.122V147.312V146.955V141.431H363.716V149.122H362.977ZM365.766 149.122V148.446L367.883 145.667C368.131 145.342 368.336 145.058 368.496 144.818C368.657 144.576 368.776 144.348 368.854 144.134C368.932 143.92 368.972 143.694 368.972 143.458C368.972 143.188 368.918 142.955 368.81 142.757C368.703 142.558 368.557 142.406 368.371 142.298C368.185 142.19 367.977 142.136 367.745 142.136C367.498 142.136 367.284 142.198 367.1 142.321C366.918 142.441 366.778 142.61 366.678 142.828C366.579 143.046 366.53 143.301 366.53 143.594H365.791C365.791 143.143 365.878 142.748 366.051 142.408C366.225 142.066 366.46 141.801 366.759 141.611C367.059 141.421 367.397 141.326 367.77 141.326C368.146 141.326 368.479 141.421 368.769 141.611C369.059 141.801 369.286 142.058 369.452 142.381C369.616 142.704 369.698 143.063 369.698 143.458C369.698 143.742 369.656 144.018 369.57 144.289C369.487 144.556 369.341 144.855 369.132 145.186C368.925 145.514 368.638 145.915 368.271 146.388L366.831 148.236V148.296H369.811V149.122H365.766ZM373.195 149.227C372.724 149.227 372.322 149.073 371.991 148.766C371.659 148.455 371.405 148.006 371.229 147.418C371.055 146.826 370.966 146.113 370.966 145.277C370.966 144.445 371.055 143.735 371.229 143.147C371.407 142.557 371.661 142.106 371.994 141.795C372.327 141.482 372.728 141.326 373.195 141.326C373.663 141.326 374.063 141.482 374.395 141.795C374.729 142.106 374.983 142.557 375.159 143.147C375.336 143.735 375.425 144.445 375.425 145.277C375.425 146.113 375.337 146.826 375.162 147.418C374.987 148.006 374.732 148.455 374.401 148.766C374.069 149.073 373.667 149.227 373.195 149.227ZM373.195 148.401C373.663 148.401 374.026 148.131 374.285 147.59C374.544 147.049 374.673 146.278 374.673 145.277C374.673 144.61 374.614 144.043 374.495 143.575C374.378 143.107 374.209 142.75 373.988 142.505C373.768 142.259 373.505 142.136 373.195 142.136C372.732 142.136 372.371 142.411 372.109 142.959C371.849 143.506 371.718 144.278 371.718 145.277C371.718 145.943 371.777 146.508 371.894 146.974C372.01 147.44 372.178 147.794 372.397 148.037C372.618 148.28 372.884 148.401 373.195 148.401ZM380.659 144.86V141.761H383.339V144.86H380.659ZM377.432 141.761H380.015V144.86H377.432V141.761ZM384 141H376.779V149.937H377.432V145.643H383.339V148.879C383.339 149.08 383.277 149.143 383.118 149.143C382.951 149.154 382.378 149.165 381.778 149.133C381.875 149.344 381.99 149.704 382.025 149.915C382.81 149.915 383.303 149.905 383.594 149.778C383.894 149.641 384 149.387 384 148.879V141Z" fill="black"/>
<path d="M350 182.545V181.778L352.828 176.431H353.293V177.617H352.979L350.842 181.658V181.719H354.651V182.545H350ZM353.029 184.122V182.312V181.955V176.431H353.771V184.122H353.029ZM356.644 183.07L356.594 183.476C356.559 183.762 356.504 184.067 356.431 184.392C356.359 184.718 356.285 185.025 356.207 185.313C356.13 185.601 356.066 185.83 356.016 186H355.45C355.478 185.839 355.513 185.628 355.557 185.365C355.601 185.103 355.645 184.809 355.689 184.483C355.735 184.16 355.773 183.829 355.803 183.492L355.84 183.07H356.644ZM359.88 184.227C359.407 184.227 359.004 184.073 358.671 183.766C358.337 183.455 358.082 183.006 357.907 182.418C357.731 181.826 357.643 181.113 357.643 180.277C357.643 179.445 357.731 178.735 357.907 178.147C358.085 177.557 358.341 177.106 358.674 176.795C359.009 176.482 359.411 176.326 359.88 176.326C360.349 176.326 360.751 176.482 361.084 176.795C361.419 177.106 361.674 177.557 361.851 178.147C362.028 178.735 362.118 179.445 362.118 180.277C362.118 181.113 362.03 181.826 361.854 182.418C361.678 183.006 361.423 183.455 361.09 183.766C360.757 184.073 360.353 184.227 359.88 184.227ZM359.88 183.401C360.349 183.401 360.714 183.131 360.974 182.59C361.234 182.049 361.364 181.278 361.364 180.277C361.364 179.61 361.304 179.043 361.184 178.575C361.067 178.107 360.897 177.75 360.675 177.505C360.456 177.259 360.19 177.136 359.88 177.136C359.415 177.136 359.052 177.411 358.79 177.959C358.528 178.506 358.397 179.278 358.397 180.277C358.397 180.943 358.456 181.508 358.573 181.974C358.691 182.44 358.859 182.794 359.079 183.037C359.301 183.28 359.568 183.401 359.88 183.401ZM363.34 184.122L366.219 177.317V177.257H362.9V176.431H367.023V177.302L364.157 184.122H363.34ZM370.155 184.227C369.682 184.227 369.278 184.073 368.945 183.766C368.612 183.455 368.358 183.006 368.182 182.418C368.005 181.826 367.918 181.113 367.918 180.277C367.918 179.445 368.005 178.735 368.182 178.147C368.36 177.557 368.615 177.106 368.948 176.795C369.284 176.482 369.686 176.326 370.155 176.326C370.625 176.326 371.025 176.482 371.358 176.795C371.694 177.106 371.95 177.557 372.126 178.147C372.304 178.735 372.393 179.445 372.393 180.277C372.393 181.113 372.305 181.826 372.128 182.418C371.953 183.006 371.698 183.455 371.365 183.766C371.032 184.073 370.629 184.227 370.155 184.227ZM370.155 183.401C370.625 183.401 370.989 183.131 371.249 182.59C371.509 182.049 371.638 181.278 371.638 180.277C371.638 179.61 371.579 179.043 371.459 178.575C371.342 178.107 371.173 177.75 370.951 177.505C370.73 177.259 370.466 177.136 370.155 177.136C369.69 177.136 369.326 177.411 369.065 177.959C368.803 178.506 368.672 179.278 368.672 180.277C368.672 180.943 368.73 181.508 368.848 181.974C368.965 182.44 369.134 182.794 369.354 183.037C369.576 183.28 369.843 183.401 370.155 183.401ZM377.646 179.86V176.761H380.336V179.86H377.646ZM374.407 176.761H377V179.86H374.407V176.761ZM381 176H373.753V184.937H374.407V180.643H380.336V183.879C380.336 184.08 380.274 184.143 380.115 184.143C379.947 184.154 379.372 184.165 378.77 184.133C378.867 184.344 378.982 184.704 379.018 184.915C379.805 184.915 380.301 184.905 380.593 184.778C380.894 184.641 381 184.387 381 183.879V176Z" fill="black"/>
<path d="M0.833374 1.44727L63.8334 96.4472" stroke="#666666" stroke-width="2"/>
</svg>
